<?xml version="1.0" encoding="utf-8"?>
<!-- Generator: Adobe Illustrator 21.1.0, SVG Export Plug-In . SVG Version: 6.00 Build 0)  -->
<svg version="1.1" id="Layer_1" xmlns="http://www.w3.org/2000/svg" xmlns:xlink="http://www.w3.org/1999/xlink" x="0px" y="0px"
	 viewBox="0 0 325.3 560" style="enable-background:new 0 0 325.3 560;" xml:space="preserve">
<style type="text/css">
	.st0{fill:#4D4545;}
	.st1{fill:#FFFFFF;}
	.st2{fill:#FFFFFF;stroke:#000000;stroke-miterlimit:10;}
	.st3{fill:url(#SVGID_1_);}
	.st4{fill:url(#SVGID_2_);}
	.st5{fill:url(#SVGID_3_);}
	.st6{fill:url(#SVGID_4_);}
	.st7{fill:url(#SVGID_5_);}
	.st8{fill:url(#SVGID_6_);}
	.st9{fill:url(#SVGID_7_);}
	.st10{fill:url(#SVGID_8_);}
	.st11{fill:url(#SVGID_9_);}
	.st12{fill:url(#SVGID_10_);}
	.st13{fill:url(#SVGID_11_);}
	.st14{fill:url(#SVGID_12_);}
	.st15{fill:#FFD0A9;stroke:#000000;stroke-width:0.5;stroke-miterlimit:10;}
	.st16{fill:#CCA689;}
	.st17{fill:none;stroke:#000000;stroke-width:0.5;stroke-miterlimit:10;}
	.st18{fill:url(#SVGID_13_);stroke:#000000;stroke-width:0.5;stroke-miterlimit:10;}
	.st19{fill:url(#SVGID_14_);stroke:#000000;stroke-width:0.5;stroke-miterlimit:10;}
	.st20{fill:#020202;}
	.st21{fill:#FF4800;stroke:#000000;stroke-width:0.5;stroke-miterlimit:10;}
	.st22{fill:#450000;stroke:#000000;stroke-width:0.5;stroke-miterlimit:10;}
	.st23{fill:#BC5622;stroke:#000000;stroke-width:0.5;stroke-miterlimit:10;}
	.st24{fill:#932929;stroke:#450000;stroke-width:0.5;stroke-miterlimit:10;}
	.st25{fill:#195858;stroke:#000000;stroke-width:0.25;stroke-miterlimit:10;}
	.st26{fill:#688927;}
	.st27{opacity:0.51;fill:#144443;enable-background:new    ;}
	.st28{fill:#8CAD4A;}
	.st29{fill:#932929;stroke:#000000;stroke-width:0.5;stroke-miterlimit:10;}
	.st30{fill:#2BEFF9;}
	.st31{opacity:0.54;fill:#7C2525;enable-background:new    ;}
	.st32{opacity:0.5;fill:#144443;enable-background:new    ;}
	.st33{fill:#144443;}
	.st34{opacity:0.43;fill:#450000;enable-background:new    ;}
	.st35{fill:#932929;}
	.st36{fill:#932929;stroke:#000000;stroke-width:0.56;stroke-miterlimit:10;}
	.st37{fill:none;stroke:#000000;stroke-width:0.56;stroke-miterlimit:10;}
</style>
<title>bgIndex</title>
<g id="Layer_2">
	<g id="bgIndex">
		<rect id="bgGrey" x="1.2" y="-1.5" class="st0" width="325" height="560"/>
		<g>
			<path class="st1" d="M209.7,374.3c2.4,6-2.4,39.2-9,76.7l6.7,5.4l-2.7,13.4l10.7,7.9l-15.3,7.9l18.3,12.4l14.2,4l4.1-10.2l0,0
				l-2.3-1.5c0,0,18.3-7.3,18.4-9.3c0.1-2,13,2,13,2l-10.6,7.3h10.6l-6.1,8l-3.6,3.4l1.6,2.3l2.2-0.5l7.5-7.5l-4.1,6.8l8.4-1.8
				l8.9-4.5l0.1-0.5l0.4,0.2l3.1-1.6l9.3,8.4l0.5,0.3l0.2,0.4l4,3.6l0.3,4.1l4.5,8.2l-4,0.4l0.5,7.3l13.8-10.7l-9.9-6.3l7-29.3
				l-36-4.4l25.2-27l-25.2-7.3l3.3-36V441l25.4,6l-15,24.7l31.6,6.7l-10.8-3.3l-5.4-8.4l9.9,8.4l8.1-3.3c0,0-9.7-6.7-9.9-8.4
				c0-0.5,0.2-0.9,0.6-1.1c-1.6-1-3.4-5.2-3.3-7.9c0.1-3.3,4.4-1.3,4.4-1.3l14.4,5.4c0,0,4.7,1.2,9.9,2.4
				c-3.3-19-8.1-41.4-15.1-67.8c-28.3-107.6-113.3-90.3-113.3-90.3s-33.8-1-37.8-6.8s18.2-7,27.8-14.5s9.6-27,9.2-37.2
				c-0.9-23.3-27.2-34.3-41.6-32.5s-37.8-17.5-1.3-28.8s10-27.2-1.8-27.4s2.1-8.5,2.1-8.5l-1.2,0.5c-7-1-15.5,10.6-0.9,10.6
				c13.4,0,22.5,15.2,0,18.5c-25.7,3.7-37,42.8,0.1,43.7s36.4,52.1-0.1,52.1s-32,44,0,52.2S209.7,374.3,209.7,374.3z"/>
		</g>
		<path class="st1" d="M242.9,518.7l-2.2-6.5l10.3-12.6l4.6-3l-6.2-3.6l-28.9,8.7l9.9,32.5c4.9-3.4,10.5-7.6,16.8-12.6L242.9,518.7z
			"/>
		<polygon class="st2" points="343,537.2 343.2,534 341.9,536.3 		"/>
		<polygon class="st1" points="117.8,458.8 114.8,470.5 127.5,479 121.1,492.8 150,499.1 147.8,480.8 		"/>
		<polygon class="st1" points="368.4,592.8 366.6,612.9 339.6,605.1 323.8,598.6 330.9,614.2 357,622 374.5,618.3 374.9,597.7 
			388.5,597.6 		"/>
		<path class="st2" d="M344.2,499.1L344.2,499.1L344.2,499.1z"/>
		<polygon class="st2" points="433.8,536.3 402.2,529.7 417.2,505 391.8,499 391.8,464.3 388.5,500.3 413.7,507.7 388.5,534.7 
			424.5,539 417.6,568.3 427.5,574.7 458.1,595.1 458.2,574.6 458.2,574.6 425.5,565.3 		"/>
		<path class="st1" d="M266.7,516.7l-8.3,23.7l19.3,6.6c1.9-9.5,3.9-19.8,5.9-30.3H266.7z"/>
		<path class="st1" d="M207.5,556.7l-4.6-34.5l-2.9-3c-8.9,5.9-17.7,11.5-25.9,16.8l14.3,30.7L207.5,556.7z"/>
		<path class="st2" d="M423,614.5l6.4-3c0,0,6.4-3,1.7-6.2c-4.7-3.2-18-12.5-18-12.5l-3.9,8.7c0,0,1.2,26,2.2,26s16-5,16-5
			L423,614.5z"/>
		<path class="st1" d="M170.2,471.8l-6.7,10l8.3,5.3l-6.6,7.4l5.6,4.9c1.5-8,2.9-15.9,4.3-23.7L170.2,471.8z"/>
		<path class="st1" d="M189.1,515.4l-2.8-13l10.8-8.3l-1.5-8.5c-6.2,4.9-12.5,10-18.9,15l0.6,4.5L189.1,515.4z"/>
		<path class="st1" d="M136.3,554c0,0,7.1-6,6.4-7c-0.7-1,1-7.3,1-7.3l3.3-6.3l10.7-10l6.1-8h-10.6l10.6-7.3c0,0-12.9-3.9-13-2
			c-0.1,2-18.4,9.3-18.4,9.3l14.6,9.7l-14.6,11L136.3,554z"/>
		<path class="st2" d="M279.1,585.2c0,0,15.7,1.3,15.7,0c0-0.7,1.9-5.9,3.6-10.3h-28L279.1,585.2z"/>
		<path class="st2" d="M234.3,612.2l4.3-12.5l-2-9.6l6.8-5.7l-7.5-6.4l-2,6.4c0,0-1.7,21-3,22.5s-12.7,7.5-12.7,7.5l13.3,10.7
			l-18.8,4h28c1.4-3.6,2.6-6.7,2.6-6.7L234.3,612.2z"/>
		<polygon class="st2" points="182.8,578.2 192.1,576.9 195.6,570.5 188.2,570.5 		"/>
		<polygon class="st2" points="224.7,578 215.7,578 217.7,584.3 216.2,586.3 223.6,586.3 224.7,584.3 		"/>
		<path class="st1" d="M206.5,506.5l-5.5-4l-0.2,4.2C204.1,506.6,206.5,506.5,206.5,506.5z"/>
		<path class="st1" d="M185,479.2l4-7.2l-3.6-1.5c-0.1,0.8-0.2,1.1-0.2,1.1L185,479.2z"/>
		<path class="st1" d="M296.9,547.1l-4.3-7.9h-4.7l-6.4,2.6l6.6,1.7c0,0,10.4,7.3,9.4,8.7s-9.3,7.7-7.7,8.7c1.1,0.6,9,0.5,14.7,0.3
			l0.2-4.2l-1.2-0.8l1.3-2.3l0.3-7.5c0,0,0.1-0.4,0.2-1.1l-3.7-1.5L296.9,547.1z"/>
		<path class="st1" d="M230.9,562.6l2.4-5.1l-6.1-2.9c0,0-9.2-1.9-8.8-0.9s-1.4,9.1-1.4,9.1l-11.7,7.1l13.8-4.4l7.8,2.8L230.9,562.6
			z"/>
		<polygon class="st1" points="375.2,543.4 373.5,552.1 375.2,553.5 383.9,560.7 378.7,568.7 397.5,567 388.5,550.7 		"/>
		<path class="st2" d="M136,588.5l-6.3-19.1l-8,8.1l9.3,24.6h2.2v-0.7C133.3,601.4,134.3,596.6,136,588.5z"/>
		<path class="st2" d="M155.8,581.9c0-1-9.4-6.6-9.4-6.6l0,0c-1.7,8.1-2.7,12.9-2.7,12.9v0.7h10.1
			C153.8,588.9,155.8,582.9,155.8,581.9z"/>
		<path class="st2" d="M272.8,564.3L261,567h-7.2l-2.7,0.4c-1.9,0.6-7.6,6.6-7.6,6.6l1.8,8.3l8.5-3.3v-9l11.8-2.6l13,2.6l3.1-7.8
			l-6.8-2.8L272.8,564.3z"/>
		<path class="st2" d="M257.7,605.2l-3.2,5.1l-4.4,5.6c0,0,5.3,4.2,4.6,5.4c-0.6,1.2-2.3,7.8-2.3,7.8l10.5-9.1v-13.2l3.1-4.7
			l-3.1-2.7L257.7,605.2z"/>
		<path class="st1" d="M341.1,499.4l15.3-14.3c0,0-15.3-14-16.3-14c-0.5,0-6.9-1.5-12.8-2.9c2.3,13.4,3.9,25,4.9,34.9L341.1,499.4z"
			/>
		<path class="st2" d="M313.5,444.8c1.2-0.7-0.2-0.7-1.1-0.1C312.7,445,313.1,445,313.5,444.8z"/>
		<path class="st1" d="M337.1,507.8c0,0-1-4.6-3.8-2.7c-2.2,1.5-4.4,5.5-4.2,7.4c1,0.3,1.9,1.5,0.6,1c-0.4-0.2-0.5-0.5-0.6-1
			c-0.4-0.1-0.9-0.1-1.3,0.2c-1.2,1.1-0.6,12.9-0.6,12.9l-7.6-4.4l0.6-13l-3.3,9.5l4,10.6l6.5,3l-4.3,3.3l-9.2,13.4l2.8,6.3l4.5,2.6
			c7.2-6.9,15.5-15.2,24.6-25.2c-2.2-4.8-4.2-9.3-4.2-9.3L337.1,507.8z"/>
		<path class="st1" d="M167.4,567.1l-7.3-3.6l4.2,7.7l3.2,4.1l4.7-0.6c0.4-1.9,0.8-3.8,1.1-5.7L167.4,567.1z"/>
		<path class="st1" d="M243.2,545.9l12.7,6l-2.8-12.3l-7.6,4.7l-6.7-4.7l-6.8-2.2c-0.4,1.9-0.8,3.9-1.1,5.7l4-0.5L243.2,545.9z"/>
		<polygon class="st0" points="207.4,456.4 217.9,446.8 217.9,437.2 220.2,446.4 206,458.8 		"/>
		<polygon class="st0" points="219.3,479 236.8,473.2 240.9,464.3 238.1,475.5 226.5,479 219.3,481.5 215.5,477.7 		"/>
		<polygon class="st0" points="307.9,406.8 298.1,411.7 296.9,412.3 294.9,422.8 299.7,412.3 307.9,409 310.9,404.3 322.9,390.3 
			320.9,386.5 		"/>
		<polygon class="st0" points="303.2,463.5 307.9,455.7 303.2,453.5 299.7,453.5 303.8,455.7 301.2,463.5 		"/>
		<polygon class="st0" points="253,481.1 262.5,468.2 253,464.3 262.5,458.5 262.5,453.5 263.9,460 255.9,464.3 263.9,466.2 
			258.1,481 		"/>
		<polygon class="st0" points="236.8,511.2 230.9,513.7 228.2,519.2 232.5,515.4 236.8,513.7 240.9,509.2 244.6,507.5 244.6,505.4 
			240.9,507.5 		"/>
		<polygon class="st0" points="230.9,501.5 230.9,505.4 236.4,507.2 236.4,505.4 232.7,499.5 234.4,497.8 229.5,499.1 		"/>
		<polygon class="st0" points="308.7,488.9 294.9,487.5 287.9,483.2 280.8,488.8 272.9,486 279.1,491 288.2,485.6 294.9,491 
			307.9,491 		"/>
		<polygon class="st0" points="343.2,476.2 337.8,481.5 346.2,485.6 346.2,491 344.2,493.1 349.2,488.5 349.2,484.6 343.2,481 
			345.9,479 348,477.6 345,474.9 		"/>
		<polygon class="st0" points="334.4,447.3 323.8,445.3 330,441.9 320.9,432.5 325.8,429.5 329.6,424.9 324.4,428.8 319.8,431.5 
			328.4,441.9 322.4,445.5 336.9,452.2 335.3,447.3 		"/>
		<polygon class="st0" points="273.8,441.3 264.4,445.3 271.1,436.3 263.4,428.9 270.5,413.3 261.8,428.2 259,428.6 257.4,433.7 
			249.8,428.1 257.1,435.6 259.8,434.1 260,430.1 261.8,429.5 269.5,437.2 262.2,444.3 263.9,448 274.4,444.9 277.8,443.3 
			274.6,441.3 		"/>
		<polygon class="st0" points="280.3,440.9 291,435.5 286.5,430.6 294.9,430.6 292.5,424.9 284.3,423.4 283.5,427.4 280.7,418.4 
			283.4,423.7 284.2,420.7 285.3,422.3 290.1,422.8 292.5,423.9 295.4,428.7 296.4,430.6 300.5,427.6 298,423.4 303,419.5 
			302.2,417.3 305.5,416.2 307.9,418.2 307,422 306.9,418.7 305.4,417 303.3,417.7 304.4,420.1 299.7,423.7 301.6,426.7 300.8,429 
			298,431.4 299,434.6 305.1,433.9 302.1,438.6 297.5,442.4 294.9,441.3 297.7,441.3 301.4,437.8 303.1,435.1 298.1,435.8 
			297.1,432.6 295.3,431.9 289.3,431.7 292,434.8 292.1,436.3 285.1,443.1 280.3,441.6 		"/>
		<polygon class="st0" points="278.8,471.2 281.3,464.3 272.9,464.3 272,459.6 272,455.3 268,455.3 272.9,450.6 274.6,451.9 
			272.9,451.7 270.1,454.4 273.2,454.4 273.4,460.5 274.1,462.5 275.1,463.2 281.3,463.5 284,460.3 281.8,457.9 284,455.2 
			287.7,457.4 284.6,456.3 283,457.7 284.5,459.6 285.3,461.5 282.5,464 282.9,468.2 279.2,471.7 		"/>
		<path class="st0" d="M185.9,529.1c0.8,0.9,4.2,3.7,4.2,3.7l-6.3,7.1l-3,1.9l2.8,7.2l5.4,5h4.2l-3.8-2.1l-4.4-3.6l9-5.3l5.8,4.3
			l-1.7,5.3l5.2-4.9l-4.6-3.9l-5.8-3.6l-8.3,5.9l-1.7-3.7l5.8-4.3l3.4-3.8c0,0,3.3-3.2,4.3-1.2s4.1,4.8,4.1,4.8l2.2-2.2l1.1-0.6
			v-2.6l-1.8,1.8l-1.6,1.3l-3.2-4.5l-2.8-0.3l-2.9,1.5l-5.5-4L185.9,529.1z"/>
		<polygon class="st0" points="190.8,492.7 192.2,493.1 187.4,495.2 184.5,495.8 182.8,498.4 184.4,501.1 184.3,498.6 185.4,496.4 
			187.7,495.7 190.3,495.2 190.1,496.8 187.7,497.3 187.4,499.5 188.2,499.8 188.2,498.7 188.6,497.8 190.8,497.3 191.6,495.2 
			192.2,494.3 193.3,493.1 192.9,492.4 196.1,491.5 		"/>
		<polygon class="st0" points="195.6,489.7 190.8,492.7 196.1,491.5 		"/>
		<polygon class="st0" points="215.2,421.3 228.1,424.9 230.9,409 241.3,420.2 244.6,413.3 243.4,424.9 233.5,416.9 229.5,429.3 
			233.5,438.6 240.9,440.2 226.7,444.9 229.5,440.9 226.7,430.6 205.5,421.4 		"/>
		
			<radialGradient id="SVGID_1_" cx="51" cy="362.9" r="25.7467" gradientTransform="matrix(1 0 0 -1 0 562)" gradientUnits="userSpaceOnUse">
			<stop  offset="0" style="stop-color:#F1B4F1"/>
			<stop  offset="0.1235" style="stop-color:#F1B1ED"/>
			<stop  offset="0.252" style="stop-color:#F2A8E0"/>
			<stop  offset="0.3829" style="stop-color:#F298CB"/>
			<stop  offset="0.5154" style="stop-color:#F382AE"/>
			<stop  offset="0.6493" style="stop-color:#F46689"/>
			<stop  offset="0.7842" style="stop-color:#F6445B"/>
			<stop  offset="0.9174" style="stop-color:#F81C25"/>
			<stop  offset="1" style="stop-color:#F90000"/>
		</radialGradient>
		<circle class="st3" cx="51" cy="199.1" r="25.8"/>
		
			<radialGradient id="SVGID_2_" cx="76.7" cy="423.9" r="25.765" gradientTransform="matrix(1 0 0 -1 0 562)" gradientUnits="userSpaceOnUse">
			<stop  offset="0" style="stop-color:#F1B4F1"/>
			<stop  offset="0.1235" style="stop-color:#F1B1ED"/>
			<stop  offset="0.252" style="stop-color:#F2A8E0"/>
			<stop  offset="0.3829" style="stop-color:#F298CB"/>
			<stop  offset="0.5154" style="stop-color:#F382AE"/>
			<stop  offset="0.6493" style="stop-color:#F46689"/>
			<stop  offset="0.7842" style="stop-color:#F6445B"/>
			<stop  offset="0.9174" style="stop-color:#F81C25"/>
			<stop  offset="1" style="stop-color:#F90000"/>
		</radialGradient>
		<circle class="st4" cx="76.7" cy="138.1" r="25.8"/>
		
			<radialGradient id="SVGID_3_" cx="312.3" cy="275.5" r="25.7688" gradientTransform="matrix(1 0 0 -1 0 562)" gradientUnits="userSpaceOnUse">
			<stop  offset="0" style="stop-color:#F1B4F1"/>
			<stop  offset="0.1235" style="stop-color:#F1B1ED"/>
			<stop  offset="0.252" style="stop-color:#F2A8E0"/>
			<stop  offset="0.3829" style="stop-color:#F298CB"/>
			<stop  offset="0.5154" style="stop-color:#F382AE"/>
			<stop  offset="0.6493" style="stop-color:#F46689"/>
			<stop  offset="0.7842" style="stop-color:#F6445B"/>
			<stop  offset="0.9174" style="stop-color:#F81C25"/>
			<stop  offset="1" style="stop-color:#F90000"/>
		</radialGradient>
		<circle class="st5" cx="312.3" cy="286.5" r="25.8"/>
		
			<radialGradient id="SVGID_4_" cx="35.4" cy="117.1" r="25.7306" gradientTransform="matrix(1 0 0 -1 0 562)" gradientUnits="userSpaceOnUse">
			<stop  offset="0" style="stop-color:#F1B4F1"/>
			<stop  offset="0.1235" style="stop-color:#F1B1ED"/>
			<stop  offset="0.252" style="stop-color:#F2A8E0"/>
			<stop  offset="0.3829" style="stop-color:#F298CB"/>
			<stop  offset="0.5154" style="stop-color:#F382AE"/>
			<stop  offset="0.6493" style="stop-color:#F46689"/>
			<stop  offset="0.7842" style="stop-color:#F6445B"/>
			<stop  offset="0.9174" style="stop-color:#F81C25"/>
			<stop  offset="1" style="stop-color:#F90000"/>
		</radialGradient>
		<circle class="st6" cx="35.4" cy="444.9" r="25.8"/>
		
			<radialGradient id="SVGID_5_" cx="120.9" cy="211.7" r="46.4" gradientTransform="matrix(1 0 0 -1 0 562)" gradientUnits="userSpaceOnUse">
			<stop  offset="0" style="stop-color:#F1B4F1"/>
			<stop  offset="0.1235" style="stop-color:#F1B1ED"/>
			<stop  offset="0.252" style="stop-color:#F2A8E0"/>
			<stop  offset="0.3829" style="stop-color:#F298CB"/>
			<stop  offset="0.5154" style="stop-color:#F382AE"/>
			<stop  offset="0.6493" style="stop-color:#F46689"/>
			<stop  offset="0.7842" style="stop-color:#F6445B"/>
			<stop  offset="0.9174" style="stop-color:#F81C25"/>
			<stop  offset="1" style="stop-color:#F90000"/>
		</radialGradient>
		<circle class="st7" cx="120.9" cy="350.3" r="46.4"/>
		
			<radialGradient id="SVGID_6_" cx="290.8" cy="403.4" r="46.3465" gradientTransform="matrix(1 0 0 -1 0 562)" gradientUnits="userSpaceOnUse">
			<stop  offset="0" style="stop-color:#F1B4F1"/>
			<stop  offset="0.1235" style="stop-color:#F1B1ED"/>
			<stop  offset="0.252" style="stop-color:#F2A8E0"/>
			<stop  offset="0.3829" style="stop-color:#F298CB"/>
			<stop  offset="0.5154" style="stop-color:#F382AE"/>
			<stop  offset="0.6493" style="stop-color:#F46689"/>
			<stop  offset="0.7842" style="stop-color:#F6445B"/>
			<stop  offset="0.9174" style="stop-color:#F81C25"/>
			<stop  offset="1" style="stop-color:#F90000"/>
		</radialGradient>
		<circle class="st8" cx="290.8" cy="158.6" r="46.4"/>
		
			<radialGradient id="SVGID_7_" cx="74.5671" cy="311.1" r="13.4165" gradientTransform="matrix(1 0 0 -1 0 562)" gradientUnits="userSpaceOnUse">
			<stop  offset="0" style="stop-color:#F1B4F1"/>
			<stop  offset="0.1235" style="stop-color:#F1B1ED"/>
			<stop  offset="0.252" style="stop-color:#F2A8E0"/>
			<stop  offset="0.3829" style="stop-color:#F298CB"/>
			<stop  offset="0.5154" style="stop-color:#F382AE"/>
			<stop  offset="0.6493" style="stop-color:#F46689"/>
			<stop  offset="0.7842" style="stop-color:#F6445B"/>
			<stop  offset="0.9174" style="stop-color:#F81C25"/>
			<stop  offset="1" style="stop-color:#F90000"/>
		</radialGradient>
		<circle class="st9" cx="74.6" cy="250.9" r="13.4"/>
		
			<radialGradient id="SVGID_8_" cx="309" cy="353.37" r="13.415" gradientTransform="matrix(1 0 0 -1 0 562)" gradientUnits="userSpaceOnUse">
			<stop  offset="0" style="stop-color:#F1B4F1"/>
			<stop  offset="0.1235" style="stop-color:#F1B1ED"/>
			<stop  offset="0.252" style="stop-color:#F2A8E0"/>
			<stop  offset="0.3829" style="stop-color:#F298CB"/>
			<stop  offset="0.5154" style="stop-color:#F382AE"/>
			<stop  offset="0.6493" style="stop-color:#F46689"/>
			<stop  offset="0.7842" style="stop-color:#F6445B"/>
			<stop  offset="0.9174" style="stop-color:#F81C25"/>
			<stop  offset="1" style="stop-color:#F90000"/>
		</radialGradient>
		<circle class="st10" cx="309" cy="208.6" r="13.4"/>
		
			<radialGradient id="SVGID_9_" cx="225" cy="311.1" r="13.4193" gradientTransform="matrix(1 0 0 -1 0 562)" gradientUnits="userSpaceOnUse">
			<stop  offset="0" style="stop-color:#F1B4F1"/>
			<stop  offset="0.1235" style="stop-color:#F1B1ED"/>
			<stop  offset="0.252" style="stop-color:#F2A8E0"/>
			<stop  offset="0.3829" style="stop-color:#F298CB"/>
			<stop  offset="0.5154" style="stop-color:#F382AE"/>
			<stop  offset="0.6493" style="stop-color:#F46689"/>
			<stop  offset="0.7842" style="stop-color:#F6445B"/>
			<stop  offset="0.9174" style="stop-color:#F81C25"/>
			<stop  offset="1" style="stop-color:#F90000"/>
		</radialGradient>
		<circle class="st11" cx="225" cy="250.9" r="13.4"/>
		
			<radialGradient id="SVGID_10_" cx="306.0769" cy="457.9641" r="6.7077" gradientTransform="matrix(1 0 0 -1 0 562)" gradientUnits="userSpaceOnUse">
			<stop  offset="0" style="stop-color:#F1B4F1"/>
			<stop  offset="0.1235" style="stop-color:#F1B1ED"/>
			<stop  offset="0.252" style="stop-color:#F2A8E0"/>
			<stop  offset="0.3829" style="stop-color:#F298CB"/>
			<stop  offset="0.5154" style="stop-color:#F382AE"/>
			<stop  offset="0.6493" style="stop-color:#F46689"/>
			<stop  offset="0.7842" style="stop-color:#F6445B"/>
			<stop  offset="0.9174" style="stop-color:#F81C25"/>
			<stop  offset="1" style="stop-color:#F90000"/>
		</radialGradient>
		<circle class="st12" cx="306.1" cy="104" r="6.7"/>
		
			<radialGradient id="SVGID_11_" cx="197.1636" cy="87.1" r="6.7043" gradientTransform="matrix(1 0 0 -1 0 562)" gradientUnits="userSpaceOnUse">
			<stop  offset="0" style="stop-color:#F1B4F1"/>
			<stop  offset="0.1235" style="stop-color:#F1B1ED"/>
			<stop  offset="0.252" style="stop-color:#F2A8E0"/>
			<stop  offset="0.3829" style="stop-color:#F298CB"/>
			<stop  offset="0.5154" style="stop-color:#F382AE"/>
			<stop  offset="0.6493" style="stop-color:#F46689"/>
			<stop  offset="0.7842" style="stop-color:#F6445B"/>
			<stop  offset="0.9174" style="stop-color:#F81C25"/>
			<stop  offset="1" style="stop-color:#F90000"/>
		</radialGradient>
		<circle class="st13" cx="197.2" cy="474.9" r="6.7"/>
		
			<radialGradient id="SVGID_12_" cx="175.0507" cy="183.4" r="6.7034" gradientTransform="matrix(1 0 0 -1 0 562)" gradientUnits="userSpaceOnUse">
			<stop  offset="0" style="stop-color:#F1B4F1"/>
			<stop  offset="0.1235" style="stop-color:#F1B1ED"/>
			<stop  offset="0.252" style="stop-color:#F2A8E0"/>
			<stop  offset="0.3829" style="stop-color:#F298CB"/>
			<stop  offset="0.5154" style="stop-color:#F382AE"/>
			<stop  offset="0.6493" style="stop-color:#F46689"/>
			<stop  offset="0.7842" style="stop-color:#F6445B"/>
			<stop  offset="0.9174" style="stop-color:#F81C25"/>
			<stop  offset="1" style="stop-color:#F90000"/>
		</radialGradient>
		<circle class="st14" cx="175.1" cy="378.6" r="6.7"/>
		<g id="logoGirl">
			<path class="st15" d="M724,180.8c0,0,5.5,5.9,5.5,9c0,0,12.8,7.6,13.8,6.9c0,0,12.7-11.8,13.8-14.6l2.1-10.5c0,0,6-8.1,2-12.9
				c0,0-3-2.4-4.8,2.4c0,0-4-19.2-11.6-21.2s-33.6-5.3-33.6,13.9S722,177.1,724,180.8z"/>
			<path class="st16" d="M729.5,189.8c0,0,8.9,2.4,9.9,1.5c0.4,0.5,8.1-2.2,8.4-3.9c0.2-1.3,4.2-9.8,4.2-9.8s2.2-9.7,1.7-10.1
				s1.6,16.4,0.6,17.7s-9.4,7.6-11.4,7.8s-6.6,2.4-8.1,1.1S729.5,189.8,729.5,189.8z"/>
			<path class="st16" d="M717.3,141c0,0-11.5,20-8.5,17.8c0,0,10.5,20,8.6,18.4c0,0,1.4-3.2,0.6-9.2c0,0,0.8,7.3,3,7.9
				c-0.5-7-0.6-14-0.3-20.9c0,0-2.6,6.9,14.2,12.8c0,0-1.3-5.1-1.4-6.3c0,0,3.7,3.9,7.4,4.3c0,0-3.7-5.4-2.8-6.4c0,0-1,6.2,8.4,8
				l-4.6-6.3c0,0,4.7,2.8,8.3,3.3c0,0-7.9-7.8-7.7-8.7c0,0,9.9,13.5,13.2,12.7c0,0,0.2-8.3-3.8-12.4c0,0,6,12,4.1,25.8
				c-1.9,13.8,4.9-1.9,2.5-6.4c-1.6-3-0.3-8.6,1.2-10.4c0,0,8.5-9-5-29C754.9,135.7,730.9,122.8,717.3,141z"/>
			<path class="st17" d="M721.9,164.3c0,0-0.8,7-2.9,9.6"/>
			<path class="st17" d="M734.8,158.8c0,0,12.8,1.4,13.9,0"/>
			<path class="st1" d="M722.2,176.4l5,4.3h2.4c0,0-1-7.2-3.9-9.3C723.5,169.8,722.2,176.4,722.2,176.4z"/>
			<path class="st17" d="M725.5,171.1c-3.1,0.8-3.5,5.6-3.5,5.6"/>
			<path class="st1" d="M737.9,165.7c0,0,6,7.8,7.2,7.8l3.2-2.4v-8.7c0,0-3.9-2.3-7.6-0.3S737.9,165.7,737.9,165.7z"/>
			<path class="st17" d="M737.4,165.1c2.4-3.6,7.1-4.9,11-3.1"/>
			
				<linearGradient id="SVGID_13_" gradientUnits="userSpaceOnUse" x1="744.3624" y1="330.96" x2="744.3624" y2="319.3915" gradientTransform="matrix(1 0 0 1 0 -158)">
				<stop  offset="0" style="stop-color:#00FFFF"/>
				<stop  offset="0.18" style="stop-color:#00C6E3"/>
				<stop  offset="0.59" style="stop-color:#0046A3"/>
				<stop  offset="0.77" style="stop-color:#00128A"/>
			</linearGradient>
			<path class="st18" d="M740.8,163.1c0.2,3.8,1.9,7.4,4.7,9.8l2.4-1.5c0,0,0.5-8.4-3-9.6S741.6,162.4,740.8,163.1z"/>
			
				<linearGradient id="SVGID_14_" gradientUnits="userSpaceOnUse" x1="726.5975" y1="338.45" x2="726.5975" y2="329.696" gradientTransform="matrix(1 0 0 1 0 -158)">
				<stop  offset="0" style="stop-color:#00FFFF"/>
				<stop  offset="0.18" style="stop-color:#00C6E3"/>
				<stop  offset="0.59" style="stop-color:#0046A3"/>
				<stop  offset="0.77" style="stop-color:#00128A"/>
			</linearGradient>
			<path class="st19" d="M725.5,172.6c0,0,3.8,4.8,3.9,7.9h-1.9c-2.4-1.5-3.8-4.3-3.7-7.1C723.8,173.3,723.9,170.2,725.5,172.6z"/>
			
				<ellipse transform="matrix(0.9292 -0.3697 0.3697 0.9292 -8.7571 287.2925)" class="st20" cx="745.2" cy="166.5" rx="0.7" ry="2.3"/>
			<ellipse transform="matrix(0.866 -0.5 0.5 0.866 9.1823 386.6484)" class="st20" cx="726.1" cy="176.2" rx="0.6" ry="2.1"/>
			<line class="st17" x1="733.9" y1="181.5" x2="733.9" y2="182.8"/>
			<path class="st21" d="M740,189.9c0,0-6.1-1.2-1.5-4.6c3.1-2.3,5.5,0.8,4.6,2.4"/>
			<path class="st15" d="M692.5,286.7c0,0-2.8,0.1-3,1.9s3,0.6,3,0.6s-7.2,3.8-7.2,5.2s7.2-1,7.2-1s-3.4,5.2-3.6,6.2
				c-0.2,1,3.4-0.8,4.4-1.1c1-0.3-3.3,5.9-2.7,6.5c0.6,0.6,4.1-1.5,4.1-1.5l7.2-4.1l-6-12.1L692.5,286.7z"/>
			<path class="st15" d="M725.9,374.3c0,0-0.5,43-0.9,44.2s-3.6,21.1-9.2,25.8c-5.6,4.7,11.2,5,11.2,5l6-10.9c0,0,2.9-18.9,4-20.1
				s10.2-38,9.9-39c-0.3-1-6.4-9.4-6.4-9.4l-9.8-1L725.9,374.3z"/>
			<path class="st15" d="M755.6,372.9c0,0,20,21.9,26.2,24.2c0,0,9.1,8.6,10.4,13.1c0.8,2.7,3,4.7,5.7,5.4l1.4-18
				c0,0-11.7-11.5-12.1-13.5s-10.9-18.4-10.9-18.4L755.6,372.9z"/>
			<path class="st22" d="M702.6,455.1c-0.9,0.1-1.6,0.7-1.8,1.5c-0.8,2.5-1.3,6,1,6.8c3.2,1.1,10.2-0.6,12.2-1.2
				c0.4-0.1,0.7-0.2,1-0.5c1.5-1.5,7.2-6.8,10.5-6c1.5,0.4,3,0.6,4.6,0.7c1.2,0.1,2.2-0.8,2.2-2v-0.1v-9.9c0-0.7-0.3-1.4-0.9-1.8
				c-2.3-1.5-8.9-4.1-18.7,5.1C706.5,453.5,703.8,455,702.6,455.1z"/>
			<path class="st22" d="M795.7,397c0,0-1.8,23.3-4,28s5.3,4.7,5.3,4.7l5.7-2.3l1.3-30.3C804,397,797.7,393,795.7,397z"/>
			<path class="st23" d="M728,188.2c0,0,0.8,17.3-0.8,20.6c0,0,5.8-8,5.6-9.5c0,0-0.5,5.9-1.2,6.8c0,0,1.6-2.2,2.2-3
				c0.6-0.8,3.5-8.8,3.5-8.8S727.5,189.6,728,188.2z"/>
			<path class="st24" d="M728.5,301.6c0,0-16.1,52.9-18,56.8c0,0,15.9,22.1,32.4,20.4s37.8-3.8,46-14c0,0,5.8-9.6,8.1-8.6
				c0,0-19.5-57.2-16.8-58.6l-50.2,1.1C729.4,299.6,728.9,300.6,728.5,301.6z"/>
			<path class="st25" d="M722,216.3c0,0-3,14.5-1.5,16.2s4.2,4.6,4.2,4.6l-2.3-1.8c0,0,2.5,8.1-2.3,19.2c0,0-1,2.8,2.3,5.2
				c0,0-2.7-3.1-3.4-1.9s-23.9,27.2-25.2,27.1c0,0-4.2,25.9,10.1,26.5c0,0,5.2-0.6,6.5-2.5c0,0,22.1-40.5,21.6-41.8l-3.5,2
				c0,0,5.9-2,7-7.6c1.1-5.6,1.2-43.4-7.9-47.9c4.9,4.9,7.7,11.5,7.9,18.4c0.4,11.7,0.5,31.6,0.5,31.6l-3.5,4.8
				c0,0-3.8,26.6-6.1,29.2c0,0,14.6,15.9,28.7,13.8c14.1-2.1,29.2-17.6,29.2-19c0,0-1.9-10.5-3.4-20.8c-1.3-8.8-2.2-17.3-1.5-18.9
				l2.1,18.5c0,0,12-13.4,12.5-20.5l-7.3-14.9l-9.4-29.2c0,0-37.8-7.2-44.4,0C733.2,206.9,722.5,213.6,722,216.3z"/>
			<path class="st26" d="M730.1,192.6c0,0,2.2,14.2,0,16.5c-2.2,2.3,11-10.2,19-3.7s12.6-2.2,12.6-2.2c6.9-9.7,7.1-16.8-2.5-20
				c0,0-22.2,13.7-29,7.4L730.1,192.6z"/>
			<path class="st27" d="M735.9,216c0,0,16.4,9.6,15.1,13.6s14.4,74.2,14.4,74.2l16-17.3l-18.9-49.8
				C762.5,236.7,758.4,218,735.9,216z"/>
			<path class="st28" d="M728.2,210.3c6.6,5.9,27.3,11.6,27.1,23.1c-0.4,22.1,13,65.5,13,65.5s17.5-14.6,18.5-20.2
				c1,6-15-34.3-15.8-51c-0.5-11.4-21.5-29.2-35.7-29.2c-4.8,0.7-6-5-5.3-7.9C731.2,186.2,724.2,206.8,728.2,210.3z"/>
			<path class="st29" d="M715,134.2c0,0-13.5,2.5-17,35.5c0,0,5.5-15.5,8.5-17.8c0,0-7,9.2,3,25.8c0,0-2.2-10.9-1.2-12.9
				c0,0,3.4,12.5,9.2,15.8c0,0-0.5-8.6-2.4-10.2c0,0,3.5,10.2,9.6,14.1l-2.6-5.6c0,0-5.6-11.8-6.4-17.8c0,0,3.9,9,6,9.6
				c0,0-5.5-11.9-3.9-21.1c0,0,0.5,12.4,16.2,17.8c0,0-5.5-10.8-5.6-12c0,0,8.2,9.1,11.9,9.5c0,0-5.4-11.5-4.5-12.5c0,0-1,6.2,8.4,8
				l-4.8-7.5c0,0,6.5,7,10.1,7.5c0,0-7.5-8.6-7.4-9.5c0,0,7.8,11.3,11.2,10.6c0,0,0.2-8.3-3.8-12.4c0,0,6,12,4.1,25.8
				c-1.9,13.8-7.9,6.2-5.6,30c0,0,1.2,4.6,2,4.2c0,0-0.9-9.4,0.4-10.1l1.4-3.2c0,0,0.5,9.1,2.2,10c0,0-0.5-20.1,3.2-25.1
				c0,0,1.3-7.7-1.1-12.1c-1.6-3-0.3-8.6,1.2-10.4c0,0,10.5-2.4,1.3,15.2c0,0-3,45.3-6,50.5c0,0,4-6.9,4.2-12c0,0,3.1,25.8,2.2,27.2
				c0,0,2.1-17,1.2-20.9c0,0,6.1,26.9,4.9,28.9l1-18.4c0,0,4.6,32.4,2.9,36.6c0,0,6.8-10.2,6.5-11.8c0,0-1.8,10-2,10.8
				c0,0,8.8-17.9,8-20.4c0,0,0.9,13-0.5,14.4c0,0,7.8-10.2,4.4-40.2c0,0,5.6,9.2,6,16.5c0,0,0.1-28.6-16.9-45.6c0,0-2-15.8,1.8-28.9
				c0,0,3.5-22.9-12.1-33.1S728.6,116,715,134.2z"/>
			<ellipse class="st1" cx="745.6" cy="163.7" rx="2.7" ry="1.9"/>
			<path class="st30" d="M751,170.5c-0.2,1.3-1.4,2.2-2.7,2.1c-1.5,0-2.7,0-2.7-1.1s1.2-1.9,2.7-1.9S751,169.4,751,170.5z"/>
			<ellipse transform="matrix(0.5 -0.866 0.866 0.5 212.809 714.825)" class="st1" cx="725.5" cy="173.1" rx="1.4" ry="1.4"/>
			<path class="st31" d="M765.5,244.7l-0.1,2.2C765.6,246.2,765.6,245.4,765.5,244.7z"/>
			<path class="st31" d="M781.4,258l-0.1,0.2C781.3,258.1,781.4,258.1,781.4,258z"/>
			<path class="st31" d="M759.4,237.7c-0.1,0.8-0.1,1.2-0.1,1.2C759.4,238.5,759.4,238.1,759.4,237.7z"/>
			<path class="st31" d="M785.6,217.9c0,0,5.6,9.2,6,16.5c0,0,0.1-28.6-16.9-45.6c0,0-2-15.8,1.8-28.9c0,0,1.8-16.5-1.8-14.2
				c-4.2,2.7-11.8,3.8-20.1,3.9c-0.5-3.8-11.6-8.8-11.6-8.8c3.4,1.3,4.2,7.6,4.4,8.7c-8.1-0.3-16.2-1.4-24.2-3.3
				c0,0-21.6-9.6-25.1,23.4c0,0,5.5-15.5,8.5-17.8c0,0-7,9.2,3,25.8c0,0-2.2-10.9-1.2-12.9c0,0,3.4,12.5,9.2,15.8
				c-0.1-2.2-0.4-4.5-0.9-6.7c1.6,3.3,4.4,8.2,8.1,10.6l-2.6-5.6c0,0-5.6-11.8-6.4-17.8c0,0,3.9,9,6,9.6c0,0-5.5-11.9-3.9-21.1
				c0,0,0.5,12.4,16.2,17.8c0,0-5.5-10.8-5.6-12c0,0,8.2,9.1,11.9,9.5c0,0-2.6-5.5-3.9-9.3c0.9,1.8,3,3.9,7.8,4.8l-4.8-7.5
				c0,0,6.5,7,10.1,7.5c0,0-7.5-8.6-7.4-9.5c0,0,7.8,11.3,11.2,10.6c0.8,4.4,0.9,8.9,0.3,13.3c-1.9,13.8-7.9,6.2-5.6,30
				c0,0,1.2,4.6,2,4.2c0,0-0.9-9.4,0.4-10.1l1.4-3.2c0,0,0.5,9.1,2.2,10c0,0-0.5-20.1,3.2-25.1c0,0,1.3-7.7-1.1-12.1
				c-1.6-3-0.3-8.6,1.2-10.4c0,0,10.5-2.4,1.3,15.2c0,0-3,45.3-6,50.5c0,0,4-6.9,4.2-12c0,0,2.5,20.6,2.4,26
				c0.5-4,1.8-16.4,1.1-19.6c0,0,4.5,19.8,5,26.6l0.9-16.1c0,0,4.6,32.4,2.9,36.6c0,0,5.5-8.3,6.4-11.1c-0.4,2.3-1.7,9.4-1.9,10.1
				c0,0,7.8-15.9,8-19.8c0.1,2.4,0.6,11.7-0.4,13.6C782.5,256.4,788.7,245.5,785.6,217.9z M735.9,152.3c0,0.4,0,0.8,0,1.2
				C735.8,152.9,735.7,152.5,735.9,152.3z M753.4,149.7L753.4,149.7z"/>
			<path class="st32" d="M725.5,213.5c0,0,10.3,40.6,7.3,46.9c0,0-5.9,8.8-8.6,8.9c0,0,2,2.8,2.7,2.4L698,308.2
				c0,0,5.3,5.5,11.8,0.8l21.3-40.1c0,0,3.7-6,3.8-6.7c0.1-0.7,2.5-14.8-1.5-36c-1.9-10-5-11.2-7.6-13.2L725.5,213.5z"/>
			<path class="st33" d="M727.2,298c0,0,8.8,7.4,10.1,7.7c0,0,3-38.2,2.7-39s-1.1-42.1-3.8-44.8s-6.3-9.5-10.2-10.1
				c0,0,6.4,8.3,7,9.8c0.6,1.5,3.6,19.7,3.4,21s-1.1,12.4-1.7,13.3l-0.4,11.3l-1.4,1.5C733.2,268.7,728.4,296.9,727.2,298z"/>
			<path class="st34" d="M726.9,305.7c0,0,12.5,11.1,23.8,11c11.3-0.1,30.2-12.4,30.2-12.4l-1-6.1c0,0-17.7,14.4-27.1,14.3
				c-9.4-0.1-20.6-8.7-20.6-8.7l-3.2-3.5L726.9,305.7z"/>
		</g>
		<g id="Title">
			<path class="st35" d="M567.5,74.5c0.5-0.3,1.1-0.5,1.7-0.5c0.7,0,1.4,0.2,2,0.7c0.6,0.5,0.9,1.2,0.8,2c0,0.4-0.1,0.8-0.2,1.2
				l-10.3,28.5c-0.2,0.6-0.7,1.1-1.3,1.5c-0.6,0.4-1.3,0.5-1.9,0.5c-0.7,0-1.4-0.2-2-0.5c-0.6-0.3-1-0.9-1.2-1.5l-8-22.6l-8.1,22.6
				c-0.2,0.6-0.7,1.1-1.3,1.5c-1.2,0.7-2.7,0.7-3.9,0c-0.6-0.3-1-0.9-1.2-1.5l-10.4-28.5c-0.1-0.4-0.2-0.8-0.2-1.2
				c0-0.7,0.3-1.5,0.9-1.9c1.1-0.9,2.6-1,3.8-0.2c0.5,0.3,0.9,0.8,1.1,1.4l8.2,23.5l8.4-23.3c0.2-0.6,0.6-1.1,1.1-1.5
				s1.1-0.6,1.7-0.6c0.6,0,1.2,0.2,1.7,0.6s0.9,0.9,1.2,1.5l8.1,23.6l8.3-23.8C566.6,75.4,567,74.9,567.5,74.5z"/>
			<path class="st35" d="M598.7,93.8v11.8c0,0.8-0.2,1.5-0.8,2.1c-0.6,0.5-1.4,0.8-2.2,0.8s-1.6-0.2-2.2-0.8
				c-0.6-0.6-0.9-1.3-0.8-2.1V93.8c0.1-1.3-0.2-2.6-1-3.7c-0.9-0.9-2-1.3-3.2-1.2c-1.6-0.1-3.1,0.5-4.2,1.6
				c-1.1,1.2-1.6,2.8-1.6,4.4v10.7c0,0.8-0.3,1.6-0.8,2.1c-0.6,0.5-1.4,0.8-2.2,0.8s-1.6-0.2-2.2-0.8c-0.5-0.6-0.8-1.3-0.8-2.1V76.9
				c0-0.8,0.3-1.5,0.8-2c0.6-0.5,1.4-0.8,2.2-0.8s1.6,0.2,2.2,0.7c0.6,0.5,0.9,1.2,0.8,2v11.1c0.8-1.2,1.9-2.2,3.2-2.9
				c1.4-0.7,3-1,4.5-1C596,84.1,598.7,87.3,598.7,93.8z"/>
			<path class="st35" d="M609.2,107.1c-1.8-1-3.3-2.5-4.2-4.3c-1-2-1.5-4.2-1.5-6.5c-0.1-2.2,0.5-4.5,1.5-6.5c1-1.8,2.4-3.3,4.2-4.2
				c4-2,8.6-2,12.6,0c1.8,1,3.2,2.4,4.2,4.2c1,2,1.5,4.2,1.5,6.5c0.1,2.2-0.5,4.5-1.5,6.5c-0.9,1.8-2.4,3.3-4.2,4.3
				C617.8,109,613.2,109,609.2,107.1L609.2,107.1z M619.9,102c1.1-1.7,1.7-3.7,1.5-5.7c0.1-2-0.4-4-1.5-5.6c-1.1-1.3-2.7-2.1-4.4-2
				c-1.7-0.1-3.4,0.7-4.4,2c-1.1,1.6-1.7,3.6-1.6,5.6c-0.1,2,0.4,4,1.5,5.7c1.1,1.3,2.7,2,4.4,1.9C617.2,104,618.8,103.3,619.9,102z
				"/>
			<path class="st35" d="M662.9,86.5c1.6,1.6,2.4,4.1,2.4,7.4v11.7c0,0.7-0.2,1.5-0.8,2c-0.6,0.5-1.3,0.8-2.1,0.7
				c-0.7,0-1.5-0.3-2-0.8s-0.8-1.3-0.8-2v-1.1c-0.5,1.2-1.4,2.3-2.6,2.9c-1.2,0.7-2.6,1.1-4.1,1.1s-2.9-0.3-4.3-1
				c-1.2-0.6-2.3-1.5-3-2.6c-0.7-1.1-1.1-2.4-1.1-3.7c-0.1-1.5,0.4-2.9,1.3-4.1c1.2-1.1,2.7-1.9,4.3-2.2c2.7-0.5,5.5-0.7,8.2-0.7
				h1.2V93c0.1-1.2-0.2-2.5-1-3.4c-0.9-0.8-2.1-1.2-3.4-1c-1,0-1.9,0.1-2.8,0.4c-1,0.3-2.1,0.7-3.4,1.2c-0.6,0.3-1.2,0.5-1.8,0.6
				c-0.5,0-1.1-0.2-1.4-0.6c-0.4-0.5-0.6-1-0.6-1.6c0-0.5,0.1-1,0.4-1.4c0.4-0.5,0.8-0.9,1.4-1.2c1.3-0.7,2.6-1.1,4-1.4
				c1.5-0.3,3-0.5,4.6-0.5C658.9,84.1,661.3,84.9,662.9,86.5z M658,102.6c1-1.1,1.6-2.6,1.5-4.2v-1h-0.9c-1.7,0-3.3,0.1-5,0.3
				c-0.9,0.1-1.8,0.4-2.5,1c-0.5,0.5-0.8,1.3-0.8,2c0,1,0.4,1.9,1.1,2.5c0.7,0.7,1.7,1,2.7,1C655.6,104.3,657,103.7,658,102.6z"/>
			<path class="st35" d="M705.1,86.4c1.3,1.5,2,4,2,7.4v11.8c0.1,0.8-0.3,1.6-0.8,2.1c-0.6,0.5-1.4,0.8-2.2,0.7
				c-0.8,0-1.5-0.2-2.1-0.8c-0.6-0.6-0.9-1.3-0.8-2.1V93.8c0.1-1.3-0.2-2.7-0.9-3.8c-0.7-0.8-1.8-1.2-2.9-1.1
				c-1.4-0.1-2.8,0.5-3.7,1.6c-1,1.2-1.5,2.8-1.4,4.4v10.7c0.1,0.8-0.3,1.6-0.8,2.1c-0.6,0.5-1.4,0.8-2.1,0.7
				c-0.8,0-1.6-0.2-2.2-0.7c-0.6-0.5-0.9-1.3-0.9-2.1V93.8c0.1-1.3-0.2-2.7-0.9-3.8c-0.7-0.8-1.8-1.2-2.9-1.1
				c-1.4-0.1-2.8,0.5-3.7,1.6c-1,1.3-1.5,2.8-1.4,4.4v10.7c0.1,0.8-0.3,1.6-0.9,2.1c-0.6,0.5-1.4,0.8-2.2,0.7
				c-0.8,0-1.5-0.2-2.1-0.7c-0.6-0.6-0.9-1.3-0.8-2.1V87c0-0.8,0.3-1.5,0.9-2.1c0.6-0.5,1.4-0.7,2.2-0.7c0.7,0,1.4,0.2,2,0.7
				c0.6,0.5,0.8,1.2,0.8,2v1.2c0.7-1.2,1.7-2.3,3-2.9c1.3-0.7,2.8-1,4.2-1c3.5,0,5.9,1.5,7.1,4.4c0.7-1.4,1.8-2.5,3.1-3.2
				c1.4-0.8,3-1.2,4.7-1.2C701.4,84,703.6,84.8,705.1,86.4z"/>
			<path class="st35" d="M727.6,107.6c-0.6-0.6-0.9-1.4-0.8-2.3V77.1c-0.1-1.6,1.1-3,2.7-3.1c0.1,0,0.2,0,0.4,0
				c0.8,0,1.7,0.3,2.3,0.8c0.6,0.6,0.9,1.4,0.8,2.2v28.2c0,0.8-0.3,1.7-0.8,2.3c-0.6,0.6-1.4,0.9-2.3,0.9
				C729,108.5,728.2,108.2,727.6,107.6z"/>
			<path class="st35" d="M745.8,97.8c-0.4-0.4-0.5-1-0.5-1.6c0-1.5,0.3-3.1,1-4.5c0.8-1.4,1.7-2.8,2.8-4c0.8-0.9,1.5-1.9,2.1-2.9
				c0.5-0.8,0.7-1.7,0.7-2.6c0-1-0.4-1.9-1.2-2.5c-0.9-0.7-2.1-1-3.2-0.9c-1.1,0-2.3,0.3-3.3,0.7c-1.3,0.6-2.5,1.3-3.7,2.1
				c-0.6,0.4-1.3,0.6-2,0.7c-0.6,0-1.1-0.3-1.4-0.7c-1-1.2-0.7-3,0.5-3.9c0,0,0,0,0.1-0.1c1.4-1.2,3-2.1,4.8-2.7
				c1.8-0.7,3.6-1,5.5-1c1.8,0,3.6,0.3,5.2,1c1.4,0.6,2.6,1.5,3.6,2.8c0.8,1.2,1.3,2.6,1.3,4.1s-0.4,3-1.2,4.3
				c-1,1.5-2.2,2.9-3.5,4.2c-1.1,1.1-2.1,2.2-3,3.4c-0.7,0.9-1.1,2-1.2,3.1c-0.1,0.5-0.3,0.9-0.6,1.2c-0.4,0.3-0.8,0.4-1.3,0.4
				C746.6,98.4,746.1,98.2,745.8,97.8z M744.7,107.4c-1.3-1.4-1.3-3.7,0-5.1c1.4-1.4,3.7-1.4,5.1,0c0.7,0.7,1,1.6,1,2.6
				s-0.3,1.9-1,2.6C748.4,108.8,746.1,108.8,744.7,107.4L744.7,107.4z"/>
		</g>
	</g>
</g>
<g>
	<title>btnRabbit</title>
	<g id="Layer_2_2_">
		<g id="Layer_1-2_1_">
			<g id="rabbit_hi_1_">
				<ellipse transform="matrix(0.866 -0.5 0.5 0.866 -47.9835 97.9614)" class="st36" cx="158.8" cy="138.5" rx="1" ry="2.5"/>
				<ellipse transform="matrix(0.866 -0.5 0.5 0.866 -48.7217 101.5979)" class="st36" cx="165.2" cy="141.7" rx="1" ry="2.5"/>
				<ellipse transform="matrix(0.866 -0.5 0.5 0.866 -51.0595 101.6728)" class="st36" cx="164.2" cy="146.1" rx="1" ry="2.5"/>
				<ellipse transform="matrix(0.5 -0.866 0.866 0.5 -46.6865 211.9508)" class="st36" cx="160.2" cy="146.4" rx="2.5" ry="1"/>
				<ellipse class="st36" cx="162.2" cy="141.8" rx="2.6" ry="3.1"/>
				<path class="st36" d="M162.8,134.2c0,0,0.2-3.3,1.9-3.2c1.6,0.2,1.9,2.4,1.9,2.4s0,0.8-0.7,0.6c-0.8-0.2-1-1.9-1-1.9
					s-1.1,1.4-1,2.3c0.2,0.9-0.2,0.8-0.2,0.8l-1.2-0.5L162.8,134.2z"/>
				<path class="st36" d="M161.2,134.2c0,0-0.5-5.4-1.5-5.5s0.5,6.2,0.5,6.2l0.4,0.3l0.9-0.3L161.2,134.2z"/>
				<circle class="st36" cx="162.3" cy="136.9" r="2.8"/>
				<ellipse class="st36" cx="161.3" cy="136.2" rx="0.1" ry="0.6"/>
				<ellipse class="st36" cx="163.2" cy="136.2" rx="0.1" ry="0.6"/>
				<line class="st37" x1="161" y1="137.4" x2="159.3" y2="138"/>
				<line class="st37" x1="161.2" y1="138" x2="159.5" y2="139"/>
				<line class="st37" x1="163.4" y1="137.4" x2="165.1" y2="138"/>
				<line class="st37" x1="163.2" y1="138" x2="164.9" y2="139"/>
				<line class="st37" x1="161.7" y1="137.7" x2="162.6" y2="138.4"/>
				<line class="st37" x1="162.6" y1="137.7" x2="161.8" y2="138.4"/>
			</g>
		</g>
	</g>
</g>
</svg>
