<?xml version="1.0" encoding="utf-8"?>
<!-- Generator: Adobe Illustrator 21.1.0, SVG Export Plug-In . SVG Version: 6.00 Build 0)  -->
<svg version="1.1" id="Layer_1" xmlns="http://www.w3.org/2000/svg" xmlns:xlink="http://www.w3.org/1999/xlink" x="0px" y="0px"
	 viewBox="0 0 325.3 560" style="enable-background:new 0 0 325.3 560;" xml:space="preserve">
<style type="text/css">
	.st0{fill:#4D4545;}
	.st1{fill:#FFFFFF;}
	.st2{fill:#FFFFFF;stroke:#000000;stroke-miterlimit:10;}
	.st3{fill:url(#SVGID_1_);}
	.st4{fill:url(#SVGID_2_);}
	.st5{fill:url(#SVGID_3_);}
	.st6{fill:url(#SVGID_4_);}
	.st7{fill:url(#SVGID_5_);}
	.st8{fill:url(#SVGID_6_);}
	.st9{fill:url(#SVGID_7_);}
	.st10{fill:url(#SVGID_8_);}
	.st11{fill:url(#SVGID_9_);}
	.st12{fill:url(#SVGID_10_);}
	.st13{fill:url(#SVGID_11_);}
	.st14{fill:url(#SVGID_12_);}
	.st15{fill:#FFD0A9;stroke:#000000;stroke-width:0.5;stroke-miterlimit:10;}
	.st16{fill:#CCA689;}
	.st17{fill:none;stroke:#000000;stroke-width:0.5;stroke-miterlimit:10;}
	.st18{fill:url(#SVGID_13_);stroke:#000000;stroke-width:0.5;stroke-miterlimit:10;}
	.st19{fill:url(#SVGID_14_);stroke:#000000;stroke-width:0.5;stroke-miterlimit:10;}
	.st20{fill:#020202;}
	.st21{fill:#FF4800;stroke:#000000;stroke-width:0.5;stroke-miterlimit:10;}
	.st22{fill:#450000;stroke:#000000;stroke-width:0.5;stroke-miterlimit:10;}
	.st23{fill:#BC5622;stroke:#000000;stroke-width:0.5;stroke-miterlimit:10;}
	.st24{fill:#932929;stroke:#450000;stroke-width:0.5;stroke-miterlimit:10;}
	.st25{fill:#195858;stroke:#000000;stroke-width:0.25;stroke-miterlimit:10;}
	.st26{fill:#688927;}
	.st27{opacity:0.51;fill:#144443;enable-background:new    ;}
	.st28{fill:#8CAD4A;}
	.st29{fill:#932929;stroke:#000000;stroke-width:0.5;stroke-miterlimit:10;}
	.st30{fill:#2BEFF9;}
	.st31{opacity:0.54;fill:#7C2525;enable-background:new    ;}
	.st32{opacity:0.5;fill:#144443;enable-background:new    ;}
	.st33{fill:#144443;}
	.st34{opacity:0.43;fill:#450000;enable-background:new    ;}
	.st35{fill:#932929;}
	.st36{fill:#932929;stroke:#000000;stroke-width:0.56;stroke-miterlimit:10;}
	.st37{fill:none;stroke:#000000;stroke-width:0.56;stroke-miterlimit:10;}
</style>
<title>bgIndex</title>
<g id="Layer_2">
	<g id="bgIndex">
		<rect id="bgGrey" class="st0" width="325" height="560"/>
		<g>
			<path class="st1" d="M208.5,375.8c2.4,6-2.4,39.2-9,76.7l6.7,5.4l-2.7,13.4l10.7,7.9l-15.3,7.9l18.3,12.4l14.2,4l4.1-10.2l0,0
				l-2.3-1.5c0,0,18.3-7.3,18.4-9.3c0.1-2,13,2,13,2l-10.6,7.3h10.6l-6.1,8l-3.6,3.4l1.6,2.3l2.2-0.5l7.5-7.5l-4.1,6.8l8.4-1.8
				l8.9-4.5l0.1-0.5l0.4,0.2l3.1-1.6l9.3,8.4l0.5,0.3l0.2,0.4l4,3.6l0.3,4.1l4.5,8.2l-4,0.4l0.5,7.3l13.8-10.7l-9.9-6.3l7-29.3
				l-36-4.4l25.2-27l-25.2-7.3l3.3-36v34.7l25.4,6l-15,24.7l31.6,6.7l-10.8-3.3l-5.4-8.4l9.9,8.4l8.1-3.3c0,0-9.7-6.7-9.9-8.4
				c0-0.5,0.2-0.9,0.6-1.1c-1.6-1-3.4-5.2-3.3-7.9c0.1-3.3,4.4-1.3,4.4-1.3l14.4,5.4c0,0,4.7,1.2,9.9,2.4
				c-3.3-19-8.1-41.4-15.1-67.8C293,287,208,304.3,208,304.3s-33.8-1-37.8-6.8s18.2-7,27.8-14.5s9.6-27,9.2-37.2
				c-0.9-23.3-27.2-34.3-41.6-32.5c-14.4,1.8-37.8-17.5-1.3-28.8c36.5-11.3,10-27.2-1.8-27.4s2.1-8.5,2.1-8.5l-1.2,0.5
				c-7-1-15.5,10.6-0.9,10.6c13.4,0,22.5,15.2,0,18.5c-25.7,3.7-37,42.8,0.1,43.7S199,274,162.5,274s-32,44,0,52.2
				S208.5,375.8,208.5,375.8z"/>
		</g>
		<path class="st1" d="M241.7,520.2l-2.2-6.5l10.3-12.6l4.6-3l-6.2-3.6l-28.9,8.7l9.9,32.5c4.9-3.4,10.5-7.6,16.8-12.6L241.7,520.2z
			"/>
		<polygon class="st2" points="341.8,538.7 342,535.5 340.7,537.8 		"/>
		<polygon class="st1" points="116.6,460.3 113.6,472 126.3,480.5 119.9,494.3 148.8,500.6 146.6,482.3 		"/>
		<polygon class="st1" points="367.2,594.3 365.4,614.4 338.4,606.6 322.6,600.1 329.7,615.7 355.8,623.5 373.3,619.8 373.7,599.2 
			387.3,599.1 		"/>
		<polygon class="st2" points="343,500.6 343,500.6 343,500.6 		"/>
		<polygon class="st2" points="432.6,537.8 401,531.2 416,506.5 390.6,500.5 390.6,465.8 387.3,501.8 412.5,509.2 387.3,536.2 
			423.3,540.5 416.4,569.8 426.3,576.2 456.9,596.6 457,576.1 457,576.1 424.3,566.8 		"/>
		<path class="st1" d="M265.5,518.2l-8.3,23.7l19.3,6.6c1.9-9.5,3.9-19.8,5.9-30.3H265.5z"/>
		<path class="st1" d="M206.3,558.2l-4.6-34.5l-2.9-3c-8.9,5.9-17.7,11.5-25.9,16.8l14.3,30.7L206.3,558.2z"/>
		<path class="st2" d="M421.8,616l6.4-3c0,0,6.4-3,1.7-6.2c-4.7-3.2-18-12.5-18-12.5l-3.9,8.7c0,0,1.2,26,2.2,26s16-5,16-5
			L421.8,616z"/>
		<path class="st1" d="M169,473.3l-6.7,10l8.3,5.3L164,496l5.6,4.9c1.5-8,2.9-15.9,4.3-23.7L169,473.3z"/>
		<path class="st1" d="M187.9,516.9l-2.8-13l10.8-8.3l-1.5-8.5c-6.2,4.9-12.5,10-18.9,15l0.6,4.5L187.9,516.9z"/>
		<path class="st1" d="M135.1,555.5c0,0,7.1-6,6.4-7c-0.7-1,1-7.3,1-7.3l3.3-6.3l10.7-10l6.1-8H152l10.6-7.3c0,0-12.9-3.9-13-2
			c-0.1,2-18.4,9.3-18.4,9.3l14.6,9.7l-14.6,11L135.1,555.5z"/>
		<path class="st2" d="M277.9,586.7c0,0,15.7,1.3,15.7,0c0-0.7,1.9-5.9,3.6-10.3h-28L277.9,586.7z"/>
		<path class="st2" d="M233.1,613.7l4.3-12.5l-2-9.6l6.8-5.7l-7.5-6.4l-2,6.4c0,0-1.7,21-3,22.5s-12.7,7.5-12.7,7.5l13.3,10.7
			l-18.8,4h28c1.4-3.6,2.6-6.7,2.6-6.7L233.1,613.7z"/>
		<polygon class="st2" points="181.6,579.7 190.9,578.4 194.4,572 187,572 		"/>
		<polygon class="st2" points="223.5,579.5 214.5,579.5 216.5,585.8 215,587.8 222.4,587.8 223.5,585.8 		"/>
		<path class="st1" d="M205.3,508l-5.5-4l-0.2,4.2C202.9,508.1,205.3,508,205.3,508z"/>
		<path class="st1" d="M183.8,480.7l4-7.2l-3.6-1.5c-0.1,0.8-0.2,1.1-0.2,1.1L183.8,480.7z"/>
		<path class="st1" d="M295.7,548.6l-4.3-7.9h-4.7l-6.4,2.6l6.6,1.7c0,0,10.4,7.3,9.4,8.7s-9.3,7.7-7.7,8.7c1.1,0.6,9,0.5,14.7,0.3
			l0.2-4.2l-1.2-0.8l1.3-2.3l0.3-7.5c0,0,0.1-0.4,0.2-1.1l-3.7-1.5L295.7,548.6z"/>
		<path class="st1" d="M229.7,564.1l2.4-5.1l-6.1-2.9c0,0-9.2-1.9-8.8-0.9c0.4,1-1.4,9.1-1.4,9.1l-11.7,7.1l13.8-4.4l7.8,2.8
			L229.7,564.1z"/>
		<polygon class="st1" points="374,544.9 372.3,553.6 374,555 382.7,562.2 377.5,570.2 396.3,568.5 387.3,552.2 		"/>
		<path class="st2" d="M134.8,590l-6.3-19.1l-8,8.1l9.3,24.6h2.2l0-0.7C132.1,602.9,133.1,598.1,134.8,590z"/>
		<path class="st2" d="M154.6,583.4c0-1-9.4-6.6-9.4-6.6v0c-1.7,8.1-2.7,12.9-2.7,12.9l0,0.7h10.1
			C152.6,590.4,154.6,584.4,154.6,583.4z"/>
		<path class="st2" d="M271.6,565.8l-11.8,2.7h-7.2l-2.7,0.4c-1.9,0.6-7.6,6.6-7.6,6.6l1.8,8.3l8.5-3.3v-9l11.8-2.6l13,2.6l3.1-7.8
			l-6.8-2.8L271.6,565.8z"/>
		<path class="st2" d="M256.5,606.7l-3.2,5.1l-4.4,5.6c0,0,5.3,4.2,4.6,5.4c-0.6,1.2-2.3,7.8-2.3,7.8l10.5-9.1v-13.2l3.1-4.7
			l-3.1-2.7L256.5,606.7z"/>
		<path class="st1" d="M339.9,500.9l15.3-14.3c0,0-15.3-14-16.3-14c-0.5,0-6.9-1.5-12.8-2.9c2.3,13.4,3.9,25,4.9,34.9L339.9,500.9z"
			/>
		<path class="st2" d="M312.3,446.3c1.2-0.7-0.2-0.7-1.1-0.1C311.5,446.5,311.9,446.5,312.3,446.3z"/>
		<path class="st1" d="M335.9,509.3c0,0-1-4.6-3.8-2.7c-2.2,1.5-4.4,5.5-4.2,7.4c1,0.3,1.9,1.5,0.6,1c-0.4-0.2-0.5-0.5-0.6-1
			c-0.4-0.1-0.9-0.1-1.3,0.2c-1.2,1.1-0.6,12.9-0.6,12.9l-7.6-4.4l0.6-13l-3.3,9.5l4,10.6l6.5,3l-4.3,3.3l-9.2,13.4l2.8,6.3l4.5,2.6
			c7.2-6.9,15.5-15.2,24.6-25.2c-2.2-4.8-4.2-9.3-4.2-9.3L335.9,509.3z"/>
		<path class="st1" d="M166.2,568.6l-7.3-3.6l4.2,7.7l3.2,4.1l4.7-0.6c0.4-1.9,0.8-3.8,1.1-5.7L166.2,568.6z"/>
		<path class="st1" d="M242,547.4l12.7,6l-2.8-12.3l-7.6,4.7l-6.7-4.7l-6.8-2.2c-0.4,1.9-0.8,3.9-1.1,5.7l4-0.5L242,547.4z"/>
		<polygon class="st0" points="206.2,457.9 216.7,448.3 216.7,438.7 219,447.9 204.8,460.3 		"/>
		<polygon class="st0" points="218.1,480.5 235.6,474.7 239.7,465.8 236.9,477 225.3,480.5 218.1,483 214.3,479.2 		"/>
		<polygon class="st0" points="306.7,408.3 296.9,413.2 295.7,413.8 293.7,424.3 298.5,413.8 306.7,410.5 309.7,405.8 321.7,391.8 
			319.7,388 		"/>
		<polygon class="st0" points="302,465 306.7,457.2 302,455 298.5,455 302.6,457.2 300,465 		"/>
		<polygon class="st0" points="251.8,482.6 261.3,469.7 251.8,465.8 261.3,460 261.3,455 262.7,461.5 254.7,465.8 262.7,467.7 
			256.9,482.5 		"/>
		<polygon class="st0" points="235.6,512.7 229.7,515.2 227,520.7 231.3,516.9 235.6,515.2 239.7,510.7 243.4,509 243.4,506.9 
			239.7,509 		"/>
		<polygon class="st0" points="229.7,503 229.7,506.9 235.2,508.7 235.2,506.9 231.5,501 233.2,499.3 228.3,500.6 		"/>
		<polygon class="st0" points="307.5,490.4 293.7,489 286.7,484.7 279.6,490.3 271.7,487.5 277.9,492.5 287,487.1 293.7,492.5 
			306.7,492.5 		"/>
		<polygon class="st0" points="342,477.7 336.6,483 345,487.1 345,492.5 343,494.6 348,490 348,486.1 342,482.5 344.7,480.5 
			346.8,479.1 343.8,476.4 		"/>
		<polygon class="st0" points="333.2,448.8 322.6,446.8 328.8,443.4 319.7,434 324.6,431 328.4,426.4 323.2,430.3 318.6,433 
			327.2,443.4 321.2,447 335.7,453.7 334.1,448.8 		"/>
		<polygon class="st0" points="272.6,442.8 263.2,446.8 269.9,437.8 262.2,430.4 269.3,414.8 260.6,429.7 257.8,430.1 256.2,435.2 
			248.6,429.6 255.9,437.1 258.6,435.6 258.8,431.6 260.6,431 268.3,438.7 261,445.8 262.7,449.5 273.2,446.4 276.6,444.8 
			273.4,442.8 		"/>
		<polygon class="st0" points="279.1,442.4 289.8,437 285.3,432.1 293.7,432.1 291.3,426.4 283.1,424.9 282.3,428.9 279.5,419.9 
			282.2,425.2 283,422.2 284.1,423.8 288.9,424.3 291.3,425.4 294.2,430.2 295.2,432.1 299.3,429.1 296.8,424.9 301.8,421 
			301,418.8 304.3,417.7 306.7,419.7 305.8,423.5 305.7,420.2 304.2,418.5 302.1,419.2 303.2,421.6 298.5,425.2 300.4,428.2 
			299.6,430.5 296.8,432.9 297.8,436.1 303.9,435.4 300.9,440.1 296.3,443.9 293.7,442.8 296.5,442.8 300.2,439.3 301.9,436.6 
			296.9,437.3 295.9,434.1 294.1,433.4 288.1,433.2 290.8,436.3 290.9,437.8 283.9,444.6 279.1,443.1 		"/>
		<polygon class="st0" points="277.6,472.7 280.1,465.8 271.7,465.8 270.8,461.1 270.8,456.8 266.8,456.8 271.7,452.1 273.4,453.4 
			271.7,453.2 268.9,455.9 272,455.9 272.2,462 272.9,464 273.9,464.7 280.1,465 282.8,461.8 280.6,459.4 282.8,456.7 286.5,458.9 
			283.4,457.8 281.8,459.2 283.3,461.1 284.1,463 281.3,465.5 281.7,469.7 278,473.2 		"/>
		<path class="st0" d="M184.7,530.6c0.8,0.9,4.2,3.7,4.2,3.7l-6.3,7.1l-3,1.9l2.8,7.2l5.4,5h4.2l-3.8-2.1l-4.4-3.6l9-5.3l5.8,4.3
			l-1.7,5.3l5.2-4.9l-4.6-3.9l-5.8-3.6l-8.3,5.9l-1.7-3.7l5.8-4.3l3.4-3.8c0,0,3.3-3.2,4.3-1.2s4.1,4.8,4.1,4.8l2.2-2.2l1.1-0.6V534
			l-1.8,1.8l-1.6,1.3l-3.2-4.5l-2.8-0.3l-2.9,1.5l-5.5-4L184.7,530.6z"/>
		<polygon class="st0" points="189.6,494.2 191,494.6 186.2,496.7 183.3,497.3 181.6,499.9 183.2,502.6 183.1,500.1 184.2,497.9 
			186.5,497.2 189.1,496.7 188.9,498.3 186.5,498.8 186.2,501 187,501.3 187,500.2 187.4,499.3 189.6,498.8 190.4,496.7 191,495.8 
			192.1,494.6 191.7,493.9 194.9,493 		"/>
		<polygon class="st0" points="194.4,491.2 189.6,494.2 194.9,493 		"/>
		<polygon class="st0" points="214,422.8 226.9,426.4 229.7,410.5 240.1,421.7 243.4,414.8 242.2,426.4 232.3,418.4 228.3,430.8 
			232.3,440.1 239.7,441.7 225.5,446.4 228.3,442.4 225.5,432.1 204.3,422.9 		"/>
		<radialGradient id="SVGID_1_" cx="49.7567" cy="200.5767" r="25.7567" gradientUnits="userSpaceOnUse">
			<stop  offset="0" style="stop-color:#F1B4F1"/>
			<stop  offset="0.1235" style="stop-color:#F1B1ED"/>
			<stop  offset="0.252" style="stop-color:#F2A8E0"/>
			<stop  offset="0.3829" style="stop-color:#F298CB"/>
			<stop  offset="0.5154" style="stop-color:#F382AE"/>
			<stop  offset="0.6493" style="stop-color:#F46689"/>
			<stop  offset="0.7842" style="stop-color:#F6445B"/>
			<stop  offset="0.9174" style="stop-color:#F81C25"/>
			<stop  offset="1" style="stop-color:#F90000"/>
		</radialGradient>
		<circle class="st3" cx="49.8" cy="200.6" r="25.8"/>
		<radialGradient id="SVGID_2_" cx="75.5133" cy="139.5966" r="25.7567" gradientUnits="userSpaceOnUse">
			<stop  offset="0" style="stop-color:#F1B4F1"/>
			<stop  offset="0.1235" style="stop-color:#F1B1ED"/>
			<stop  offset="0.252" style="stop-color:#F2A8E0"/>
			<stop  offset="0.3829" style="stop-color:#F298CB"/>
			<stop  offset="0.5154" style="stop-color:#F382AE"/>
			<stop  offset="0.6493" style="stop-color:#F46689"/>
			<stop  offset="0.7842" style="stop-color:#F6445B"/>
			<stop  offset="0.9174" style="stop-color:#F81C25"/>
			<stop  offset="1" style="stop-color:#F90000"/>
		</radialGradient>
		<circle class="st4" cx="75.5" cy="139.6" r="25.8"/>
		<radialGradient id="SVGID_3_" cx="311.1243" cy="288" r="25.7567" gradientUnits="userSpaceOnUse">
			<stop  offset="0" style="stop-color:#F1B4F1"/>
			<stop  offset="0.1235" style="stop-color:#F1B1ED"/>
			<stop  offset="0.252" style="stop-color:#F2A8E0"/>
			<stop  offset="0.3829" style="stop-color:#F298CB"/>
			<stop  offset="0.5154" style="stop-color:#F382AE"/>
			<stop  offset="0.6493" style="stop-color:#F46689"/>
			<stop  offset="0.7842" style="stop-color:#F6445B"/>
			<stop  offset="0.9174" style="stop-color:#F81C25"/>
			<stop  offset="1" style="stop-color:#F90000"/>
		</radialGradient>
		<circle class="st5" cx="311.1" cy="288" r="25.8"/>
		<radialGradient id="SVGID_4_" cx="34.1951" cy="446.4474" r="25.7567" gradientUnits="userSpaceOnUse">
			<stop  offset="0" style="stop-color:#F1B4F1"/>
			<stop  offset="0.1235" style="stop-color:#F1B1ED"/>
			<stop  offset="0.252" style="stop-color:#F2A8E0"/>
			<stop  offset="0.3829" style="stop-color:#F298CB"/>
			<stop  offset="0.5154" style="stop-color:#F382AE"/>
			<stop  offset="0.6493" style="stop-color:#F46689"/>
			<stop  offset="0.7842" style="stop-color:#F6445B"/>
			<stop  offset="0.9174" style="stop-color:#F81C25"/>
			<stop  offset="1" style="stop-color:#F90000"/>
		</radialGradient>
		<circle class="st6" cx="34.2" cy="446.4" r="25.8"/>
		<radialGradient id="SVGID_5_" cx="119.7344" cy="351.7633" r="46.3672" gradientUnits="userSpaceOnUse">
			<stop  offset="0" style="stop-color:#F1B4F1"/>
			<stop  offset="0.1235" style="stop-color:#F1B1ED"/>
			<stop  offset="0.252" style="stop-color:#F2A8E0"/>
			<stop  offset="0.3829" style="stop-color:#F298CB"/>
			<stop  offset="0.5154" style="stop-color:#F382AE"/>
			<stop  offset="0.6493" style="stop-color:#F46689"/>
			<stop  offset="0.7842" style="stop-color:#F6445B"/>
			<stop  offset="0.9174" style="stop-color:#F81C25"/>
			<stop  offset="1" style="stop-color:#F90000"/>
		</radialGradient>
		<circle class="st7" cx="119.7" cy="351.8" r="46.4"/>
		<radialGradient id="SVGID_6_" cx="289.5686" cy="160.11" r="46.3672" gradientUnits="userSpaceOnUse">
			<stop  offset="0" style="stop-color:#F1B4F1"/>
			<stop  offset="0.1235" style="stop-color:#F1B1ED"/>
			<stop  offset="0.252" style="stop-color:#F2A8E0"/>
			<stop  offset="0.3829" style="stop-color:#F298CB"/>
			<stop  offset="0.5154" style="stop-color:#F382AE"/>
			<stop  offset="0.6493" style="stop-color:#F46689"/>
			<stop  offset="0.7842" style="stop-color:#F6445B"/>
			<stop  offset="0.9174" style="stop-color:#F81C25"/>
			<stop  offset="1" style="stop-color:#F90000"/>
		</radialGradient>
		<circle class="st8" cx="289.6" cy="160.1" r="46.4"/>
		<radialGradient id="SVGID_7_" cx="73.3671" cy="252.4154" r="13.4154" gradientUnits="userSpaceOnUse">
			<stop  offset="0" style="stop-color:#F1B4F1"/>
			<stop  offset="0.1235" style="stop-color:#F1B1ED"/>
			<stop  offset="0.252" style="stop-color:#F2A8E0"/>
			<stop  offset="0.3829" style="stop-color:#F298CB"/>
			<stop  offset="0.5154" style="stop-color:#F382AE"/>
			<stop  offset="0.6493" style="stop-color:#F46689"/>
			<stop  offset="0.7842" style="stop-color:#F6445B"/>
			<stop  offset="0.9174" style="stop-color:#F81C25"/>
			<stop  offset="1" style="stop-color:#F90000"/>
		</radialGradient>
		<circle class="st9" cx="73.4" cy="252.4" r="13.4"/>
		<radialGradient id="SVGID_8_" cx="307.815" cy="210.13" r="13.4154" gradientUnits="userSpaceOnUse">
			<stop  offset="0" style="stop-color:#F1B4F1"/>
			<stop  offset="0.1235" style="stop-color:#F1B1ED"/>
			<stop  offset="0.252" style="stop-color:#F2A8E0"/>
			<stop  offset="0.3829" style="stop-color:#F298CB"/>
			<stop  offset="0.5154" style="stop-color:#F382AE"/>
			<stop  offset="0.6493" style="stop-color:#F46689"/>
			<stop  offset="0.7842" style="stop-color:#F6445B"/>
			<stop  offset="0.9174" style="stop-color:#F81C25"/>
			<stop  offset="1" style="stop-color:#F90000"/>
		</radialGradient>
		<circle class="st10" cx="307.8" cy="210.1" r="13.4"/>
		<radialGradient id="SVGID_9_" cx="223.8233" cy="252.4154" r="13.4154" gradientUnits="userSpaceOnUse">
			<stop  offset="0" style="stop-color:#F1B4F1"/>
			<stop  offset="0.1235" style="stop-color:#F1B1ED"/>
			<stop  offset="0.252" style="stop-color:#F2A8E0"/>
			<stop  offset="0.3829" style="stop-color:#F298CB"/>
			<stop  offset="0.5154" style="stop-color:#F382AE"/>
			<stop  offset="0.6493" style="stop-color:#F46689"/>
			<stop  offset="0.7842" style="stop-color:#F6445B"/>
			<stop  offset="0.9174" style="stop-color:#F81C25"/>
			<stop  offset="1" style="stop-color:#F90000"/>
		</radialGradient>
		<circle class="st11" cx="223.8" cy="252.4" r="13.4"/>
		<radialGradient id="SVGID_10_" cx="304.8769" cy="105.5359" r="6.7077" gradientUnits="userSpaceOnUse">
			<stop  offset="0" style="stop-color:#F1B4F1"/>
			<stop  offset="0.1235" style="stop-color:#F1B1ED"/>
			<stop  offset="0.252" style="stop-color:#F2A8E0"/>
			<stop  offset="0.3829" style="stop-color:#F298CB"/>
			<stop  offset="0.5154" style="stop-color:#F382AE"/>
			<stop  offset="0.6493" style="stop-color:#F46689"/>
			<stop  offset="0.7842" style="stop-color:#F6445B"/>
			<stop  offset="0.9174" style="stop-color:#F81C25"/>
			<stop  offset="1" style="stop-color:#F90000"/>
		</radialGradient>
		<circle class="st12" cx="304.9" cy="105.5" r="6.7"/>
		<radialGradient id="SVGID_11_" cx="195.9636" cy="476.4069" r="6.7077" gradientUnits="userSpaceOnUse">
			<stop  offset="0" style="stop-color:#F1B4F1"/>
			<stop  offset="0.1235" style="stop-color:#F1B1ED"/>
			<stop  offset="0.252" style="stop-color:#F2A8E0"/>
			<stop  offset="0.3829" style="stop-color:#F298CB"/>
			<stop  offset="0.5154" style="stop-color:#F382AE"/>
			<stop  offset="0.6493" style="stop-color:#F46689"/>
			<stop  offset="0.7842" style="stop-color:#F6445B"/>
			<stop  offset="0.9174" style="stop-color:#F81C25"/>
			<stop  offset="1" style="stop-color:#F90000"/>
		</radialGradient>
		<circle class="st13" cx="196" cy="476.4" r="6.7"/>
		<radialGradient id="SVGID_12_" cx="173.8507" cy="380.1086" r="6.7077" gradientUnits="userSpaceOnUse">
			<stop  offset="0" style="stop-color:#F1B4F1"/>
			<stop  offset="0.1235" style="stop-color:#F1B1ED"/>
			<stop  offset="0.252" style="stop-color:#F2A8E0"/>
			<stop  offset="0.3829" style="stop-color:#F298CB"/>
			<stop  offset="0.5154" style="stop-color:#F382AE"/>
			<stop  offset="0.6493" style="stop-color:#F46689"/>
			<stop  offset="0.7842" style="stop-color:#F6445B"/>
			<stop  offset="0.9174" style="stop-color:#F81C25"/>
			<stop  offset="1" style="stop-color:#F90000"/>
		</radialGradient>
		<circle class="st14" cx="173.9" cy="380.1" r="6.7"/>
		<g id="logoGirl">
			<path class="st15" d="M245,182.1c0,0,5.5,5.9,5.5,9c0,0,12.8,7.6,13.8,6.9c0,0,12.7-11.8,13.8-14.6l2.1-10.5c0,0,6-8.1,2-12.9
				c0,0-3-2.4-4.8,2.4c0,0-4-19.2-11.6-21.2s-33.6-5.3-33.6,13.9S243,178.4,245,182.1z"/>
			<path class="st16" d="M250.5,191.1c0,0,8.9,2.4,9.9,1.5c0.4,0.5,8.1-2.2,8.4-3.9c0.2-1.3,4.2-9.8,4.2-9.8s2.2-9.7,1.7-10.1
				s1.6,16.4,0.6,17.7s-9.4,7.6-11.4,7.8s-6.6,2.4-8.1,1.1S250.5,191.1,250.5,191.1z"/>
			<path class="st16" d="M238.3,142.3c0,0-11.5,20-8.5,17.8c0,0,10.5,20,8.6,18.4c0,0,1.4-3.2,0.6-9.2c0,0,0.8,7.3,3,7.9
				c-0.5-7-0.6-14-0.3-20.9c0,0-2.6,6.9,14.2,12.8c0,0-1.3-5.1-1.4-6.3c0,0,3.7,3.9,7.4,4.3c0,0-3.7-5.4-2.8-6.4c0,0-1,6.2,8.4,8
				l-4.6-6.3c0,0,4.7,2.8,8.3,3.3c0,0-7.9-7.8-7.7-8.7c0,0,9.9,13.5,13.2,12.7c0,0,0.2-8.3-3.8-12.4c0,0,6,12,4.1,25.8
				s4.9-1.9,2.5-6.4c-1.6-3-0.3-8.6,1.2-10.4c0,0,8.5-9-5-29C275.9,137,251.9,124.1,238.3,142.3z"/>
			<path class="st17" d="M242.9,165.6c0,0-0.8,7-2.9,9.6"/>
			<path class="st17" d="M255.8,160.1c0,0,12.8,1.4,13.9,0"/>
			<path class="st1" d="M243.2,177.7l5,4.3h2.4c0,0-1-7.2-3.9-9.3C244.5,171.1,243.2,177.7,243.2,177.7z"/>
			<path class="st17" d="M246.5,172.4c-3.1,0.8-3.5,5.6-3.5,5.6"/>
			<path class="st1" d="M258.9,167c0,0,6,7.8,7.2,7.8l3.2-2.4v-8.7c0,0-3.9-2.3-7.6-0.3S258.9,167,258.9,167z"/>
			<path class="st17" d="M258.4,166.4c2.4-3.6,7.1-4.9,11-3.1"/>
			
				<linearGradient id="SVGID_13_" gradientUnits="userSpaceOnUse" x1="265.3185" y1="387.74" x2="265.3185" y2="399.3085" gradientTransform="matrix(1 0 0 -1 0 562)">
				<stop  offset="0" style="stop-color:#00FFFF"/>
				<stop  offset="0.18" style="stop-color:#00C6E3"/>
				<stop  offset="0.59" style="stop-color:#0046A3"/>
				<stop  offset="0.77" style="stop-color:#00128A"/>
			</linearGradient>
			<path class="st18" d="M261.8,164.4c0.2,3.8,1.9,7.4,4.7,9.8l2.4-1.5c0,0,0.5-8.4-3-9.6S262.6,163.7,261.8,164.4z"/>
			
				<linearGradient id="SVGID_14_" gradientUnits="userSpaceOnUse" x1="247.5595" y1="380.25" x2="247.5595" y2="389.0039" gradientTransform="matrix(1 0 0 -1 0 562)">
				<stop  offset="0" style="stop-color:#00FFFF"/>
				<stop  offset="0.18" style="stop-color:#00C6E3"/>
				<stop  offset="0.59" style="stop-color:#0046A3"/>
				<stop  offset="0.77" style="stop-color:#00128A"/>
			</linearGradient>
			<path class="st19" d="M246.5,173.9c0,0,3.8,4.8,3.9,7.9h-1.9c-2.4-1.5-3.8-4.3-3.7-7.1C244.8,174.6,244.9,171.5,246.5,173.9z"/>
			
				<ellipse transform="matrix(0.9292 -0.3697 0.3697 0.9292 -43.1626 110.2898)" class="st20" cx="266.2" cy="167.8" rx="0.7" ry="2.3"/>
			<ellipse transform="matrix(0.866 -0.5 0.5 0.866 -55.67 147.3252)" class="st20" cx="247.1" cy="177.5" rx="0.6" ry="2.1"/>
			<line class="st17" x1="254.9" y1="182.8" x2="254.9" y2="184.1"/>
			<path class="st21" d="M261,191.2c0,0-6.1-1.2-1.5-4.6c3.1-2.3,5.5,0.8,4.6,2.4"/>
			<path class="st15" d="M213.5,288c0,0-2.8,0.1-3,1.9s3,0.6,3,0.6s-7.2,3.8-7.2,5.2s7.2-1,7.2-1s-3.4,5.2-3.6,6.2s3.4-0.8,4.4-1.1
				s-3.3,5.9-2.7,6.5s4.1-1.5,4.1-1.5l7.2-4.1l-6-12.1L213.5,288z"/>
			<path class="st15" d="M246.9,375.6c0,0-0.5,43-0.9,44.2s-3.6,21.1-9.2,25.8s11.2,5,11.2,5l6-10.9c0,0,2.9-18.9,4-20.1
				s10.2-38,9.9-39s-6.4-9.4-6.4-9.4l-9.8-1L246.9,375.6z"/>
			<path class="st15" d="M276.6,374.2c0,0,20,21.9,26.2,24.2c0,0,9.1,8.6,10.4,13.1c0.8,2.7,3,4.7,5.7,5.4l1.4-18
				c0,0-11.7-11.5-12.1-13.5s-10.9-18.4-10.9-18.4L276.6,374.2z"/>
			<path class="st22" d="M223.6,456.4c-0.9,0.1-1.6,0.7-1.8,1.5c-0.8,2.5-1.3,6,1,6.8c3.2,1.1,10.2-0.6,12.2-1.2
				c0.4-0.1,0.7-0.2,1-0.5c1.5-1.5,7.2-6.8,10.5-6c1.5,0.4,3,0.6,4.6,0.7c1.2,0.1,2.2-0.8,2.2-2c0,0,0-0.1,0-0.1v-9.9
				c0-0.7-0.3-1.4-0.9-1.8c-2.3-1.5-8.9-4.1-18.7,5.1C227.5,454.8,224.8,456.3,223.6,456.4z"/>
			<path class="st22" d="M316.7,398.3c0,0-1.8,23.3-4,28s5.3,4.7,5.3,4.7l5.7-2.3l1.3-30.3C325,398.3,318.7,394.3,316.7,398.3z"/>
			<path class="st23" d="M249,189.5c0,0,0.8,17.3-0.8,20.6c0,0,5.8-8,5.6-9.5c0,0-0.5,5.9-1.2,6.8c0,0,1.6-2.2,2.2-3
				s3.5-8.8,3.5-8.8S248.5,190.9,249,189.5z"/>
			<path class="st24" d="M249.5,302.9c0,0-16.1,52.9-18,56.8c0,0,15.9,22.1,32.4,20.4s37.8-3.8,46-14c0,0,5.8-9.6,8.1-8.6
				c0,0-19.5-57.2-16.8-58.6L251,300C250.4,300.9,249.9,301.9,249.5,302.9z"/>
			<path class="st25" d="M243,217.6c0,0-3,14.5-1.5,16.2s4.2,4.6,4.2,4.6l-2.3-1.8c0,0,2.5,8.1-2.3,19.2c0,0-1,2.8,2.3,5.2
				c0,0-2.7-3.1-3.4-1.9s-23.9,27.2-25.2,27.1c0,0-4.2,25.9,10.1,26.5c0,0,5.2-0.6,6.5-2.5c0,0,22.1-40.5,21.6-41.8l-3.5,2
				c0,0,5.9-2,7-7.6s1.2-43.4-7.9-47.9c4.9,4.9,7.7,11.5,7.9,18.4c0.4,11.7,0.5,31.6,0.5,31.6l-3.5,4.8c0,0-3.8,26.6-6.1,29.2
				c0,0,14.6,15.9,28.7,13.8s29.2-17.6,29.2-19c0,0-1.9-10.5-3.4-20.8c-1.3-8.8-2.2-17.3-1.5-18.9l2.1,18.5c0,0,12-13.4,12.5-20.5
				l-7.3-14.9l-9.4-29.2c0,0-37.8-7.2-44.4,0C254.2,208.2,243.5,214.9,243,217.6z"/>
			<path class="st26" d="M251.1,193.9c0,0,2.2,14.2,0,16.5s11-10.2,19-3.7s12.6-2.2,12.6-2.2c6.9-9.7,7.1-16.8-2.5-20
				c0,0-22.2,13.7-29,7.4L251.1,193.9z"/>
			<path class="st27" d="M256.9,217.3c0,0,16.4,9.6,15.1,13.6s14.4,74.2,14.4,74.2l16-17.3L283.5,238
				C283.5,238,279.4,219.3,256.9,217.3z"/>
			<path class="st28" d="M249.2,211.6c6.6,5.9,27.3,11.6,27.1,23.1c-0.4,22.1,13,65.5,13,65.5s17.5-14.6,18.5-20.2
				c1,6-15-34.3-15.8-51c-0.5-11.4-21.5-29.2-35.7-29.2c-4.8,0.7-6-5-5.3-7.9C252.2,187.5,245.2,208.1,249.2,211.6z"/>
			<path class="st29" d="M236,135.5c0,0-13.5,2.5-17,35.5c0,0,5.5-15.5,8.5-17.8c0,0-7,9.2,3,25.8c0,0-2.2-10.9-1.2-12.9
				c0,0,3.4,12.5,9.2,15.8c0,0-0.5-8.6-2.4-10.2c0,0,3.5,10.2,9.6,14.1l-2.6-5.6c0,0-5.6-11.8-6.4-17.8c0,0,3.9,9,6,9.6
				c0,0-5.5-11.9-3.9-21.1c0,0,0.5,12.4,16.2,17.8c0,0-5.5-10.8-5.6-12c0,0,8.2,9.1,11.9,9.5c0,0-5.4-11.5-4.5-12.5c0,0-1,6.2,8.4,8
				l-4.8-7.5c0,0,6.5,7,10.1,7.5c0,0-7.5-8.6-7.4-9.5c0,0,7.8,11.3,11.2,10.6c0,0,0.2-8.3-3.8-12.4c0,0,6,12,4.1,25.8
				s-7.9,6.2-5.6,30c0,0,1.2,4.6,2,4.2c0,0-0.9-9.4,0.4-10.1l1.4-3.2c0,0,0.5,9.1,2.2,10c0,0-0.5-20.1,3.2-25.1
				c0,0,1.3-7.7-1.1-12.1c-1.6-3-0.3-8.6,1.2-10.4c0,0,10.5-2.4,1.3,15.2c0,0-3,45.3-6,50.5c0,0,4-6.9,4.2-12c0,0,3.1,25.8,2.2,27.2
				c0,0,2.1-17,1.2-20.9c0,0,6.1,26.9,4.9,28.9l1-18.4c0,0,4.6,32.4,2.9,36.6c0,0,6.8-10.2,6.5-11.8c0,0-1.8,10-2,10.8
				c0,0,8.8-17.9,8-20.4c0,0,0.9,13-0.5,14.4c0,0,7.8-10.2,4.4-40.2c0,0,5.6,9.2,6,16.5c0,0,0.1-28.6-16.9-45.6c0,0-2-15.8,1.8-28.9
				c0,0,3.5-22.9-12.1-33.1S249.6,117.3,236,135.5z"/>
			<ellipse class="st1" cx="266.6" cy="165" rx="2.7" ry="1.9"/>
			<path class="st30" d="M272,171.8c-0.2,1.3-1.4,2.2-2.7,2.1c-1.5,0-2.7,0-2.7-1.1s1.2-1.9,2.7-1.9S272,170.7,272,171.8z"/>
			<ellipse transform="matrix(0.5 -0.866 0.866 0.5 -27.8102 300.6808)" class="st1" cx="246.5" cy="174.4" rx="1.4" ry="1.4"/>
			<path class="st31" d="M286.5,246l-0.1,2.2C286.6,247.5,286.6,246.7,286.5,246z"/>
			<path class="st31" d="M302.4,259.3l-0.1,0.2C302.3,259.4,302.4,259.4,302.4,259.3z"/>
			<path class="st31" d="M280.4,239c-0.1,0.8-0.1,1.2-0.1,1.2C280.4,239.8,280.4,239.4,280.4,239z"/>
			<path class="st31" d="M306.6,219.2c0,0,5.6,9.2,6,16.5c0,0,0.1-28.6-16.9-45.6c0,0-2-15.8,1.8-28.9c0,0,1.8-16.5-1.8-14.2
				c-4.2,2.7-11.8,3.8-20.1,3.9c-0.5-3.8-11.6-8.8-11.6-8.8c3.4,1.3,4.2,7.6,4.4,8.7c-8.1-0.3-16.2-1.4-24.2-3.3
				c0,0-21.6-9.6-25.1,23.4c0,0,5.5-15.5,8.5-17.8c0,0-7,9.2,3,25.8c0,0-2.2-10.9-1.2-12.9c0,0,3.4,12.5,9.2,15.8
				c-0.1-2.2-0.4-4.5-0.9-6.7c1.6,3.3,4.4,8.2,8.1,10.6l-2.6-5.6c0,0-5.6-11.8-6.4-17.8c0,0,3.9,9,6,9.6c0,0-5.5-11.9-3.9-21.1
				c0,0,0.5,12.4,16.2,17.8c0,0-5.5-10.8-5.6-12c0,0,8.2,9.1,11.9,9.5c0,0-2.6-5.5-3.9-9.3c0.9,1.8,3,3.9,7.8,4.8l-4.8-7.5
				c0,0,6.5,7,10.1,7.5c0,0-7.5-8.6-7.4-9.5c0,0,7.8,11.3,11.2,10.6c0.8,4.4,0.9,8.9,0.3,13.3c-1.9,13.8-7.9,6.2-5.6,30
				c0,0,1.2,4.6,2,4.2c0,0-0.9-9.4,0.4-10.1l1.4-3.2c0,0,0.5,9.1,2.2,10c0,0-0.5-20.1,3.2-25.1c0,0,1.3-7.7-1.1-12.1
				c-1.6-3-0.3-8.6,1.2-10.4c0,0,10.5-2.4,1.3,15.2c0,0-3,45.3-6,50.5c0,0,4-6.9,4.2-12c0,0,2.5,20.6,2.4,26
				c0.5-4,1.8-16.4,1.1-19.6c0,0,4.5,19.8,5,26.6l0.9-16.1c0,0,4.6,32.4,2.9,36.6c0,0,5.5-8.3,6.4-11.1c-0.4,2.3-1.7,9.4-1.9,10.1
				c0,0,7.8-15.9,8-19.8c0.1,2.4,0.6,11.7-0.4,13.6C303.5,257.7,309.7,246.8,306.6,219.2z M256.9,153.6c0,0.4,0,0.8,0,1.2
				C256.8,154.2,256.7,153.8,256.9,153.6z M274.4,151L274.4,151z"/>
			<path class="st32" d="M246.5,214.8c0,0,10.3,40.6,7.3,46.9c0,0-5.9,8.8-8.6,8.9c0,0,2,2.8,2.7,2.4L219,309.5
				c0,0,5.3,5.5,11.8,0.8l21.3-40.1c0,0,3.7-6,3.8-6.7s2.5-14.8-1.5-36c-1.9-10-5-11.2-7.6-13.2L246.5,214.8z"/>
			<path class="st33" d="M248.2,299.3c0,0,8.8,7.4,10.1,7.7c0,0,3-38.2,2.7-39s-1.1-42.1-3.8-44.8s-6.3-9.5-10.2-10.1
				c0,0,6.4,8.3,7,9.8s3.6,19.7,3.4,21s-1.1,12.4-1.7,13.3l-0.4,11.3l-1.4,1.5C254.2,270,249.4,298.2,248.2,299.3z"/>
			<path class="st34" d="M247.9,307c0,0,12.5,11.1,23.8,11s30.2-12.4,30.2-12.4l-1-6.1c0,0-17.7,14.4-27.1,14.3s-20.6-8.7-20.6-8.7
				l-3.2-3.5L247.9,307z"/>
		</g>
		<g id="Title">
			<path class="st35" d="M88.5,75.8c0.5-0.3,1.1-0.5,1.7-0.5c0.7,0,1.4,0.2,2,0.7c0.6,0.5,0.9,1.2,0.8,2c0,0.4-0.1,0.8-0.2,1.2
				l-10.3,28.5c-0.2,0.6-0.7,1.1-1.3,1.5c-0.6,0.4-1.3,0.5-1.9,0.5c-0.7,0-1.4-0.2-2-0.5c-0.6-0.3-1-0.9-1.2-1.5l-8-22.6l-8.1,22.6
				c-0.2,0.6-0.7,1.1-1.3,1.5c-1.2,0.7-2.7,0.7-3.9,0c-0.6-0.3-1-0.9-1.2-1.5L43.2,79.2C43.1,78.8,43,78.4,43,78
				c0-0.7,0.3-1.5,0.9-1.9c1.1-0.9,2.6-1,3.8-0.2c0.5,0.3,0.9,0.8,1.1,1.4l8.2,23.5l8.4-23.3c0.2-0.6,0.6-1.1,1.1-1.5
				c0.5-0.4,1.1-0.6,1.7-0.6c0.6,0,1.2,0.2,1.7,0.6c0.5,0.4,0.9,0.9,1.2,1.5l8.1,23.6l8.3-23.8C87.6,76.7,88,76.2,88.5,75.8z"/>
			<path class="st35" d="M119.7,95.1v11.8c0,0.8-0.2,1.5-0.8,2.1c-0.6,0.5-1.4,0.8-2.2,0.8c-0.8,0-1.6-0.2-2.2-0.8
				c-0.6-0.6-0.9-1.3-0.8-2.1V95.1c0.1-1.3-0.2-2.6-1-3.7c-0.9-0.9-2-1.3-3.2-1.2c-1.6-0.1-3.1,0.5-4.2,1.6
				c-1.1,1.2-1.6,2.8-1.6,4.4v10.7c0,0.8-0.3,1.6-0.8,2.1c-0.6,0.5-1.4,0.8-2.2,0.8c-0.8,0-1.6-0.2-2.2-0.8
				c-0.5-0.6-0.8-1.3-0.8-2.1V78.2c0-0.8,0.3-1.5,0.8-2c0.6-0.5,1.4-0.8,2.2-0.8c0.8,0,1.6,0.2,2.2,0.7c0.6,0.5,0.9,1.2,0.8,2v11.1
				c0.8-1.2,1.9-2.2,3.2-2.9c1.4-0.7,3-1,4.5-1C117,85.4,119.7,88.6,119.7,95.1z"/>
			<path class="st35" d="M130.2,108.4c-1.8-1-3.3-2.5-4.2-4.3c-1-2-1.5-4.2-1.5-6.5c-0.1-2.2,0.5-4.5,1.5-6.5c1-1.8,2.4-3.3,4.2-4.2
				c4-2,8.6-2,12.6,0c1.8,1,3.2,2.4,4.2,4.2c1,2,1.5,4.2,1.5,6.5c0.1,2.2-0.5,4.5-1.5,6.5c-0.9,1.8-2.4,3.3-4.2,4.3
				C138.8,110.3,134.2,110.3,130.2,108.4L130.2,108.4z M140.9,103.3c1.1-1.7,1.7-3.7,1.5-5.7c0.1-2-0.4-4-1.5-5.6
				c-1.1-1.3-2.7-2.1-4.4-2c-1.7-0.1-3.4,0.7-4.4,2c-1.1,1.6-1.7,3.6-1.6,5.6c-0.1,2,0.4,4,1.5,5.7c1.1,1.3,2.7,2,4.4,1.9
				C138.2,105.3,139.8,104.6,140.9,103.3z"/>
			<path class="st35" d="M183.9,87.8c1.6,1.6,2.4,4.1,2.4,7.4v11.7c0,0.7-0.2,1.5-0.8,2c-0.6,0.5-1.3,0.8-2.1,0.7
				c-0.7,0-1.5-0.3-2-0.8c-0.5-0.5-0.8-1.3-0.8-2v-1.1c-0.5,1.2-1.4,2.3-2.6,2.9c-1.2,0.7-2.6,1.1-4.1,1.1c-1.5,0-2.9-0.3-4.3-1
				c-1.2-0.6-2.3-1.5-3-2.6c-0.7-1.1-1.1-2.4-1.1-3.7c-0.1-1.5,0.4-2.9,1.3-4.1c1.2-1.1,2.7-1.9,4.3-2.2c2.7-0.5,5.5-0.7,8.2-0.7
				h1.2v-1.1c0.1-1.2-0.2-2.5-1-3.4c-0.9-0.8-2.1-1.2-3.4-1c-1,0-1.9,0.1-2.8,0.4c-1,0.3-2.1,0.7-3.4,1.2c-0.6,0.3-1.2,0.5-1.8,0.6
				c-0.5,0-1.1-0.2-1.4-0.6c-0.4-0.5-0.6-1-0.6-1.6c0-0.5,0.1-1,0.4-1.4c0.4-0.5,0.8-0.9,1.4-1.2c1.3-0.7,2.6-1.1,4-1.4
				c1.5-0.3,3-0.5,4.6-0.5C179.9,85.4,182.3,86.2,183.9,87.8z M179,103.9c1-1.1,1.6-2.6,1.5-4.2v-1h-0.9c-1.7,0-3.3,0.1-5,0.3
				c-0.9,0.1-1.8,0.4-2.5,1c-0.5,0.5-0.8,1.3-0.8,2c0,1,0.4,1.9,1.1,2.5c0.7,0.7,1.7,1,2.7,1C176.6,105.6,178,105,179,103.9z"/>
			<path class="st35" d="M226.1,87.7c1.3,1.5,2,4,2,7.4v11.8c0.1,0.8-0.3,1.6-0.8,2.1c-0.6,0.5-1.4,0.8-2.2,0.7
				c-0.8,0-1.5-0.2-2.1-0.8c-0.6-0.6-0.9-1.3-0.8-2.1V95.1c0.1-1.3-0.2-2.7-0.9-3.8c-0.7-0.8-1.8-1.2-2.9-1.1
				c-1.4-0.1-2.8,0.5-3.7,1.6c-1,1.2-1.5,2.8-1.4,4.4v10.7c0.1,0.8-0.3,1.6-0.8,2.1c-0.6,0.5-1.4,0.8-2.1,0.7
				c-0.8,0-1.6-0.2-2.2-0.7c-0.6-0.5-0.9-1.3-0.9-2.1V95.1c0.1-1.3-0.2-2.7-0.9-3.8c-0.7-0.8-1.8-1.2-2.9-1.1
				c-1.4-0.1-2.8,0.5-3.7,1.6c-1,1.3-1.5,2.8-1.4,4.4v10.7c0.1,0.8-0.3,1.6-0.9,2.1c-0.6,0.5-1.4,0.8-2.2,0.7
				c-0.8,0-1.5-0.2-2.1-0.7c-0.6-0.6-0.9-1.3-0.8-2.1V88.3c0-0.8,0.3-1.5,0.9-2.1c0.6-0.5,1.4-0.7,2.2-0.7c0.7,0,1.4,0.2,2,0.7
				c0.6,0.5,0.8,1.2,0.8,2v1.2c0.7-1.2,1.7-2.3,3-2.9c1.3-0.7,2.8-1,4.2-1c3.5,0,5.9,1.5,7.1,4.4c0.7-1.4,1.8-2.5,3.1-3.2
				c1.4-0.8,3-1.2,4.7-1.2C222.4,85.3,224.6,86.1,226.1,87.7z"/>
			<path class="st35" d="M248.6,108.9c-0.6-0.6-0.9-1.4-0.8-2.3V78.4c-0.1-1.6,1.1-3,2.7-3.1c0.1,0,0.2,0,0.4,0
				c0.8,0,1.7,0.3,2.3,0.8c0.6,0.6,0.9,1.4,0.8,2.2v28.2c0,0.8-0.3,1.7-0.8,2.3c-0.6,0.6-1.4,0.9-2.3,0.9
				C250,109.8,249.2,109.5,248.6,108.9z"/>
			<path class="st35" d="M266.8,99.1c-0.4-0.4-0.5-1-0.5-1.6c0-1.5,0.3-3.1,1-4.5c0.8-1.4,1.7-2.8,2.8-4c0.8-0.9,1.5-1.9,2.1-2.9
				c0.5-0.8,0.7-1.7,0.7-2.6c0-1-0.4-1.9-1.2-2.5c-0.9-0.7-2.1-1-3.2-0.9c-1.1,0-2.3,0.3-3.3,0.7c-1.3,0.6-2.5,1.3-3.7,2.1
				c-0.6,0.4-1.3,0.6-2,0.7c-0.6,0-1.1-0.3-1.4-0.7c-1-1.2-0.7-3,0.5-3.9c0,0,0,0,0.1-0.1c1.4-1.2,3-2.1,4.8-2.7
				c1.8-0.7,3.6-1,5.5-1c1.8,0,3.6,0.3,5.2,1c1.4,0.6,2.6,1.5,3.6,2.8c0.8,1.2,1.3,2.6,1.3,4.1c0,1.5-0.4,3-1.2,4.3
				c-1,1.5-2.2,2.9-3.5,4.2c-1.1,1.1-2.1,2.2-3,3.4c-0.7,0.9-1.1,2-1.2,3.1c-0.1,0.5-0.3,0.9-0.6,1.2c-0.4,0.3-0.8,0.4-1.3,0.4
				C267.6,99.7,267.1,99.5,266.8,99.1z M265.7,108.7c-1.3-1.4-1.3-3.7,0-5.1c1.4-1.4,3.7-1.4,5.1,0c0.7,0.7,1,1.6,1,2.6
				c0,1-0.3,1.9-1,2.6C269.4,110.1,267.1,110.1,265.7,108.7L265.7,108.7z"/>
		</g>
	</g>
</g>
<g>
	<title>btnRabbit</title>
	<g id="Layer_2_2_">
		<g id="Layer_1-2_1_">
			<g id="rabbit_hi_1_">
				<ellipse transform="matrix(0.866 -0.5 0.5 0.866 -47.9687 97.9759)" class="st36" cx="158.8" cy="138.5" rx="1" ry="2.5"/>
				<ellipse transform="matrix(0.866 -0.5 0.5 0.866 -48.6945 101.6003)" class="st36" cx="165.2" cy="141.7" rx="1" ry="2.5"/>
				<ellipse transform="matrix(0.866 -0.5 0.5 0.866 -51.0577 101.6897)" class="st36" cx="164.2" cy="146.1" rx="1" ry="2.5"/>
				<ellipse transform="matrix(0.5 -0.866 0.866 0.5 -46.6682 211.9409)" class="st36" cx="160.2" cy="146.4" rx="2.5" ry="1"/>
				<ellipse class="st36" cx="162.2" cy="141.8" rx="2.6" ry="3.1"/>
				<path class="st36" d="M162.8,134.2c0,0,0.2-3.3,1.9-3.2c1.6,0.2,1.9,2.4,1.9,2.4s0,0.8-0.7,0.6c-0.8-0.2-1-1.9-1-1.9
					s-1.1,1.4-1,2.3c0.2,0.9-0.2,0.8-0.2,0.8l-1.2-0.5L162.8,134.2z"/>
				<path class="st36" d="M161.2,134.2c0,0-0.5-5.4-1.5-5.5c-1-0.1,0.5,6.2,0.5,6.2l0.4,0.3l0.9-0.3L161.2,134.2z"/>
				<circle class="st36" cx="162.3" cy="136.9" r="2.8"/>
				<ellipse class="st36" cx="161.3" cy="136.2" rx="0.1" ry="0.6"/>
				<ellipse class="st36" cx="163.2" cy="136.2" rx="0.1" ry="0.6"/>
				<line class="st37" x1="161" y1="137.4" x2="159.3" y2="138"/>
				<line class="st37" x1="161.2" y1="138" x2="159.5" y2="139"/>
				<line class="st37" x1="163.4" y1="137.4" x2="165.1" y2="138"/>
				<line class="st37" x1="163.2" y1="138" x2="164.9" y2="139"/>
				<line class="st37" x1="161.7" y1="137.7" x2="162.6" y2="138.4"/>
				<line class="st37" x1="162.6" y1="137.7" x2="161.8" y2="138.4"/>
			</g>
		</g>
	</g>
</g>
</svg>
