<?xml version="1.0" encoding="utf-8"?>
<!-- Generator: Adobe Illustrator 21.1.0, SVG Export Plug-In . SVG Version: 6.00 Build 0)  -->
<svg version="1.1" id="Layer_1" xmlns="http://www.w3.org/2000/svg" xmlns:xlink="http://www.w3.org/1999/xlink" x="0px" y="0px"
	 viewBox="0 0 322 562.5" style="enable-background:new 0 0 322 562.5;" xml:space="preserve">
<style type="text/css">
	.st0{opacity:0.5;enable-background:new    ;}
	.st1{fill:#FFD0A9;stroke:#000000;stroke-width:0.75;stroke-miterlimit:10;}
	.st2{fill:#932929;stroke:#000000;stroke-width:0.5;stroke-miterlimit:10;}
	.st3{fill:none;stroke:#000000;stroke-width:0.25;stroke-miterlimit:10;}
	.st4{fill:#FF0000;stroke:#000000;stroke-width:0.25;stroke-miterlimit:10;}
	.st5{fill:#450000;stroke:#000000;stroke-width:0.25;stroke-miterlimit:10;}
	.st6{fill:#195858;stroke:#000000;stroke-width:0.25;stroke-miterlimit:10;}
	.st7{fill:#8CAD4A;stroke:#000000;stroke-width:0.25;stroke-miterlimit:10;}
	.st8{fill:#688927;stroke:#000000;stroke-width:0.25;stroke-miterlimit:10;}
	.st9{fill:#00FFEC;}
	.st10{fill:#F8FFFF;stroke:#000000;stroke-width:0.25;stroke-miterlimit:10;}
	.st11{fill:#144443;}
</style>
<title>bkgdBunchase</title>
<g id="Layer_2">
	<g id="Layer_1-2">
		<g id="chapter3_beginning">
			<rect id="background" class="st0" width="322" height="562.5"/>
			<g id="content_girl_running_from_rabbit_">
				<path class="st1" d="M61.9,200.9c0,0-3.3,3.4-1.8,5.2c0,0,5.4-3.6,6.4-3.4c0,0-8.1,4.7-5.4,8.3c0,0,4.6-6.1,7.2-5.8
					c0,0-4.3,3.4-2.8,6.2c0,0-0.5-1.3,4.9-3.8l4.6-5.6l-4.9-4.7l-6.2,1.5L61.9,200.9z"/>
				<path class="st1" d="M157.8,197.2c0,0,2,3.3,1.8,5.2c0,0,0.1,2-0.9,1.9s-1.7-5.5-3.8-5.6c0,0,2.1,5.6,1.4,7.3
					c0,0-0.5,1.4-1.4,1.3s-0.1-7.1-2.4-7.1c0,0,1.8,5.2,0.5,6.7c0,0,0.9,2.2-3.7-4.6s-0.7-7.9-0.7-7.9l8.7,1.3L157.8,197.2z"/>
				<path class="st1" d="M61.9,243.2c0,0-5.6,10.3-4.7,14.5l8.5,0.6l6.4-0.6c0,0,8.6-13.4,8.5-15.8s-6.2-7.7-6.2-7.7
					s-9.3,2.2-9.4,2.6S61.9,243.2,61.9,243.2z"/>
				<path class="st1" d="M108.6,243.2c0,0,2.3,15.2,4.5,15.2h13.1c0,0,3.7-10.8,1.8-13.2c-1.9-2.4-9.4-5.9-9.4-5.9L108.6,243.2z"/>
				<path class="st1" d="M72.8,118.1c0,0,2,7.5,1.7,8.2S89.3,137,89.3,137l3,1.2c0,0,15-9.3,15.1-10.1s6.7-14.8,6.7-14.8
					s-3.1-23.2-10.7-24.6s-22.9-1.1-26.5,3.8S65.9,102,72.8,118.1z"/>
				<path class="st2" d="M76.2,88.2c0,0-19.1,0.1-22.9,11.2c0,0,12.1-8.8,16.9-7.1c0,0-16.3,5.2-12,22.7c0,0,3-10.8,4.2-11.1
					c0,0-3.1,13.4,1,20.6c0,0-0.2-10.3,1.5-11.3c0,0,4.7,18.2,7.6,19.2c0,0-1.1-14.9,0.4-15.2c0,0-5.2-15.1-0.1-18.3
					c0,0-5.1,4.4,0.5,16.9c0,0-0.4-8.7,1.3-8.9l1.2-4.2c0,0-2.1,8.1-0.4,10.5c0,0,2-10.6,4.2-11.3c0,0-1,9.4,0,9.7
					c0,0,3.6-12.7,5.1-13.1c0,0-0.2-4,0.5-4.2s-3.2,8.1,9,17.7c0,0-2.6-9-1.8-10.2c0,0,4.6,7.6,8.7,8.4c0,0-0.5-3.9,0-4.5
					s-1.3,5.6,5.5,6.9c0,0-0.4-10.9-2.5-11.4c0,0,2.6,1.9,5.3,30.4c0,0,17.5,17.1,19.6,24.6c0,0-3.1-12.2-4.4-12.6
					c0,0,8.2,15.7,7.1,17.6s17.1,25,23.6,26.3l5.6,3.1l0.5,4.5c0,0,3-9.9,0.6-12.6c0,0,4.6,6.8,3.9,8.4c0,0-3.9-23.6-7.8-26.6
					c0,0,8.4,8.4,7.9,10.7s-0.2-14-12.2-22.5c0,0,9.3,4,9.6,6.4c0,0-1-10.3-4.8-11c0,0,8.4,0.7,8.6-0.1c0,0-44.9-21.6-46.6-36.7
					c0,0-0.6-21.6-17.8-28s-28,7.5-28,7.5L76.2,88.2z"/>
				<polyline class="st3" points="102.6,108.6 91,114.3 99.2,116.1 				"/>
				<polyline class="st3" points="73.7,115.2 82.5,115.2 75.1,122.5 				"/>
				<line class="st3" x1="85.9" y1="120.1" x2="85.4" y2="121.3"/>
				<path class="st4" d="M87.4,132.1c0,0-3.5-4.1-2.6-6c0.3-0.9,1.4-1.3,2.2-1c0.1,0,0.2,0.1,0.3,0.2c0,0,4.8-4.2,9.9-2.3
					s0,7.9,0,7.9"/>
				<path class="st5" d="M75.9,210l-14,24.9c0,0-3.4,8.5,5.4,11.9s25.9,5.7,25.9,5.7l42.1-1.2c0,0,9.7-10,6.3-18.4
					s-21.2-41.5-23.2-41.8s-21.4,10.1-27.5,6.1c-2.6-1.7-5.2-3.3-8-4.7C82.9,192.5,77.2,209.4,75.9,210z"/>
				<path class="st6" d="M89.8,147.8l4.9,7.7l2.8-8.6l12.6-5.2c0,0,19.3,20.9,20.4,20.9s19.9,27.1,29.3,28.6l0.8,6.3
					c0,0-13.2,11.6-16.5,11.8c0,0-9.7-5.1-17.3-23.3c0,0-14-22.5-16.8-24.4c0,0,14.3,18.3,15.1,35.7c0,0-15.5,11-26.9,10.1
					s-21.1-7.8-21.1-7.8s0.6-6.3,1.1-13.7c0.6-10.1,0.8-22.1-1.4-22.7c0,0,2.6,0.5,1.2,41.8c0,0-5.4,6-6.6,6.1c0,0-6.8-0.5-9.6-13.4
					c0,0,14.4-7.6,14.7-9.5l0.6-4.6l-3-1.7l-0.2-4.4l-3.1-2l-0.5-6.9l-2.2-4.5c0,0,8.9-9.2,9.1-10.9s7.5-6.8,7.5-6.8l3.6-1.6
					L89.8,147.8z"/>
				<path class="st7" d="M82.5,136.3c0,0,19.8-0.6,22.8-4.2l6.8,10.2c0,0-10.3,5.5-14.8,3.8s-17.4,5-17.4,5l-2.7,0.9
					C77.2,152,83.3,136.8,82.5,136.3z"/>
				<path class="st8" d="M104.7,133.7c0,0,2.4,10.6,0.6,13.2s9.4,17.4,17.7,17.5s15.6,12,15.6,12l4.7,1.7c0,0,0.8-7.8,6.7-6.7
					s-17.2-15.2-22.3-13.9s-14.2-10.3-13.9-11.9s-6.4-13.7-7.8-14.2S104.7,133.7,104.7,133.7z"/>
				<path class="st3" d="M73.7,113.9c2.9-1.7,5.1-4.3,6.2-7.4"/>
				<path class="st3" d="M87.3,106c0,0,8.5,4.5,12.7,2.7"/>
				<path class="st9" d="M99.9,116.1c0,0-0.7-1,2.7-0.4s1.5,2.6,1.5,2.6s-0.7,1.1-2.7,0.6S99.9,116.1,99.9,116.1z"/>
				<path class="st2" d="M231.7,126.4c0,0-3.4,1,2.8,17.6l0.6,1.5c0,0,4.2,0.4,6,2.8c0,0-3.8-20.2-6.4-21.8S231.7,126.4,231.7,126.4
					z"/>
				<path class="st2" d="M217.4,139.4c0,0,2.8-6.9,7.8-6.8s6.3,12.2,6.3,12.2s-4.2,1.7-4.5,2.7c0,0-0.6-8.9-1.2-9.2
					c0,0-5.7,2.3-6.3,3.3C219.4,141.6,216.5,142.7,217.4,139.4z"/>
				<path class="st2" d="M226.5,148.2c0,0-6.1,10.5,0.8,14.2s13-2.4,13-2.4s4.5-7.8,1.8-10.5S232.4,140.5,226.5,148.2z"/>
				<path class="st3" d="M231.5,155.8c0,0,3.9-2,5.5-1.1"/>
				<path class="st3" d="M231.5,157.2c0,0,5.3,1.4,5.5,2.2"/>
				<line class="st3" x1="225.8" y1="157.2" x2="227.7" y2="159.4"/>
				<line class="st3" x1="228.7" y1="157.2" x2="225.8" y2="159.4"/>
				<path class="st3" d="M225.3,155.1c0,0-1.4-1.2-1.8-1.1"/>
				<path class="st3" d="M224.8,156.6c0,0-1.2-1-1.7-0.8"/>
				
					<ellipse transform="matrix(0.3397 -0.9405 0.9405 0.3397 9.1073 318.1342)" class="st3" cx="231.1" cy="152.6" rx="2.1" ry="0.3"/>
				
					<ellipse transform="matrix(0.3397 -0.9405 0.9405 0.3397 6.5027 313.13)" class="st3" cx="226.3" cy="151.9" rx="2.1" ry="0.3"/>
				<path class="st2" d="M235.4,168.1c0,0-0.6-3-11.4-3.4s-7.1,3.8-7.1,3.8s10.2,2.6,12.7,2.4S236.5,170.5,235.4,168.1z"/>
				<path class="st3" d="M216.3,162.1c0,0,2.9-2.6,5,0"/>
				<path class="st3" d="M216.3,159.4c0,0,2.7-1.8,5,0"/>
				<path class="st3" d="M216.3,170.6c0,0,2.2,2.9,5,1.2"/>
				<path class="st3" d="M216.3,173.6c0,0,1.5,2.3,3.7,1.2"/>
				<path class="st2" d="M227.3,163.6c0,0-3.8,18.2,3.5,21.5s13.1-3.9,13.1-3.9s-1.2-16.8-4.2-18.2s-6.2-1.9-7.6-1.4
					S227.1,162.2,227.3,163.6z"/>
				<path class="st2" d="M225.3,172.3c0,0-6.1,5.6-4.5,8.5s9.3-7.2,9.3-7.2l-0.5-4.8L225.3,172.3z"/>
				<path class="st2" d="M238.6,175.1c0,0-8.5,2.8-6.3,8.3s0.3,6.7,0.3,6.7l-2.5,3.5c0,0,1.1,2.2,4.2,0c2.3-1.7,4.3-3.8,6-6.1l2-8.6
					L238.6,175.1z"/>
				<path class="st2" d="M243.8,182.2c0,0,2.3,2.2,2.7,3.7s-3.6,10.2-3.6,10.2s-1.2,1.1-1.9-0.9s1.2-7.3,0-8.1
					c-0.8-0.6-1.5-1.3-2.1-2.2L243.8,182.2z"/>
				<path class="st10" d="M242.3,174.4c0,0-1.4,7,0.7,7s6.9,1,7.7-1.6s-3.5-6.1-5.5-6.1c-1.1,0-2.3,0.2-3.3,0.8"/>
				<path class="st3" d="M244.3,148.2c0,0,7.3-16.9,38.7-15.6"/>
				<path class="st3" d="M244.3,158.3c0,0,7.3-16.9,38.7-15.6"/>
				<path class="st3" d="M247,168.7c0,0,7.3-16.9,38.7-15.6"/>
				<path class="st3" d="M250.7,177.2c0,0,7.3-16.9,38.7-15.6"/>
				<path class="st3" d="M162.8,152c0,0,21.6,15.3,24,16.8"/>
				<path class="st3" d="M163.6,181.5c0,0,21.6,15.3,24,16.8"/>
				<path class="st3" d="M126.9,201.6c0,0,52.7,32.1,58.6,35.2"/>
				<path class="st3" d="M143.3,234.2c0,0,52.7,32.1,58.6,35.2"/>
				<path class="st11" d="M72.6,162.6c0,0,4.4,5.1,4.6,15.4v4.5l0.9,0.9c0,0,1.1-21.5-4.4-24l-1.6,0.4
					C71.8,160.7,72,161.8,72.6,162.6z"/>
				<path class="st11" d="M75.1,157.9c0,0,4.2,2.8,4.2,4.5s6.1,39.1,4.7,40.9l-5-3.7c0,0,0.2-24.4,0-25.4s-1.1-6.6-1.1-6.6l0.2,15.8
					c0,0-2-21.2-3.2-21.8c-0.9-0.5-1.5-1.3-1.9-2.2L75.1,157.9z"/>
				<path class="st11" d="M118.8,200.9c0,0-13.2-45.6-18.5-53.8l4.5-1.2v2.5c0,0,2.8,7.5,5.9,9.5c0,0,6.4,6.6,10.2,7
					c3.3-0.1,6.5,1,9.1,3c3.3,2.6,6.1,5.7,8.4,9.2l5,0.9l-5.6,0.8c0,0-7.5-11.1-15.9-11.8s-13.9-7.8-13.9-7.8l7.2,9.6
					c0,0,8.7,19,9.2,22.1c0.3,2,0.4,4.1,0.2,6.1L118.8,200.9z"/>
				<path class="st11" d="M150,204.9l-31.5-38.4c0,0-5.5-1.5-5.7-2.8s13.6,20.5,13.6,20.5s7.2,15.2,10.1,17.3s6.5,7.9,7.6,7.6
					S150,204.9,150,204.9z"/>
				<path class="st11" d="M78.6,152.6l9.5-3.1l6.5,6.9l-5.5-8.2c0,0-4.2,0.1-10.5,3.8V152.6z"/>
				<path class="st11" d="M95.3,156.9l5-8.8h1.5v-1.4c0,0-4.1-0.6-4.3,0.1s-2.8,9.5-2.8,9.5L95.3,156.9z"/>
				<path class="st11" d="M77.2,184.8v3.9l-2.1,10l-0.2,3.2l-6.1,7.2c0.7,0.5,1.6,0.9,2.5,1c1.4,0.1,5.9-5.8,5.9-5.8v-3.9l-0.8-0.8
					l0.8-5.2l1-7.9L77.2,184.8z"/>
			</g>
		</g>
	</g>
</g>
</svg>
