<?xml version="1.0" encoding="utf-8"?>
<!-- Generator: Adobe Illustrator 21.1.0, SVG Export Plug-In . SVG Version: 6.00 Build 0)  -->
<svg version="1.1" id="Layer_1" xmlns="http://www.w3.org/2000/svg" xmlns:xlink="http://www.w3.org/1999/xlink" x="0px" y="0px"
	 viewBox="0 0 355 560" style="enable-background:new 0 0 355 560;" xml:space="preserve">
<style type="text/css">
	.st0{fill:#B94F4F;}
	.st1{fill:#FFD0A9;stroke:#000000;stroke-width:0.75;stroke-miterlimit:10;}
	.st2{fill:#932929;stroke:#450000;stroke-width:0.25;stroke-miterlimit:10;}
	.st3{stroke:#000000;stroke-width:0.5;stroke-miterlimit:10;}
	.st4{fill:none;stroke:#000000;stroke-width:0.5;stroke-miterlimit:10;}
	.st5{fill:#FF3C00;stroke:#000000;stroke-width:0.5;stroke-miterlimit:10;}
	.st6{fill:#00FFEC;}
	.st7{fill:#F1DCDC;}
	.st8{fill:#932929;stroke:#000000;stroke-width:0.5;stroke-miterlimit:10;}
	.st9{fill:#FFFFFF;stroke:#000000;stroke-width:0.5;stroke-miterlimit:10;}
	.st10{fill:#195858;stroke:#000000;stroke-width:0.5;stroke-miterlimit:10;}
	.st11{fill:#8CAD4A;stroke:#000000;stroke-width:0.5;stroke-miterlimit:10;}
	.st12{fill:#FFFDFD;stroke:#000000;stroke-width:0.5;stroke-miterlimit:10;}
	.st13{opacity:0.51;fill:#144443;enable-background:new    ;}
	.st14{fill:#144443;}
</style>
<title>bkgdCry</title>
<g id="Layer_2">
	<g id="Layer_1-2">
		<g id="chapter2_middle">
			<polygon id="background" class="st0" points="0,0 354.2,0 355,560 0,560 			"/>
			<g id="content_waking_in_bed_">
				<path class="st1" d="M119.5,163.9c0,0,7.6,12.1,7.4,13.3s17.3,5.2,17.3,5.2l16.1-18.5l1.4-21.7c0,0-10.1-15-30.8-7
					S119.5,163.9,119.5,163.9z"/>
				<path class="st2" d="M159.1,135.4c9.6,11.7,6.2,22.7,6.2,22.7c0.4,9.6-8.2,16.3-8.2,16.3c-1.2,0.8-0.6,8.8-0.6,8.8
					c-0.8,0.4-2-3.4-2-3.4c-0.8,0.4,0.2,7.4,0.2,7.4c-7.8-10.6,2.6-16.3,2.6-16.3c2.8-3.8,0.2-29.5,0.2-29.5c2.8,4,0,16.3,0,16.3
					c-6.4-1.8-6.6-11.5-6.6-11.5c-2,1,2,14.3,2,14.3c-3.2-0.6-9-11-9-11c-1,0.6,1.2,8.2,1.2,8.2c-4.9-2.6-8.9-13.1-8.9-13.1
					c-1.8,1.8,2.2,14.9,2.2,14.9c-11.5-9.2-6.4-20.7-6.4-20.7c-1.2,0.4-1.8,7.2-1.8,7.2c-3.2,2.8-3,13.7-3,13.7
					c-1.2-0.4-1.8-6-1.8-6c-0.8,0.6-1.8,6.4-1.8,6.4c-3-2.2,0-12.5,0-12.5c-5,8.8-3.4,13.7-3.4,13.7c-4.8-4-1-15.3-1-15.3
					c-2.2,5.1-2.2,11,0,16.1c-2.4,1.6,0,14.5,0,14.5c-4.2-1.6-3.8-16.7-3.8-16.7c-1-0.2-1.2,8.6-1.2,8.6c-2.8-2.2-1-14.9-1-14.9
					c-1.4,0-3.4,11-3.4,11c-4.2-12.5,3.2-18.7,2-18.7S100,162.1,100,162.1s9.7-22.5,17.9-26.7s6-1.6,6-1.6l-3.4,6
					c0,0,4.6-14.5,23.1-14.3s22.1,9.7,23.3,12.3s3.2,8.4,2.6,12.7s0,14.5,3.8,18.1s23.3,40.4,15.5,61.7c0,0-3.4-20.5-5-21.3
					c0,0,0.2,17.3-2,19.1c0,0-2.7-16.3-3.9-16.7c0,0-0.7,14.3-2.5,15.1c0,0-2.6-11.9-3.6-12.3l-40.4,3.4c0,0-5.4,12.9-3.8,15.3
					c0,0-4.2-19.9-1.8-22.3c0,0,1.4-22.7,4.4-24.9c0,0,0.6-4.6-1.6-6.4l16.8,4.6l18.2-21.9C163.5,161.9,170.4,147.4,159.1,135.4z"/>
				<path class="st1" d="M139.3,181.1c0,0,0.1,4.8-1,5.4s7.1,11.6,7.1,11.6h8.9l3.7-6.3l-0.7-6.4l-4.7-9.9l-1.5-2.7
					C151,172.8,144.2,183.2,139.3,181.1z"/>
				<path class="st1" d="M315.5,79.1c0,0-5,17.3-12.9,19.1l7.6,25.7c0,0,38.8-5.4,38.6-11.1s0-34.6,0-34.6L315.5,79.1z"/>
				<path class="st3" d="M314.3,77.5c0,0-9.6,42-7.4,45.2c0,0,6.6-13.7,7.4-13.9s-1.8,18.3-3,19.3c0,0,7-10,7-11.5s-5.6,14.9,0,20.3
					l4.2-11.5l3.6,7.8c0,0,4-11.5,4.8-11.7c0,0,5.2,8.4,9.9,8.4c0,0-0.2-10.6,1.8-11.1l7,8.8l1.9-49.6L314.3,77.5z"/>
				<path class="st1" d="M238.1,150.1c0,0,5.2,11-3,15.9c0,0,9.6,18.5,17.3,20.5l18.8-12.9c0,0,11.7-19.5,9.9-22.7
					s-4-27.1-26.1-22.9s-18.1,21.8-18.1,21.8L238.1,150.1z"/>
				<path class="st4" d="M129.7,166.5c0,0-4.4-3-5.9,2.4"/>
				<path class="st4" d="M141.8,162.9c0,0,1.5-9,12.8-4.4"/>
				<path class="st4" d="M122.5,165.7c0,0,4.1-1.9,4.7-8"/>
				<path class="st4" d="M138.3,153.4c0,0,14.7,4.5,14.6,2.4"/>
				<path class="st5" d="M138.3,179.2c0,0-3.8-3.7-2.4-4.7c0.6-0.6,1.6-0.8,2.4-0.6c0,0,5.9-5.6,9.9-1.2c0.7,1.2,0.3,2.8-0.8,3.6"/>
				<path class="st4" d="M242.3,144.6c0,0,7.8,6.5,13,4.7"/>
				<path class="st5" d="M241.4,175.5c0,0,3.5-1.6,4.7-1.1c0,0,4.8-1.8,6.3,0.8s-5.9,7.3-5.9,7.3"/>
				<path class="st4" d="M226.4,154.9c0,0-4.7-4.2-7.4-1.5S225.3,155.4,226.4,154.9z"/>
				<path class="st6" d="M260.2,168.9c0,0-0.8,6.2,1.5,6.2S262.7,171.3,260.2,168.9z"/>
				<polygon class="st7" points="203.9,167.3 4.2,323.1 4.2,338 128.5,338 266.6,215.5 				"/>
				<polygon class="st4" points="178.4,331.7 266.6,254.5 267.4,215.5 129.7,338.6 173,338 				"/>
				<polygon class="st8" points="213.8,294.8 184.7,310.5 172.2,329.3 178.4,331.7 232.8,329.9 241.4,322.2 229.8,299.7 				"/>
				<path class="st3" d="M324.2,132.8l-28.4,15.9l-10.5,32.8l8.6,26.2l7.8,3.2c0,0,12-34.2,3-40.7c0,0,8,4.1-3,50.4
					s-6.6,40.4-6.6,40.4s49,15.6,55.5,0.8l7.8-11L356.8,134C356.8,134,327.2,136.3,324.2,132.8z"/>
				<path class="st9" d="M330.4,127.5c0,0,17.8,0.2,21.2-1.9c2.3-1.3,4.9-1.9,7.5-1.6l-1.2,8.9c0,0-28.8,2.8-32.9,0L330.4,127.5z"/>
				<path class="st6" d="M296.1,99.4c0,0-7.7,2.6-6.5,7.1S296,100.6,296.1,99.4z"/>
				<path class="st8" d="M211.6,179.2c0,0-27,14.7-20.9,26.8s9.1,10,10,12.8s16.6,19.5,16.6,19.5s7.1-15.2,11.8-15.8
					s11.6-14.7,11.6-14.7S216.1,180.2,211.6,179.2z"/>
				<path class="st1" d="M118.2,179.2l-2,3.2L115,191l3.2,2.3l-0.8-0.6l6.4-10.3l-2.1-1.1l4.1,0.5c0,0,1.5-1.8-3.3-1.7h4.3
					c0,0,1.4-2.7-4.3-2.6l5.7-0.2c0,0-0.3-2.1-4.8-2.2l4.6,0.2c0,0,1.1-3.2-4.1-2.3S118.2,179.2,118.2,179.2z"/>
				<path class="st1" d="M198.5,228c0,0-3.1-4.8-4.3-2s5,5.7,5.3,6.8s-5.4-3.7-6.8-2.9s-0.4,3.2,4.7,6.6c0,0-4.9-2.4-5.2-1.6
					s-1.1,3.5,5.2,6.5s9.4-1.1,9.4-1.1v-3.8l-3.4-3.6L198.5,228z"/>
				<path class="st10" d="M252.7,194.2L230.9,207c0,0-0.2,17.5-0.8,18.1s-1.7,4.2-1.7,4.2l2.3,4.5l2.3,4.5l-6.6,8.4L200.7,226
					c0,0-10.2,21.4-3.5,30.1s25.8,12.4,25.8,12.4h10.6c0,0,10.4-21.1,9.4-22.8s2.7-30.9-4.8-35.9c0,0,15.1,6.2-5.6,67.7
					c0,0-10.9,12.5-18.2,13.7c0,0,3.2,33,25.2,34.5s49-8.6,49-8.6s18.1-102.1,14.9-103.7c0,0-4.4-23.7-9.8-25.5
					c-2.9-0.9-5.7-2.2-8.3-3.9C285.3,184.1,259.9,197.8,252.7,194.2z"/>
				<path class="st1" d="M152.9,165.3c0,0-2.9,2.1-2.7,3.6s1.4,0.9,1.4,0.9s2-3.5,3-3.5s-4.2,5.3-3.6,6.5s5.6-5.8,6.4-5.5
					s-6.3,3.1-5.9,6.7s5.1-5.8,7.6-5.1c0,0-4.3,2.4-3.2,3.9c0,0,9-1.2,10.2,0.9s4.4-2.7,4.4-2.7l-2.7-3.7
					C167.9,167.3,157.6,160.1,152.9,165.3z"/>
				
					<ellipse transform="matrix(0.9684 -0.2496 0.2496 0.9684 -35.3997 43.3992)" class="st6" cx="153.4" cy="161.3" rx="3.6" ry="1"/>
				<ellipse transform="matrix(0.9674 -0.2533 0.2533 0.9674 -38.9115 37.1877)" class="st6" cx="125" cy="169.7" rx="3.6" ry="1"/>
				<path class="st11" d="M138.3,187.3l10.2,8.6c0,0-1.8,8.7-0.3,9.6c0,0-0.7-9.5,1.3-10.4s7-12.7,7-12.7l21.4,0.8l-18.8-8.1
					c0,0,7.2-6.6,6.5-9.4s28.9,13.4,30,18.5s-27.8,12.2-30.8,16.7c0,0,10.4-5.9,12.4-5.1c0,0-13.9,21.1-6,23.7l4.5,10.7l-3.8,4.5
					l2.4-0.9l1.8,6.5l-0.9,4.8l-11.6,11.6l-25.3-2.3l-7.7-1.8c0,0,2.9-22.6,2.3-23.5s-3-11.1-4.2-11.8s3.8-17,1.1-18.2
					c0,0,1.3,10.2-2.5,10.5c0,0-21.4,9.8-24.8,8c0,0-7.8-3.9,0-16.1s14.1-21.2,14.1-21.2s-1.7,9.9,3.1,10c0,0,0-1.2,2.8-5.2
					c0,0-4.4,22.1-10.2,23.7l7.5-7.1l5.1-7.2C124.8,194.5,137.4,189.1,138.3,187.3z"/>
				<path class="st8" d="M95.4,248.8c0,0,10.1-5.6,16.4-4.5s13.7-1.2,14.2-2.9s10.6-6.2,17.3-5.7s14.3,6.5,16.4,5.4
					s12.2,0.6,13.9,2.3s8.3,6.9,9.2,8.6s2.4,11.1,1.7,13.1s-12.5,25.6-8.1,26.8c0,0-3.3,39.8-0.6,39.8H32.2
					C32.2,331.7,29.5,281.8,95.4,248.8z"/>
				<path class="st12" d="M125.5,244.1c0,0,4.7,5.3,15.1,2.7s17.5,0.9,19,4.1s14.6,0,16,2.7s6.2,8.6,5.7,10.7s2.7-1.1,2.7-1.1
					s-0.1-10-1.2-11.3s-9.5-11.8-22.2-10.1c0,0-13.3-6-17.9-5.3s-10.6,0.3-15.5,5S125.5,244.1,125.5,244.1z"/>
				<path class="st13" d="M251.8,195.5c0,0-0.2,16,2.8,17l1.4-3.8c0,0-0.6,11.6-1.6,13.8l1.6-1.7c0,0-8,25.6-5.3,29.3
					c0,0,3.4-11.6,4.1-11.3c0,0-0.7,21.7,2.4,23.4c0,0,9.5-25.6,10.7-25.2c0,0-4.2,26.6-4.9,26.9c0,0,9.8-7.4,13.6-19.1
					c0,0-0.2,9.6-1.2,12.5c0,0,5.7-3.8,7.2-9.2c0,0,0.5,5.8,0,6.9c0,0,11.4-15.4,11.1-23.8c0,0,1.2,5.1,0.9,7c0,0,6.3-8.6,6-12.2
					l-2.7-30.5l-1.2-2.2C296.7,193.3,253.1,197.2,251.8,195.5z"/>
				<path class="st8" d="M276.9,142.2c1.8,8.1-6.5,23.2-8.6,29.3c-0.5,1.3-0.6,2.2-0.4,2.5c1.4,1.7-12.3,46.2-12.3,46.2
					c1.8-1.8,1-18.5,1-18.5l-1.8,8.2c-6.4-21.1,13.5-39.6,13.5-39.6c5-9.5-0.4-31.6,1.6-29.8s0,20.3,0,20.3
					c-9.4-2.6-15.6-20.5-15.6-20.5c-3,2.6,2.6,20.5,2.6,20.5c-15.7-9.5-11.5-30.4-11.5-30.4c-5.6,3-7.6,16.7-7.6,16.7
					c-0.6,0.2-2.4,11.5-2.4,11.5c-3-5.8,0-15.9,0-15.9c-1.4,0.8-3.8,7.4-3.8,7.4c-3.2-10.2,8.2-22.5,8.2-22.5s4-3,6.8-1.4l-1.8,2
					c0,0,7.2-11.5,25.5-7.2s19.1,10.6,19.1,10.6c6.1,9.8,8.3,21.6,6.2,33c-3.6,18.9,0.8,26.5,0.8,26.5s4.8,35-1,43
					c0,0-1.6-13.7-3.4-15.3c0,0-4.6,30.5-8.6,32.6c0,0,4.8-20.5,3.4-21.9c0,0-8.2,24.3-9.5,24.7c0,0,4.2-23.1,2.6-23.9
					c0,0-13,31.1-15.3,31.4c0,0,6.9-28.5,3.7-30c0,0-12.7,23.3-10.4,26.5c0,0-3.8-23.7-1.8-25.5c0,0-5.8,13.3-4.8,15.5
					c0,0,16.1-76.6,18.5-77S276.9,142.2,276.9,142.2z"/>
				<path class="st3" d="M313.1,78.3c0,0,2.7-9.7,0-8s-1.7,8-1.7,8s-9.7-9-2-13.7s30.7-8,35,0s7.1,13.7,7.1,13.7L313.1,78.3z"/>
			</g>
			<path class="st14" d="M244.3,272.1c0,0,3.6-31.6,3.2-35.2c0,0,5.2-24.8-12.7-28.2c0,0,4.9,2.1,6.4,4.5s2.5,15.2,2.5,15.2
				s-1.9,17.1-3.9,22.7s-4.9,15.9-4.9,15.9l-6.1,6.2L244.3,272.1z"/>
			<path class="st14" d="M237.4,215.8c0,0,4.7,10.4,2.1,24.5c0,0-4.4,14.9-5.2,15.3c0,0-16.7,0.6-20.7-1s9,4.3,11.7,4.6h9.6l4.5-8.4
				c0,0,3.8-18.2,3.8-20.9c0,0,1.4-19.6-8.9-21.3L237.4,215.8z"/>
		</g>
	</g>
</g>
</svg>
