<?xml version="1.0" encoding="utf-8"?>
<!-- Generator: Adobe Illustrator 21.1.0, SVG Export Plug-In . SVG Version: 6.00 Build 0)  -->
<svg version="1.1" id="Layer_1" xmlns="http://www.w3.org/2000/svg" xmlns:xlink="http://www.w3.org/1999/xlink" x="0px" y="0px"
	 viewBox="0 0 321.4 561.2" style="enable-background:new 0 0 321.4 561.2;" xml:space="preserve">
<style type="text/css">
	.st0{fill:#00FFFF;}
	.st1{fill:#B94F4F;}
	.st2{fill:#FFD0A9;stroke:#000000;stroke-width:0.75;stroke-miterlimit:10;}
	.st3{fill:#FDD0AA;stroke:#000000;stroke-width:0.5;stroke-miterlimit:10;}
	.st4{fill:#932929;stroke:#000000;stroke-width:0.5;stroke-miterlimit:10;}
	.st5{stroke:#000000;stroke-width:0.5;stroke-miterlimit:10;}
	.st6{fill:none;stroke:#000000;stroke-width:0.5;stroke-miterlimit:10;}
	.st7{fill:#FF0000;stroke:#000000;stroke-width:0.5;stroke-miterlimit:10;}
	.st8{fill:#195858;stroke:#000000;stroke-width:0.5;stroke-miterlimit:10;}
	.st9{fill:#FFFFFF;stroke:#000000;stroke-width:0.5;stroke-miterlimit:10;}
	.st10{fill:#450000;stroke:#000000;stroke-width:0.5;stroke-miterlimit:10;}
	.st11{fill:#00FFEC;}
	.st12{fill:none;stroke:#FF57DF;stroke-width:0.5;stroke-miterlimit:10;}
	.st13{fill:#144443;}
</style>
<title>bkgdBunlost</title>
<g id="Layer_2">
	<g id="Layer_1-2">
		<g id="chapter3_middle">
			<rect id="background_noon_" y="1.2" class="st0" width="321.4" height="560"/>
			<polygon id="background_sunset_" class="st1" points="178.9,61.6 119.7,561.2 321.4,561.2 321.4,40.2 321.4,1.2 186.7,0 			"/>
			<g id="contnet_father_and_crying_girl_">
				<path class="st2" d="M216.2,165.2c0,0,0.5,4,0,5.4l3.4,5.6l7.2-0.9v-4.7c0,0-3.1-4.8-3-7.6S216.2,165.2,216.2,165.2z"/>
				<path class="st2" d="M121.7,148c0,0,0.4,5.7,0,7.4l2.9,5.2l5-1.1l3.8-9.9c0,0-3.5-3.1-4.2-5.4L121.7,148z"/>
				<path class="st2" d="M227.3,208.6c0,0,2.9,11.2,3.3,11.7c0.6,1.3,1.2,2.6,1.6,4h2.9c0,0-1.2-16.8-2.1-17.8
					S227.3,208.6,227.3,208.6z"/>
				<path class="st2" d="M219.3,209.5l-3.1,14.9c0,0,4.2,1.8,4.8,0s3.9-15.2,2.9-16.7S219.3,209.5,219.3,209.5z"/>
				<path class="st3" d="M208.4,186.3c0,0-5.4,15.2-3.2,17s2.4-3.9,2.4-3.9s1,1.5,0.9,2.3s1.2-4.6,0.8-4.9s3.6-8.8,3.5-9.4
					s-0.6-5.5-0.6-5.5l-3.6,1.6v2.2"/>
				<path class="st3" d="M233.6,179.6c0,0,1,6.3,1.5,6.4s-0.9,4.9,3.2,9.1s0-2.6,0-2.6s2.8,4.2,2.6,5.4s2,0.6-0.8-4.4
					c-1.7-3.5-2.8-7.2-3-11.1l-1.1-2.8L233.6,179.6z"/>
				<path class="st2" d="M122.7,207.7c0,0,2.5,10.8,1.9,11.5s1.9,1.6,3,0.8c1.1-0.9,2.7-16.9,1.7-18.1s-7.2,2.8-7.2,2.8L122.7,207.7
					z"/>
				<path class="st2" d="M134.3,198.9c0,0,1.5,8.9,5.5,9.6c4,0.8,12.3-2.1,12.3-2.1s-0.2-3-1-3.5s-9,0.9-9,0.9s0.9-5.6,0-5.6
					S135.5,197.4,134.3,198.9z"/>
				<path class="st4" d="M117,190.5c0,0-4.2,15.9-2.6,16.9s10.6-0.2,17.1-3.8c6.5-3.5,13.5,0.2,13.5,0.2s6.8-1.9,7.8-4.8
					s-8.8-18.2-10.6-18.2s-11.8,7-21.8,5.1L117,190.5z"/>
				<path class="st2" d="M105.6,134c0,0,4.3,9,4.2,10.7c0,0,13.7,5.6,16,4.7c2.3-0.9,12.5-9.8,12.5-9.8s4.8-16,3.7-18
					s-8.2-15.7-18.9-13.3s-16.9,4.5-17.4,9.2S101.4,119.2,105.6,134z"/>
				<path class="st3" d="M204.9,154c0,0,2.6,7.6,2.4,8.1s11.5,5.1,12.4,4.3s8.9-6.2,8.9-6.2s6.9-11.1,5.6-12.7s-4.1-18.2-17.9-11.5
					s-13.3,11-13.3,11L204.9,154z"/>
				<path class="st4" d="M104.4,110.7c0,0-11.8,1-14,12.8c0,0,6.8-6.7,9.2-7.2c0,0-7.3,12.3-5.2,16.5c0,0,3-6,4.2-6.2
					c0,0-2.3,11,1.5,13c0,0-0.7-8.2,0.5-8.8s-0.8,10,6,12.8c0,0-4.7-19.5-3.5-20.5c0,0,1,9,2.2,9.5c0,0,1.3-6.5,2.3-7V122
					c0,0-1.2,9.2,1.3,11c0,0,0-12,1.3-12.7c0,0,0,8.7,1.5,9.5c0,0,2.5-13.2,4.3-13.8c0,0-0.8-5,0-6c0,0-1.8,13.8,14,17.8
					c0,0-3.5-10-2-11.3c0,0,4.3,9.3,10.5,10.3c0,0,1.8-12.8-4.2-15.5c0,0,8.5,1.8,2,28.7c0,0-1.5,9.3,1,11.3c0,0,0.8-5,2.3-6.6
					c0,0,0,8.4,1.7,8.4c0,0,3.3-6.2,2.7-7.5s3,3.8,3,3.8V144l3.2,5.3c0,0-4.5-19.7-2-23.2c0,0,3.5-22.8-14.5-25.7
					S104.4,110.7,104.4,110.7z"/>
				<path class="st4" d="M203.4,136.6c0,0-9.5,0.8-11.3,10.3c0,0,5.5-5.4,7.4-5.8c0,0-5.9,9.9-4.2,13.3c0,0,2.4-4.8,3.4-5
					c0,0-1.9,8.9,1.2,10.5c0,0-0.5-6.6,0.4-7.1s-0.7,8,4.8,10.3c0,0-3.8-15.7-2.8-16.5c0,0,0.8,7.2,1.7,7.6c0,0,1.1-5.2,1.9-5.6
					v-2.9c0,0-0.9,7.4,1.1,8.9c0,0,0-9.6,1.1-10.2c0,0,0,7,1.2,7.6c0,0,2-10.6,3.5-11.1c0,0-0.7-4,0-4.8c0,0-1.5,11.1,11.3,14.3
					c0,0-2.8-8-1.6-9.1c0,0,3.5,7.5,8.4,8.3c0,0,1.5-10.3-3.4-12.5c0,0,6.8,1.5,1.6,23c0,0-1.2,7.5,0.8,9.1c0,0,0.7-4,1.9-5.3
					c0,0,0,6.8,1.3,6.8c0,0,2.7-5,2.1-6s2.4,3.1,2.4,3.1v-4.4l2.6,4.3c0,0-3.6-15.8-1.6-18.6c0,0,2.8-18.4-11.7-20.6
					S203.4,136.6,203.4,136.6z"/>
				<path class="st2" d="M287.1,111.8c0,0,0.8,7.5-1.5,11.1s0,4.5,0,4.5l22.4-9.9c0,0-7-21.6-6.4-22.4s-12.2,16.2-14.9,14.8
					S287.1,111.8,287.1,111.8z"/>
				<path class="st2" d="M271.9,71c0,0-2.8,6.5,0.7,10.8s1.3,11,1.3,11l-3.1,3.7c0,0,13.1,14.2,15.9,14.5s17.5-13.7,17.5-13.7
					s9.4-12.4,8.4-16.8S309,53.8,294,55.3s-21.6,14.5-21.6,14.5L271.9,71z"/>
				<path class="st5" d="M267,68.3c0,0,15.4,2.1,13.9,13.5c0,0,2.8-13.8-0.8-18c0,0,5.2,7,5,12c0,0,1.5-11.7,0-13.3
					c0,0,7.5,11.7,6.7,17.5c0,0,1.8-14.2,0.1-16.2c0,0,5.8,18.5,3.4,24.7c0,0,4.7-9.7,4.2-11.5s1.1,18.2,0,19.3c0,0,3.5-8.3,3.3-9.3
					c0,0,2.8,16,1.5,18.3c0,0,7-8.5,6.5-9.8s0,7,0,7l3.3-11.2v6.3c0,0,4.8-12.9,3-15.9c0,0,2.5,5.5,2,7.7l1-15.5
					c0,0-4.5-17.8-14.8-20.2s-17.8-3.7-23-2.3S265.4,62.2,265.5,66s0.3,9.2,4.8,11.2C270.4,77.2,264.7,70.7,267,68.3z"/>
				<path class="st6" d="M126.3,130.7c0,0,3-9.7,9-0.8"/>
				<path class="st6" d="M126.3,120.8c0,0,5.3-5.7,10.5,2.8"/>
				<path class="st6" d="M115.9,134.4c0,0-4.6-6.8-6.2,2.4"/>
				<path class="st6" d="M112,124.4c0,0-6.5-0.3-5.6,7.6"/>
				<line class="st6" x1="119.3" y1="137.9" x2="119.3" y2="138.8"/>
				<path class="st7" d="M121.4,145.8c0,0-4.1-2.2-3.1-4.6l10.1-4.4c0,0,1,4,0,5.6"/>
				<path class="st8" d="M117.4,155.6c0,0-5.9,6.6-6.6,6.9s-3,11-1.1,12c1.3,0.8,2.4,2,3.1,3.4c0,0,6.8-1.4,6.5-2.1
					c-0.1-1-0.1-1.9,0-2.9c0,0,1-10.4-2-10.9c0,0,3,1.8,3.1,11.4l-3.7,15.9c0,0,24.9,3,28.5-6.2c0,0-5.8-7.4-5.1-9.5
					c0,0-3.1-6-1.5-7.6c0,0,3.2,5.6,6.6,4c0,0,6.7-1.6,0-12.1s-12-4.6-12-4.6l-4.6,7.6c0,0-8.2-3.9-8.2-5.4S117.4,155.6,117.4,155.6
					z"/>
				<polygon class="st9" points="124.1,153.2 126.3,154.1 124.8,158.9 120.3,155.4 121.5,152 				"/>
				<path class="st6" d="M127.6,154.5l2.3,3.9l4.3-3.9c0,0-1.5-4.7-1.2-5S127.6,154.5,127.6,154.5z"/>
				<path class="st4" d="M109.6,150.4c0,0,4.8-6.7,13.3,3.6l1.7,6.2c0,0-2.6-0.4-3.1,1.6s-1.2-6.4-8-8.6S109.6,150.4,109.6,150.4z"
					/>
				<path class="st4" d="M121.3,162.9c0,0-3,7.4,1.6,9.8s12.6-1.1,13.9-3s3.1-10.8-4.1-11.8S121.7,161.6,121.3,162.9z"/>
				<path class="st4" d="M130.8,149.6c0,0-5.5,6.7-2.3,8.2c0,0,5-0.9,5.8,0c0,0-1.6-5.5,3.7-5.8c0,0,5.4,3.6,5.6,5.1
					c0,0,3.5,2.8,2.4-1.7S137.9,142.9,130.8,149.6z"/>
				<path class="st2" d="M120.3,176.4c0,0,2.8,3,2.5,3.8s7.8-3,11.4-2.4c0,0,3.8-2.1,5-2.1c1.1,0,0,2.9,0,2.9s-15,6.6-16.4,6.2
					s-7.7-4.2-8.2-6.5c-0.3-1.3-0.3-2.6,0-3.9l5.7,1.4L120.3,176.4z"/>
				<path class="st2" d="M144.9,170.8l-4.2,6.9l-6.3,2l-1.9-1.8l6.9-4.3l0.5-4.4C139.8,169,143.7,172.1,144.9,170.8z"/>
				<path class="st4" d="M123.5,174.3c0,0-1.7,8,0,9s2.8-1.5,2.8-1.5l1.2-4.9l-0.4-2.6C127.1,174.3,124.4,172.8,123.5,174.3z"/>
				<path class="st4" d="M134.3,173c0,0,0.7,8.1,3.7,8.8s2.4-2.2,2.4-2.2s-1.7-7.5-2.4-7.7S135,171.3,134.3,173z"/>
				<ellipse class="st6" cx="131.9" cy="163.8" rx="0.4" ry="1.8"/>
				<ellipse class="st6" cx="125.1" cy="165.6" rx="0.4" ry="1.8"/>
				<line class="st6" x1="127.6" y1="170" x2="130.9" y2="170.8"/>
				<line class="st6" x1="130" y1="169" x2="128.5" y2="171.7"/>
				<path class="st6" d="M135.3,165.6c0,0-1.5,2.8,0,3.4S136.4,167.3,135.3,165.6z"/>
				<path class="st6" d="M122.1,167.4c0,0-3.3,0.3-4,1.1"/>
				<path class="st2" d="M276.9,157.3c0,0-6.6,4.7-6,7.3s2,2.7,2.2,3.3s-27.3-40.9-30.8-41.3s-9.6-2.8-16.2-0.5s4,4.3,4,4.3
					s6.4,3.1,7.2,4s-4.6,0.2-6.9,1.3s3.9,2.2,3.9,2.2s6.1,4.4,6.5,5.5s6,1.4,6,1.4s14.1,25.7,15.6,29.5s9.5,5.3,9.5,5.3l5-2.8
					l7.7-8.8l3.6-7.4C288.2,160.6,283.8,151.1,276.9,157.3z"/>
				<path class="st6" d="M122.7,170c0,0-4.5-0.2-4.6,0.8"/>
				<path class="st6" d="M134.3,163.8c0,0,4.3-1.7,5.5-1"/>
				<path class="st6" d="M136.3,165.6c0,0,3.1-0.9,4.6,0"/>
				<path class="st4" d="M126.3,184.8c0,0,1.3,8.1,0.8,9.5s3.4,0.8,3.8,0c0.4-0.8,2.5-7.8,2.5-7.8s5.7,5.4,5.8,7.2
					c0.1,1.9,4.4-2,4.4-2s-3.5-10-6.6-10.5c-1.7-0.2-3.3-0.7-4.7-1.7l-5.3,2.3L126.3,184.8z"/>
				<path class="st10" d="M123.5,220.4c0,0-0.5,4.5-2,4.4s-2.8,2.9-1.1,3.2s7.2-3.1,8.4-2.8c1.2,0.4,3.1-2.4,3.1-2.4l-2.6-5.3
					c0,0-0.8,3.8-2.2,3.2S124.9,221.6,123.5,220.4z"/>
				<path class="st10" d="M152.1,207.7c0,0,1,2.4,0.7,3.3s1.8,2.1,2.8,1.4s1.4-5.4,1.4-5.4l-2.4-7.6l-4.3,1
					C150.3,200.4,152.6,206.4,152.1,207.7z"/>
				<polyline class="st6" points="208.4,153.2 215.6,154 210.3,158.9 				"/>
				<polyline class="st6" points="226.8,149.4 221,153.2 225.6,154 				"/>
				<path class="st6" d="M218.6,144.1c0,0,7.4,4.8,8.7,3.7"/>
				<path class="st6" d="M213.1,147c0,0-3,7-5.6,7"/>
				<path class="st7" d="M215.6,158.9c0,0,5.2,0.3,6.4-1.1l3.4,4.3l-6.2,3.5l-6-1.8L215.6,158.9z"/>
				<polygon class="st9" points="215.6,167.4 220,169.1 217.8,174.4 215.6,169 				"/>
				<polygon class="st9" points="221.5,169.1 224.4,173.4 226,168.5 225.4,166 				"/>
				<path class="st8" d="M219.3,173.6c0,0,3,2.4,4.5-0.2s2-6.8,3.6-7s9.4,1.3,9.1,8.9l0.9,5.5c0,0-3.5,3.5-4.1,3.1
					s-3.8-8.6-1.8-10.6c0,0-1.5,3.3,2.2,16.3c0,0-9.4,9.9-18,4.6c0,0-0.6-5.8-1.2-10.4c-0.4-2.6-0.8-4.8-1.2-5.3
					c0,0,1.2,5.4,0.8,6.2s-6.5,1.6-7.1,0c0,0-1.6-8.5,2.2-11.3c0,0,3.9-4.8,5.2-4.9S219.3,173.6,219.3,173.6z"/>
				<path class="st4" d="M215.6,195.9c0,0-4.6,17.5-0.8,19.8c0,0,15.6-6.8,19.4-6c2.3,0.4,4.7-0.3,6.5-1.9c0,0-4.8-18.5-9-19.3
					S215.6,195.9,215.6,195.9z"/>
				<path class="st10" d="M215.6,225.2c0,0-2.2,3.4-3.6,3.5s-1.2,3.4,0.6,3s6-2.9,7.4-2.6s2.9-1.5,2.9-1.5l-1.1-3.1
					C219.9,225.4,217.7,225.7,215.6,225.2z"/>
				<path class="st10" d="M230.1,224.4l-0.2,0.8l-0.4,1.7c0,0,2.6-0.6,4.1,0c1.6,0.5,3.3,0.9,5,1.1l2.1-1.3c0,0,1.1-1.5-4.5-3.9
					c0,0-4.5,1.3-6.1,0L230.1,224.4z"/>
				<path class="st11" d="M228.3,155.4c0,0-5.6-1-0.9-2.2s3.4,2,3.4,2L228.3,155.4z"/>
				<path class="st11" d="M207.5,158c0,0,1.5-1.3,2.1-0.2c0.3,0.5,0.6,1,0.7,1.6c-0.5,0.5-1.2,0.9-1.9,1.1
					C207.1,160.9,205.8,159.6,207.5,158z"/>
				<path class="st11" d="M268.5,109.9c0,0-6.6,4.6-6.1,7.8S267.8,112.8,268.5,109.9z"/>
				<path class="st11" d="M294,91.9c0,0-3.4,5,0,6.2S294,91.9,294,91.9z"/>
				<path class="st6" d="M279.3,103.9c0,0,2.4-3.4,4.5-2.5"/>
				<path class="st6" d="M276.9,76.4c0,0,6.4,2.8,11.2,0"/>
				<path class="st5" d="M280.8,128.8c0,0,20.9-19.1,23.2-18.9s13.4,10.8,13.4,11.4S282,126.4,280.8,128.8z"/>
				<path class="st5" d="M318.3,122.1c0,0,5.6,2.8,7.2,5.2s-3.6,72-3.6,72s-24.4-2.3-31.6,3.9s-19.4-3.9-19.4-3.9
					s10.4-26.8,8.4-68.1c0,0-1.2-7.4,38.1-9.9"/>
				<path class="st5" d="M276.4,155.4c0,0,4.6,3.2,5.1,5.2s8.8-7.4,8.8-7.4l3.8-16.4c0,0-0.1-7.9-7.4-6.1s-9.6,3-11,7.6
					s0.5,14.6,0,15.8c-0.2,0.4-0.1,0.9,0.3,1.1C276.1,155.4,276.2,155.4,276.4,155.4z"/>
				<path class="st10" d="M272,201.4c0,0-21,20.1-20.4,24s2.2,13.5,16.3,13.7c14,0.2,44.5-7.4,47.9-4.9l2.8,0.8l2.2-17.6
					c0,0-38.4-9.8-47.5,6.4l44.1-3.4l3.4-19.5l1.1-1.5c0,0-43.1,4.7-47.8,2.3"/>
				<path class="st6" d="M90.4,130.7c0,0-2.7,2.8-4.4,1.3s-4.2-2.6-4.8-1.3"/>
				<polyline class="st6" points="69,129.7 68,125.2 74,125.2 76.4,131.1 				"/>
				<circle class="st6" cx="75.6" cy="132" r="1.2"/>
				<ellipse class="st6" cx="68" cy="131.3" rx="0.8" ry="1.6"/>
				<line class="st12" x1="131.9" y1="132.4" x2="131.5" y2="134.4"/>
				<line class="st12" x1="111.7" y1="139.3" x2="111.2" y2="141.3"/>
				<line class="st12" x1="113" y1="138.8" x2="112.5" y2="140.8"/>
				<line class="st12" x1="114.1" y1="138.3" x2="113.7" y2="140.3"/>
				<line class="st12" x1="133.4" y1="132.4" x2="133" y2="134.4"/>
				<line class="st12" x1="134.8" y1="132.4" x2="134.4" y2="134.4"/>
				<path class="st2" d="M351,98.3"/>
				<path class="st13" d="M114.1,161.7c0,0,3.4,2.1,2.7,12.7l2.5,1.4c0,0,2.9-12.1-5.1-15.2l-1.6,1.1L114.1,161.7z"/>
				<path class="st13" d="M144.9,159.5c0,0-5.8-5.9-7.2-5.6c-1.4,0.3-2.9,2.7-1.9,4s2.9,2.3,2.8,3.5s0.1,3.9,0.1,3.9l-0.4,0.2
					c0,0,0.2-6.5-3.3-7.2c-0.9-1.5-0.9-3.3,0-4.8c1.6-2.3,3.3-1.1,3.3-1.1s5,3.1,5.1,4.1c0.2,0.5,0.5,1,0.8,1.5
					c0.5,0.2,1,0.3,1.4,0.4l0.6,1.6L144.9,159.5z"/>
				<path class="st13" d="M119.8,164.3c0,0,0.6-2.7,0-3.7s-1.9-3.7-2.6-3.8s0-0.7,0-0.7s1.1-0.4,4,6l-1,5
					C119.8,166.2,119.7,165.3,119.8,164.3z"/>
				<path class="st13" d="M121.1,172.7l1.2,1.3l-0.6,3.5l0.6,0.7l1.1-5.3c-1.3-0.1-2.5-0.9-3.1-2.1c-1-2.1,0,0.3,0,0.3L121.1,172.7z
					"/>
				<path class="st13" d="M137.7,168.5l-0.9,1.9l1.8,2.3l0.4-0.6C139,172.1,137.3,169,137.7,168.5z"/>
				<path class="st13" d="M118.5,183.5c0,0,3.7,2.6,4.3,2.5s2.8-0.8,2.8-0.8l0.7,4.1l0.7,0.4l-1-5.3l-3.2,0.9l-4.3-2.3L118.5,183.5z
					"/>
				<path class="st13" d="M140.4,181.8c0.4-1.2,0.3-2.4-0.3-3.5l0.7-0.5l1.1,1.1c0,0-0.9-0.2-0.9,0.8c0,0.9-0.1,1.8-0.3,2.8l0.8,4
					l-2.7-4.3L140.4,181.8z"/>
				<path class="st13" d="M211.1,185c0.2-1.8,0.3-3.6,0.2-5.4c-0.2,0-2-6.1-2-6.1l4.7,2.8l6,16.7l-3.1,2l-1.3-0.7
					c0,0-2-15.5-2.7-16.3s0.9,6.4,0.9,6.4C213,184.9,212.1,185.2,211.1,185z"/>
				<path class="st13" d="M229,188.3c0,0-0.8-13.1,0.3-14.6s4.1-4.7,4.1-4.7s0.2,13.7,1.1,13.8l-0.9,1.2c0,0-3.2-5-1.9-10.2l-0.8,1
					l2.7,13.6C233.5,188.4,229.7,187.7,229,188.3z"/>
			</g>
		</g>
	</g>
</g>
</svg>
