<svg xmlns="http://www.w3.org/2000/svg" xmlns:xlink="http://www.w3.org/1999/xlink" viewBox="0 0 54.61 21.75"><defs><style>.cls-1{fill:url(#linear-gradient);}.cls-2{fill:#b94f4f;}.cls-3{fill:#fff;}</style><linearGradient id="linear-gradient" y1="10.88" x2="54.61" y2="10.88" gradientUnits="userSpaceOnUse"><stop offset="0" stop-color="#fff"/><stop offset="0.51" stop-color="#b94f4f"/><stop offset="0.58" stop-color="#bb5353"/><stop offset="0.66" stop-color="#c06060"/><stop offset="0.73" stop-color="#c87575"/><stop offset="0.81" stop-color="#d49292"/><stop offset="0.88" stop-color="#e3b8b8"/><stop offset="0.96" stop-color="#f5e6e6"/><stop offset="1" stop-color="#fff"/></linearGradient></defs><title>btnCancel</title><g id="Layer_2" data-name="Layer 2"><g id="Layer_1-2" data-name="Layer 1"><rect class="cls-1" width="54.61" height="21.75" rx="10.88" ry="10.88"/><rect class="cls-2" x="19.43" y="-13.43" width="15.75" height="48.61" rx="7" ry="7" transform="translate(38.18 -16.43) rotate(90)"/><path class="cls-3" d="M11.46,13.92A3.52,3.52,0,0,1,10,12.41a5.09,5.09,0,0,1-.49-2.3A5.05,5.05,0,0,1,10,7.81,3.53,3.53,0,0,1,11.46,6.3a4.23,4.23,0,0,1,2.14-.53A4.63,4.63,0,0,1,15.09,6a3.88,3.88,0,0,1,1.24.68.69.69,0,0,1,.22.25.78.78,0,0,1,.06.32.69.69,0,0,1-.14.44.43.43,0,0,1-.35.18.89.89,0,0,1-.49-.17,3.58,3.58,0,0,0-1-.53,3.07,3.07,0,0,0-1-.15,2.31,2.31,0,0,0-1.89.78,3.54,3.54,0,0,0-.64,2.29,3.56,3.56,0,0,0,.64,2.3,2.31,2.31,0,0,0,1.89.78,2.84,2.84,0,0,0,1-.16,4.6,4.6,0,0,0,1-.53l.24-.12a.67.67,0,0,1,.25,0,.43.43,0,0,1,.35.18.69.69,0,0,1,.14.44.79.79,0,0,1-.06.32.68.68,0,0,1-.22.26,3.88,3.88,0,0,1-1.24.68,4.63,4.63,0,0,1-1.49.23A4.23,4.23,0,0,1,11.46,13.92Z"/><path class="cls-3" d="M22.07,8.93a2.54,2.54,0,0,1,.59,1.84v2.93a.68.68,0,0,1-.19.51.73.73,0,0,1-.53.19.7.7,0,0,1-.51-.19.67.67,0,0,1-.2-.5v-.26a1.56,1.56,0,0,1-.64.73,1.93,1.93,0,0,1-1,.26,2.37,2.37,0,0,1-1.07-.24,1.89,1.89,0,0,1-.76-.66,1.66,1.66,0,0,1-.28-.94,1.48,1.48,0,0,1,.33-1A2,2,0,0,1,18.88,11a9.76,9.76,0,0,1,2.05-.17h.3V10.6A1.23,1.23,0,0,0,21,9.74a1.07,1.07,0,0,0-.82-.27,2.58,2.58,0,0,0-.71.1c-.24.07-.52.17-.85.29a1.2,1.2,0,0,1-.46.16.45.45,0,0,1-.35-.16.6.6,0,0,1-.14-.41.61.61,0,0,1,.1-.35,1,1,0,0,1,.34-.28,3.9,3.9,0,0,1,1-.36,5.19,5.19,0,0,1,1.15-.13A2.45,2.45,0,0,1,22.07,8.93Zm-1.21,4a1.46,1.46,0,0,0,.38-1v-.25H21a8.16,8.16,0,0,0-1.25.07,1.21,1.21,0,0,0-.64.25.64.64,0,0,0-.19.49.81.81,0,0,0,.27.63,1,1,0,0,0,.67.25A1.28,1.28,0,0,0,20.85,13Z"/><path class="cls-3" d="M29.16,8.93a2.72,2.72,0,0,1,.52,1.81v3a.7.7,0,0,1-.2.53.75.75,0,0,1-.55.19.77.77,0,0,1-.55-.19.69.69,0,0,1-.2-.53V10.83a1.56,1.56,0,0,0-.26-1,1,1,0,0,0-.81-.31,1.37,1.37,0,0,0-1,.41A1.52,1.52,0,0,0,25.68,11v2.68a.69.69,0,0,1-.2.53.77.77,0,0,1-.55.19.75.75,0,0,1-.55-.19.7.7,0,0,1-.2-.53V9a.66.66,0,0,1,.2-.5.77.77,0,0,1,.55-.19.71.71,0,0,1,.51.19.64.64,0,0,1,.2.49v.32a2,2,0,0,1,.8-.76,2.42,2.42,0,0,1,1.14-.26A2,2,0,0,1,29.16,8.93Z"/><path class="cls-3" d="M32.27,14.06a2.53,2.53,0,0,1-1-1.06,3.38,3.38,0,0,1-.36-1.6,3.35,3.35,0,0,1,.38-1.61,2.67,2.67,0,0,1,1.06-1.09,3.15,3.15,0,0,1,1.57-.38,3.5,3.5,0,0,1,.94.13,3.1,3.1,0,0,1,.83.36.74.74,0,0,1,.38.64.68.68,0,0,1-.13.43.4.4,0,0,1-.33.16.7.7,0,0,1-.28-.06L35,9.84a3.35,3.35,0,0,0-.5-.25A1.57,1.57,0,0,0,34,9.51a1.4,1.4,0,0,0-1.15.49,2.14,2.14,0,0,0-.4,1.4,2.11,2.11,0,0,0,.4,1.39,1.4,1.4,0,0,0,1.15.49,1.49,1.49,0,0,0,.53-.09,4.55,4.55,0,0,0,.52-.25,2.31,2.31,0,0,1,.31-.16.69.69,0,0,1,.26-.05.4.4,0,0,1,.32.17.66.66,0,0,1,.13.42.67.67,0,0,1-.09.35.81.81,0,0,1-.29.27,3.14,3.14,0,0,1-.86.38,3.72,3.72,0,0,1-1,.14A3.11,3.11,0,0,1,32.27,14.06Z"/><path class="cls-3" d="M42,12.89a.65.65,0,0,1,.13.42.73.73,0,0,1-.44.62,4,4,0,0,1-.92.37,3.81,3.81,0,0,1-1,.14,3.06,3.06,0,0,1-2.24-.82,3,3,0,0,1-.83-2.23,3.42,3.42,0,0,1,.36-1.6,2.61,2.61,0,0,1,1-1.08,2.87,2.87,0,0,1,1.48-.38A2.67,2.67,0,0,1,41,8.68a2.36,2.36,0,0,1,.91,1,3.25,3.25,0,0,1,.32,1.5c0,.34-.15.52-.46.52H38.21a1.89,1.89,0,0,0,.47,1.22,1.57,1.57,0,0,0,1.15.39,2.18,2.18,0,0,0,.68-.1,6.64,6.64,0,0,0,.67-.26,1.32,1.32,0,0,1,.53-.19A.41.41,0,0,1,42,12.89ZM38.65,9.77a1.82,1.82,0,0,0-.44,1.1h2.71a1.71,1.71,0,0,0-.36-1.11,1.19,1.19,0,0,0-.94-.38A1.29,1.29,0,0,0,38.65,9.77Z"/><path class="cls-3" d="M43.64,14.23a.67.67,0,0,1-.21-.53V6.53A.66.66,0,0,1,43.64,6a.79.79,0,0,1,.53-.18.82.82,0,0,1,.54.18.65.65,0,0,1,.22.53v7.16a.67.67,0,0,1-.22.53.8.8,0,0,1-.54.19A.77.77,0,0,1,43.64,14.23Z"/></g></g></svg>