<svg xmlns="http://www.w3.org/2000/svg" xmlns:xlink="http://www.w3.org/1999/xlink" viewBox="0 0 91 36.25"><defs><style>.cls-1{fill:url(#linear-gradient);}.cls-2{fill:#b94f4f;}.cls-3{fill:#fff;}</style><linearGradient id="linear-gradient" y1="18.12" x2="91" y2="18.12" gradientUnits="userSpaceOnUse"><stop offset="0" stop-color="#fff"/><stop offset="0.51" stop-color="#b94f4f"/><stop offset="0.58" stop-color="#bb5353"/><stop offset="0.66" stop-color="#c06060"/><stop offset="0.73" stop-color="#c87575"/><stop offset="0.81" stop-color="#d49292"/><stop offset="0.88" stop-color="#e3b8b8"/><stop offset="0.96" stop-color="#f5e6e6"/><stop offset="1" stop-color="#fff"/></linearGradient></defs><title>btnFeedback</title><g id="Layer_2" data-name="Layer 2"><g id="Layer_1-2" data-name="Layer 1"><rect class="cls-1" width="91" height="36.25" rx="12" ry="12"/><rect class="cls-2" x="32.38" y="-22.38" width="26.25" height="81" rx="7" ry="7" transform="translate(63.62 -27.38) rotate(90)"/><path class="cls-3" d="M16.12,22a.9.9,0,0,1-.25-.66V13.15a.84.84,0,0,1,.23-.63.88.88,0,0,1,.64-.22h4.91q.85,0,.85.73t-.85.71h-4v2.69h3.72q.85,0,.85.73t-.85.71H17.65v3.47a.92.92,0,0,1-.24.66.84.84,0,0,1-.64.25A.87.87,0,0,1,16.12,22Z"/><path class="cls-3" d="M29.31,20.47a.76.76,0,0,1,.15.49.85.85,0,0,1-.52.73,4.67,4.67,0,0,1-1.08.43,4.48,4.48,0,0,1-1.15.16,3.57,3.57,0,0,1-2.62-1,3.49,3.49,0,0,1-1-2.6,4,4,0,0,1,.42-1.86,3.05,3.05,0,0,1,1.18-1.26,3.35,3.35,0,0,1,1.73-.45,3.11,3.11,0,0,1,1.61.41,2.75,2.75,0,0,1,1.06,1.15,3.81,3.81,0,0,1,.38,1.75q0,.6-.53.6H24.85a2.2,2.2,0,0,0,.55,1.42,1.84,1.84,0,0,0,1.34.46,2.54,2.54,0,0,0,.79-.11,7.68,7.68,0,0,0,.78-.31,1.54,1.54,0,0,1,.62-.22A.47.47,0,0,1,29.31,20.47Zm-3.95-3.64a2.11,2.11,0,0,0-.51,1.29H28a2,2,0,0,0-.42-1.29,1.39,1.39,0,0,0-1.09-.44A1.5,1.5,0,0,0,25.36,16.83Z"/><path class="cls-3" d="M36.74,20.47a.76.76,0,0,1,.15.49.85.85,0,0,1-.52.73,4.67,4.67,0,0,1-1.08.43,4.48,4.48,0,0,1-1.15.16,3.57,3.57,0,0,1-2.62-1,3.49,3.49,0,0,1-1-2.6A4,4,0,0,1,31,16.86a3.05,3.05,0,0,1,1.18-1.26,3.35,3.35,0,0,1,1.73-.45,3.11,3.11,0,0,1,1.61.41,2.75,2.75,0,0,1,1.06,1.15,3.81,3.81,0,0,1,.38,1.75q0,.6-.53.6H32.28a2.2,2.2,0,0,0,.55,1.42,1.84,1.84,0,0,0,1.34.46,2.54,2.54,0,0,0,.79-.11,7.68,7.68,0,0,0,.78-.31,1.54,1.54,0,0,1,.62-.22A.47.47,0,0,1,36.74,20.47Zm-3.95-3.64a2.11,2.11,0,0,0-.51,1.29h3.16A2,2,0,0,0,35,16.83a1.39,1.39,0,0,0-1.09-.44A1.5,1.5,0,0,0,32.79,16.83Z"/><path class="cls-3" d="M44.73,12.45A.75.75,0,0,1,45,13v8.37a.79.79,0,0,1-.24.6,1,1,0,0,1-1.26,0,.79.79,0,0,1-.24-.6v-.35a2.2,2.2,0,0,1-.89.9,2.69,2.69,0,0,1-1.32.32,2.83,2.83,0,0,1-1.57-.45,3,3,0,0,1-1.08-1.27A4.37,4.37,0,0,1,38,18.68a4.24,4.24,0,0,1,.38-1.86A2.83,2.83,0,0,1,41,15.15a2.75,2.75,0,0,1,1.32.31,2.13,2.13,0,0,1,.88.87V13a.74.74,0,0,1,.23-.57.87.87,0,0,1,.62-.22A.93.93,0,0,1,44.73,12.45Zm-1.94,7.9a2.58,2.58,0,0,0,.46-1.64,2.55,2.55,0,0,0-.46-1.63,1.55,1.55,0,0,0-1.28-.57,1.59,1.59,0,0,0-1.3.56,2.47,2.47,0,0,0-.46,1.61,2.62,2.62,0,0,0,.46,1.65,1.73,1.73,0,0,0,2.58,0Z"/><path class="cls-3" d="M52.3,15.59a2.92,2.92,0,0,1,1.07,1.23,4.25,4.25,0,0,1,.38,1.86,4.38,4.38,0,0,1-.38,1.88,3,3,0,0,1-1.08,1.27,2.83,2.83,0,0,1-1.57.45A2.69,2.69,0,0,1,49.4,22a2.2,2.2,0,0,1-.89-.9v.35a.79.79,0,0,1-.24.6.88.88,0,0,1-.63.22A.86.86,0,0,1,47,22a.8.8,0,0,1-.23-.6V13a.76.76,0,0,1,.24-.59.91.91,0,0,1,.64-.22.92.92,0,0,1,.63.21.73.73,0,0,1,.24.57v3.3a2.09,2.09,0,0,1,.88-.86,2.76,2.76,0,0,1,1.3-.3A2.9,2.9,0,0,1,52.3,15.59Zm-.76,4.75A2.62,2.62,0,0,0,52,18.68a2.5,2.5,0,0,0-.46-1.61,1.77,1.77,0,0,0-2.59,0,2.55,2.55,0,0,0-.46,1.63A2.58,2.58,0,0,0,49,20.35a1.73,1.73,0,0,0,2.58,0Z"/><path class="cls-3" d="M60.29,15.86A3,3,0,0,1,61,18v3.42a.79.79,0,0,1-.22.59.84.84,0,0,1-.62.22.82.82,0,0,1-.6-.22.78.78,0,0,1-.23-.59v-.31a1.83,1.83,0,0,1-.75.85,2.25,2.25,0,0,1-1.18.31A2.75,2.75,0,0,1,56.14,22a2.21,2.21,0,0,1-.88-.77,1.94,1.94,0,0,1-.32-1.09,1.73,1.73,0,0,1,.38-1.19,2.32,2.32,0,0,1,1.25-.63,11.47,11.47,0,0,1,2.39-.2h.35V17.8a1.43,1.43,0,0,0-.29-1,1.25,1.25,0,0,0-1-.32,3,3,0,0,0-.83.12q-.42.12-1,.34a1.39,1.39,0,0,1-.53.18.52.52,0,0,1-.41-.18.69.69,0,0,1-.16-.48.72.72,0,0,1,.12-.41,1.13,1.13,0,0,1,.4-.33,4.58,4.58,0,0,1,1.17-.42,6,6,0,0,1,1.34-.15A2.85,2.85,0,0,1,60.29,15.86Zm-1.41,4.69a1.7,1.7,0,0,0,.44-1.21V19h-.25a9.57,9.57,0,0,0-1.46.08,1.41,1.41,0,0,0-.74.29.75.75,0,0,0-.22.57,1,1,0,0,0,.31.73,1.11,1.11,0,0,0,.78.29A1.5,1.5,0,0,0,58.88,20.55Z"/><path class="cls-3" d="M64,21.85a3,3,0,0,1-1.2-1.23,4.29,4.29,0,0,1,0-3.74,3.11,3.11,0,0,1,1.24-1.27,3.68,3.68,0,0,1,1.83-.45,4.09,4.09,0,0,1,1.1.15,3.64,3.64,0,0,1,1,.42.87.87,0,0,1,.45.74.79.79,0,0,1-.15.5.46.46,0,0,1-.38.19.83.83,0,0,1-.32-.07l-.34-.17a3.83,3.83,0,0,0-.59-.29,1.82,1.82,0,0,0-.64-.11,1.64,1.64,0,0,0-1.34.57,2.5,2.5,0,0,0-.47,1.63,2.47,2.47,0,0,0,.47,1.62,1.64,1.64,0,0,0,1.34.57,1.72,1.72,0,0,0,.62-.11,5.37,5.37,0,0,0,.61-.29,2.75,2.75,0,0,1,.36-.19.81.81,0,0,1,.31-.06.46.46,0,0,1,.38.2.77.77,0,0,1,.15.49.79.79,0,0,1-.1.41.94.94,0,0,1-.34.32,3.68,3.68,0,0,1-1,.44,4.37,4.37,0,0,1-1.18.16A3.63,3.63,0,0,1,64,21.85Z"/><path class="cls-3" d="M76,21.41a.82.82,0,0,1-.23.57.71.71,0,0,1-.54.25.82.82,0,0,1-.57-.25l-3.28-3v2.39a.75.75,0,0,1-.25.62,1,1,0,0,1-.63.21.92.92,0,0,1-.62-.21.77.77,0,0,1-.24-.62V13.05a.77.77,0,0,1,.24-.62.93.93,0,0,1,.62-.21,1,1,0,0,1,.63.21.76.76,0,0,1,.25.62v5.26l3-2.87a.79.79,0,0,1,.57-.25.81.81,0,0,1,.8.8.82.82,0,0,1-.27.59l-2.2,2,2.44,2.18A.81.81,0,0,1,76,21.41Z"/></g></g></svg>