<svg xmlns="http://www.w3.org/2000/svg" xmlns:xlink="http://www.w3.org/1999/xlink" viewBox="0 0 54.61 21.75"><defs><style>.cls-1{fill:url(#linear-gradient);}.cls-2{fill:#b94f4f;}.cls-3{fill:#fff;}</style><linearGradient id="linear-gradient" y1="10.88" x2="54.61" y2="10.88" gradientUnits="userSpaceOnUse"><stop offset="0" stop-color="#fff"/><stop offset="0.51" stop-color="#b94f4f"/><stop offset="0.58" stop-color="#bb5353"/><stop offset="0.66" stop-color="#c06060"/><stop offset="0.73" stop-color="#c87575"/><stop offset="0.81" stop-color="#d49292"/><stop offset="0.88" stop-color="#e3b8b8"/><stop offset="0.96" stop-color="#f5e6e6"/><stop offset="1" stop-color="#fff"/></linearGradient></defs><title>btnHelp</title><g id="Layer_2" data-name="Layer 2"><g id="Layer_1-2" data-name="Layer 1"><rect class="cls-1" width="54.61" height="21.75" rx="10.88" ry="10.88"/><rect class="cls-2" x="19.43" y="-13.43" width="15.75" height="48.61" rx="7" ry="7" transform="translate(38.18 -16.43) rotate(90)"/><path class="cls-3" d="M22.47,6a.77.77,0,0,1,.2.56v7a.78.78,0,0,1-.21.56.81.81,0,0,1-1.1,0,.79.79,0,0,1-.2-.56v-3H16.83v3a.77.77,0,0,1-.21.56.74.74,0,0,1-.56.22.73.73,0,0,1-.55-.22.78.78,0,0,1-.21-.56v-7a.76.76,0,0,1,.2-.56.73.73,0,0,1,.55-.21.72.72,0,0,1,.77.77V9.42h4.33V6.59a.77.77,0,0,1,.2-.56.83.83,0,0,1,1.1,0Z"/><path class="cls-3" d="M29.34,12.89a.65.65,0,0,1,.13.42.73.73,0,0,1-.44.62,4,4,0,0,1-.92.37,3.81,3.81,0,0,1-1,.14,3.06,3.06,0,0,1-2.24-.82A3,3,0,0,1,24,11.39a3.42,3.42,0,0,1,.36-1.6,2.61,2.61,0,0,1,1-1.08,2.87,2.87,0,0,1,1.48-.38,2.67,2.67,0,0,1,1.38.35,2.36,2.36,0,0,1,.91,1,3.25,3.25,0,0,1,.32,1.5c0,.34-.15.52-.46.52H25.52A1.89,1.89,0,0,0,26,12.89a1.57,1.57,0,0,0,1.15.39,2.18,2.18,0,0,0,.68-.1,6.64,6.64,0,0,0,.67-.26,1.32,1.32,0,0,1,.53-.19A.41.41,0,0,1,29.34,12.89ZM26,9.77a1.82,1.82,0,0,0-.44,1.1h2.71a1.71,1.71,0,0,0-.36-1.11,1.19,1.19,0,0,0-.94-.38A1.29,1.29,0,0,0,26,9.77Z"/><path class="cls-3" d="M30.95,14.23a.67.67,0,0,1-.21-.53V6.53A.66.66,0,0,1,30.95,6a.79.79,0,0,1,.53-.18A.82.82,0,0,1,32,6a.65.65,0,0,1,.22.53v7.16a.67.67,0,0,1-.22.53.8.8,0,0,1-.54.19A.77.77,0,0,1,30.95,14.23Z"/><path class="cls-3" d="M38.51,8.71a2.54,2.54,0,0,1,.92,1.09,3.76,3.76,0,0,1,.33,1.61,3.64,3.64,0,0,1-.33,1.6,2.42,2.42,0,0,1-2.27,1.43A2.33,2.33,0,0,1,36,14.17a1.85,1.85,0,0,1-.76-.73v2.45a.62.62,0,0,1-.2.49.79.79,0,0,1-.54.18.78.78,0,0,1-.55-.19.65.65,0,0,1-.21-.5V9.06a.69.69,0,0,1,.2-.52.74.74,0,0,1,.53-.19.75.75,0,0,1,.54.19.68.68,0,0,1,.2.52v.3A1.85,1.85,0,0,1,36,8.6a2.35,2.35,0,0,1,1.13-.27A2.43,2.43,0,0,1,38.51,8.71Zm-.64,4.07a2.12,2.12,0,0,0,.4-1.37,2.24,2.24,0,0,0-.4-1.42,1.48,1.48,0,0,0-2.21,0,2.21,2.21,0,0,0-.39,1.4,2.19,2.19,0,0,0,.39,1.39,1.33,1.33,0,0,0,1.11.49A1.35,1.35,0,0,0,37.86,12.79Z"/></g></g></svg>