<svg xmlns="http://www.w3.org/2000/svg" xmlns:xlink="http://www.w3.org/1999/xlink" viewBox="0 0 91 36.25"><defs><style>.cls-1{fill:url(#linear-gradient);}.cls-2{fill:#b94f4f;}.cls-3{fill:#fff;}</style><linearGradient id="linear-gradient" y1="18.12" x2="91" y2="18.12" gradientUnits="userSpaceOnUse"><stop offset="0" stop-color="#fff"/><stop offset="0.51" stop-color="#b94f4f"/><stop offset="0.58" stop-color="#bb5353"/><stop offset="0.66" stop-color="#c06060"/><stop offset="0.73" stop-color="#c87575"/><stop offset="0.81" stop-color="#d49292"/><stop offset="0.88" stop-color="#e3b8b8"/><stop offset="0.96" stop-color="#f5e6e6"/><stop offset="1" stop-color="#fff"/></linearGradient></defs><title>btnMyMemories</title><g id="Layer_2" data-name="Layer 2"><g id="Layer_1-2" data-name="Layer 1"><rect class="cls-1" width="91" height="36.25" rx="12" ry="12"/><rect class="cls-2" x="32.38" y="-22.38" width="26.25" height="81" rx="7" ry="7" transform="translate(63.62 -27.38) rotate(90)"/><path class="cls-3" d="M46.39,6.47a.89.89,0,0,1,.24.65v8.29a.83.83,0,0,1-.22.62.8.8,0,0,1-.59.22.75.75,0,0,1-.57-.22.86.86,0,0,1-.21-.62V9.64l-2.38,4.51a1.4,1.4,0,0,1-.36.46.75.75,0,0,1-.46.15.77.77,0,0,1-.46-.14,1.28,1.28,0,0,1-.36-.46L38.61,9.71v5.7a.86.86,0,0,1-.22.61.76.76,0,0,1-.58.23.75.75,0,0,1-.57-.22.87.87,0,0,1-.21-.62V7.12a.91.91,0,0,1,.23-.65.81.81,0,0,1,.62-.25.94.94,0,0,1,.85.6l3.11,5.92,3.09-5.92a.93.93,0,0,1,.83-.6A.84.84,0,0,1,46.39,6.47Z"/><path class="cls-3" d="M53.69,9.31a.76.76,0,0,1,.41-.12.88.88,0,0,1,.58.22.68.68,0,0,1,.26.54.72.72,0,0,1-.08.32l-3.82,8a.78.78,0,0,1-.74.48.86.86,0,0,1-.57-.2.64.64,0,0,1-.25-.51.91.91,0,0,1,.08-.35l1-2-2.6-5.42a.71.71,0,0,1-.07-.32.68.68,0,0,1,.27-.55,1,1,0,0,1,.62-.22.82.82,0,0,1,.43.12.8.8,0,0,1,.31.37l2,4.33,1.95-4.31A.81.81,0,0,1,53.69,9.31Z"/><path class="cls-3" d="M24.72,21.82a3.18,3.18,0,0,1,.6,2.15v3.44a.79.79,0,0,1-.25.62.92.92,0,0,1-.64.22.91.91,0,0,1-.62-.22.79.79,0,0,1-.25-.62V24a1.73,1.73,0,0,0-.27-1.1,1,1,0,0,0-.83-.33,1.37,1.37,0,0,0-1.09.47A1.89,1.89,0,0,0,21,24.29v3.12a.79.79,0,0,1-.25.62.91.91,0,0,1-.62.22.93.93,0,0,1-.63-.22.78.78,0,0,1-.25-.62V24a1.73,1.73,0,0,0-.27-1.1,1,1,0,0,0-.83-.33A1.35,1.35,0,0,0,17,23a1.92,1.92,0,0,0-.4,1.28v3.12a.78.78,0,0,1-.25.62.93.93,0,0,1-.63.22.91.91,0,0,1-.62-.22.79.79,0,0,1-.24-.62V22a.74.74,0,0,1,.25-.6,1,1,0,0,1,.63-.21.87.87,0,0,1,.6.2.73.73,0,0,1,.23.58v.34a2.19,2.19,0,0,1,.86-.85,2.54,2.54,0,0,1,1.24-.29,2,2,0,0,1,2.06,1.29,2.31,2.31,0,0,1,.91-.94A2.66,2.66,0,0,1,23,21.15,2.18,2.18,0,0,1,24.72,21.82Z"/><path class="cls-3" d="M32.9,26.47A.75.75,0,0,1,33,27a.85.85,0,0,1-.52.73,4.72,4.72,0,0,1-1.08.43,4.44,4.44,0,0,1-1.15.16,3.57,3.57,0,0,1-2.62-1,3.49,3.49,0,0,1-1-2.6,4,4,0,0,1,.42-1.86,3.05,3.05,0,0,1,1.18-1.26,3.35,3.35,0,0,1,1.73-.45,3.11,3.11,0,0,1,1.61.41,2.76,2.76,0,0,1,1.06,1.15,3.81,3.81,0,0,1,.38,1.75q0,.6-.53.6H28.44A2.21,2.21,0,0,0,29,26.48a1.84,1.84,0,0,0,1.34.46,2.54,2.54,0,0,0,.79-.11,7.68,7.68,0,0,0,.78-.31,1.55,1.55,0,0,1,.62-.22A.47.47,0,0,1,32.9,26.47ZM29,22.83a2.12,2.12,0,0,0-.51,1.29h3.16a2,2,0,0,0-.42-1.29,1.39,1.39,0,0,0-1.09-.44A1.5,1.5,0,0,0,29,22.83Z"/><path class="cls-3" d="M44.38,21.82A3.18,3.18,0,0,1,45,24v3.44a.79.79,0,0,1-.25.62.92.92,0,0,1-.64.22.91.91,0,0,1-.62-.22.79.79,0,0,1-.25-.62V24a1.73,1.73,0,0,0-.27-1.1,1,1,0,0,0-.83-.33A1.37,1.37,0,0,0,41,23a1.89,1.89,0,0,0-.41,1.28v3.12a.79.79,0,0,1-.25.62.91.91,0,0,1-.62.22.93.93,0,0,1-.63-.22.78.78,0,0,1-.25-.62V24a1.73,1.73,0,0,0-.27-1.1,1,1,0,0,0-.83-.33,1.35,1.35,0,0,0-1.08.47,1.92,1.92,0,0,0-.4,1.28v3.12A.78.78,0,0,1,36,28a.93.93,0,0,1-.63.22.91.91,0,0,1-.62-.22.79.79,0,0,1-.24-.62V22a.74.74,0,0,1,.25-.6,1,1,0,0,1,.63-.21.87.87,0,0,1,.6.2.73.73,0,0,1,.23.58v.34a2.19,2.19,0,0,1,.86-.85,2.54,2.54,0,0,1,1.24-.29,2,2,0,0,1,2.06,1.29,2.31,2.31,0,0,1,.91-.94,2.66,2.66,0,0,1,1.36-.35A2.18,2.18,0,0,1,44.38,21.82Z"/><path class="cls-3" d="M48,27.85a3,3,0,0,1-1.23-1.25,4,4,0,0,1-.43-1.89,3.91,3.91,0,0,1,.43-1.88A3,3,0,0,1,48,21.59a4.13,4.13,0,0,1,3.68,0,3,3,0,0,1,1.22,1.24,4,4,0,0,1,.43,1.88,4,4,0,0,1-.43,1.89,3,3,0,0,1-1.22,1.25,4.13,4.13,0,0,1-3.68,0Zm3.13-1.48a2.6,2.6,0,0,0,.45-1.65,2.6,2.6,0,0,0-.45-1.64,1.55,1.55,0,0,0-1.29-.57,1.57,1.57,0,0,0-1.3.57,2.58,2.58,0,0,0-.45,1.64,2.6,2.6,0,0,0,.45,1.65,1.78,1.78,0,0,0,2.59,0Z"/><path class="cls-3" d="M59.2,21.34a.69.69,0,0,1,.21.55.76.76,0,0,1-.18.56,1.13,1.13,0,0,1-.66.24l-.42,0a1.7,1.7,0,0,0-1.21.56,1.83,1.83,0,0,0-.38,1.19v2.94a.78.78,0,0,1-.25.62.93.93,0,0,1-.63.22A.91.91,0,0,1,55,28a.79.79,0,0,1-.24-.62V22a.75.75,0,0,1,.24-.6.9.9,0,0,1,.61-.21.84.84,0,0,1,.59.2.75.75,0,0,1,.22.58v.56a2.07,2.07,0,0,1,.79-1,2.43,2.43,0,0,1,1.17-.38h.2A.76.76,0,0,1,59.2,21.34Z"/><path class="cls-3" d="M60.28,19.68A.88.88,0,0,1,60,19a.86.86,0,0,1,.28-.67,1.25,1.25,0,0,1,1.5,0,.85.85,0,0,1,.29.67.88.88,0,0,1-.28.68,1.23,1.23,0,0,1-1.51,0ZM60.41,28a.79.79,0,0,1-.24-.62V22a.77.77,0,0,1,.24-.62.92.92,0,0,1,.62-.21,1,1,0,0,1,.63.21.75.75,0,0,1,.25.62v5.4a.78.78,0,0,1-.25.62.93.93,0,0,1-.63.22A.91.91,0,0,1,60.41,28Z"/><path class="cls-3" d="M69.52,26.47a.75.75,0,0,1,.15.49.85.85,0,0,1-.52.73,4.72,4.72,0,0,1-1.08.43,4.44,4.44,0,0,1-1.15.16,3.57,3.57,0,0,1-2.62-1,3.49,3.49,0,0,1-1-2.6,4,4,0,0,1,.42-1.86,3.05,3.05,0,0,1,1.18-1.26,3.35,3.35,0,0,1,1.73-.45,3.11,3.11,0,0,1,1.61.41,2.76,2.76,0,0,1,1.06,1.15,3.81,3.81,0,0,1,.38,1.75q0,.6-.53.6H65.07a2.21,2.21,0,0,0,.55,1.42,1.84,1.84,0,0,0,1.34.46,2.54,2.54,0,0,0,.79-.11,7.68,7.68,0,0,0,.78-.31,1.55,1.55,0,0,1,.62-.22A.47.47,0,0,1,69.52,26.47Zm-3.95-3.64a2.12,2.12,0,0,0-.51,1.29h3.16a2,2,0,0,0-.42-1.29,1.39,1.39,0,0,0-1.09-.44A1.5,1.5,0,0,0,65.58,22.83Z"/><path class="cls-3" d="M71.17,27.68a.83.83,0,0,1-.45-.76.67.67,0,0,1,.15-.46.49.49,0,0,1,.38-.17,1.55,1.55,0,0,1,.66.22,6.1,6.1,0,0,0,.82.32,3.32,3.32,0,0,0,.95.11,1.8,1.8,0,0,0,.92-.2.61.61,0,0,0,.33-.55.53.53,0,0,0-.13-.38,1.23,1.23,0,0,0-.48-.26,10.25,10.25,0,0,0-1-.27,4,4,0,0,1-1.79-.71,1.59,1.59,0,0,1-.54-1.27,1.84,1.84,0,0,1,.36-1.11,2.37,2.37,0,0,1,1-.77,3.65,3.65,0,0,1,1.45-.27,4.36,4.36,0,0,1,1.13.15,3.47,3.47,0,0,1,1,.43.84.84,0,0,1,.45.74.72.72,0,0,1-.15.47.47.47,0,0,1-.38.19.75.75,0,0,1-.3-.06l-.37-.19a5.81,5.81,0,0,0-.7-.31,2.17,2.17,0,0,0-.73-.11,1.41,1.41,0,0,0-.82.21.66.66,0,0,0-.3.57.58.58,0,0,0,.31.53,4.42,4.42,0,0,0,1.19.36,6.81,6.81,0,0,1,1.47.45,1.72,1.72,0,0,1,.76.63,1.83,1.83,0,0,1,.23,1,1.8,1.8,0,0,1-.79,1.53,3.51,3.51,0,0,1-2.11.57A4.49,4.49,0,0,1,71.17,27.68Z"/></g></g></svg>