<svg xmlns="http://www.w3.org/2000/svg" xmlns:xlink="http://www.w3.org/1999/xlink" viewBox="0 0 91 36.25"><defs><style>.cls-1{fill:url(#linear-gradient);}.cls-2{fill:#b94f4f;}.cls-3{fill:#fff;}</style><linearGradient id="linear-gradient" y1="18.12" x2="91" y2="18.12" gradientUnits="userSpaceOnUse"><stop offset="0" stop-color="#fff"/><stop offset="0.51" stop-color="#b94f4f"/><stop offset="0.58" stop-color="#bb5353"/><stop offset="0.66" stop-color="#c06060"/><stop offset="0.73" stop-color="#c87575"/><stop offset="0.81" stop-color="#d49292"/><stop offset="0.88" stop-color="#e3b8b8"/><stop offset="0.96" stop-color="#f5e6e6"/><stop offset="1" stop-color="#fff"/></linearGradient></defs><title>btnSceneSelect</title><g id="Layer_2" data-name="Layer 2"><g id="Layer_1-2" data-name="Layer 1"><g id="title_page" data-name="title page"><g id="scene_selection" data-name="scene selection"><rect class="cls-1" width="91" height="36.25" rx="12" ry="12"/><rect class="cls-2" x="32.38" y="-22.38" width="26.25" height="81" rx="7" ry="7" transform="translate(63.62 -27.38) rotate(90)"/><path class="cls-3" d="M23.94,16.56a5.12,5.12,0,0,1-1.78-.89A1,1,0,0,1,22,14.32a.59.59,0,0,1,.47-.25,1.3,1.3,0,0,1,.66.22,4.79,4.79,0,0,0,1.44.72,5.81,5.81,0,0,0,1.66.22A3.28,3.28,0,0,0,28,14.83a1.33,1.33,0,0,0,.62-1.19,1,1,0,0,0-.58-.94,7.74,7.74,0,0,0-1.94-.63,11.52,11.52,0,0,1-2.29-.7,3.23,3.23,0,0,1-1.33-1A2.65,2.65,0,0,1,22,8.76,3,3,0,0,1,22.6,7a3.68,3.68,0,0,1,1.56-1.22,5.52,5.52,0,0,1,2.25-.44,5.58,5.58,0,0,1,3.73,1.22,1.21,1.21,0,0,1,.3.34,1,1,0,0,1-.11,1,.59.59,0,0,1-.47.25.89.89,0,0,1-.3,0,2.39,2.39,0,0,1-.36-.18,5.42,5.42,0,0,0-1.27-.71A4.31,4.31,0,0,0,26.41,7a3,3,0,0,0-1.72.44,1.41,1.41,0,0,0-.63,1.22,1.12,1.12,0,0,0,.56,1,6.54,6.54,0,0,0,1.9.66,12.86,12.86,0,0,1,2.31.71,3.43,3.43,0,0,1,1.36,1,2.4,2.4,0,0,1,.47,1.52,2.9,2.9,0,0,1-.55,1.75,3.6,3.6,0,0,1-1.55,1.18,5.85,5.85,0,0,1-2.3.42A8.07,8.07,0,0,1,23.94,16.56Z"/><path class="cls-3" d="M33.81,16.38A3.38,3.38,0,0,1,32.44,15,4.51,4.51,0,0,1,32,12.84a4.47,4.47,0,0,1,.5-2.15,3.56,3.56,0,0,1,1.42-1.45A4.21,4.21,0,0,1,36,8.73a4.67,4.67,0,0,1,1.26.18,4.14,4.14,0,0,1,1.11.48,1,1,0,0,1,.51.85.9.9,0,0,1-.17.57.53.53,0,0,1-.44.22,1,1,0,0,1-.37-.08,3.2,3.2,0,0,1-.38-.19,4.33,4.33,0,0,0-.67-.33,2.09,2.09,0,0,0-.74-.12,1.87,1.87,0,0,0-1.53.65A2.85,2.85,0,0,0,34,12.81a2.83,2.83,0,0,0,.54,1.85,1.87,1.87,0,0,0,1.53.65,2,2,0,0,0,.71-.12,6,6,0,0,0,.7-.33,3.17,3.17,0,0,1,.42-.22.92.92,0,0,1,.35-.07.53.53,0,0,1,.43.22.88.88,0,0,1,.18.56.9.9,0,0,1-.12.47,1.08,1.08,0,0,1-.39.36,4.2,4.2,0,0,1-1.15.5,5,5,0,0,1-1.34.18A4.14,4.14,0,0,1,33.81,16.38Z"/><path class="cls-3" d="M46.84,14.81a.86.86,0,0,1,.17.56,1,1,0,0,1-.59.83,5.35,5.35,0,0,1-1.23.49,5.09,5.09,0,0,1-1.31.18,4.08,4.08,0,0,1-3-1.09,4,4,0,0,1-1.1-3,4.57,4.57,0,0,1,.48-2.13A3.49,3.49,0,0,1,41.6,9.24a3.83,3.83,0,0,1,2-.51,3.54,3.54,0,0,1,1.84.46,3.15,3.15,0,0,1,1.22,1.31,4.36,4.36,0,0,1,.43,2q0,.69-.61.69H41.74a2.51,2.51,0,0,0,.62,1.62,2.1,2.1,0,0,0,1.54.52,2.91,2.91,0,0,0,.9-.13,8.7,8.7,0,0,0,.89-.35,1.77,1.77,0,0,1,.7-.26A.54.54,0,0,1,46.84,14.81Zm-4.51-4.16a2.42,2.42,0,0,0-.58,1.47h3.62a2.28,2.28,0,0,0-.48-1.48,1.58,1.58,0,0,0-1.25-.5A1.72,1.72,0,0,0,42.32,10.65Z"/><path class="cls-3" d="M55.34,9.53A3.63,3.63,0,0,1,56,11.95v3.94a.94.94,0,0,1-.26.7,1,1,0,0,1-.73.26,1,1,0,0,1-.74-.26.92.92,0,0,1-.27-.7V12.06a2.07,2.07,0,0,0-.34-1.33,1.32,1.32,0,0,0-1.08-.42,1.83,1.83,0,0,0-1.38.54,2,2,0,0,0-.52,1.46v3.57a.92.92,0,0,1-.27.7,1,1,0,0,1-.74.26,1,1,0,0,1-.73-.26.93.93,0,0,1-.26-.7V9.69A.88.88,0,0,1,49,9a1,1,0,0,1,.74-.26,1,1,0,0,1,.68.25.85.85,0,0,1,.26.65v.43a2.7,2.7,0,0,1,1.07-1,3.23,3.23,0,0,1,1.52-.35A2.62,2.62,0,0,1,55.34,9.53Z"/><path class="cls-3" d="M64.69,14.81a.86.86,0,0,1,.17.56,1,1,0,0,1-.59.83,5.35,5.35,0,0,1-1.23.49,5.09,5.09,0,0,1-1.31.18,4.08,4.08,0,0,1-3-1.09,4,4,0,0,1-1.1-3,4.57,4.57,0,0,1,.48-2.13,3.49,3.49,0,0,1,1.35-1.44,3.83,3.83,0,0,1,2-.51,3.54,3.54,0,0,1,1.84.46,3.15,3.15,0,0,1,1.22,1.31,4.36,4.36,0,0,1,.43,2q0,.69-.61.69H59.6a2.51,2.51,0,0,0,.62,1.62,2.1,2.1,0,0,0,1.54.52,2.91,2.91,0,0,0,.9-.13,8.7,8.7,0,0,0,.89-.35,1.77,1.77,0,0,1,.7-.26A.54.54,0,0,1,64.69,14.81Zm-4.51-4.16a2.42,2.42,0,0,0-.58,1.47h3.62a2.28,2.28,0,0,0-.48-1.48,1.58,1.58,0,0,0-1.25-.5A1.72,1.72,0,0,0,60.18,10.65Z"/><path class="cls-3" d="M23.94,28.56a5.12,5.12,0,0,1-1.78-.89A1,1,0,0,1,22,26.32a.59.59,0,0,1,.47-.25,1.3,1.3,0,0,1,.66.22,4.79,4.79,0,0,0,1.44.72,5.81,5.81,0,0,0,1.66.22A3.28,3.28,0,0,0,28,26.83a1.33,1.33,0,0,0,.62-1.19,1,1,0,0,0-.58-.94,7.74,7.74,0,0,0-1.94-.63,11.52,11.52,0,0,1-2.29-.7,3.23,3.23,0,0,1-1.33-1A2.65,2.65,0,0,1,22,20.76,3,3,0,0,1,22.6,19a3.68,3.68,0,0,1,1.56-1.22,5.52,5.52,0,0,1,2.25-.44,5.58,5.58,0,0,1,3.73,1.22,1.21,1.21,0,0,1,.3.34,1,1,0,0,1-.11,1,.59.59,0,0,1-.47.25.89.89,0,0,1-.3,0,2.39,2.39,0,0,1-.36-.18,5.42,5.42,0,0,0-1.27-.71A4.31,4.31,0,0,0,26.41,19a3,3,0,0,0-1.72.44,1.41,1.41,0,0,0-.63,1.22,1.12,1.12,0,0,0,.56,1,6.54,6.54,0,0,0,1.9.66,12.86,12.86,0,0,1,2.31.71,3.43,3.43,0,0,1,1.36,1,2.4,2.4,0,0,1,.47,1.52,2.9,2.9,0,0,1-.55,1.75,3.6,3.6,0,0,1-1.55,1.18,5.85,5.85,0,0,1-2.3.42A8.07,8.07,0,0,1,23.94,28.56Z"/><path class="cls-3" d="M39,26.81a.86.86,0,0,1,.17.56,1,1,0,0,1-.59.83,5.35,5.35,0,0,1-1.23.49,5.09,5.09,0,0,1-1.31.18,4.08,4.08,0,0,1-3-1.09,4,4,0,0,1-1.1-3,4.57,4.57,0,0,1,.48-2.13,3.49,3.49,0,0,1,1.35-1.44,3.83,3.83,0,0,1,2-.51,3.54,3.54,0,0,1,1.84.46,3.15,3.15,0,0,1,1.22,1.31,4.36,4.36,0,0,1,.43,2q0,.69-.61.69H33.93a2.51,2.51,0,0,0,.62,1.62,2.1,2.1,0,0,0,1.54.52,2.91,2.91,0,0,0,.9-.13,8.7,8.7,0,0,0,.89-.35,1.77,1.77,0,0,1,.7-.26A.54.54,0,0,1,39,26.81Zm-4.51-4.16a2.42,2.42,0,0,0-.58,1.47h3.62a2.28,2.28,0,0,0-.48-1.48,1.58,1.58,0,0,0-1.25-.5A1.72,1.72,0,0,0,34.52,22.65Z"/><path class="cls-3" d="M41.17,28.59a.9.9,0,0,1-.28-.71V18.33a.88.88,0,0,1,.28-.7,1.06,1.06,0,0,1,.71-.24,1.09,1.09,0,0,1,.72.24.87.87,0,0,1,.29.7v9.55a.89.89,0,0,1-.29.71,1.07,1.07,0,0,1-.72.25A1,1,0,0,1,41.17,28.59Z"/><path class="cls-3" d="M51.59,26.81a.86.86,0,0,1,.17.56,1,1,0,0,1-.59.83,5.35,5.35,0,0,1-1.23.49,5.09,5.09,0,0,1-1.31.18,4.08,4.08,0,0,1-3-1.09,4,4,0,0,1-1.1-3A4.57,4.57,0,0,1,45,22.68a3.49,3.49,0,0,1,1.35-1.44,3.83,3.83,0,0,1,2-.51,3.54,3.54,0,0,1,1.84.46,3.15,3.15,0,0,1,1.22,1.31,4.36,4.36,0,0,1,.43,2q0,.69-.61.69H46.49a2.51,2.51,0,0,0,.62,1.62,2.1,2.1,0,0,0,1.54.52,2.91,2.91,0,0,0,.9-.13,8.7,8.7,0,0,0,.89-.35,1.77,1.77,0,0,1,.7-.26A.54.54,0,0,1,51.59,26.81Zm-4.51-4.16a2.42,2.42,0,0,0-.58,1.47h3.62a2.28,2.28,0,0,0-.48-1.48,1.58,1.58,0,0,0-1.25-.5A1.72,1.72,0,0,0,47.08,22.65Z"/><path class="cls-3" d="M54.87,28.38A3.38,3.38,0,0,1,53.5,27a4.9,4.9,0,0,1,0-4.28,3.56,3.56,0,0,1,1.42-1.45,4.21,4.21,0,0,1,2.1-.51,4.67,4.67,0,0,1,1.26.18,4.14,4.14,0,0,1,1.11.48,1,1,0,0,1,.51.85.9.9,0,0,1-.17.57.53.53,0,0,1-.44.22,1,1,0,0,1-.37-.08,3.2,3.2,0,0,1-.38-.19,4.33,4.33,0,0,0-.67-.33,2.09,2.09,0,0,0-.74-.12,1.87,1.87,0,0,0-1.53.65,2.85,2.85,0,0,0-.54,1.86,2.83,2.83,0,0,0,.54,1.85,1.87,1.87,0,0,0,1.53.65,2,2,0,0,0,.71-.12,6,6,0,0,0,.7-.33,3.17,3.17,0,0,1,.42-.22.92.92,0,0,1,.35-.07.53.53,0,0,1,.43.22.88.88,0,0,1,.18.56.9.9,0,0,1-.12.47,1.08,1.08,0,0,1-.39.36,4.2,4.2,0,0,1-1.15.5,5,5,0,0,1-1.34.18A4.14,4.14,0,0,1,54.87,28.38Z"/><path class="cls-3" d="M66.17,28.07a.65.65,0,0,1-.31.58,1.49,1.49,0,0,1-.89.17l-.43,0a2.57,2.57,0,0,1-2.69-2.88V22.43h-.8a1,1,0,0,1-.66-.19.79.79,0,0,1,0-1.12,1,1,0,0,1,.66-.19h.8V19.45a.9.9,0,0,1,.27-.69,1,1,0,0,1,.74-.26,1,1,0,0,1,.72.26.9.9,0,0,1,.27.69v1.47h1.36a1,1,0,0,1,.66.19.79.79,0,0,1,0,1.12,1,1,0,0,1-.66.19H63.85v3.63q0,1.18,1.09,1.26l.43,0Q66.17,27.4,66.17,28.07Z"/></g></g></g></g></svg>