<svg xmlns="http://www.w3.org/2000/svg" xmlns:xlink="http://www.w3.org/1999/xlink" viewBox="0 0 82.33 82.33"><defs><style>.cls-1{fill:#fff;}.cls-2{fill:url(#radial-gradient);}.cls-3{fill:#ffd0a9;stroke-width:0.75px;}.cls-10,.cls-3,.cls-4,.cls-5,.cls-6,.cls-7,.cls-8,.cls-9{stroke:#000;}.cls-10,.cls-12,.cls-3,.cls-4,.cls-5,.cls-6,.cls-7,.cls-8,.cls-9{stroke-miterlimit:10;}.cls-4{fill:#fdd0aa;}.cls-10,.cls-12,.cls-4,.cls-5,.cls-6,.cls-7,.cls-8,.cls-9{stroke-width:0.5px;}.cls-5{fill:#932929;}.cls-12,.cls-7{fill:none;}.cls-8{fill:red;}.cls-9{fill:#195858;}.cls-10{fill:#450000;}.cls-11{fill:#00ffec;}.cls-12{stroke:#ff57df;}.cls-13{fill:#144443;}.cls-14{fill:url(#radial-gradient-2);}</style><radialGradient id="radial-gradient" cx="41.17" cy="41.17" r="41.17" gradientUnits="userSpaceOnUse"><stop offset="0" stop-color="#fff"/><stop offset="1" stop-color="#688927" stop-opacity="0.25"/></radialGradient><radialGradient id="radial-gradient-2" cx="41.17" cy="-641.17" r="36.17" gradientTransform="matrix(1, 0, 0, -1, 0, -600)" gradientUnits="userSpaceOnUse"><stop offset="0" stop-color="#fff" stop-opacity="0.3"/><stop offset="1" stop-color="#688927"/></radialGradient></defs><title>btnSceneCh3Active</title><g id="Layer_2" data-name="Layer 2"><g id="Layer_1-2" data-name="Layer 1"><g id="Layer_2-2" data-name="Layer 2"><g id="Layer_1-2-2" data-name="Layer 1-2"><g id="Layer_2-2-2" data-name="Layer 2-2"><g id="Layer_1-2-2-2" data-name="Layer 1-2-2"><rect class="cls-1" width="82.33" height="82.33" rx="12" ry="12"/><rect class="cls-2" width="82.33" height="82.33" rx="12" ry="12"/><g id="Layer_2-2-2-2" data-name="Layer 2-2-2"><g id="Layer_1-2-2-2-2" data-name="Layer 1-2-2-2"><path class="cls-3" d="M47.83,59s.83,3.15.93,3.29a11.08,11.08,0,0,1,.46,1.12H50a39.79,39.79,0,0,0-.6-5C49.18,58.11,47.83,59,47.83,59Z"/><path class="cls-3" d="M45.57,59.19l-.86,4.17s1.17.49,1.35,0,1.09-4.27.81-4.67S45.57,59.19,45.57,59.19Z"/><path class="cls-4" d="M42.52,52.7S41,57,41.61,57.48s.67-1.1.67-1.1.28.43.25.63.35-1.3.21-1.37a27.66,27.66,0,0,1,1-2.63c0-.17-.18-1.55-.18-1.55l-1,.46v.6"/><path class="cls-4" d="M49.6,50.8a8.91,8.91,0,0,0,.4,1.8,3.8,3.8,0,0,0,1,2.57c1.16,1.18,0-.73,0-.73A5.23,5.23,0,0,1,51.71,56c0,.33.56.16-.21-1.24a8.07,8.07,0,0,1-.84-3.12l-.32-.79Z"/><path class="cls-3" d="M18.5,58.7a17.32,17.32,0,0,1,.5,3.24c-.18.21.53.46.84.21s.75-4.73.46-5.08-2,.77-2,.77Z"/><path class="cls-3" d="M21.73,56.21s.43,2.49,1.55,2.7a9.91,9.91,0,0,0,3.46-.6s-.07-.84-.28-1a13.47,13.47,0,0,0-2.53.25s.24-1.58,0-1.58S22.08,55.79,21.73,56.21Z"/><path class="cls-5" d="M16.89,53.86s-1.19,4.45-.74,4.73,3-.07,4.8-1a4.35,4.35,0,0,1,3.79.07s1.89-.54,2.17-1.34-2.47-5.11-3-5.11-3.31,2-6.1,1.44Z"/><path class="cls-3" d="M13.69,38a15.52,15.52,0,0,1,1.17,3s3.83,1.58,4.49,1.32a33.16,33.16,0,0,0,3.51-2.74s1.36-4.49,1-5-2.3-4.39-5.31-3.74-4.74,1.26-4.88,2.57S12.52,33.86,13.69,38Z"/><path class="cls-4" d="M41.54,43.62a18.19,18.19,0,0,1,.67,2.27c-.07.12,3.23,1.42,3.47,1.21s2.49-1.73,2.49-1.73,1.93-3.11,1.58-3.56-1.16-5.12-5-3.23S41,41.7,41,41.7Z"/><path class="cls-5" d="M13.36,31.47a4.48,4.48,0,0,0-3.93,3.6,12,12,0,0,1,2.57-2s-2,3.45-1.44,4.63c0,0,.84-1.68,1.17-1.73,0,0-.65,3.09.42,3.65,0,0-.19-2.29.14-2.48S12.05,39.93,14,40.7c0,0-1.31-5.47-1-5.75,0,0,.28,2.52.61,2.66a7,7,0,0,1,.65-2V34.7s-.26,2.52.39,3c0,0,0-3.37.37-3.55,0,0,0,2.43.42,2.66,0,0,.7-3.69,1.22-3.88,0,0-.23-1.4,0-1.68,0,0-.51,3.88,3.93,5,0,0-1-2.8-.56-3.18,0,0,1.22,2.62,2.94,2.9,0,0,.51-3.6-1.17-4.35,0,0,2.38.51.56,8,0,0-.42,2.62.28,3.18a5,5,0,0,1,.62-1.8s0,2.36.47,2.36c0,0,.93-1.73.75-2.1s.84,1.08.84,1.08V40.82l.89,1.5s-1.26-5.52-.56-6.5c0,0,1-6.4-4.07-7.2A9.53,9.53,0,0,0,13.36,31.47Z"/><path class="cls-5" d="M41.12,38.7A3.6,3.6,0,0,0,38,41.64,9.62,9.62,0,0,1,40,40s-1.66,2.79-1.18,3.68c0,0,.68-1.35.94-1.39,0,0-.53,2.48.34,2.93,0,0-.15-1.84.11-2s-.19,2.26,1.35,2.89c0,0-1-4.4-.79-4.62,0,0,.23,2,.49,2.14,0,0,.3-1.47.53-1.58V41.3s-.26,2.07.3,2.48c0,0,0-2.71.3-2.86,0,0,0,2,.34,2.14,0,0,.56-3,1-3.12,0,0-.19-1.13,0-1.35a3.75,3.75,0,0,0,3.16,4s-.79-2.26-.45-2.56c0,0,1,2.11,2.37,2.33,0,0,.41-2.89-.94-3.5,0,0,1.92.41.45,6.47,0,0-.34,2.11.23,2.56a4,4,0,0,1,.53-1.49s0,1.9.38,1.9c0,0,.75-1.39.6-1.69s.68.86.68.86V46.26l.71,1.2s-1-4.44-.45-5.23c0,0,.79-5.15-3.27-5.79A7.66,7.66,0,0,0,41.12,38.7Z"/><path class="cls-3" d="M64.6,31.78a6.4,6.4,0,0,1-.42,3.12c-.63,1,0,1.26,0,1.26l6.28-2.77s-2-6.06-1.79-6.29-3.44,4.54-4.17,4.15S64.6,31.78,64.6,31.78Z"/><path class="cls-3" d="M60.34,20.35s-.79,1.81.19,3a3.69,3.69,0,0,1,.37,3.09l-.86,1s3.67,4,4.46,4.07,4.9-3.81,4.9-3.81S72,24.21,71.74,23s-1-7.48-5.24-7.06a8,8,0,0,0-6,4.06Z"/><path class="cls-6" d="M59,19.6s4.33.6,3.91,3.78c0,0,.79-3.87-.23-5,0,0,1.45,2,1.4,3.37,0,0,.42-3.27,0-3.74,0,0,2.1,3.27,1.87,4.91,0,0,.5-4,0-4.53,0,0,1.62,5.19,1,6.92,0,0,1.31-2.71,1.17-3.23s.3,5.09,0,5.42A18.63,18.63,0,0,0,69,24.84s.79,4.49.42,5.14c0,0,2-2.38,1.82-2.76s0,2,0,2l.93-3.13v1.78s1.36-3.61.84-4.45a5.59,5.59,0,0,1,.56,2.16l.28-4.35s-1.26-5-4.16-5.66-5-1-6.45-.65-4.72,3-4.67,4.07.09,2.57,1.36,3.13C59.92,22.08,58.32,20.26,59,19.6Z"/><path class="cls-7" d="M19.49,37.08s.84-2.71,2.52-.23"/><path class="cls-7" d="M19.49,34.33s1.5-1.59,2.94.79"/><path class="cls-7" d="M16.58,38.12s-1.3-1.89-1.75.67"/><path class="cls-7" d="M15.49,35.32s-1.82-.09-1.58,2.13"/><line class="cls-7" x1="17.52" y1="39.11" x2="17.52" y2="39.35"/><path class="cls-8" d="M18.12,41.31S17,40.7,17.24,40l2.84-1.23s.28,1.12,0,1.58"/><path class="cls-9" d="M17,44.08A23.2,23.2,0,0,1,15.11,46c-.21.07-.84,3.09-.32,3.37a2.58,2.58,0,0,1,.88,1s1.89-.39,1.82-.6a3,3,0,0,1,0-.81s.28-2.91-.56-3c0,0,.85.49.86,3.19l-1,4.45s7,.84,8-1.75c0,0-1.61-2.07-1.44-2.66,0,0-.88-1.68-.42-2.14,0,0,.91,1.58,1.86,1.12,0,0,1.87-.44,0-3.4s-3.37-1.29-3.37-1.29l-1.3,2.13s-2.3-1.09-2.29-1.51S17,44.08,17,44.08Z"/><polygon class="cls-7" points="18.89 43.39 19.49 43.66 19.08 44.98 17.83 44.01 18.15 43.07 18.89 43.39"/><path class="cls-7" d="M19.87,43.77l.64,1.1,1.21-1.1a7.83,7.83,0,0,1-.35-1.39Z"/><path class="cls-5" d="M14.82,42.61s1.35-1.88,3.74,1L19,45.34s-.74-.11-.88.46-.35-1.8-2.24-2.41S14.82,42.61,14.82,42.61Z"/><path class="cls-5" d="M18.08,46.12s-.85,2.07.45,2.73,3.53-.32,3.9-.84.88-3-1.16-3.3A3,3,0,0,0,18.08,46.12Z"/><path class="cls-5" d="M20.75,42.38s-1.55,1.88-.63,2.3c0,0,1.39-.25,1.62,0,0,0-.45-1.54,1-1.61,0,0,1.52,1,1.56,1.44,0,0,1,.8.67-.48S22.76,40.5,20.75,42.38Z"/><path class="cls-3" d="M17.83,49.9s.77.84.71,1,2.18-.84,3.2-.67a6.67,6.67,0,0,1,1.4-.6c.32,0,0,.81,0,.81s-4.22,1.86-4.6,1.75S16.37,51,16.23,50.37a2.31,2.31,0,0,1,0-1.09l1.6.39Z"/><path class="cls-3" d="M24.71,48.33l-1.19,1.92-1.79.55-.53-.51,1.94-1.21.14-1.24S24.38,48.7,24.71,48.33Z"/><path class="cls-5" d="M18.7,49.32s-.47,2.24,0,2.51.78-.42.78-.42L19.82,50l-.11-.73S19,48.91,18.7,49.32Z"/><path class="cls-5" d="M21.73,49s.18,2.28,1,2.45.68-.61.68-.61a10.2,10.2,0,0,0-.68-2.16A.8.8,0,0,0,21.73,49Z"/><ellipse class="cls-7" cx="21.08" cy="46.38" rx="0.12" ry="0.5"/><ellipse class="cls-7" cx="19.16" cy="46.88" rx="0.12" ry="0.5"/><line class="cls-7" x1="19.87" y1="48.11" x2="20.8" y2="48.33"/><line class="cls-7" x1="20.54" y1="47.83" x2="20.11" y2="48.58"/><path class="cls-7" d="M22,46.88s-.42.78,0,1S22.33,47.36,22,46.88Z"/><path class="cls-7" d="M18.33,47.37s-.93.08-1.13.32"/><path class="cls-3" d="M61.73,44.56s-1.85,1.31-1.69,2,.57.77.61.93S53,36.06,52,36s-2.68-.77-4.56-.15S48.53,37,48.53,37a17.58,17.58,0,0,1,2,1.11c.25.25-1.3,0-1.93.35s1.09.63,1.09.63a10.92,10.92,0,0,1,1.82,1.54c.11.32,1.68.38,1.68.38s4,7.21,4.37,8.29,2.67,1.48,2.67,1.48l1.4-.79,2.15-2.47,1-2.06S63.67,42.82,61.73,44.56Z"/><path class="cls-7" d="M18.5,48.11s-1.27-.06-1.3.22"/><path class="cls-7" d="M21.73,46.38s1.2-.48,1.55-.27"/><path class="cls-7" d="M22.29,46.88a2.13,2.13,0,0,1,1.3,0"/><path class="cls-5" d="M19.49,52.26a14.51,14.51,0,0,1,.23,2.67c-.13.41,1,.22,1.08,0s.69-2.19.69-2.19,1.6,1.51,1.64,2,1.23-.56,1.23-.56-1-2.82-1.86-2.94a2.76,2.76,0,0,1-1.31-.48l-1.48.64Z"/><path class="cls-10" d="M18.7,62.24s-.13,1.26-.55,1.23-.79.81-.31.91,2-.88,2.36-.77.87-.67.87-.67l-.75-1.47s-.21,1.08-.61.91S19.11,62.59,18.7,62.24Z"/><path class="cls-10" d="M26.74,58.7s.29.68.2.92.51.6.79.39.39-1.51.39-1.51l-.69-2.14-1.21.28A6.75,6.75,0,0,1,26.74,58.7Z"/><polyline class="cls-7" points="42.52 43.39 44.55 43.62 43.04 44.98"/><polyline class="cls-7" points="47.67 42.35 46.06 43.39 47.36 43.62"/><path class="cls-7" d="M45.38,40.86s2.08,1.34,2.45,1"/><path class="cls-7" d="M43.85,41.7s-.84,2-1.58,2"/><path class="cls-8" d="M44.55,45s1.47.08,1.79-.31l1,1.21-1.75,1-1.68-.5Z"/><polygon class="cls-7" points="44.55 47.37 45.78 47.86 45.17 49.34 44.55 47.83 44.55 47.37"/><polygon class="cls-7" points="46.2 47.86 47.01 49.08 47.46 47.69 47.29 46.99 46.2 47.86"/><path class="cls-9" d="M45.57,49.13s.85.67,1.26-.06.57-1.89,1-2a2.46,2.46,0,0,1,2.54,2.38h0v.12l.25,1.54s-1,1-1.16.88-1-2.43-.49-3c0,0-.42.91.63,4.57,0,0-2.63,2.77-5,1.28,0,0-.16-1.64-.35-2.92a5.11,5.11,0,0,0-.35-1.49,6.08,6.08,0,0,1,.21,1.74c-.14.24-1.82.46-2,0,0,0-.46-2.4.63-3.18,0,0,1.09-1.35,1.47-1.38S45.57,49.13,45.57,49.13Z"/><path class="cls-5" d="M44.55,55.37s-1.3,4.91-.21,5.55c0,0,4.36-1.89,5.44-1.68a2.13,2.13,0,0,0,1.82-.54s-1.33-5.18-2.52-5.42S44.55,55.37,44.55,55.37Z"/><path class="cls-10" d="M44.55,63.58s-.63.94-1,1-.35.95.18.84,1.68-.81,2.07-.74.82-.42.82-.42l-.31-.88A2.36,2.36,0,0,1,44.55,63.58Z"/><path class="cls-10" d="M48.62,63.36v.22l-.12.48a2.39,2.39,0,0,1,1.16,0,8.57,8.57,0,0,0,1.4.32l.6-.36s.32-.41-1.26-1.1c0,0-1.26.37-1.72,0Z"/><path class="cls-11" d="M48.09,44s-1.58-.27-.26-.63,1,.55,1,.55Z"/><path class="cls-11" d="M42.27,44.7s.42-.37.6-.07a1.4,1.4,0,0,1,.19.46,1.3,1.3,0,0,1-.54.32C42.15,45.57,41.78,45.21,42.27,44.7Z"/><path class="cls-11" d="M59.38,31.25s-1.86,1.3-1.72,2.17S59.17,32.06,59.38,31.25Z"/><path class="cls-11" d="M66.53,26.2s-.95,1.4,0,1.75S66.53,26.2,66.53,26.2Z"/><path class="cls-7" d="M62.4,29.57s.67-1,1.26-.7"/><path class="cls-7" d="M61.73,21.86a4,4,0,0,0,3.16,0"/><path class="cls-6" d="M62.82,36.56s5.85-5.34,6.52-5.31,3.75,3,3.75,3.21S63.17,35.87,62.82,36.56Z"/><path class="cls-6" d="M75.37,36.16c.45.7-1,20.19-1,20.19s-6.84-.65-8.87,1.1-5.5-1.1-5.5-1.1,2.92-7.5,2.36-19.11c0,0-.35-2.06,10.69-2.78"/><path class="cls-6" d="M73.33,34.7a6.58,6.58,0,0,1,2,1.47"/><path class="cls-6" d="M61.59,44s1.3.91,1.44,1.45,2.45-2.08,2.45-2.08l1.05-4.6s0-2.22-2.07-1.71-2.7.83-3.09,2.14.14,4.09,0,4.44a.23.23,0,0,0,.22.36Z"/><path class="cls-10" d="M60.36,56.91s-5.89,5.64-5.71,6.79.63,3.77,4.56,3.84,12.48-2.07,13.43-1.37l.77.21L74,61.44S63.27,58.7,60.71,63.19l12.38-1L74,56.77l.32-.42S62.27,57.7,61,57"/><path class="cls-7" d="M9.44,37.08s-.75.78-1.24.37S7,36.7,6.87,37.08"/><line class="cls-12" x1="21.08" y1="37.57" x2="20.96" y2="38.13"/><line class="cls-12" x1="15.39" y1="39.49" x2="15.28" y2="40.05"/><line class="cls-12" x1="15.76" y1="39.35" x2="15.64" y2="39.91"/><line class="cls-12" x1="16.09" y1="39.23" x2="15.97" y2="39.79"/><line class="cls-12" x1="21.49" y1="37.57" x2="21.37" y2="38.13"/><line class="cls-12" x1="21.88" y1="37.57" x2="21.76" y2="38.13"/><path class="cls-13" d="M16.09,45.78s1,.58.75,3.56l.68.39s.83-3.39-1.43-4.25l-.45.31Z"/><path class="cls-13" d="M24.71,45.17s-1.63-1.66-2-1.56-.82.76-.54,1.13.81.65.8,1,0,1.09,0,1.09l-.11.06s0-1.84-.92-2a1.23,1.23,0,0,1,0-1.34c.46-.65.92-.32.92-.32s1.4.88,1.42,1.14a1.69,1.69,0,0,0,.23.41l.41.11.16.45Z"/><path class="cls-13" d="M17.67,46.52a2,2,0,0,0,0-1c-.18-.3-.55-1-.74-1.07s0-.19,0-.19.32-.12,1.12,1.68l-.29,1.39A2,2,0,0,1,17.67,46.52Z"/><path class="cls-13" d="M18,48.87l.35.37-.18,1,.18.19.3-1.49a1,1,0,0,1-.86-.59c-.27-.6,0,.08,0,.08Z"/><path class="cls-13" d="M22.7,47.7l-.26.53.51.65.12-.18S22.59,47.83,22.7,47.7Z"/><path class="cls-13" d="M17.3,51.9a6.88,6.88,0,0,0,1.2.71,5.11,5.11,0,0,0,.78-.23l.21,1.16.19.1-.29-1.49-.88.26-1.2-.65Z"/><path class="cls-13" d="M23.46,51.4a1.23,1.23,0,0,0-.08-1l.2-.14.32.32a.19.19,0,0,0-.25.21,6.94,6.94,0,0,1-.07.77l.24,1.14-.75-1.2Z"/><path class="cls-13" d="M43.28,52.32a14.82,14.82,0,0,0,.07-1.53l-.56-1.72,1.31.8,1.68,4.69-.86.56-.36-.19s-.56-4.36-.75-4.58.25,1.81.25,1.81A1.12,1.12,0,0,1,43.28,52.32Z"/><path class="cls-13" d="M48.87,53.25s-.21-3.68.09-4.1,1.14-1.31,1.14-1.31.06,3.84.3,3.86l-.25.35a4.15,4.15,0,0,1-.55-2.87l-.24.3.75,3.82S49.07,53.07,48.87,53.25Z"/></g></g><rect class="cls-14" x="5" y="5" width="72.33" height="72.33" rx="7" ry="7"/></g></g></g></g></g></g></svg>