<svg xmlns="http://www.w3.org/2000/svg" xmlns:xlink="http://www.w3.org/1999/xlink" viewBox="0 0 82.33 82.33"><defs><style>.cls-1,.cls-6{fill:#fff;}.cls-2{fill:url(#radial-gradient);}.cls-3{fill:#8cad4a;}.cls-10,.cls-11,.cls-3,.cls-4,.cls-5,.cls-6,.cls-7,.cls-8,.cls-9{stroke:#000;stroke-miterlimit:10;}.cls-10,.cls-11,.cls-3,.cls-4,.cls-5,.cls-6,.cls-7,.cls-8{stroke-width:0.25px;}.cls-5{fill:#b94f4f;}.cls-7,.cls-9{fill:#932929;}.cls-8{fill:none;}.cls-9{stroke-width:0.5px;}.cls-10{fill:#450000;}.cls-11{fill:#ff08ee;}.cls-12{fill:url(#radial-gradient-2);}</style><radialGradient id="radial-gradient" cx="41.17" cy="749.17" r="41.17" gradientTransform="translate(0 -708)" gradientUnits="userSpaceOnUse"><stop offset="0" stop-color="#fff" stop-opacity="0"/><stop offset="1" stop-color="#195858" stop-opacity="0.25"/></radialGradient><radialGradient id="radial-gradient-2" cx="41.17" cy="749.17" r="36.17" gradientTransform="translate(0 -708)" gradientUnits="userSpaceOnUse"><stop offset="0" stop-color="#fff" stop-opacity="0.3"/><stop offset="0.75" stop-color="#195858" stop-opacity="0.5"/><stop offset="1" stop-color="#195858"/></radialGradient></defs><title>btnSceneCh2</title><g id="Layer_2" data-name="Layer 2"><g id="Layer_1-2" data-name="Layer 1"><g id="Layer_2-2" data-name="Layer 2"><g id="Layer_1-2-2" data-name="Layer 1-2"><rect class="cls-1" width="82.33" height="82.33" rx="12" ry="12"/><rect class="cls-2" width="82.33" height="82.33" rx="12" ry="12"/><g id="Layer_2-2-2" data-name="Layer 2-2"><g id="Layer_1-2-2-2" data-name="Layer 1-2-2"><polyline class="cls-3" points="6.13 16.54 6.13 70.73 74.54 70.73 74.54 16.54"/><path class="cls-4" d="M27.79,56.18l.41.84s-.28,1.26,0,1.48c0,0,1-1.38,2-1.16a1.13,1.13,0,0,0-1-.86l-.88-2.3-1.18,1Z"/><polyline class="cls-5" points="34.18 15.28 34.35 31.66 77.15 54.77 76.75 16.54"/><polyline class="cls-5" points="5.25 57.4 34.35 31.66 34.18 15.28"/><polygon class="cls-6" points="19.71 37.73 6.75 51.61 6.75 60.01 14.06 62.91 35.49 40.8 19.71 37.73"/><polygon class="cls-6" points="35.49 41.14 14.56 63.33 14.77 69.47 35.49 47.74 35.49 41.14"/><path class="cls-7" d="M33.6,50.22v3.7s1.34,1.22,2.06-.34l-.17-5.3s-.29-2.19-1.56-.8A2.21,2.21,0,0,0,33.6,50.22Z"/><polygon class="cls-6" points="14.56 63.46 7.21 60.6 7.21 66.61 14.56 69.55 14.56 63.46"/><path class="cls-7" d="M16,73.17l-.18-5.3s-.32-2.19-1.71-.8a2.06,2.06,0,0,0-.37,2.73v3.7"/><path class="cls-8" d="M13.81,43.7s2.94.21,4,1.18a13.52,13.52,0,0,0,3.4,2.44c.38,0,2.9-.25,3.45.21s1.3.13,1.81.67,1.43,2.14,1.26,2.5a5.91,5.91,0,0,1-1.51,1.5c-.21,0-2.65-2.27-4.83-1.77s-2.82-2.48-4.2-2.69-2.9-.21-3.57-.71-1.05-.88-1.68-.63S12.76,44,13.81,43.7Z"/><path class="cls-9" d="M12.46,45.6s-5.17,5.93-5.72,6v9s4.26.4,5,1.4,2.63.93,2.63.93,1.77,3,2.19,1.85.92-3.07,1.77-2.77,3.4-4.12,4.24-4,2.86-2.69,2.86-2.69l1.81-1.81v-2l-2.48-1.93s-4.12-1.89-4.33-1.89-3.66-1.51-3.66-1.51l-3.38-.84Z"/><path class="cls-10" d="M6.91,56.19C8.39,56,12,57.57,13.37,58.63s1.19,4.71,1.19,4.71L6.75,60.6Z"/><ellipse class="cls-8" cx="11.12" cy="33.78" rx="1.72" ry="2.68"/><line class="cls-8" x1="11.12" y1="36.42" x2="11.12" y2="38.12"/><line class="cls-8" x1="12.77" y1="34.79" x2="12.77" y2="36.87"/><line class="cls-8" x1="9.45" y1="34.8" x2="9.45" y2="36.88"/><path class="cls-7" d="M35.49,40.34V38.12s-.76-4-7.8-4.67-7.21,2-7.21,2v2.23Z"/><polyline class="cls-7" points="63.73 77.41 63.73 65.56 49.58 56.74 49.58 54.77 49.58 51.79 74.54 67.01 74.54 70.73 73.49 76.57"/><path class="cls-10" d="M58.72,73.19c1-.5,1.7-6.24,1.32-6.18a21.46,21.46,0,0,1-3.34-1.37s1-7.45.44-7.64-4.1-2.74-6.49-2-1.89,1.61-1.89,1.61-1.39,12.21,0,12.91,9,3.15,10,2.65"/><polyline class="cls-10" points="73.91 72 64.77 66.32 64.77 66.61 64.77 73.26"/><line class="cls-8" x1="10.21" y1="31.64" x2="12.84" y2="33.78"/><line class="cls-8" x1="10.48" y1="31.19" x2="12.88" y2="33.13"/><line class="cls-8" x1="10.96" y1="31.1" x2="12.68" y2="32.5"/><line class="cls-8" x1="9.93" y1="32.09" x2="12.73" y2="34.35"/><line class="cls-8" x1="9.68" y1="32.58" x2="12.59" y2="34.94"/><line class="cls-8" x1="9.55" y1="33.15" x2="12.41" y2="35.47"/><line class="cls-8" x1="9.41" y1="33.73" x2="12.04" y2="35.86"/><line class="cls-8" x1="9.33" y1="34.29" x2="11.83" y2="36.32"/><line class="cls-8" x1="9.51" y1="34.94" x2="11.4" y2="36.42"/><line class="cls-8" x1="12.06" y1="31.66" x2="9.42" y2="33.8"/><line class="cls-8" x1="11.78" y1="31.21" x2="9.39" y2="33.15"/><line class="cls-8" x1="11.31" y1="31.12" x2="9.58" y2="32.52"/><line class="cls-8" x1="12.34" y1="32.11" x2="9.54" y2="34.37"/><line class="cls-8" x1="12.58" y1="32.6" x2="9.67" y2="34.95"/><line class="cls-8" x1="12.71" y1="33.17" x2="9.86" y2="35.48"/><line class="cls-8" x1="12.86" y1="33.75" x2="10.22" y2="35.88"/><line class="cls-8" x1="12.94" y1="34.31" x2="10.44" y2="36.33"/><line class="cls-8" x1="12.75" y1="34.95" x2="10.87" y2="36.44"/><polygon class="cls-5" points="27.38 61.4 27.7 68.46 28.39 68.46 28.39 61.4 27.38 61.4"/><polygon class="cls-5" points="28.74 61.56 33.59 63.61 33.59 70.6 28.39 68.68 28.58 61.4 28.74 61.56"/><polygon class="cls-5" points="27.1 61.4 21.39 64.57 22.18 70.86 27.51 68.46 27.1 61.4"/><polygon class="cls-7" points="49.58 51.49 58.15 42.53 76.75 52.6 77.15 61.4 74.86 67.01 49.58 51.49"/><path class="cls-3" d="M57.08,45.35s-.27-1.86,1.07-2A1.52,1.52,0,0,1,60,44.45v.1C60,44.91,58.37,46.55,57.08,45.35Z"/><path class="cls-3" d="M58.21,43.12s-.09-5.93,3.22-4l.63.28-.38.4s-2.86-2.69-3.16,3.91l-.3.29Z"/><path class="cls-7" d="M21.75,37.48s-2.4,0-3.07,4a4.53,4.53,0,0,0,3.74,1.22,6.09,6.09,0,0,1,4.29,1.47,4.4,4.4,0,0,0,1.68,0,12.8,12.8,0,0,0,1.51-2.4s.5-2.23-.5-2.77a12,12,0,0,0-4.4-.88C25,38.33,23.16,36.88,21.75,37.48Z"/><path class="cls-11" d="M61.52,40a1.7,1.7,0,0,0-.16,2l.54-.71.54.55.5-.78.6.46.19-.68.32.45a1.57,1.57,0,0,0-1.17-1.81C61.43,39.11,61.52,40,61.52,40Z"/><path class="cls-3" d="M58.52,39.8s.23-1.2-1.09-1.07c0,0-.31,1.28.55,1.87l.23.2Z"/><path class="cls-8" d="M28.39,58.91a1.66,1.66,0,0,0,1.48-.22c1-.5.5-1.1.5-1.1s-.34-.41-1.21,0S28,58.66,28.39,58.91Z"/><path class="cls-8" d="M57.61,39a4.06,4.06,0,0,1,.6,1.39"/><path class="cls-7" d="M29.62,40s-.41,1.83.41,2.08a3.83,3.83,0,0,0,1.8,0s.6-1.29.13-2.08a1.38,1.38,0,0,0-2.34,0Z"/><path class="cls-7" d="M32.14,37.34s-2.2.89-1.92,2.31a.56.56,0,0,1,.77,0,2.2,2.2,0,0,1,1.43-1.92S32.79,37.26,32.14,37.34Z"/><path class="cls-7" d="M31.36,38.81a.78.78,0,0,1,.91-.32c.57.21.26,1.32.26,1.32s-.24.15-.39-.16.07-.48-.15-.51-.44.7-.44.7l-.38-.09Z"/><ellipse class="cls-8" cx="30.56" cy="40.63" rx="0.07" ry="0.29"/><ellipse class="cls-8" cx="31.44" cy="40.67" rx="0.07" ry="0.29"/><line class="cls-8" x1="30.76" y1="41.45" x2="31.12" y2="41.64"/><line class="cls-8" x1="31.17" y1="41.34" x2="30.76" y2="41.71"/><path class="cls-7" d="M29.52,42s-.75,1.33-.2,2l.83,1,.41.41s.3.11.41,0a1.56,1.56,0,0,0,0-.91,2.34,2.34,0,0,1,.4.34c0,.08.45-.26.53-.44s-.12-.57-.12-.57.12-1.44-.07-1.47A10.82,10.82,0,0,1,29.52,42Z"/><path class="cls-7" d="M30,42.45c.33-.46.73,0,.73,0l.2.61v.88a.44.44,0,0,1-.58.06c-.39-.2-.29-1.55-.29-1.55Z"/><path class="cls-7" d="M31.44,42.35s-.06,1.18.34,1.35.54-.12.54-.12v-.72L32,42.39S31.66,42,31.44,42.35Z"/></g></g><rect class="cls-12" x="5" y="5" width="72.33" height="72.33" rx="7" ry="7"/></g></g></g></g></svg>