<svg xmlns="http://www.w3.org/2000/svg" xmlns:xlink="http://www.w3.org/1999/xlink" viewBox="0 0 82.33 82.33"><defs><style>.cls-1,.cls-13{fill:#fff;}.cls-2{fill:url(#radial-gradient);}.cls-3,.cls-6{fill:#ffd0a9;}.cls-10,.cls-11,.cls-13,.cls-16,.cls-17,.cls-18,.cls-20,.cls-3,.cls-4,.cls-5,.cls-6,.cls-7{stroke:#000;}.cls-10,.cls-11,.cls-12,.cls-13,.cls-16,.cls-17,.cls-18,.cls-20,.cls-3,.cls-4,.cls-5,.cls-6,.cls-7{stroke-miterlimit:10;}.cls-16,.cls-18,.cls-3{stroke-width:0.75px;}.cls-11,.cls-12,.cls-13,.cls-17,.cls-4,.cls-5,.cls-7{stroke-width:0.25px;}.cls-5{fill:#306f6f;}.cls-10,.cls-20,.cls-6{stroke-width:0.5px;}.cls-12,.cls-18,.cls-7{fill:#932929;}.cls-8{fill:#144443;opacity:0.5;}.cls-19,.cls-8,.cls-9{isolation:isolate;}.cls-17,.cls-9{fill:#450000;}.cls-9{opacity:0.56;}.cls-10{fill:#ff4800;}.cls-11,.cls-16,.cls-20{fill:none;}.cls-12{stroke:#450000;}.cls-14{fill:#688927;}.cls-15{fill:#8cad4a;}.cls-19{fill:#7c2525;opacity:0.54;}.cls-21{fill:url(#radial-gradient-2);}</style><radialGradient id="radial-gradient" cx="41.17" cy="749.17" r="41.17" gradientTransform="translate(0 -708)" gradientUnits="userSpaceOnUse"><stop offset="0" stop-color="#fff"/><stop offset="1" stop-color="#932929" stop-opacity="0.25"/></radialGradient><radialGradient id="radial-gradient-2" cx="41.17" cy="749.17" r="36.17" gradientTransform="translate(0 -708)" gradientUnits="userSpaceOnUse"><stop offset="0" stop-color="#fff" stop-opacity="0.3"/><stop offset="0.75" stop-color="#a14545" stop-opacity="0.5"/><stop offset="1" stop-color="#932929"/></radialGradient></defs><title>btnScene1Locked</title><g id="Layer_2" data-name="Layer 2"><g id="Layer_1-2" data-name="Layer 1"><g id="Layer_2-2" data-name="Layer 2"><g id="Layer_1-2-2" data-name="Layer 1-2"><rect class="cls-1" width="82.33" height="82.33" rx="12" ry="12"/><rect class="cls-2" width="82.33" height="82.33" rx="12" ry="12"/><g id="Layer_2-2-2" data-name="Layer 2-2"><g id="Layer_1-2-2-2" data-name="Layer 1-2-2"><path class="cls-3" d="M68.21,27.27a5.85,5.85,0,0,1,.19,1.94c-.17.45,1.35-.37,1.35-.37l1.07-.46,1.43-.92,1.18-.4V22.7L71,23.92l-2.75,1.91Z"/><path class="cls-4" d="M64.86,33.87s6.71-5.48,11.8-5.12V43.62L73.43,75.21l-4.75.14L65.17,66,63.26,51.11s3.37-4.64,3.29-4.61-1.29-9.92-1.29-9.92Z"/><path class="cls-5" d="M49.16,45.56a31.17,31.17,0,0,0-1.5,4.28c.07.45,1.5,2.14,2.17,2a7.42,7.42,0,0,0,2.1-1.46L51,46.47Z"/><path class="cls-6" d="M51.82,18.87s-1.16,1.19.6,5.42c0,0,.6,1.22-1.57,2.76,0,0,3,4.73,3.45,4.77a7.89,7.89,0,0,0,2.1-1l1.8-4a3.17,3.17,0,0,0,1.31-3.14c-.15-2.37-1-.47-1-.47s.71-5-1.12-5.57S52.56,17.23,51.82,18.87Z"/><path class="cls-7" d="M66.61,59.06S69.76,72.14,69.2,75H50.8s.77-14,1.94-14.57S66.24,59.62,66.61,59.06Z"/><path class="cls-5" d="M50.47,40.18c3.22,2.29,3.78,12.51,3.78,12.51L50.84,70.11s-5.06-2.21-4.57-2.81S49,55.5,49,55.5l1.17.26L49,55.24v-.71l.71.15c-.34,0-.9-.79-.9-.79.34-.07.67-6.89.67-6.89l-.9-1.43.56-2A23.34,23.34,0,0,1,49,39c1.2,0,4.76-3.71,4.76-3.71s8.94-2.47,9.55-1.91A24.66,24.66,0,0,0,68,36.19c.34-.07-.6,5.69,0,6.11s.08,6.59.08,6.59l-2.4,4.57s0-6.78.26-11.8c.14-2.87.37-5.17.71-5.29L65.37,51.3s.45,7.27,1.2,7.23c0,0-4.8,5.73-6.26,5.73,0,0-5.73-1.09-7.34-3.93l1.5-7.72S53,40.85,50.47,40.18Z"/><path class="cls-8" d="M53.21,35.89s-.12,5.67,1.23,6l.28-2s.07,3.2,1.12,3.24v-2.7s1,5.2.84,6c0,0,.83-.25,1.07-1.69a26.54,26.54,0,0,1,.73,4s2.14-2.7,1.91-4.49.84,3.67.73,4.65a19.89,19.89,0,0,0,1.27-2.74l-.32,2a11.53,11.53,0,0,0,1.4-2.55,14.23,14.23,0,0,1,.28,2.55s1.52-2.93,1.29-3.89l.31.34s.74-5.51.19-5.84l-2-5.15s-8.7,2.4-8.93,1.89S53.21,35.89,53.21,35.89Z"/><path class="cls-7" d="M59,19.42c.53-.86-.82,7.15-.82,7.15a53.27,53.27,0,0,1-2.55,5.06c-.55.65.15,10.64.15,10.64-.71-.3-1.09-3.93-1.09-3.93-.34.23-.34,3-.34,3-.86-.79-.22-6.37-.26-7.87s3.11-6.41,3.11-6.41l-1,.53,1.13-1c.8-.94-.5-7.45-.5-7.45.6.79.49,4.35.49,4.35a7.62,7.62,0,0,1-3.15-4.6c-.34.46,1.16,4.78,1.16,4.78-1.27-.72-3.63-5.24-3.63-5.24-.74.3.16,4.36-.07,4.53s.22,2.32.22,2.32C50.35,22.51,51,21,51,21c-.19,0-.79,1.51-.79,1.51-.49-3.68,1-5.31,1-5.31s.34,0,.41.64c0,0-1.06-1.94,1.5-2.73s9-1.09,10.75,3.22c2,4.81,1.12,10.17-.3,14.7,0,0,2.47,7.07,1.61,10.44,0,0-.37-4-.79-4.42,0,0,.56,5.69-.26,7.87,0,0-.07-4.31-.41-4.57,0,0-.71,4-1.31,4.57,0,0-.07-3.86-.37-4.08,0,0,.11,4-.67,4.51,0,0-.82-6.31-1.54-6.5,0,0-.11,5.24-1,6.5,0,0-.7-4.25-1.06-4.55a14.89,14.89,0,0,1-.62,3.07s-.3-4.31-.67-4.61c0,0-1.31-5.73-.82-6.59s-1-2.55,1.46-5S58.82,19.72,59,19.42Z"/><path class="cls-9" d="M58.94,19.18c.53-.86-.82,7.15-.82,7.15a53.27,53.27,0,0,1-2.55,5.06C55,32,55.72,42,55.72,42c-.71-.3-1.09-3.93-1.09-3.93-.34.23-.34,3-.34,3-.86-.79-.22-6.37-.26-7.87s3.11-6.41,3.11-6.41l-1,.53,1.13-1c.8-.94-.5-7.45-.5-7.45.6.79.49,4.35.49,4.35a7.62,7.62,0,0,1-3.15-4.6c-.34.46,1.16,4.78,1.16,4.78-1.27-.72-3.75-5.15-3.75-5.15-.74.3.27,4.26,0,4.44s.22,2.32.22,2.32c-1.5-2.77-.82-4.33-.82-4.33-.19,0-.79,1.51-.79,1.51-.49-3.68,1-5.31,1-5.31s.34,0,.41.64c0,0,11.31-2.08,12.8,2.28,1.42,4.14.5,7.42-.73,13,0,0,2.35,7,1.49,10.37,0,0-.37-4-.79-4.42,0,0,.56,5.69-.26,7.87,0,0-.07-4.31-.41-4.57,0,0-.71,4-1.31,4.57,0,0-.07-3.86-.37-4.08,0,0,.11,4-.67,4.51,0,0-.82-6.31-1.54-6.5,0,0-.11,5.24-1,6.5,0,0-.7-4.25-1.06-4.55a14.89,14.89,0,0,1-.62,3.07s-.3-4.31-.67-4.61c0,0-1.31-5.73-.82-6.59s-1-2.55,1.46-5S58.76,19.48,58.94,19.18Z"/><path class="cls-6" d="M65.83,11.74a8.33,8.33,0,0,0,0,5.47s-.11,2.66-1.46,2.73c0,0,2.81,7,3.6,7.11l2.4-1.79,1.27-1L72.76,13,70,9.46S66,9.91,65.83,11.74Z"/><path class="cls-4" d="M64.63,11.22,65.37,13s-1.08-.41-1-3.75c0,0,3.63-4.27,6.71-.64l2.6.67-.24,9.22v4.2l-2.22,1.92-1,1.33s.19-3-.11-3.25c0,0-.22,1.19-.45,1.34s.26-3,.22-3.09-.11.4-.32.47c0,0,.6-3.57.24-3.81,0,0-.2.76-.38.83,0,0,.25-1,.15-1a4,4,0,0,0-.76,2,23.18,23.18,0,0,0-.13-3.79l-.53,1.83s-.07-4-.66-4.83a17.54,17.54,0,0,1-.83,2.75s.62-3.82-1.76-4.73A.66.66,0,0,0,64.63,11.22Z"/><path class="cls-10" d="M65.93,23.11l1.45-.51s0,1.69-.7,2.25"/><path class="cls-4" d="M67.42,31.35s1-3.48,2.83-3.68A18.07,18.07,0,0,0,73.42,27v1.57S69,29,67.42,31.35Z"/><path class="cls-11" d="M52.34,29.21s1.39-.25,1.73-.9"/><path class="cls-3" d="M41.89,43.85s-.56,6.86-.82,7.34.41,1.09.41,1.09h.75s2.32-7.64,2.17-8.8a1.27,1.27,0,0,0-1.16-1.2Z"/><path class="cls-3" d="M44.66,43.92a43.1,43.1,0,0,1,2.43,4.38c.09.56.86.56.86.56l.44-1.39a8.69,8.69,0,0,1-1.16-1.9c-.15-.6-.79-3.07-2-3.3S44.66,43.92,44.66,43.92Z"/><path class="cls-12" d="M45.08,36.13s1.08,2.62,1.6,2.66a2.74,2.74,0,0,1-.26,1.42l.49-.71.82,3.82s-2.66-.94-4.31.22A7.8,7.8,0,0,1,40.8,44.9s-2.06-.49-2.06-1c0,0,1.26-4,1-4.27s-.19-1.31-.19-1.31S44.68,35.23,45.08,36.13Z"/><path class="cls-3" d="M36.53,25.23A7.94,7.94,0,0,1,37,26.58a9.18,9.18,0,0,0,2.14,1.24L41,26.53l.82-2.27V21.82s-5.17-2.55-6.29,1A4.11,4.11,0,0,0,36.53,25.23Z"/><path class="cls-7" d="M37.13,27.06s-.11,1.77-.19,2l.6-1s-2,3.09-1.54,4.26c0,0,.34-1.84.73-1.84s1.56-1.71,1.56-1.71V27.43l-1.16-.55Z"/><path class="cls-5" d="M36.76,31s-.07,1.31-.45,1.57c0,0,.19,1.24.45,1.42l-.64,1.46a1.94,1.94,0,0,1,2.17-.22L37.84,34l-.07-.17a3.94,3.94,0,0,1,0-2.83v-.52S37.37,30.28,36.76,31Z"/><path class="cls-5" d="M41.06,39l.56.22A15,15,0,0,0,44,37a19.16,19.16,0,0,1,1.13-1.65l-.53-.9-.6-.9V30.06l-.56-1.76L40,29l-.41,2.32-1-2.1-.79.64s-.3,4.38.75,5.06l.82,2.77Z"/><circle class="cls-13" cx="37.21" cy="37.75" r="2.79"/><path class="cls-3" d="M38.29,36.8a3.68,3.68,0,0,0-1.18.15c-.17.15.39.19.39.19a3.43,3.43,0,0,0-1,.15.9.9,0,0,0,.79,1h.09a2.75,2.75,0,0,0,1.33-.22L39,38l-.28-1.15Z"/><path class="cls-14" d="M38,27.38c-.24,0,.22,1.94-.52,3.09,0,0,1.68-1.16,2.06-1.09s3.93-.26,4.42-.82a20.53,20.53,0,0,1-2.88-2S39.64,28.13,38,27.38Z"/><path class="cls-15" d="M41.42,29.17s-1,7.25-2.51,7.88c0,0,3.48,2.9,3.85,2.33,0,0,.18-11.06-.64-11.72A2,2,0,0,1,41.42,29.17Z"/><path class="cls-5" d="M42.53,31.82l-1.2,1.65.34,1-.34-.37s-2.06,2.55-3,2.14c0,0,.67,2.58,2.12,2.7l2.94-4.12.3-1.27L45,32.28V31.22L45.6,29,44,28.77S43.16,31.41,42.53,31.82Z"/><path class="cls-10" d="M38.74,27.06s-.52-.22-.45-.37a6.15,6.15,0,0,1,1.24-.6s.15.49,0,.6"/><path class="cls-16" d="M39.19,24.85s.82-2.16,1.65-.48v.37"/><path class="cls-16" d="M37.73,25.27s-.52-1.31-.86,0"/><path class="cls-11" d="M41.06,22.94s-1.27-1-2-.16"/><path class="cls-11" d="M37.21,23.36s-.73-.45-1.27.67"/><path class="cls-17" d="M40.84,51.53A8.26,8.26,0,0,1,38.74,53c-.56.07-.26.94-.26.94s1.09.86,2.93-.26c0,0,1.38.11,1.61-.6s-.9-1.76-.9-1.76A1.43,1.43,0,0,1,40.84,51.53Z"/><path class="cls-18" d="M33,23s1.69-1.61,1.91-1.54c0,0-1,2.7-.56,3a25.42,25.42,0,0,1,1-2.36s-.75,3.22,0,3.75c0,0,0-1.46.19-1.54,0,0-.19,2,1,2.32,0,0-.71-4.38-.22-4.65,0,0-.15,2.43.37,2.55,0,0-.26-1.39,0-1.46,0,0,0,1,.19,1s.15-2.12.52-2.12c0,0,1.27,2.25,1.72,2.12,0,0-.34-1.33-.19-1.48s.3.86.49.86c0,0-.49-1.72-.34-1.8s.82,1.84,1.31,1.91c0,0-.34-1.91,0-1.91a11.88,11.88,0,0,1,.86,2.81,10.2,10.2,0,0,0,.34-2.21s-.19,5.32-.67,5.84c0,0-.49,2.85.37,3.33,0,0-.22-2,0-2,0,0,.22,1.12.36,1.12s-.32-2.7,0-2.73c.06,0,.14-.22.22-.55A29.93,29.93,0,0,0,42.45,22S42,27,42,27.36s1.31,8.2,2.1,8.43.94,0,.94,0a11.47,11.47,0,0,0-.19-2.88c-.26-.3,1.27,1.87,1.2,2.55a17.27,17.27,0,0,0-3-9.26c-.11.32,1.76-4.68-.67-6.48s-5.81-.52-6.22.9C36.12,20.62,36.38,19,33,23Z"/><path class="cls-19" d="M35,21.45s-1,2.7-.56,3a25.42,25.42,0,0,1,1-2.36s-.75,3.22,0,3.75c0,0,0-1.46.19-1.54,0,0-.19,2,1,2.32,0,0-.71-4.38-.22-4.65,0,0-.15,2.43.37,2.55,0,0-.26-1.39,0-1.46,0,0,0,1,.19,1s.15-2.12.52-2.12c0,0,1.27,2.25,1.72,2.12,0,0-.34-1.33-.19-1.48s.3.86.49.86c0,0-.49-1.72-.34-1.8s.82,1.84,1.31,1.91c0,0-.34-1.91,0-1.91a11.88,11.88,0,0,1,.86,2.81,10.2,10.2,0,0,0,.34-2.21S41.47,27.51,41,28c0,0-.49,2.85.37,3.33,0,0-.22-2,0-2,0,0,.22,1.12.36,1.12s-.32-2.7,0-2.73c.06,0,.14-.22.22-.55A29.93,29.93,0,0,0,42.52,22s-.45,5.06-.41,5.39,1.31,8.2,2.1,8.43.94,0,.94,0A11.47,11.47,0,0,0,45,32.91c-.26-.3,1.27,1.87,1.2,2.55A18.76,18.76,0,0,0,43,26.24s1.25-4.61.26-5.36C42.44,20.34,34.73,21.37,35,21.45Z"/><line class="cls-20" x1="38.28" y1="25.79" x2="38.24" y2="25.95"/></g></g><rect class="cls-21" x="5" y="5" width="72.33" height="72.33" rx="7" ry="7"/></g></g></g></g></svg>