<svg xmlns="http://www.w3.org/2000/svg" viewBox="0 0 321.95 497"><defs><style>.cls-1{stroke:#fff;stroke-miterlimit:10;opacity:0.52;}.cls-2{font-size:12px;fill:#fff;font-family:Nunito-Regular, Nunito;}.cls-3{letter-spacing:-0.01em;}.cls-4{letter-spacing:0em;}.cls-5{letter-spacing:0.04em;}.cls-6{letter-spacing:0.01em;}.cls-7{letter-spacing:-0.01em;}.cls-8{letter-spacing:0em;}.cls-9{letter-spacing:0.03em;}.cls-10{letter-spacing:0em;}.cls-11{letter-spacing:0em;}.cls-12{letter-spacing:-0.01em;}.cls-13{letter-spacing:-0.02em;}.cls-14{letter-spacing:0em;}.cls-15{letter-spacing:-0.01em;}.cls-16{letter-spacing:-0.03em;}.cls-17{letter-spacing:-0.01em;}</style></defs><title>info_title</title><g id="Layer_2" data-name="Layer 2"><g id="Layer_1-2" data-name="Layer 1"><rect class="cls-1" x="0.5" y="0.5" width="320.95" height="496"/><text class="cls-2" transform="translate(3.78 28.03)">By p<tspan class="cls-3" x="24.34" y="0">r</tspan><tspan x="28.45" y="0">essing </tspan><tspan class="cls-4" x="0" y="14.4">S</tspan><tspan x="7.37" y="14.4">ta</tspan><tspan class="cls-5" x="17.81" y="14.4">r</tspan><tspan class="cls-6" x="22.51" y="14.4">t</tspan><tspan x="26.76" y="14.4">, it will </tspan><tspan class="cls-7" x="0" y="28.8">s</tspan><tspan x="5.7" y="28.8">ta</tspan><tspan class="cls-5" x="16.14" y="28.8">r</tspan><tspan x="20.84" y="28.8">t the game </tspan><tspan x="0" y="43.2">f</tspan><tspan class="cls-3" x="3.94" y="43.2">r</tspan><tspan x="8.05" y="43.2">om the begin</tspan><tspan x="78.29" y="43.2">-</tspan><tspan x="0" y="57.6">nig </tspan><tspan class="cls-8" x="19.73" y="57.6">o</tspan><tspan x="26.38" y="57.6">f the </tspan><tspan class="cls-7" x="53.72" y="57.6">s</tspan><tspan x="59.42" y="57.6">to</tspan><tspan class="cls-9" x="70.16" y="57.6">r</tspan><tspan x="74.76" y="57.6">y</tspan></text><text class="cls-2" transform="translate(219.46 93.86)">Scene sele<tspan class="cls-10" x="56.9" y="0">c</tspan><tspan x="62.66" y="0">t </tspan><tspan x="0" y="14.4">will </tspan><tspan class="cls-7" x="21.55" y="14.4">s</tspan><tspan x="27.25" y="14.4">ta</tspan><tspan class="cls-5" x="37.69" y="14.4">r</tspan><tspan x="42.4" y="14.4">t </tspan><tspan class="cls-11" x="49.57" y="14.4">o</tspan><tspan x="56.22" y="14.4">ff the </tspan><tspan x="0" y="28.8">game f</tspan><tspan class="cls-3" x="36.97" y="28.8">r</tspan><tspan x="41.09" y="28.8">om </tspan><tspan x="0" y="43.2">whe</tspan><tspan class="cls-3" x="23.24" y="43.2">r</tspan><tspan x="27.36" y="43.2">e </tspan><tspan class="cls-12" x="36.78" y="43.2">y</tspan><tspan x="42.88" y="43.2">ou l</tspan><tspan class="cls-8" x="62.15" y="43.2">e</tspan><tspan class="cls-13" x="68.46" y="43.2">f</tspan><tspan x="72.12" y="43.2">t </tspan><tspan class="cls-8" x="0" y="57.6">o</tspan><tspan x="6.65" y="57.6">ff</tspan></text><text class="cls-2" transform="translate(0.78 137.84)">My memories <tspan x="0" y="14.4">will sh</tspan><tspan class="cls-12" x="34.13" y="14.4">o</tspan><tspan x="40.72" y="14.4">w a </tspan><tspan x="0" y="28.8">li</tspan><tspan class="cls-7" x="5.57" y="28.8">s</tspan><tspan x="11.27" y="28.8">t </tspan><tspan class="cls-8" x="18.44" y="28.8">o</tspan><tspan x="25.09" y="28.8">f achi</tspan><tspan class="cls-12" x="53.83" y="28.8">v</tspan><tspan x="59.93" y="28.8">e</tspan><tspan x="66.25" y="28.8">-</tspan><tspan x="0" y="43.2">ment in the </tspan><tspan x="0" y="57.6">game (</tspan><tspan class="cls-7" x="36.8" y="57.6">s</tspan><tspan x="42.5" y="57.6">till </tspan><tspan x="0" y="72">under con</tspan><tspan x="53.41" y="72">-</tspan><tspan class="cls-7" x="0" y="86.4">s</tspan><tspan x="5.7" y="86.4">tru</tspan><tspan class="cls-14" x="20.75" y="86.4">c</tspan><tspan x="26.51" y="86.4">tion)</tspan></text><text class="cls-2" transform="translate(212.69 282.16)"><tspan class="cls-3">F</tspan><tspan x="6.56" y="0">eedback will open </tspan><tspan x="0" y="14.4">a wind</tspan><tspan class="cls-12" x="36.14" y="14.4">o</tspan><tspan x="42.73" y="14.4">w which </tspan><tspan class="cls-12" x="0" y="28.8">y</tspan><tspan x="6.1" y="28.8">ou can write </tspan><tspan x="0" y="43.2">comments</tspan></text><text class="cls-2" transform="translate(172.45 448.69)">Social Media lin<tspan class="cls-15" x="82.86" y="0">k</tspan><tspan x="88.75" y="0">s con</tspan><tspan x="116.83" y="0">-</tspan><tspan x="0" y="14.4">ne</tspan><tspan class="cls-10" x="13.14" y="14.4">c</tspan><tspan x="18.9" y="14.4">ts to the gam</tspan><tspan class="cls-16" x="89.6" y="14.4">e’</tspan><tspan x="97.98" y="14.4">s </tspan><tspan class="cls-8" x="0" y="28.8">o</tspan><tspan x="6.65" y="28.8">ffical </tspan><tspan class="cls-17" x="35.28" y="28.8">w</tspan><tspan x="45.31" y="28.8">ebsite</tspan></text><text class="cls-2" transform="translate(213.78 18.02)">Help will display <tspan x="0" y="14.4">this page</tspan></text></g></g></svg>