<svg xmlns="http://www.w3.org/2000/svg" viewBox="0 0 328.99 497"><defs><style>.cls-1{stroke:#fff;stroke-miterlimit:10;opacity:0.52;}.cls-2{font-size:12px;fill:#fff;font-family:Nunito-Regular, Nunito;}.cls-3{letter-spacing:-0.01em;}.cls-4{letter-spacing:-0.01em;}.cls-5{letter-spacing:0.01em;}.cls-6{letter-spacing:0em;}.cls-7{letter-spacing:0em;}.cls-8{letter-spacing:0em;}.cls-9{letter-spacing:-0.01em;}.cls-10{letter-spacing:-0.01em;}.cls-11{letter-spacing:-0.01em;}</style></defs><title>info_scene</title><g id="Layer_2" data-name="Layer 2"><g id="Layer_1-2" data-name="Layer 1"><rect class="cls-1" x="0.5" y="0.5" width="320.95" height="496"/><text class="cls-2" transform="translate(226.33 10.67)">Help will display <tspan x="0" y="14.4">this page</tspan></text><text class="cls-2" transform="translate(169.62 443.66)">unloc<tspan class="cls-3" x="28.74" y="0">k</tspan><tspan x="34.63" y="0">ed scenes will be </tspan><tspan x="0" y="14.4">colo</tspan><tspan class="cls-4" x="21.85" y="14.4">r</tspan><tspan x="25.97" y="14.4">ed dar</tspan><tspan class="cls-5" x="59.95" y="14.4">k</tspan><tspan x="66.08" y="14.4">, and is </tspan><tspan x="0" y="28.8">unclic</tspan><tspan class="cls-6" x="30.61" y="28.8">k</tspan><tspan x="36.56" y="28.8">able</tspan></text><text class="cls-2" transform="translate(4.23 55.59)">Click on the <tspan x="0" y="14.4">unloc</tspan><tspan class="cls-3" x="28.74" y="14.4">k</tspan><tspan x="34.63" y="14.4">ed bu</tspan><tspan class="cls-7" x="64.75" y="14.4">t</tspan><tspan x="68.87" y="14.4">ton </tspan><tspan x="0" y="28.8">to display </tspan><tspan x="0" y="43.2">unloc</tspan><tspan class="cls-3" x="28.74" y="43.2">k</tspan><tspan x="34.63" y="43.2">ed cha</tspan><tspan class="cls-8" x="69.96" y="43.2">p</tspan><tspan x="76.93" y="43.2">ter </tspan><tspan x="0" y="57.6">(but it will n</tspan><tspan class="cls-8" x="62.99" y="57.6">o</tspan><tspan x="69.64" y="57.6">t </tspan><tspan x="0" y="72">unaccessabl</tspan><tspan class="cls-9" x="65.37" y="72">e</tspan><tspan x="71.61" y="72">)</tspan></text><text class="cls-2" transform="translate(138.92 125.69)">The small b<tspan class="cls-4" x="61.4" y="0">o</tspan><tspan x="67.94" y="0">x under the </tspan><tspan x="0" y="14.4">cha</tspan><tspan class="cls-8" x="18.92" y="14.4">p</tspan><tspan x="25.9" y="14.4">te</tspan><tspan class="cls-10" x="36.3" y="14.4">r</tspan><tspan x="40.48" y="14.4">s will ta</tspan><tspan class="cls-3" x="81.32" y="14.4">k</tspan><tspan x="87.21" y="14.4">e </tspan><tspan class="cls-11" x="96.63" y="14.4">y</tspan><tspan x="102.73" y="14.4">ou to </tspan><tspan x="0" y="28.8" xml:space="preserve">the specific  scene </tspan><tspan class="cls-8" x="100.63" y="28.8">o</tspan><tspan x="107.28" y="28.8">f the </tspan><tspan x="0" y="43.2">cha</tspan><tspan class="cls-8" x="18.92" y="43.2">p</tspan><tspan x="25.9" y="43.2">ter</tspan></text><text class="cls-2" transform="translate(106.67 14.77)"><tspan class="cls-4">Pr</tspan><tspan x="11.74" y="0">essing on the </tspan><tspan x="0" y="14.4">logo will go back </tspan><tspan x="0" y="28.8">to the title</tspan></text></g></g></svg>