<svg xmlns="http://www.w3.org/2000/svg" xmlns:xlink="http://www.w3.org/1999/xlink" viewBox="0 0 119.26 344.55"><defs><style>.cls-1,.cls-10{fill:#932929;}.cls-1,.cls-11,.cls-16,.cls-2,.cls-4,.cls-6,.cls-8,.cls-9{stroke:#000;}.cls-1,.cls-10,.cls-11,.cls-16,.cls-2,.cls-4,.cls-6,.cls-8,.cls-9{stroke-miterlimit:10;}.cls-1,.cls-10,.cls-2,.cls-4,.cls-6,.cls-8,.cls-9{stroke-width:0.5px;}.cls-2{fill:#ffd0a9;}.cls-3{fill:#cca689;}.cls-4{fill:none;}.cls-5{fill:#fff;}.cls-6{fill:url(#linear-gradient);}.cls-7{fill:#020202;}.cls-8{fill:#ff4800;}.cls-20,.cls-9{fill:#450000;}.cls-10{stroke:#450000;}.cls-11{fill:#195858;}.cls-12{fill:#688927;}.cls-13,.cls-18,.cls-19{fill:#144443;}.cls-13{opacity:0.51;}.cls-14{fill:#8cad4a;}.cls-15{fill:#2beff9;}.cls-16{stroke-width:0.25px;fill:url(#linear-gradient-2);}.cls-17{fill:#7c2525;opacity:0.54;}.cls-18{opacity:0.5;}.cls-20{opacity:0.43;}</style><linearGradient id="linear-gradient" x1="59.31" y1="53.52" x2="59.31" y2="41.96" gradientUnits="userSpaceOnUse"><stop offset="0" stop-color="aqua"/><stop offset="0.18" stop-color="#00c6e3"/><stop offset="0.59" stop-color="#0046a3"/><stop offset="0.77" stop-color="#00128a"/></linearGradient><linearGradient id="linear-gradient-2" x1="41.55" y1="61.01" x2="41.55" y2="52.26" xlink:href="#linear-gradient"/></defs><title>logoGirl</title><g id="Layer_2" data-name="Layer 2"><g id="Layer_1-2" data-name="Layer 1"><path class="cls-1" d="M52.38,72.85s-2.85,8-3.5,8.79S47,84.1,46.69,84.54c.63-1,1.06-5.31,1.17-6.41-.38,2-5.61,9.25-5.61,9.25,1.43-3.11.85-18.23.76-20.37C43.56,68.65,52.38,72.85,52.38,72.85Z"/><path class="cls-2" d="M68.42,42c-.16-.92-.33-1.81-.52-2.65-.09-.41-.19-.82-.29-1.21s-.15-.6-.23-.89a1.54,1.54,0,0,1,0-.17c0-.1,0-.19-.08-.29a1.09,1.09,0,0,0,0-.17s0,0,0-.05c-.22-.8-.45-1.54-.68-2.22-.52-1.59-1-2.83-1.37-3.66-.08-.2-.16-.37-.23-.52l-.18-.39-.1-.22a9.45,9.45,0,0,1,1.45,2,4.63,4.63,0,0,1,.24.43c.15.29.29.59.42.89a16.4,16.4,0,0,1,.68,1.89c.09.28.16.56.24.84s.11.48.16.72.11.51.15.75.06.3.08.45A26.31,26.31,0,0,1,68.42,42Z"/><path class="cls-2" d="M68.91,53.83c0,.48-.1.95-.16,1.43-1.3,9.52-4.57,8.85-5.72,15.44a38,38,0,0,1-5.15,2.81s-3.55,1-5.46,1.36c-3.54-1.88-6.94-3.36-7.92-4.49-.17-.19-5.5-9-5.5-9A10.86,10.86,0,0,0,36.94,59c-.25-.52-.72-1.55-1.3-2.87h0C35,54.68,34.24,52.87,33.51,51a0,0,0,0,1,0,0l-.25-.63a.14.14,0,0,1,0-.06q-.37-1-.72-2c-.08-.22-.15-.44-.22-.65-.18-.51-.34-1-.49-1.5-.1-.33-.2-.65-.29-1a25.37,25.37,0,0,1-.76-3.52s.24.56.64,1.42l.15.33.21.43c.1.21.2.43.32.66.27.55.57,1.14.88,1.74.19.35.38.71.58,1.06a18.28,18.28,0,0,0,2.16,3.19,2.63,2.63,0,0,0,1.06.79s-.49-1.06-1.13-2.78c-.42-1.11-.89-2.5-1.34-4.07-.13-.44-.26-.9-.38-1.37-.17-.66-.34-1.34-.48-2l-.15-.7c0-.2-.07-.39-.11-.59-.11-.57-.2-1.16-.28-1.74s-.12-.92-.16-1.38l-.06-.66c0-.38-.05-.76-.06-1.15s0-.65,0-1a21.26,21.26,0,0,1,.3-3.68s0,.13,0,.36c0,0,0,.11,0,.18s0,.16,0,.25a2.69,2.69,0,0,0,.06.36v0c.06.32.14.7.25,1.14,0,.17.09.36.15.55.11.38.24.8.41,1.24a19.58,19.58,0,0,0,1.79,3.64c2.22,3.55,6.23,7.52,13.49,10l0-.07a.17.17,0,0,0,0,0L49,47.61l-.15-.3-.16-.3-.23-.46-.18-.37a.25.25,0,0,1,0-.07c-.12-.24-.25-.49-.38-.76l-.77-1.56c-.1-.19-.19-.37-.28-.56s-.26-.51-.38-.77c-.83-1.69-1.67-3.45-2.23-4.74L44,37.35l-.24-.59a2.75,2.75,0,0,1-.11-.29,2.68,2.68,0,0,1-.17-.59s8.25,9.13,11.88,9.5L55,44.56c-.41-.9-1.11-2.45-1.82-4.13h0l-.11-.26c-.25-.59-.5-1.2-.73-1.8-.09-.22-.18-.44-.26-.66a.68.68,0,0,1,0-.1l-.37-1c-.05-.16-.11-.31-.16-.46a5.69,5.69,0,0,0,.39.66c.06.1.13.19.2.29a7.52,7.52,0,0,0,1,1.08,3.48,3.48,0,0,0,.29.25,3.94,3.94,0,0,0,.32.25c.22.16.45.32.7.47s.35.21.54.3a6.28,6.28,0,0,0,.58.29c.31.14.63.27,1,.4l.61.2.66.2c.46.12,1,.23,1.48.33L54.52,33.4l0,.06a.75.75,0,0,1,.09.09l.07.08.13.13.66.67.42.42c.46.45,1,1,1.62,1.52l.26.24,1.18,1,.1.08.73.59.15.12.7.51.06,0,.47.33.67.43c.15.1.31.19.46.27l.1.06.31.16,0,0c.26.13.51.24.75.34l.38.13h0a3.79,3.79,0,0,0,.69.16s-7.5-8.62-7.37-9.5c0,0,.58.84,1.49,2l.65.85c2.56,3.29,6.78,8.16,9,7.68a49.14,49.14,0,0,1,.66,6.35A41.28,41.28,0,0,1,68.91,53.83Z"/><path class="cls-2" d="M77.47,44a.28.28,0,0,0,0,.09,13.76,13.76,0,0,1-1.18,4.22h0a22,22,0,0,1-2.16,3.82l-.32,1.6L72.35,60.9c.14-1,1.09-7.89-1.1-12-1.1-2.07.13-7.24.13-7.24,1.74-4.76,4.74-2.38,4.74-2.38A6.34,6.34,0,0,1,77.47,44Z"/><path class="cls-3" d="M69.25,65.76A46.79,46.79,0,0,1,63,70.7c-2.17,1.49-4.27,2.75-5.15,2.81-1.26.08-3.55,1-5.46,1.36a3.39,3.39,0,0,1-2.66-.23c-1.42-1.19-4.81-3.9-5.22-4.23l0,0c.45.11,8.94,2.35,9.91,1.5.44.5,8.09-2.23,8.36-3.93C63,66.67,67,58.14,67,58.14S68.2,53,68.62,50c.06,1,.17,2.34.29,3.8C69.32,58.71,69.85,65,69.25,65.76Z"/><path class="cls-3" d="M35.62,48.48c-1.52-4.07-3.88-11.86-2.74-18.34a17.51,17.51,0,0,0,2.75,7.75C35.48,41.65,35.52,45.38,35.62,48.48Z"/><path class="cls-3" d="M36,56.33a1.19,1.19,0,0,1-.4-.21c-1.06-.78-1.75-3.25-2.14-5.18l-.25-.63a42.33,42.33,0,0,1-2.5-8.67s2.8,6.5,4.94,8.83C35.84,54,36,56.33,36,56.33Z"/><path class="cls-3" d="M74.83,45.27c-1.52,1.8-2.84,7.4-1.25,10.38a.78.78,0,0,1,.07.16h0c.89,1.93.26,5.7-.64,8.43h0c-1.08,3.34-2.56,5.16-2.22.35,0,0,0-.09,0-.14.06-.68.15-1.5.28-2.45a44.17,44.17,0,0,0-.32-13.3h0a2.56,2.56,0,0,1-1.67-.41,20.3,20.3,0,0,1-4.41-3.71A29.54,29.54,0,0,1,57,41.39l4.61,6.26a11.92,11.92,0,0,1-6.48-3c.51.83.91,1.43.91,1.43-3.63-.38-7.38-4.26-7.38-4.26.13,1.25,1.39,6.31,1.39,6.31l-.94-.33a.17.17,0,0,0,0,0L49,47.61l-.76-1.5c-.12-.24-.25-.49-.38-.76l-1-2.12c-.13-.25-.26-.51-.38-.77-.83-1.69-1.67-3.45-2.23-4.74L44,37.35l-.24-.59a2.75,2.75,0,0,1-.11-.29,2.68,2.68,0,0,1-.17-.59s8.25,9.13,11.88,9.5L55,44.56a6.42,6.42,0,0,1-1.79-3.69h0a3.61,3.61,0,0,1,0-.44.54.54,0,0,0-.11-.26c-.29-.68-.57-1.38-.84-2.06-.13-.34-.26-.68-.38-1s-.24-.63-.34-.93a6.88,6.88,0,0,0,1.58,2,8.1,8.1,0,0,0,1.31,1,14.3,14.3,0,0,0,4.85,1.72L54.52,33.4l.21.23.13.13c.5.52,1.49,1.52,2.7,2.61l.26.24,1.18,1,.1.08.73.59c.3.23.6.46.91.68s.51.36.77.53.56.35.83.5a4.09,4.09,0,0,0,.41.22l0,0c.26.13.51.24.75.34l.38.13a4.05,4.05,0,0,0,.71.17s-7.5-8.62-7.37-9.5c0,0,7.79,11.3,11.17,10.58-.29-1.72-.65-3.32-1-4.75-.13-.44-.16-.55-.19-.68a43.8,43.8,0,0,0-2.56-7c2.11,2.18,3,5.54,3.47,8.21a18.64,18.64,0,0,1,2.43,7.49l0-.63c0-.15,0-.3,0-.45l.06-.54c0-.36.12-.72.19-1.07s.16-.69.25-1c0-.16.09-.32.15-.48s.09-.26.13-.39a1.8,1.8,0,0,1,.08-.21,3.06,3.06,0,0,1,.13-.32l.15-.35a5.88,5.88,0,0,1,.76-1.25,5.74,5.74,0,0,1,2.26,0l.24.06a3.06,3.06,0,0,1,.48.17l.24.11L76,39a2.6,2.6,0,0,1,.43.33,1.8,1.8,0,0,1,.2.19,3.51,3.51,0,0,1,.52.76A11.06,11.06,0,0,1,74.83,45.27Z"/><path class="cls-4" d="M36.94,44.82s-.75,7-2.87,9.63"/><path class="cls-4" d="M49.76,39.37s12.75,1.38,13.88,0"/><path class="cls-5" d="M52.92,46.21s6,7.83,7.22,7.82l3.18-2.4V42.93s-3.9-2.28-7.56-.26S52.92,46.21,52.92,46.21Z"/><path d="M52.59,45.77l-.42-.27a9.18,9.18,0,0,1,11.3-3.23l-.18.46A8.55,8.55,0,0,0,52.59,45.77Z"/><path class="cls-6" d="M55.75,43.68a13.75,13.75,0,0,0,4.73,9.84L62.85,52s.52-8.39-3-9.64S56.57,42.94,55.75,43.68Z"/><ellipse class="cls-7" cx="59.81" cy="47.55" rx="0.72" ry="2.33" transform="matrix(0.93, -0.37, 0.37, 0.93, -13.3, 25.34)"/><line class="cls-4" x1="48.88" y1="62.01" x2="48.88" y2="63.39"/><path class="cls-8" d="M55,70.51s-6.12-1.25-1.5-4.62c3.13-2.29,5.45.81,4.57,2.38"/><path class="cls-2" d="M16.88,180,9.7,184.15h0c-.24.14-3.46,2.08-4.07,1.48s3.63-6.88,2.67-6.5-4.67,2.12-4.41,1.12,3.43-6,3.61-6.24c-.33.11-7.24,2.45-7.24,1s6.59-4.9,7.2-5.23c-.39.12-3.18,1-3-.64s3-1.88,3-1.88l1.14.21,2.24.41Z"/><path class="cls-2" d="M52,298.88C50.88,300.14,48,319,48,319l-2.14,3.88c-2.5-1.38-8.13-3-16.25,3.68,0-.49.37-1,1.14-1.69,5.63-4.62,8.87-24.5,9.25-25.74s.88-44.26.88-44.26l.54-.6c5,3.27,10.68,5.59,16.46,5l3.45-.36a5.93,5.93,0,0,1,.55,1C62.2,260.9,53.12,297.64,52,298.88Z"/><path class="cls-9" d="M119,277.59l-1.33,30.34L112,310.26s-7.67,0-5.37-4.67c.9-1.83,1.72-6.55,2.37-11.61,1-7.8,1.67-16.39,1.67-16.39a3.15,3.15,0,0,1,1.52-1.5C114.83,275,119,277.59,119,277.59Z"/><path class="cls-2" d="M112.19,276.09a3.15,3.15,0,0,0-1.52,1.5S110,286.18,109,294a7.25,7.25,0,0,1-1.75-3.1c-1.25-4.5-10.37-13.12-10.37-13.12C92.27,276,80.2,263.67,74.17,257.3c7.47-1.13,14.8-2.74,20.66-5.45,3.1,5,7.19,11.67,7.42,12.91C102.52,266.21,108.77,272.66,112.19,276.09Z"/><path class="cls-9" d="M47.31,325v9.87A2.12,2.12,0,0,1,45.1,337a22.61,22.61,0,0,1-4.6-.7c-3.3-.86-9,4.46-10.52,6a2.08,2.08,0,0,1-.93.54c-2,.55-8.95,2.31-12.17,1.18-2.33-.82-1.8-4.27-1-6.82a2.06,2.06,0,0,1,1.81-1.49c1.16-.07,3.87-1.59,10-7.36.66-.62,1.31-1.18,1.94-1.69,8.12-6.64,13.75-5.06,16.25-3.68.19.11.37.21.52.31A2.11,2.11,0,0,1,47.31,325Z"/><path class="cls-10" d="M112,236.64c-2.37-1-8.12,8.62-8.12,8.62a24.58,24.58,0,0,1-9,6.59c-5.86,2.71-13.19,4.32-20.66,5.45-4.32.66-8.68,1.15-12.84,1.6l-3.45.36c-5.78.61-11.49-1.71-16.46-5-9.22-6.06-15.92-15.4-15.92-15.4,1.55-3.19,12.78-39.68,16.68-52.4,1.83,1.57,13.16,10.89,23.57,10.78C77.12,197.14,96,184.83,96,184.83,99.62,200.29,112,236.64,112,236.64Z"/><path class="cls-10" d="M86,178.24l-5.67,6.12s-.5-2.24-1.32-6l3.83-.09,1.81,0Z"/><path class="cls-10" d="M96,184.8v0s-18.86,12.31-30.23,12.43c-10.41.11-21.74-9.21-23.57-10.78.71-2.35,1.19-3.9,1.29-4.25l0-.06v0l0-.11.17-.45c.1-.23.22-.48.35-.72a0,0,0,0,1,0,0c4.77,4.38,15.6,12.89,26.18,11.3a32.66,32.66,0,0,0,9.25-3l.06,0a99.42,99.42,0,0,0,11-7l.15-.11c1.67-1.33,3.18-2.64,4.44-3.83a1.14,1.14,0,0,0-.13.57h0A26.87,26.87,0,0,0,96,184.8Z"/><path class="cls-11" d="M90.54,182.07a61.72,61.72,0,0,1-11,7A99.42,99.42,0,0,0,90.54,182.07Z"/><path class="cls-11" d="M95,143.49c-.57-5-.81-9-.33-10l1.54,13.34.59,5.16s.36-.4,1-1.09c2.84-3.33,11.14-13.51,11.55-19.41L102,116.64l-.55-1.72v-.09L92.62,87.42S84.87,85.94,75.78,85c-1.52-.16-3.08-.31-4.65-.43l-2-.14-1-.06-2-.08-1.23,0-1.81,0c-.92,0-1.81,0-2.69,0h0a40.93,40.93,0,0,0-6.38.64h0c-2.56.5-4.57,1.31-5.69,2.53,0,0-1.29.81-3,2-.65.44-1.37.94-2.1,1.47C45.33,92.79,49,94.7,53,96.8q-1-.15-2.1-.24s16.43,9.6,15.11,13.65c-1.08,3.33,9.31,51.18,13.07,68.2.82,3.71,1.32,6,1.32,6L86,178.24l9.31-10c.33-.34.68-.71,1-1.12.61-.66,1.19-1.31,1.72-2-.61-3.7-1.35-8.27-2-12.77C95.67,149.28,95.26,146.22,95,143.49Zm-47-41.79.21.44A3.23,3.23,0,0,0,47.93,101.7Zm2.79,14.69c0,1.85.09,3.82.13,5.81-.47-7.82-1.57-16.16-3.7-21.74-.52-.77-1.19-1.71-1.91-2.68l0,0,0-.06a8.31,8.31,0,0,0-.78-1.06l0,0a19.81,19.81,0,0,0-3.62-3.08l-.25.58S50.83,134.68,47.83,141c0,0-5.91,8.83-8.58,8.92,0,0,2,2.75,2.67,2.41L13,188.76s5.33,5.5,11.75.83l21.33-40.08,1-1.59h0A10.29,10.29,0,0,0,49.6,145l.06-1.73h0l.25-6.81a20.51,20.51,0,0,0,.72-4.15v-.06c.12-.95.23-2,.34-3,0-.41.09-.82.13-1.22.23-2.36.42-4.41.48-4.91A62.26,62.26,0,0,0,50.72,116.39Z"/><path class="cls-11" d="M39.25,149.93s2,2.75,2.67,2.41L13,188.76s5.33,5.5,11.75.83l21.33-40.08,1-1.59.08,0c.5,1.26-21.62,41.76-21.62,41.76-1.25,1.87-6.5,2.5-6.5,2.5-5.13-.23-7.88-3.66-9.31-8-1.92-5.84-1.42-13.3-1-16.69.13-1.15.24-1.83.24-1.83,1.24.12,24.5-26,25.18-27.13.33-.54,1.11-.12,1.83.46a4.16,4.16,0,0,1-.81-3.71C39.91,124.14,37.42,116,37.42,116l2.3,1.72c-.31-.33-2.81-3-4.22-4.59S37,96.88,37,96.88c.21-1.1,2-2.82,4.17-4.51,0,0,1.56,2,3.2,4.22a19.81,19.81,0,0,0-3.62-3.08l-.25.58S50.83,134.68,47.83,141C47.83,141,41.92,149.84,39.25,149.93Z"/><path class="cls-11" d="M99.5,173.14c0,.44-1.6,2.38-4.25,4.87a.31.31,0,0,0-.12.11h0c-1.26,1.19-2.77,2.5-4.44,3.83l-.15.11a99.42,99.42,0,0,1-11,7l-.06,0a32.66,32.66,0,0,1-9.25,3c-10.58,1.59-21.41-6.92-26.18-11.3.09-.18.18-.34.28-.5,2.68,2.21,7.08,5.75,8,5.92,0,0,.23-2.94.57-7.2.85-11.11,2.38-31.26,2.13-31.8-.33-.75-1.08-42.08-3.75-44.83S45,92.91,41.18,92.37c.65-.52,1.32-1,2-1.5C45.33,92.79,49,94.7,53,96.8q-1-.15-2.1-.24s16.43,9.6,15.11,13.65c-1.08,3.33,9.31,51.18,13.07,68.2.82,3.71,1.32,6,1.32,6L86,178.24l9.31-10c.33-.34.68-.71,1-1.12.61-.66,1.19-1.31,1.72-2C98.91,169.83,99.5,173.14,99.5,173.14Z"/><path class="cls-12" d="M44.89,72.23a6.94,6.94,0,0,0,.08,2c.49,3.21,1.9,13.53.08,15.49C42.9,92,56,79.46,64,86s12.57-2.17,12.57-2.17c6.86-9.73,7.12-16.78-2.49-20,0,0-21.76,12.58-29,6.91Z"/><path class="cls-13" d="M96.4,167.08c-.36.41-.71.78-1,1.12l-9.31,10-5.67,6.12s-.5-2.24-1.32-6c-3.76-17-14.15-64.87-13.07-68.2,1.32-4.05-15.11-13.65-15.11-13.65q1.08.09,2.1.24a30.34,30.34,0,0,1,15.24,6.33l.1.08a27.51,27.51,0,0,1,5.51,6.08h0a23.81,23.81,0,0,1,1.28,2.11h0a24,24,0,0,1,2.38,5.83l3,7.86h0l0,0v0l3.85,10.16,2.43,6.4s0,0,0,0Z"/><path class="cls-14" d="M101.62,159.79a18.87,18.87,0,0,1-3.5,5.34c-.53.64-1.11,1.29-1.72,2-.36.41-.71.78-1,1.12-3.83,4-8.38,8.08-10.66,10.07-.9.78-1.45,1.24-1.45,1.24l-.36-1.19c-2.12-7.1-13-44.36-12.62-64.31.13-7.75-9.16-12.89-17.29-17.21-4-2.1-7.65-4-9.82-5.93a3.23,3.23,0,0,1-.88-1.52v0c-.84-2.77,0-7.83.93-12v0A57.69,57.69,0,0,1,45,70.84v0l0-.09c.1-.22.13-.23.07,0h0a.52.52,0,0,1,0,.11h0a2.15,2.15,0,0,1-.06.29A8.38,8.38,0,0,0,45.44,76h0a4.35,4.35,0,0,0,4.89,3h.49a29.74,29.74,0,0,1,12.07,3.47c.65.31,1.29.65,1.94,1,.41.23.83.47,1.24.72a51.93,51.93,0,0,1,4.74,3.15l.86.65c7.87,6.06,14.07,14,14.33,20.18.3,7,3.29,18.12,6.59,28.25h0s0,0,0,0c.78,2.4,1.58,4.74,2.36,7,.41,1.16.81,2.28,1.21,3.36.53,1.44,1,2.81,1.54,4.07C99.6,155.87,101.13,159.28,101.62,159.79Z"/><path class="cls-14" d="M101.62,159.79c.05-.19.1-.36.13-.53C101.85,159.82,101.8,160,101.62,159.79Z"/><path class="cls-1" d="M76.28,48.31a21.44,21.44,0,0,0,1.18-4.22A13.76,13.76,0,0,1,76.28,48.31Z"/><ellipse class="cls-5" cx="60.64" cy="44.28" rx="2.68" ry="1.93"/><path class="cls-15" d="M66,51a2.53,2.53,0,0,1-2.68,2.12c-1.48,0-2.68,0-2.68-1.06s1.2-1.93,2.68-1.93S66,49.95,66,51Z"/><path class="cls-5" d="M44.67,61.27H42.25l-5-4.27c.14-1,.79-4.52,3.28-5.12l.16.1a3.9,3.9,0,0,1,.49.47l.18.17.09.09,0,.06.1.1,0,.06a.46.46,0,0,1,.07.07C43.89,55.78,44.67,61.27,44.67,61.27Z"/><path d="M40.56,51.88c-2.49.6-3.14,4.09-3.28,5.12,0,.17,0,.27,0,.28l-.5,0c0-.21.43-5.06,3.69-5.85Z"/><path class="cls-16" d="M44.38,61H42.44a7.93,7.93,0,0,1-3.69-7.13s.15-2.24,1.1-1.46a15.06,15.06,0,0,1,1.72,2.2C42.69,56.27,44.3,59,44.38,61Z"/><path class="cls-7" d="M42.16,58.66c-.27.15-1-.56-1.55-1.58S39.8,55.26,40,55a.17.17,0,0,1,.06-.06c.1-.06.25,0,.44.17a5.16,5.16,0,0,1,1.11,1.42C42.15,57.56,42.42,58.51,42.16,58.66Z"/><path class="cls-5" d="M41.73,54.4a1.78,1.78,0,0,1-.16.22,1.42,1.42,0,0,1-1.12.49A2.61,2.61,0,0,1,40,55l-.16-.08a1.43,1.43,0,0,1-.52-2,1.34,1.34,0,0,1,.58-.55,1.4,1.4,0,0,1,1.36,0,.91.91,0,0,1,.16.11l.36.42,0,0A1.43,1.43,0,0,1,41.73,54.4Z"/><path class="cls-1" d="M51.5,36.13s0,0,0,0c.1.3.22.61.34.93.06.17.12.34.19.51a.42.42,0,0,0,0,.1l.15.4c.13.34.27.69.41,1h0c.08.17.15.35.22.52l.21.5h0a2.91,2.91,0,0,0,.14.69h0a6.26,6.26,0,0,0,1,2.76,6.12,6.12,0,0,0,.75.93l.38.82a5.73,5.73,0,0,1-2.08-.79l0,0c-4-2.33-9.75-8.68-9.75-8.68a.61.61,0,0,0,0,.16l0,.16a4,4,0,0,0,.14.41.77.77,0,0,0,.06.15c.06.17.14.37.24.59l.16.37c.43,1,1,2.26,1.66,3.56l.07.16c.16.34.33.68.5,1l.24.5,0,0,.11.22.11.23.94,1.89c.06.13.13.26.19.38s.13.26.19.38a.25.25,0,0,0,0,.07c.06.13.12.26.18.37l.27.53a.41.41,0,0,0,0,.09v0l0,0a.54.54,0,0,1,0,.11.41.41,0,0,1,.05.09l.1.19.08.15s0,0,0,.05a49.09,49.09,0,0,1-5.3-2.3l-.13-.07-.1-.06c-.3-.17-.58-.34-.86-.52l-.41-.27a22.39,22.39,0,0,1-1.91-1.39l-.43-.36a4.59,4.59,0,0,1-.41-.36,20.08,20.08,0,0,1-1.79-1.78h0a20,20,0,0,1-1.59-2s0,0,0,0c-.18-.25-.35-.51-.5-.76a19.58,19.58,0,0,1-1.79-3.64c-.16-.44-.3-.85-.41-1.24,0-.19-.11-.37-.15-.55-.11-.43-.19-.81-.25-1.14v0a2.7,2.7,0,0,1-.06-.36c0-.09,0-.18,0-.25s0-.13,0-.18l0-.36a21.25,21.25,0,0,0-.3,3.68c0,.32,0,.65,0,1s0,.77.06,1.15l.06.66v0h0c0,.45.09.89.15,1.33s.17,1.17.28,1.74c0,.2.07.39.11.59l.15.7c.14.69.31,1.37.48,2,.12.47.25.93.38,1.37.45,1.57.92,3,1.34,4.07.16.43.31.82.45,1.16.31.78.54,1.31.63,1.52a.31.31,0,0,1,0,.09,1.63,1.63,0,0,1-.25-.1h0L36.24,51a2.76,2.76,0,0,1-.27-.23l-.16-.16-.12-.12a18.29,18.29,0,0,1-2.16-3.19L33,46.22c-.31-.6-.61-1.19-.88-1.74l-.32-.66-.21-.43-.15-.33c-.4-.86-.64-1.42-.64-1.42a25.37,25.37,0,0,0,.76,3.52c.09.31.19.63.29,1,.15.49.31,1,.49,1.5.07.21.14.43.22.65.23.66.47,1.33.72,2,0,0,0,0,0,.05h0c.08.21.16.42.25.63,0,0,0,0,0,0,.36.93.72,1.84,1.08,2.69h0l.14.33.24.57c.16.38.31.74.46,1.08l.21.47c.36.83.69,1.55.94,2.09.09.22.18.4.26.56s.07.15.1.22c.11.25.18.39.18.39L39.75,65c-3-1.89-5.36-5.31-7-8.31-.42-.78-.79-1.53-1.12-2.22.05.23.1.46.14.7a52.16,52.16,0,0,1,.73,6c-5.88-3.26-9.25-15.76-9.25-15.76-1,1.95,1.14,12.33,1.24,12.86-10-16.49-3-25.73-3-25.73-3,2.25-8.5,17.75-8.5,17.75,1.24-11.7,3.74-19.56,6.45-24.84C24.37,15.8,30,14.76,30,14.76a40.48,40.48,0,0,1,2.7-3.27q.13-.16.3-.33a36.77,36.77,0,0,1,4.86-4.41C50.66-2.93,66.54-1,79.38,7.38a22.13,22.13,0,0,1,2.35,1.76,28,28,0,0,1,8.86,15.12,46.31,46.31,0,0,1,.91,16.25,55.71,55.71,0,0,0-1.72,8.9,92.22,92.22,0,0,0,0,20,52.79,52.79,0,0,1,11.61,18.56A83.19,83.19,0,0,1,106.62,115c-.3-5.77-3.92-12.79-5.39-15.42l-.61-1.06c.14,1.27.27,2.5.37,3.69a116.84,116.84,0,0,1,.46,12.73c-.32,15.52-4.19,22.28-5,23.59,1-1.92.53-11,.38-13.5-.17,2-2.22,7-4.2,11.49-1.83,4.11-3.6,7.75-3.82,8.2.24-.88,1.45-7.7,1.85-10a49.22,49.22,0,0,1-3.82,7c-1.36,2.19-2.55,4-2.55,4,.55-1.33.47-5.42.11-10.41-.8-10.94-3-26.21-3-26.21l-.87,16h0v.1s0-.09,0-.13h0c-.52-6.58-4.42-24-4.94-26.25.4,2.23,0,7.77-.43,12.54,0,0,0,0,0,0-.26,2.84-.56,5.4-.73,6.85,0-1.78-.21-5.19-.55-9C73.13,101.56,72,92.26,72,92.26c-.19,3.9-2.56,8.83-3.68,11-.21.4-.37.69-.47.87a7.29,7.29,0,0,0,.37-1c.86-2.65,1.72-8.28,2.49-14.83,0-.28.07-.57.11-.86.11-.94.22-1.91.32-2.88.38-3.52.74-7.18,1-10.7v0c.31-3.35.58-6.57.81-9.42,0-.06,0-.11,0-.16h0c.07-.9.14-1.75.21-2.57,0-.41.06-.8.09-1.19.14-1.91.26-3.51.34-4.67h0c.1-1.32.15-2.07.15-2.07a51.33,51.33,0,0,0,2.48-5.42h0a13.76,13.76,0,0,0,1.18-4.22.28.28,0,0,1,0-.09,6.21,6.21,0,0,0-.37-3.73,3.37,3.37,0,0,0-.19-.32.57.57,0,0,0-.11-.16,3.84,3.84,0,0,0-3.33-1.38,4.68,4.68,0,0,0-.86.08l-.11,0a5.56,5.56,0,0,0-.51.76c0,.1-.11.2-.16.31s-.16.34-.24.53a3.05,3.05,0,0,0-.13.32q-.1.29-.21.6c-.1.31-.2.64-.28,1a15.43,15.43,0,0,0-.31,1.59l-.06.54c0,.14,0,.28,0,.42v0a1,1,0,0,0,0,.17,2.44,2.44,0,0,0,0,.27,1.21,1.21,0,0,0,0,.19v.41c0,.24,0,.48,0,.71,0,0,0,0,0,.08a4.26,4.26,0,0,0,.06.5l.09.48c0,.1,0,.21.07.31s.07.24.11.36a4.19,4.19,0,0,0,.34.81,11.1,11.1,0,0,1,1,2.65c0,.24.1.47.14.72a22.44,22.44,0,0,1,.32,3.13c0,.62,0,1.21,0,1.76,0,.13,0,.27,0,.4,0,.39,0,.76-.06,1.1s0,.44,0,.64-.05.46-.07.66,0,.19,0,.27,0,.17,0,.24,0,.14,0,.19a0,0,0,0,1,0,0s0,.1,0,.14,0,.06,0,.09h0v0l0,.09a5.24,5.24,0,0,0-.44.7,3.17,3.17,0,0,0-.21.41,9.16,9.16,0,0,0-.38.89,0,0,0,0,0,0,0c-.06.16-.12.32-.17.49s-.19.57-.27.88l-.06.23q-.15.52-.27,1.08a77.21,77.21,0,0,0-1.36,13.44c0,.89,0,1.73-.06,2.5,0,1.08,0,2,0,2.76,0,1.08,0,1.72,0,1.72a3,3,0,0,1-1-1.78c0-.14-.09-.29-.13-.44s0,0,0,0a47.47,47.47,0,0,1-1.05-7.76L65.5,79.38c-.53.32-.68,2.16-.67,4.18,0,.23,0,.45,0,.68,0,.83,0,1.66.08,2.41.09,1.62.2,2.86.2,2.86-.68.34-1.79-3.52-2-4.16a.66.66,0,0,0,0-.09q0-.54-.09-1c-.05-.57-.1-1.12-.14-1.66A62.12,62.12,0,0,1,62.75,73c.07-.85.16-1.6.28-2.27a15.78,15.78,0,0,1,.4-1.75q.21-.72.45-1.32a14.34,14.34,0,0,1,1-2A27.71,27.71,0,0,0,67.37,61a25,25,0,0,0,1.38-5.78c.06-.47.12-.93.16-1.39,0,0,0,0,0-.05,0-.44.08-.87.1-1.3.06-.92.09-1.83.09-2.72,0-.51,0-1,0-1.49s0-.83-.06-1.24c0-.11,0-.23,0-.34,0-.34,0-.67-.08-1,0-.65-.13-1.29-.21-1.92l-.09-.68c-.06-.4-.12-.79-.19-1.17,0,0,0-.37,0-1,0-.1,0-.2,0-.3,0-.61-.09-1.41-.21-2.31h0l-.09-.62c0-.22-.07-.45-.12-.68s-.09-.47-.14-.71-.17-.76-.28-1.14c0-.22-.12-.44-.19-.66s-.16-.51-.25-.76a11.9,11.9,0,0,0-.45-1.12c-.1-.24-.22-.48-.34-.72l-.19-.35a8.13,8.13,0,0,0-.67-1,1.86,1.86,0,0,0-.21-.28,7.45,7.45,0,0,0-.63-.74l.1.22.18.39.23.52c.35.83.85,2.07,1.37,3.66.23.67.46,1.42.68,2.22,0,.18.11.37.16.56l0,.12c.08.29.15.58.23.89s.2.8.29,1.21c0,0,0,.06,0,.08h0c.18.82.35,1.67.5,2.56a2.18,2.18,0,0,1-1.35-.21c-2.34-1-5.57-4.75-7.68-7.47l-.65-.85c-.91-1.21-1.49-2-1.49-2-.1.66,4.1,5.68,6.2,8.14l1.17,1.36a3.79,3.79,0,0,1-.69-.16h0l-.15,0-.21-.07h0l-.28-.12c-.19-.08-.39-.18-.59-.28l-.2-.11-.36-.21-.22-.13c-.12-.07-.24-.14-.35-.22l-.18-.12a1.1,1.1,0,0,1-.14-.09l-.35-.25-.18-.13c-.23-.16-.47-.33-.7-.51-.57-.45-1.14-.91-1.67-1.38l-.49-.42c-.44-.39-.86-.78-1.24-1.14l-.25-.25-.06,0L56,35l-.1-.1-.37-.37-.93-1-.07-.07,0-.06L58.67,40l.58.91c-.52-.1-1-.21-1.48-.33l-.66-.2-.61-.2-.73-.29h0l-.23-.1a6.27,6.27,0,0,1-.58-.29,9.08,9.08,0,0,1-1.24-.77,3.92,3.92,0,0,1-.32-.25,7.2,7.2,0,0,1-1.28-1.33c-.07-.1-.14-.19-.2-.29a5.69,5.69,0,0,1-.39-.66"/><path class="cls-17" d="M96.4,138.54l-.15.22A1,1,0,0,0,96.4,138.54Z"/><path class="cls-17" d="M106.62,115c0-.9-.14-28.85-16.87-45.61,0,0-2-15.74,1.75-28.87,0,0,1.83-16.5-1.83-14.17-4.21,2.68-11.81,3.8-20.15,3.94-.46-3.46-9.51-7.8-11.31-8.63,3.18,1.54,3.92,7.46,4,8.52a123.49,123.49,0,0,1-24.16-3.33S16.5,17.26,13,50.26c0,0,5.5-15.5,8.5-17.75,0,0-7,9.24,3,25.73-.1-.53-2.21-10.91-1.24-12.86,0,0,3.37,12.5,9.25,15.76a50.25,50.25,0,0,0-.89-6.69C33.19,57.79,36,62.62,39.75,65l-2.63-5.63S31.5,47.64,30.75,41.64c0,0,3.87,9,6,9.62,0,0-5.5-11.88-3.87-21.12,0,0,.5,12.37,16.24,17.74l0-.07a.17.17,0,0,0,0,0L49,47.61l-.76-1.5c-.12-.24-.25-.49-.38-.76l-1-2.12c-.13-.25-.26-.51-.38-.77-.83-1.69-1.67-3.45-2.23-4.74L44,37.35l-.24-.59a2.75,2.75,0,0,1-.11-.29,2.68,2.68,0,0,1-.17-.59s8.25,9.13,11.88,9.5L55,44.56c-.41-.9-1.11-2.45-1.82-4.14,0-.08-.07-.17-.11-.26-.29-.68-.57-1.38-.84-2.06-.14-.35-.27-.68-.38-1s-.24-.63-.34-.93a6.88,6.88,0,0,0,1.58,2,8.74,8.74,0,0,0,1.31,1,14.3,14.3,0,0,0,4.85,1.72L54.52,33.4l.21.23.13.13c.5.52,1.49,1.52,2.7,2.61.24.22.5.45.75.66a0,0,0,0,1,0,0l.68.57.1.08.73.59c.3.23.6.46.91.68s.51.36.77.53.56.35.83.5l.41.22,0,0c.26.13.51.24.75.34l.38.13a4.05,4.05,0,0,0,.71.17s-7.5-8.62-7.37-9.5c0,0,7.79,11.3,11.17,10.58h0a45.72,45.72,0,0,1,.65,6.35,41.23,41.23,0,0,1-.33,7c-1.87,13.75-7.87,6.25-5.63,30,0,0,1.26,4.62,2,4.25,0,0-.87-9.37.38-10.13l1.38-3.24s.47,9.12,2.23,10c0,0-.37-14,1.68-21.53A11.06,11.06,0,0,1,72.33,61s1.28-7.69-1.08-12.13a7.74,7.74,0,0,1-.72-3.66l0-.63c0-.15,0-.3,0-.45a4.93,4.93,0,0,1,.06-.54c0-.36.11-.72.19-1.07s.15-.69.25-1c0-.16.09-.32.15-.48s.08-.26.13-.39a1.8,1.8,0,0,1,.08-.21,3.06,3.06,0,0,1,.13-.32l.15-.35a5.88,5.88,0,0,1,.76-1.25,5.74,5.74,0,0,1,2.26,0,1,1,0,0,1,.24.06,3.06,3.06,0,0,1,.48.17,1.28,1.28,0,0,1,.24.11L76,39a2.15,2.15,0,0,1,.43.33,1.19,1.19,0,0,1,.2.19,2.62,2.62,0,0,1,.52.76c1,1.94.7,5.82-3.3,13.47,0,0,0,.75-.15,2.07h0c-.13,1.86-.35,4.83-.64,8.43h0C71.94,77.66,69.91,99.6,67.9,104c.74-1.31,3.88-7.2,4.1-11.72,0,0,2.5,20.57,2.4,26,.47-4,1.81-16.23,1.11-19.55.29,1.24,4.51,19.92,5,26.58l.88-16.15s4.62,32.37,2.87,36.62c0,0,5.48-8.32,6.38-11.06-.4,2.27-1.67,9.43-1.88,10.06,0,0,7.78-15.9,8-19.8.14,2.41.61,11.7-.39,13.58,1-1.6,7.32-12.49,4.22-40C100.62,98.51,106.24,107.74,106.62,115Z"/><path class="cls-18" d="M50.63,132.22v.06a20.51,20.51,0,0,1-.72,4.15l-.25,6.81h0c-.46,1-1.73,3.16-2.62,4.66h0l-1,1.59L24.75,189.59c-6.42,4.67-11.75-.83-11.75-.83l28.92-36.42c-.67.34-2.67-2.41-2.67-2.41,2.67-.09,8.58-8.92,8.58-8.92,3-6.33-7.33-46.92-7.33-46.92l.25-.58a19.81,19.81,0,0,1,3.62,3.08l0,0a8.31,8.31,0,0,1,.78,1.06l0,.06,0,0c1.17,1.82,2.25,4.53,3.09,9A124.81,124.81,0,0,1,50.63,132.22Z"/><path class="cls-19" d="M45.17,97.68c-.25-.35-.52-.71-.78-1.06A8.31,8.31,0,0,1,45.17,97.68Z"/><path class="cls-19" d="M47.93,101.7c-.18-.32-.45-.74-.78-1.24-.12-.31-.24-.62-.37-.91C47.17,100.21,47.56,100.92,47.93,101.7Z"/><path class="cls-19" d="M53,179.06c-.34,4.26-.57,7.2-.57,7.2-1-.17-5.35-3.71-8-5.92-.1.16-.19.32-.28.5l-.06,0c-1.56-1.44-2.46-2.42-2.46-2.42,2.3-2.62,6.07-29.24,6.07-29.24l1.92-2.59L49.6,145l.06-1.73h0l.25-6.81a20.51,20.51,0,0,0,.72-4.15v-.06c.12-.95.23-2,.34-3,0-.41.09-.82.13-1.22.23-2.36.42-4.41.48-4.91a62.26,62.26,0,0,0-.86-6.7c-.88-5.62-2.17-12.9-2.55-14.15v0l0-.08a3.23,3.23,0,0,0-.21-.44c-.37-.78-.76-1.49-1.15-2.15.13.29.25.6.37.91-.52-.77-1.19-1.71-1.91-2.68l0,0,0-.06a8.31,8.31,0,0,0-.78-1.06l0,0c-1.64-2.22-3.2-4.22-3.2-4.22h0c3.84.54,7.49,7.31,10.15,10.06s3.42,44.08,3.75,44.83C55.33,147.8,53.8,168,53,179.06Z"/><path class="cls-20" d="M96,184.8v0s-18.86,12.31-30.23,12.43c-10.41.11-21.74-9.21-23.57-10.78l-.26-.22,1.55-4,0-.06v0l0-.11.17-.45.3-.78,0,.06,3.19,3.4s11.26,8.59,20.64,8.72c3.23,0,7.46-1.64,11.61-3.87l.06,0a99.42,99.42,0,0,0,11-7l.15-.11c2.49-1.79,4.14-3.12,4.3-3.25h0Z"/></g></g></svg>