<svg xmlns="http://www.w3.org/2000/svg" viewBox="0 0 477.31 483.02"><defs><style>.cls-1{fill:#b94f4f;}.cls-2{fill:#932929;}</style></defs><title>logo</title><g id="Layer_2" data-name="Layer 2"><g id="Layer_1-2" data-name="Layer 1"><path class="cls-1" d="M304.26,13.31c.25-.52-3.27-2.3-9.69-4.21L294.06,9q5.93,1.35,11.75,3C306.16,12.75,307.84,13.92,304.26,13.31Z"/><path class="cls-1" d="M372.42,44.69c-9.67-6.31-16.16-10.18-20.62-13a81.94,81.94,0,0,1-8-5.31,233.91,233.91,0,0,1,27.79,15.84l-.85-.48c-1.21-.68-2.17-1.2-2.92-1.59-1.48-.77-2.08-1-2-.79C366,39.79,368.74,41.89,372.42,44.69Z"/><path class="cls-1" d="M477.31,239A235.71,235.71,0,0,1,377,432.11h0c-.3.18-.58.33-.82.46-1.29.68-1.62.66-.6-.36.5-.51,1.35-1.26,2.57-2.3l2.14-1.78,1.3-1.06c.44-.39.9-.81,1.4-1.24,1.47-1.59,1-1.66,1.46-2.48a11.23,11.23,0,0,1,1.83-2.08c1.09-1.09,2.84-2.57,5.38-5-.81.55-1.69,1.19-2.63,1.9s-2,1.39-3.08,2.16c-2.15,1.54-4.39,3.31-6.66,5-4.59,3.24-8.89,6.6-11.48,8.44-4.84,2.25-17.65,9.88-30.24,15.45a180.18,180.18,0,0,1-17.13,6.71c-4.77,1.38-8,2.11-8.54,1.65-2.3,1-4.6,1.65-6.81,2.37s-4.37,1.41-6.48,2l-6.22,1.53-3,.7c-1,.24-2,.46-3,.61-3.91.64-7.64,1.31-11.29,1.73s-7.23.68-10.76.92l-10.62.27c-3.57,0-7.17-.18-10.89-.24-1.86,0-3.74-.21-5.67-.32l-5.9-.36c-2-.07-4.06-.37-6.17-.56l-6.51-.61c-2.83-.32-5.35-.72-7.62-1s-4.29-.51-6-.87c-3.52-.62-6.11-1-8-1.32s-3.08-.48-3.81-.52-1,0-1,.17c0,.59,3.86,2.33-2.74,1.47-5.61-1.35-11.09-3.13-16.51-4.62-5.31-1.82-10.6-3.31-15.44-5.2l-3.62-1.31c-1.19-.43-2.38-.81-3.5-1.3l-6.53-2.66c-1-.42-2.08-.81-3.06-1.24L138,445.9l-5.17-2.37c-.7-.36-1.39-.7-2-1.07l-1.88-1.1-3.32-2c-2-1.26-3.6-2.27-4.56-3s-1.36-1.21-1.06-1.18a4.12,4.12,0,0,1,1,.4c.51.27,1.21.65,2.15,1.12A235.38,235.38,0,0,1,32.59,330.86c-.57-1.35-1.23-2.67-1.73-4.05l-1.57-4.11c-1.05-2.75-2.16-5.47-3-8.28s-1.87-5.56-2.71-8.37l-2.34-8.48A244.83,244.83,0,0,1,15.07,263a254.68,254.68,0,0,1-.83-35,254.33,254.33,0,0,1,4.42-34.64c4.66-18.35,10.41-35.67,18.15-52.07A177.42,177.42,0,0,1,64.24,99.62l-1,1.13c-.75.53,2-3.31,4.32-6.26-4.23,4.44-8.38,8.73-12,13.13,3.19-4.52,6.79-8.76,10.25-13.09C69.44,90.4,73,86.14,76.83,82.25c3.38-5.18,14.75-16.28,27.75-26s27.46-18,34.13-22.19c3.41-1.79,6.68-3.09,9.61-4.4,1.47-.63,2.86-1.27,4.21-1.82l3.91-1.47c2.49-.92,4.72-1.8,6.79-2.5l5.68-1.78c1.72-.52,3.27-1,4.71-1.43l4-1c2.51-.61,4.68-1.14,6.87-1.64l7-1.29,4.11-.79,4.9-.71,5.9-.9,7.21-.77,4.16-.45c1.46-.11,3-.18,4.59-.28l5-.31c.88,0,1.77-.13,2.69-.14l2.83,0a228.68,228.68,0,0,1,53.17,3.15c1.17.16,2.32.44,3.48.69l3.48.75,3.5.76,1.75.38,1.74.47c4.63,1.28,9.33,2.44,13.91,4.07a207.6,207.6,0,0,1,27.17,11c3.15,1.64,6.22,3.28,9,4.82s5.13,3.22,7.1,4.52a40.07,40.07,0,0,1,4.3,3.13c.85.72,1.09,1,.54.81l5.65,3.56c1.94,1.29,3.89,2.71,5.92,4.12l3.06,2.16c1,.73,2,1.55,3,2.33l6.11,4.78c3.9,3.44,8,6.71,11.52,10.27,1.8,1.75,3.63,3.38,5.28,5.11l4.73,5c.83.84,1.66,1.61,2.4,2.42L411.91,89l3.85,4.18c1.22,1.26,2.21,2.53,3.17,3.64l2.62,3.05,2.13,2.43c.63.72,1.13,1.38,1.59,1.93.92,1.1,1.56,1.82,2,2.2.81.76.64.18-.25-1.41-.45-.79-1.08-1.84-1.86-3.09s-1.84-2.63-3-4.21-2.38-3.31-3.77-5.15L413.78,87c-.82-1-1.62-2-2.49-3l-2.68-3c-.91-1-1.83-2-2.74-3s-1.83-2-2.82-3l-5.76-5.68c-.93-1-1.93-1.81-2.89-2.67l-2.83-2.52c-3.64-3.36-7.23-6.06-10-8.32a30,30,0,0,1,3.25,2L387,59.42c.81.56,1.67,1.18,2.51,1.89,3.41,2.81,7.53,6.08,11.06,9.51,1.79,1.68,3.57,3.26,5.12,4.77s2.88,2.89,4,4c2.26,2.17,3.56,3.24,3.15,2.31a25.65,25.65,0,0,0-4.37-6.8l-1.74-1.68L405,71.8l-3.63-3.2c-1.22-1-2.38-2.16-3.65-3.15l-3.78-3c-4.44-4.08-7.81-6.62-9.94-8.46s-3.22-2.76-3.53-3.09.2-.13,1.15.4,2.28,1.48,3.75,2.46c2.92,2,6.29,4.19,7.28,4.73.46.23.5,0-.2-.74A235.49,235.49,0,0,1,477.31,239Z"/><path class="cls-2" d="M465.12,195.26c-1.58-8.89-2.82-14.85-3.75-19-.43-2.08-.73-3.73-.94-5.07s-.42-2.34-.52-3.2c-.21-1.71-.18-2.74-.3-4.17-.06-.71-.16-1.53-.34-2.57-.09-.52-.2-1.11-.34-1.76s-.37-1.37-.61-2.18c.3.72.62,1.43.9,2.15l.8,2.19,1.61,4.37c.53,1.46,1.1,2.91,1.59,4.39l1.39,4.45a210,210,0,0,1,6.44,39c.15,1.44.17,2.83.2,4.14l.08,3.69c0,2.29.06,4.21,0,5.66-.21,2.9-.49,3.89-.85,2.1,0-1.18-.86-6-1.69-12.37-.17-1.6-.54-3.28-.82-5l-.88-5.44c-.16-.93-.26-1.88-.45-2.81l-.55-2.83C465.76,199,465.42,197.14,465.12,195.26Z"/><path class="cls-2" d="M474.83,236.46c-.12-3.48.06-4.06-.06-7.54L476.53,239Z"/><path class="cls-2" d="M446.57,132.62l-2-3.83-2.19-3.73-2.19-3.73-1.09-1.87c-.37-.62-.78-1.21-1.17-1.82-1-1.73-.13-.57,1,1a31.16,31.16,0,0,0,2.27,3.22c-1.47-2.91-3.2-5.67-4.86-8.47l-2.51-4.2-2.71-4.07,2.64,3.85,2.18,3.46,3.56,5.57c2,3.23,3.28,5.49,4.28,7.17C445.78,128.49,446.19,129.73,446.57,132.62Z"/><path class="cls-2" d="M266.53,1.14c-3.35-.56-4.39-.78-3.95-1A7.61,7.61,0,0,1,264.24,0a28.1,28.1,0,0,1,3.2.06l8.42.57,2.05.14,1.86.2c1.16.12,2.14.22,2.84.26,2.8.54,5.52,1.06,7.86,1.65s4.28,1.25,5.6,1.72c2.65.95,2.78,1.39-1.72.7-1.82-.42-3.5-.83-5.07-1.16l-4.42-.76c-2.74-.45-5.09-.83-7.2-1.14C273.39,1.84,270.1,1.56,266.53,1.14Z"/><path class="cls-2" d="M427.23,106.46c-.4-.38-1-1.1-2-2.2-.46-.55-1-1.21-1.59-1.93l-2.13-2.43-2.62-3.05c-1-1.11-1.95-2.38-3.17-3.64L411.91,89l-2.14-2.34c-.74-.81-1.57-1.58-2.4-2.42l-4.73-5c-1.65-1.73-3.48-3.36-5.28-5.11-3.55-3.56-7.62-6.83-11.52-10.27l-6.11-4.78c-1-.78-2-1.6-3-2.33l-3.06-2.16c-2-1.41-4-2.83-5.92-4.12L362.07,47c.55.22.31-.09-.54-.81a40.07,40.07,0,0,0-4.3-3.13c-2-1.3-4.4-2.84-7.1-4.52s-5.85-3.18-9-4.82a207.6,207.6,0,0,0-27.17-11c-4.58-1.63-9.28-2.79-13.91-4.07l-1.74-.47-1.75-.38-3.5-.76-3.48-.75c-1.16-.25-2.31-.53-3.48-.69a228.68,228.68,0,0,0-53.17-3.15l-2.83,0c-.92,0-1.81.1-2.69.14l-5,.31c-1.6.1-3.13.17-4.59.28l-4.16.45-7.21.77-5.9.9-4.9.71-4.11.79-7,1.29c-2.19.5-4.36,1-6.87,1.64l-4,1c-1.44.41-3,.91-4.71,1.43l-5.68,1.78c-2.07.7-4.3,1.58-6.79,2.5l-3.91,1.47c-1.35.55-2.74,1.19-4.21,1.82-2.93,1.31-6.2,2.61-9.61,4.4C132,38.28,117.55,46.5,104.58,56.26s-24.37,20.81-27.75,26C73,86.14,69.44,90.4,65.75,94.53c-3.46,4.33-7.06,8.57-10.25,13.09,3.64-4.4,7.79-8.69,12-13.13-2.29,3-5.07,6.79-4.32,6.26l1-1.13a177.42,177.42,0,0,0-27.43,41.62c-7.74,16.4-13.49,33.72-18.15,52.07A254.33,254.33,0,0,0,14.24,228a254.68,254.68,0,0,0,.83,35,244.83,244.83,0,0,0,6.15,34.58l2.34,8.48c.84,2.81,1.81,5.58,2.71,8.37s2,5.53,3,8.28l1.57,4.11c.5,1.38,1.16,2.7,1.73,4.05A235.38,235.38,0,0,0,123,436.63c-.94-.47-1.64-.85-2.15-1.12a4.12,4.12,0,0,0-1-.4c-.3,0,.1.4,1.06,1.18s2.56,1.78,4.56,3l3.32,2,1.88,1.1c.65.37,1.34.71,2,1.07L138,445.9l2.83,1.3c1,.43,2,.82,3.06,1.24l6.53,2.66c1.12.49,2.31.87,3.5,1.3l3.62,1.31c4.84,1.89,10.13,3.38,15.44,5.2,5.42,1.49,10.9,3.27,16.51,4.62,6.6.86,2.69-.88,2.74-1.47,0-.15.27-.22,1-.17s1.9.28,3.81.52,4.49.7,8,1.32c1.75.36,3.77.55,6,.87s4.79.68,7.62,1l6.51.61c2.11.19,4.16.49,6.17.56l5.9.36c1.93.11,3.81.32,5.67.32,3.72.06,7.32.21,10.89.24l10.62-.27c3.53-.24,7.09-.58,10.76-.92s7.38-1.09,11.29-1.73c1-.15,2-.37,3-.61l3-.7,6.22-1.53c2.11-.62,4.26-1.32,6.48-2s4.51-1.41,6.81-2.37c.52.46,3.77-.27,8.54-1.65a180.18,180.18,0,0,0,17.13-6.71c12.59-5.57,25.4-13.2,30.24-15.45,2.59-1.84,6.89-5.2,11.48-8.44,2.27-1.67,4.51-3.44,6.66-5,1.07-.77,2.11-1.49,3.08-2.16s1.82-1.35,2.63-1.9c-2.54,2.47-4.29,4-5.38,5a11.23,11.23,0,0,0-1.83,2.08c-.49.82,0,.89-1.46,2.48-.5.43-1,.85-1.4,1.24l-1.3,1.06-2.14,1.78c-1.22,1-2.07,1.79-2.57,2.3-1,1-.69,1,.6.36.24-.13.52-.28.82-.46h0c1.33-.76,3.23-1.94,5.49-3.39,2.72-1.9,5.94-4.28,9.34-6.76,3.26-2.64,6.71-5.36,9.82-8l8.12-7.1c4.31-4,6.43-5.63,3.58-1.83-2.71,3.1-5.69,5.93-8.6,8.84l-2.19,2.18c-.74.72-1.52,1.39-2.28,2.08l-4.59,4.15,5.82-4.65c.86-.66,1.63-1.3,2.32-1.91l2-1.67c2.4-2,4-3.3,5-4s1.42-.9,1.48-.68-.24.79-.72,1.51c-1.89,2.9-6.39,8.43.66,3.47l-3.29,3-2,1.82c-.68.65-1.42,1.3-2.2,1.93l-4.79,4c-1.63,1.35-3.23,2.73-4.87,3.9-3.24,2.41-6.15,4.58-8.2,5.91s-3.22,1.82-2.78,1.17l2.53-1.82c.85-.62,1.68-1.3,2.55-2l5.29-4.08c1.82-1.35,3.5-2.89,5.22-4.38s3.4-3,5-4.54c-.33-.37-3.88,2.29-8.86,6.37l-8.61,6.6c-.77.62-1.57,1.2-2.4,1.77s-1.63,1.17-2.46,1.76l-4.94,3.56c-4.53,3.13-7.1,4.92-9.38,6.66s-4.47,3.11-8.21,5.49c1.74-.66,2.86-.93,4.8-1.64,1-.36,2.15-.81,3.71-1.51s3.41-1.73,5.87-3.07c-1.16,1-2.6,2.06-4.27,3.26-.83.62-1.74,1.21-2.72,1.81l-3.07,1.89-3.34,2c-1.15.68-2.33,1.39-3.59,2l-7.83,4a233.06,233.06,0,0,1-32.8,12.5l-2.16.56c-.72.18-1.45.31-2.18.47l-4.37.91c.79-.61,3.44-1.45,7.17-2.73,1.86-.67,4-1.41,6.33-2.21l3.65-1.25,3.81-1.48a169.11,169.11,0,0,0,30.48-14.87c-1.79,1-3.71,1.81-5.66,2.74s-3.94,1.89-6,2.9-4.2,1.88-6.35,2.88l-3.27,1.48c-1.1.5-2.2,1-3.36,1.48l-7,2.85c-1.18.47-2.35,1-3.57,1.43l-3.67,1.33c-2.47.87-5,1.82-7.49,2.67l-7.75,2.4c-1.31.38-2.6.85-3.93,1.17l-4,1c-2.68.65-5.36,1.42-8.09,2-5.47,1.06-11,2.25-16.54,2.88l-4.16.55-2.08.27c-.69.07-1.39.11-2.08.17l-8.32.57-2.06.13c-.69,0-1.38,0-2.07,0H243.8c-1.35,0-2.7,0-4-.13l-9.27-.18c-1.73,0-3.52-.18-5.38-.3l-5.7-.42a213.82,213.82,0,0,1-23.66-3.36c-15.16-3-27.18-7.39-26.87-8.26a298.61,298.61,0,0,1-31.77-13.21,283,283,0,0,1-31.27-18.23A269,269,0,0,1,77.16,416.2l-6.6-6.2-6.26-6.42c-2.12-2.09-4-4.37-6-6.55s-3.92-4.35-5.69-6.63c-3.68-5.46,7.13,6.47-4.11-7.9-2-3-3.81-5.31-5.46-7.39l-1.21-1.53-1.09-1.52c-.72-1-1.41-2-2.09-3.11,1.46,3.39-1.48,0-2.74-.9-2.1-3-3.93-6.21-5.83-9.36-.93-1.59-1.93-3.14-2.79-4.76l-2.61-4.87c-.87-2.05.57.51-.3-1.53-2.19-2.82-4.37-7.19-6.88-12.42-.66-1.29-1.19-2.7-1.77-4.14L14,326.51c-.57-1.54-1.24-3.08-1.76-4.72s-1.06-3.3-1.61-5S9.53,313.39,9,311.66s-.94-3.54-1.42-5.32L6.15,301c-.5-1.79-.8-3.64-1.21-5.45C3.27,288.25,2.09,281,1,274.26c-.8-8.44,0-5.38.57-3.88.26.76.46,1.12.34-.51S1.19,264.61.69,257.3L0,251.46c.65-1.49.88-6.1.91-12.55.16-3.22.3-6.91.42-10.9,0-1,.08-2,.17-3s.16-2.08.24-3.14c.15-2.12.31-4.3.47-6.51s.52-4.45.78-6.7.52-4.53.86-6.79.8-4.49,1.19-6.71.74-4.42,1.29-6.53,1-4.21,1.5-6.22l.74-3c.25-1,.57-1.9.85-2.82,1.17-3.67,2.2-7,3.33-9.8-.13,0-.08-.54.07-1.33.1.1.25.07.36.12A231.33,231.33,0,0,1,32.74,122a242.06,242.06,0,0,1,24-34.24A219.45,219.45,0,0,1,120,33.26l4.38-2.46c1.47-.8,2.89-1.67,4.39-2.38L137.67,24l9-4c1.47-.68,3-1.26,4.48-1.84l4.49-1.74c1.49-.57,3-1.2,4.47-1.71l4.5-1.51c3-1,5.94-2.09,8.95-2.89s5.94-1.78,8.91-2.58l8.87-2.21A230,230,0,0,1,230.84.94l9.83-.06c3.23.09,6.42.29,9.54.43s6.16.47,9.12.78l4.37.47c.71.08,1.43.14,2.13.25l2.08.33,7.93,1.32c1.26.19,2.49.47,3.68.74L283,6c2.24.53,4.35,1,6.29,1.5L294.06,9l.51.15c6.42,1.91,9.94,3.69,9.69,4.21,3.58.61,1.9-.56,1.55-1.36a.52.52,0,0,1,0-.34c.12-.37,1-.5,4,0,.75.14,1.64.28,2.66.55s2.18.6,3.52,1l4.53,1.37,2.68.84,2.92,1.09c3,1.17,5.29,2.15,7.16,3a45.86,45.86,0,0,1,4.35,2.41c2.26,1.43,3.54,2.54,5.41,3.92l.77.59a81.94,81.94,0,0,0,8,5.31c4.46,2.8,11,6.67,20.62,13-3.68-2.8-6.47-4.9-6.6-5.31-.06-.2.54,0,2,.79.75.39,1.71.91,2.92,1.59l.85.48c1,.58,2.21,1.26,3.5,2.12s2.65,1.67,4.42,2.87l3,2.07c1.11.81,2.33,1.78,3.73,2.86a69.08,69.08,0,0,1,6.14,5.57,0,0,0,0,1,0,0c.7.77.66,1,.2.74-1-.54-4.36-2.77-7.28-4.73-1.47-1-2.83-1.89-3.75-2.46s-1.45-.74-1.15-.4S381.81,52.16,384,54s5.5,4.38,9.94,8.46l3.78,3c1.27,1,2.43,2.11,3.65,3.15L405,71.8l1.82,1.6,1.74,1.68a25.65,25.65,0,0,1,4.37,6.8c.41.93-.89-.14-3.15-2.31-1.13-1.09-2.5-2.45-4-4s-3.33-3.09-5.12-4.77c-3.53-3.43-7.65-6.7-11.06-9.51-.84-.71-1.7-1.33-2.51-1.89l-2.24-1.56a30,30,0,0,0-3.25-2c2.79,2.26,6.38,5,10,8.32l2.83,2.52c1,.86,2,1.71,2.89,2.67l5.76,5.68c1,.94,1.9,2,2.82,3s1.83,2,2.74,3l2.68,3c.87,1,1.67,2,2.49,3l4.6,5.64c1.39,1.84,2.63,3.59,3.77,5.15s2.14,3,3,4.21,1.41,2.3,1.86,3.09C427.87,106.64,428,107.22,427.23,106.46Z"/><path class="cls-2" d="M64.24,99.62c1-1.15,2.06-2.28,3.12-3.4Z"/><path class="cls-2" d="M120.51,452.06c-.78-.13-.3.42,1,1.38.63.48,1.46,1.06,2.41,1.71s2.1,1.27,3.28,2c2.38,1.39,5,2.92,7.48,4.28s4.74,2.41,6.23,3.21L145,466.3l4.24,1.49q3.94,1.48,7,2.54c2,.65,3.79,1.13,5.24,1.53a26.89,26.89,0,0,0,5.27,1.12c1.29,0-1.74-1.57-8.3-4.15a42.48,42.48,0,0,1-6.63-2c-1.49-.52-3.14-1.12-4.89-1.76s-3.55-1.5-5.43-2.3l-5.7-2.54c-1.91-.89-3.75-1.9-5.57-2.82L125,454.7C123.36,453.79,121.87,452.86,120.51,452.06Z"/><path class="cls-2" d="M8.21,316.6l2,2.46-2.28-6.47c-.73-2.17-1.33-4.38-2-6.56S4.59,301.65,4,299.44l-1.63-6.67c-.25.43.32,3.92,1.39,8.55l2,7.51c.38,1.31.7,2.66,1.14,4Z"/><path class="cls-2" d="M453.4,345.19c-1.48,2.78-2.77,5.39-4.15,7.75l-4,6.63c-1.23,2.11-2.58,4-3.87,5.91l-3.81,5.58c-5.38,7.17-10.71,14.6-19.43,24.59l4.82-2.47a238.79,238.79,0,0,0,24.67-32,201.78,201.78,0,0,0,19.74-39.82c1.2-5.19,1-5.55-.06-3.38l-5.1,11.78c-1,2.5-2.32,5-3.43,7.26s-2.17,4.43-3.11,6C453.76,346.24,452.68,347.65,453.4,345.19Z"/><path class="cls-2" d="M420.73,388.43c6.84-9,13.6-18.7,19.8-28.87a261.29,261.29,0,0,0,16.2-31.87l3.27-8.2c1-2.75,1.89-5.52,2.81-8.24s1.69-5.48,2.45-8.2l1.11-4.07c.18-.68.38-1.34.53-2l.43-2,1.66-8c.5-2.63.8-5.26,1.17-7.82a143.05,143.05,0,0,0,1.23-14.87,23.24,23.24,0,0,0-2.15,6.09c-.36,1.38-.62,2.94-1,4.62s-.81,3.51-1.22,5.47c-1.52,7.83-3.83,17.51-6.65,27.66-1.6,5-3.08,10.23-5,15.25-1.74,5.1-3.94,10-6,14.71-1,2.35-2.22,4.57-3.3,6.77s-2.13,4.31-3.31,6.25a112.16,112.16,0,0,1-6.51,10.38l-3.48,5.8c-1.14,1.84-2.33,3.54-3.45,5.25s-2.22,3.38-3.36,5l-3.58,4.86a211.79,211.79,0,0,1-18.71,22c-6,6.42-3.73,4.77,1.2.46,1.26-1,2.55-2.39,4-3.77l4.34-4.32C416,393.73,418.69,390.65,420.73,388.43Z"/><path class="cls-2" d="M474.59,252.5c.13-1.23.14-2.51.15-3.79V245l-.07-5.94c-.2-1.79-.36-.33-.62,2l-.7,7.82c0,.61,0,1.35,0,2.14s-.06,1.63-.08,2.47c0,1.67,0,3.28.06,4.31C473.48,259.87,473.86,259.56,474.59,252.5Z"/><path d="M243.39,178c.06,0,.09-.12.14-.18l-2.68-7.52Z"/><path d="M237,165.38l-.81-1.9.83,2.41A2.15,2.15,0,0,1,237,165.38Z"/><path d="M163.3,312a24.17,24.17,0,0,0-1.86,1.72c-.82.9-1.87,2-2.8,3.13-.47.57-1,1.16-1.38,1.7l-1,1.41a7.25,7.25,0,0,0-1,1.81c-.09.28.07.17.58-.51.22-.35.7-.81,1.21-1.46.28-.33.52-.67.93-1.12l1.38-1.52c1.79-2.32,2.95-3.69,3.56-4.44S163.62,311.74,163.3,312Z"/><path d="M226.39,292.71l0,0h0Z"/><path d="M342.31,75.23a17.23,17.23,0,0,0-4.43-9.48,15.46,15.46,0,0,0-4.33-3.22,17.56,17.56,0,0,0-5-1.63,26.11,26.11,0,0,0-11.4.78c-1,.24-2,.6-3,.92s-2,.75-3,1.15-2,.86-2.94,1.31-2,1-2.45,1.21a119,119,0,0,0-13,7.91C288.74,77,284.87,80,281.12,83c.43-.29.64-.41.61-.33a232.12,232.12,0,0,0-20.52,19,237,237,0,0,0-18.32,21.45c-3.64,4.81-6.76,9.43-9.58,14-3.38-9.1-6.69-17.46-10.13-25.36a197.86,197.86,0,0,0-11.88-23.6c-1.15-1.91-2.43-3.81-3.8-5.72L206,80.63l-.76-1c-.26-.32-.61-.67-.9-1l-1.86-2-2-1.78a23.08,23.08,0,0,0-9-4.76,16.48,16.48,0,0,0-9.92.63A19.11,19.11,0,0,0,173.44,77c-.28.35-.6.67-.86,1.06l-.75,1.19c-.49.81-1,1.58-1.48,2.42l-1.25,2.65-.63,1.33c-.18.41-.3.74-.45,1.11-.54,1.4-1.17,3.1-1.47,4.13-.37,1.21-.75,2.26-1.1,3.75a55.81,55.81,0,0,0-1.39,8.14c-.45,5.27-.57,7.75-.67,10.89a75,75,0,0,0,1,14.09,172.33,172.33,0,0,0,6.83,28A150.93,150.93,0,0,0,183,182.49a104.41,104.41,0,0,0,8.32,12.61,78,78,0,0,0,10.87,11.56,57.87,57.87,0,0,0,10.7,7.32c-1,.72-2,1.43-2.93,2.19a119.19,119.19,0,0,0-17.3,16.41,94,94,0,0,0-13.43,20.33,69.38,69.38,0,0,0-7.31,38.33l-.38.17c-.07-1.15-.12-2.31-.13-3.47a72.52,72.52,0,0,1,.64-11.22,83.08,83.08,0,0,1,1.33-8.4,74.18,74.18,0,0,0-2.29,23.28,58.7,58.7,0,0,0-5.35,2.83A69.78,69.78,0,0,0,154.5,303c-1.71,1.58-3.33,3.24-4.9,4.93-.77.88-1.56,1.66-2.3,2.61s-1.53,1.84-2.21,2.83c.72-1,1.55-1.94,2.32-2.91s1.61-1.77,2.41-2.67c1.64-1.73,3.34-3.41,5.12-5a65.35,65.35,0,0,1,11.69-8.53q2.17-1.22,4.45-2.25c0,.47.08.94.12,1.41a56.37,56.37,0,0,0-7.8,4.41,79.45,79.45,0,0,0-14.51,12.95l-1.58,1.92-.78,1c-.26.33-.47.68-.71,1l-1.4,2.08L143.21,319a29.39,29.39,0,0,0-3,9.68,25.84,25.84,0,0,0,1.35,11.31,32.19,32.19,0,0,0,5.54,9.71,45.82,45.82,0,0,0,8,7.55,55.71,55.71,0,0,0,9.25,5.66,70.06,70.06,0,0,0,20.48,6.36l2.18.28a94.56,94.56,0,0,0,7.61,11.09,116.74,116.74,0,0,0,13,13.88,109.58,109.58,0,0,0,25.86,17.63,57.34,57.34,0,0,0,15.65,5,28.87,28.87,0,0,0,9.14,0,22.29,22.29,0,0,0,2.45-.58,20.92,20.92,0,0,0,2.48-1,17.27,17.27,0,0,0,4.4-3,19,19,0,0,0,5.08-8.86,30.79,30.79,0,0,0,.91-8.85c0-1.43-.17-2.78-.29-4.16s-.36-2.72-.59-4c-.43-2.55-1-5.07-1.55-7.57a159.59,159.59,0,0,0-9.64-28.25q2.91-1.25,5.73-2.65A113.2,113.2,0,0,0,300.43,323a77.69,77.69,0,0,0,6.43-8.31,48.75,48.75,0,0,0,5.14-9.79,32.46,32.46,0,0,0,1.64-5.88l.23-1.77a15,15,0,0,0,.1-1.89,21.72,21.72,0,0,0-.25-3.7,18.16,18.16,0,0,0-2.64-6.81,19,19,0,0,0-5.15-5.14l-2.4-1.44c-.35-.2-.7-.42-1.05-.61l-1.07-.5a36.38,36.38,0,0,0-4.28-1.79L295,274.6c-.71-.23-1.43-.39-2.14-.59l-2.14-.56c-.71-.15-1.42-.27-2.13-.41a82.91,82.91,0,0,0-16.77-1.3c-3.19.06-6.35.3-9.48.65-.1-1.62-.22-3.26-.4-4.93-.11,0-.21-.37-.39-4h0l.37,4c.11,0,.25-.23.5,1.81q-.25-2.79-.59-5.68a45.5,45.5,0,0,0,14.53,1.57,47.22,47.22,0,0,0,13.71-2.88,52.06,52.06,0,0,0,12-6.39,56.94,56.94,0,0,0,17.47-20,46.22,46.22,0,0,0,4.55-13.24,32.72,32.72,0,0,0-.88-15.59,26.84,26.84,0,0,0-3.92-7.69,27.44,27.44,0,0,0-6.1-6,35.34,35.34,0,0,0-14-5.7,60.57,60.57,0,0,0-11.07-1l1.4-1.7a230.63,230.63,0,0,0,16.63-24.15c5-8.23,9.53-16.58,13.83-25l3.13-6.33,1.56-3.17,1.49-3.18,3-6.36,2.86-6.4c1.94-4.25,3.71-8.56,5.56-12.85l.69-1.61c.08-.16.32-.8.51-1.28l.6-1.53a59.69,59.69,0,0,0,2-6.17c.32-1,.44-2,.67-3.07s.27-2,.41-3A25.54,25.54,0,0,0,342.31,75.23Zm-82.19,176.4-.17-1.06c1.3.34,3.49,1,6.46,1.53a35.38,35.38,0,0,0,13.46-.27,38.57,38.57,0,0,0,15.89-7.75,44,44,0,0,0,12.35-15.68,30.78,30.78,0,0,0,2.71-9.5,17.48,17.48,0,0,0-1.14-8.76,13.06,13.06,0,0,0-5.24-6,22.25,22.25,0,0,0-7.66-2.82,56.49,56.49,0,0,0-15-.52q-4,.33-8,1l.06-.05,1.7-1.55c1.1-.17,2.21-.33,3.31-.46a68.78,68.78,0,0,1,11.78-.49,43.2,43.2,0,0,1,5.71.62,26.64,26.64,0,0,1,5.31,1.43,16.23,16.23,0,0,1,8,6.07,16.46,16.46,0,0,1,2.51,9.48,28.92,28.92,0,0,1-2.14,10,43.88,43.88,0,0,1-11.21,16,41.65,41.65,0,0,1-14.65,8.82,36.38,36.38,0,0,1-13.81,1.89,44.72,44.72,0,0,1-10.09-1.88Zm-1.68,99.64-.31-.66,1.11-.46.29.65-.92.4Zm-72.37,14.68-.29-.55.32.05.29.54ZM187,274c2.47-11.9,8.77-23.34,17.44-33a107.19,107.19,0,0,1,15.25-14l.07.14c-1,.8-2.08,1.6-3.08,2.43a98,98,0,0,0-15.52,16,74.51,74.51,0,0,0-10.63,18.85,60.63,60.63,0,0,0-4,20.76,61.69,61.69,0,0,1,5.9-25,81,81,0,0,1,14.82-21.44,110.7,110.7,0,0,1,12.61-11.36,68.15,68.15,0,0,0,10.12,15,80.74,80.74,0,0,0,9.22,8.78q2.43,2,5,3.78a64.22,64.22,0,0,0,5.47,3.54c1.19.7,2.44,1.35,3.71,2q.47,4,.81,8.09c.14,1.66.25,3.33.35,5a122.15,122.15,0,0,0-14.67,3.5,122.07,122.07,0,0,1,14.68-3.33q0,.63.07,1.25a128.53,128.53,0,0,0-19.51,4.88,118,118,0,0,0-21.24,9.47c-1.31.76-2.61,1.56-3.89,2.38l-.94-.4A115.8,115.8,0,0,1,239.82,277a116.29,116.29,0,0,0-31.27,14.08,50.27,50.27,0,0,0-12-3.34,44.52,44.52,0,0,0-10-.32c0-.75,0-1.51,0-2.26,0,.75,0,1.51,0,2.26l-.82.09A60.26,60.26,0,0,1,187,274Zm44-127.85.24.67c-.33.58-.66,1.15-1,1.73-5.31,9.76-10.08,20.73-12.52,32.64-1.05,4.75-1.13,9.69-.93,9.7a70.35,70.35,0,0,0-.39,7.83l-.63-.42a76.33,76.33,0,0,1,.54-9.91,101.44,101.44,0,0,1,6.61-25.3A144.54,144.54,0,0,1,231,146.15Zm42.57,56.74-1.19.24h0ZM262,276.51c0,.12,0,.23,0,.35l-1.65.23,0-.38Zm1.31,113.13c-.29-1.39-.58-2.79-.92-4.18l.56-.11c.28,1.18.52,2.38.75,3.59.13.61.21,1.18.3,1.77s.2,1.18.25,1.76a28,28,0,0,1,.08,6.88c-.05.56-.19,1.07-.27,1.61s-.27,1-.42,1.51a11.19,11.19,0,0,1-.58,1.34l-.33.62-.4.58a7.45,7.45,0,0,1-2,1.94,8.36,8.36,0,0,1-2.66,1.16,17.6,17.6,0,0,1-6.85.22,37.71,37.71,0,0,1-7.44-1.87,73,73,0,0,1-14.49-7.28,111.34,111.34,0,0,1-25-22.08q-2.88-3.46-5.42-7.14l1,0a96.91,96.91,0,0,0,7.51,9.33,109.09,109.09,0,0,0,19,16.49c6.63,4.48,13.49,8,20,9.81-.46-.13-.94-.32-1.42-.48a74.43,74.43,0,0,1-17.68-9.11,109.84,109.84,0,0,1-15.9-13.18,100.68,100.68,0,0,1-11.13-12.86H200a100.81,100.81,0,0,0,10.92,12.88,116.9,116.9,0,0,0,22.27,16.94A69.35,69.35,0,0,0,244.5,405q1.71.58,3.39,1c-.64-.12-1.32-.33-2-.49a29.07,29.07,0,0,0,8.13,1.53,12.79,12.79,0,0,0,3.53-.35,7.49,7.49,0,0,0,2.7-1.29,7.2,7.2,0,0,0,2-2.36,14.26,14.26,0,0,0,1.17-3.65A32.82,32.82,0,0,0,263.31,389.64Zm-73.5-26a55.52,55.52,0,0,1-6.49-19.69c-.13-1-.17-2-.23-3.06s-.06-2.05,0-3.07l.09-1.53.21-1.51.42-3,.06-.23.38.6c-.14.91-.22,1.87-.36,2.84a31.14,31.14,0,0,0-.28,3.93,41.89,41.89,0,0,0,.81,8.49,60,60,0,0,0,6,16.32Zm72.34-62.46c.24-2.69.39-5.37.55-8.07l.09-4.07c0-.14,0-.28,0-.42a84.46,84.46,0,0,1,15.64-.4c1.76.06,3.42.36,5.12.54,1.62.33,3.3.57,4.81,1a18.61,18.61,0,0,1,2.27.67c.71.27,1.48.47,2.14.78s1.31.6,2,.89l.87.52.21.12.1,0,.2.1a2.89,2.89,0,0,1,1.44,2.72,3.84,3.84,0,0,0,0,.45l-.16.84a15.49,15.49,0,0,1-.56,1.89,25.86,25.86,0,0,1-1.9,4.14,52.93,52.93,0,0,1-5.84,8.34,85.35,85.35,0,0,1-7.32,7.68A107,107,0,0,1,270.52,328,80.55,80.55,0,0,1,258,335.34q-1.79.83-3.61,1.58-1.12-2-2.3-3.94c.54-1.19,1.06-2.39,1.54-3.6a98,98,0,0,0,5.56-21.09,145.22,145.22,0,0,0,1.49-19.44l1.57-.2A154.31,154.31,0,0,1,261,306.87a105.68,105.68,0,0,1-7.55,28C259,322.85,261,311.86,262.16,301.15Zm-64.67,65.37-.32-.48h.27l.31.49Zm-3.09-3a59.09,59.09,0,0,1-6-14.77,34.46,34.46,0,0,1-1-12.26c.28.37.56.74.85,1.1,0,.23,0,.46,0,.69a35.23,35.23,0,0,0,.32,6.44,48.24,48.24,0,0,0,3.73,12.6,68.6,68.6,0,0,0,3.33,6.5h-1Zm-8.5-72.13.79-.07v0l-.79.07Zm46.17-1.16c1.9-.75,3.78-1.5,5.69-2.12s3.81-1.26,5.7-1.82a114.59,114.59,0,0,1,11.38-2.75s0,.06,0,.1a121,121,0,0,0-25.54,8,105.08,105.08,0,0,0-10.11,5.14l-.26-.18,2-1.09,1.36-.75,1.39-.69,2.75-1.36c-2,.93-4,1.92-5.9,3-.54.29-1.07.6-1.61.9-.36-.23-.74-.45-1.1-.68q4.09-2.39,8.41-4.4a119.31,119.31,0,0,1,28.63-9.09c0,.27,0,.54,0,.81-.64.1-1.29.2-1.93.32a138.31,138.31,0,0,0-26.46,9.16C228.32,291.87,230.16,291,232.06,290.25Zm25.88,13.32c-.29,3-.89,5.87-1.34,8.67-.64,2.76-1.14,5.48-1.95,8.07s-1.6,5.12-2.45,7.61c-.44,1.05-.86,2.1-1.3,3.15l-.33-.54a97.15,97.15,0,0,0,5.56-18.8,141.94,141.94,0,0,0,2.21-22.55l.8-.12a134,134,0,0,1-1.08,16.36C258.24,303.4,258.05,303.61,257.95,303.58Zm-12.61,51,.4.83a72.78,72.78,0,0,1-10.85,1.83l-1.44.11c.42-.33.84-.67,1.25-1h.13a73,73,0,0,0,10.49-1.75,71.64,71.64,0,0,1-10.38,1.56c.49-.41,1-.83,1.45-1.26a74,74,0,0,0,8.44-1.38l.51,1.07h0Zm-15.62,3.24h.14c-1,.66-1.92,1.31-2.94,1.92Q228.33,358.85,229.71,357.84Zm-7.34-.56A54.36,54.36,0,0,1,205,363.1c-1,.16-2,.29-3.08.4-.58-.9-1.15-1.81-1.68-2.73a51,51,0,0,1-5.74-13.9c-.24-1-.42-2-.56-3a51.23,51.23,0,0,0,15.24,9.82,51.46,51.46,0,0,1-15.31-10.23c-.05-.41-.09-.81-.13-1.22a52.52,52.52,0,0,0,8.19,6.56,47.76,47.76,0,0,0,10.64,5.13,51.75,51.75,0,0,0,11.19,2.38l.27,0q-.7.41-1.41.8a51.12,51.12,0,0,1-13.45-3.45A52.14,52.14,0,0,0,222.37,357.28ZM184.7,328.13l.29.47-.31,1.4-.32-.51.18-.72Zm72.79-40.24c0,.2,0,.4,0,.61l-.55.09c0-.2,0-.4,0-.61Zm1.66-.29c0,.21,0,.42,0,.62l-.78.13c0-.2,0-.41,0-.61Zm-10.41,48.09-.08.16-.3-.5.08-.15Zm-58.36-25.06.47-.66c.14.39.27.78.42,1.17l0,.09-.44.62C190.71,311.45,190.54,311,190.39,310.63Zm-3.08-14.48a33.66,33.66,0,0,1,4,0c.24,0,.07,0-.47,0s-1.44,0-2.65.07l-.86.07Zm0,.19-.79.08,0-.2.8-.06Zm5.21,1.26a35.57,35.57,0,0,1,6.11,1q-1.33,1.17-2.62,2.4a31.58,31.58,0,0,0-7.86-.63c-.12-.52-.25-1-.36-1.56s-.14-.83-.22-1.25A32.28,32.28,0,0,1,192.5,297.6ZM246,323.67A111.84,111.84,0,0,0,225.06,301c-.32-.26-.66-.5-1-.75a104.76,104.76,0,0,1,11.31-5.05,112.36,112.36,0,0,1,19.38-5.45c-.09,3.07-.25,6.14-.52,9.18-.09,1.26-.29,2.5-.43,3.75s-.26,2.51-.49,3.73c-.44,2.46-.79,4.95-1.4,7.36A82.89,82.89,0,0,1,248,326.63Q247,325.14,246,323.67Zm-4.63-4q3.19,4.19,6,8.59c-.2.49-.42,1-.63,1.45A128.57,128.57,0,0,0,233,311.76a93.53,93.53,0,0,0-11.17-10.26l1.23-.68A104.39,104.39,0,0,1,241.36,319.67Zm4.41,12.27-.15.31a131.59,131.59,0,0,0-11.37-15.63,94.08,94.08,0,0,0-14.52-13.9l.06,0a90.61,90.61,0,0,1,11.33,10,92,92,0,0,0-9.4-8.73q-.88-.68-1.77-1.33h0c.58.44,1.17.88,1.74,1.34a97.51,97.51,0,0,1,15,14.74A134.58,134.58,0,0,1,246,331.38l-.08.17a126.79,126.79,0,0,0-14.85-18.9A126,126,0,0,1,245.77,331.94Zm1.48,3-.3-.5.15-.29.3.49Zm-55.68-21.38v0l.44-.6h0Zm.52-.76.17-.23c1.09-1.73,2.49-3.29,3.66-4.83,1-1.2,2-2.27,2.86-3.17l.47.15a67.46,67.46,0,0,0-7,7.86l-.16.23Zm27.68-10.37,0,0-.14-.1,0,0Zm1-.77.15-.09.1.08-.15.09Zm-20.67,18.52a54.37,54.37,0,0,1,9.45-10.5l.18.11-.6.53L207,312.12a56.63,56.63,0,0,0-7,8.78l2-2.69c.81-1,1.74-2,2.65-3.12s2-2,2.95-2.95L210,310a66.6,66.6,0,0,1,8.8,6.93,111.76,111.76,0,0,1,19.53,24.61,53,53,0,0,1-7.48.64,43.6,43.6,0,0,1-6.6-.42,40,40,0,0,1-6.28-1.47,34.28,34.28,0,0,1-5.83-2.55c-1-.46-1.81-1.1-2.73-1.65l-1.29-.94a14.57,14.57,0,0,1-1.27-1,44.66,44.66,0,0,1-8.74-9.79c-.1-.15-.19-.31-.29-.47A41.37,41.37,0,0,1,200.06,320.17Zm3-5.59.42-.51,1.11-1.14C204,313.47,203.52,314,203,314.58ZM199.32,304c.29-.28.6-.55.89-.82l.5.17-.88.81Zm1-.94.51.17,0,0-.51-.17Zm-1.4-.37-1.3-.33h0c.44.09.87.21,1.3.33Zm15.51,3.49-1,.71-1.57,1.22-.23-.15q1.25-1,2.57-2Zm-4.24,2.93.67-.55.21.14-.69.53Zm-3.65-3.4-.35-.18.15-.13.37.17Zm4.57,2.65.3-.24.23.15-.31.24Zm-4-3.12-.36-.2,1.07-.84,1.52-1.19.33.18Q208.38,304.13,207.13,305.18Zm-1,.27-1.07-.51.13-.11,1.09.5Zm-1.23-.38,1.06.52-.77.66-1.06-.5Zm.52,1.09.6-.54.34.19-.74.65-.36-.17Zm18.19,14a74.57,74.57,0,0,0-12.92-10.84l.63-.55a70,70,0,0,1,9.65,8,115.56,115.56,0,0,1,18.54,24.52h0A119.4,119.4,0,0,0,223.62,320.21Zm16.05,21.37.15.26h0l-.16-.26Zm.75-.53c-2-3.4-4.07-6.73-6.33-10a98.49,98.49,0,0,0-16.82-18.3,64.39,64.39,0,0,0-5.69-4.18l.3-.25c1.21.74,2.38,1.51,3.47,2.27q-1.62-1.27-3.3-2.42c.8-.69,1.62-1.37,2.46-2l.51.35A89,89,0,0,1,232.87,324c1.85,2.59,2.15,3.49,1.58,3.19a33.37,33.37,0,0,1-4-3.57c-1.92-1.87-4.33-4.12-6.67-6.17s-4.61-3.88-6.16-5.13l-2.29-1.68a96.55,96.55,0,0,1,18.74,20.46c2.27,3.15,4.42,6.43,6.44,9.81Zm-1.58-13.91A98.3,98.3,0,0,0,223,310c-1.76-1.45-4-3.28-6.67-5.13l.61-.4a85.51,85.51,0,0,1,12.78,11.33,130,130,0,0,1,14.56,19.05l-.1.17Q241.64,330.94,238.85,327.14Zm-22.54-22.31-.28-.19.61-.42.26.18Zm3.08-2.38,0,0,.15.11,0,0Zm-4.32-3.14-.3-.18.1-.06.29.18Zm-.11.07,0,0-.3-.18,0,0Zm-2.83,1.92-.61.45-.31-.18.62-.44Zm-2.86,1.59q-1.3,1-2.55,2.06l-1.06-.53c.84-.71,1.69-1.41,2.56-2.09Zm-6.34-1.55c-.48.4-.95.84-1.42,1.26l-.33-.13-.18-.06q1.25-1.13,2.55-2.21l.55.21C203.7,300.74,203.31,301,202.92,301.35Zm-3.26.63c-.42-.13-.84-.25-1.26-.37l1.51-1.37c.34-.33.69-.64,1-.94l1.25.42Q200.91,300.82,199.66,302Zm-2.05.37,1.27.36c-.3.28-.61.55-.9.84l-1.25-.29.79-.82Zm-1.54,12.24a60.1,60.1,0,0,1,7.43-8.23l1,.5c-1.41,1.28-2.77,2.61-4.06,4-.71.75-1.33,1.57-2,2.35l-1,1.18-.89,1.25c-.58.84-1.21,1.64-1.75,2.5l-.18.31c-.18-.35-.34-.71-.51-1.06C194.76,316.43,195.39,315.49,196.07,314.59Zm4.85-4.07,2.19-2.24c.49-.47,1-.93,1.51-1.38l.35.17a62.1,62.1,0,0,0-6.82,7.25,45.88,45.88,0,0,0-3.23,4.61l-.22-.4A52.92,52.92,0,0,1,200.92,310.52Zm-6.09,8.56-.32.53-.22-.42.33-.53Zm2.9,5a45.91,45.91,0,0,0,7.56,9.08l1.07.91a35,35,0,0,0,13.61,7.1,43.27,43.27,0,0,0,15.61,1c1-.1,1.94-.24,2.91-.4l.42.7a53.65,53.65,0,0,1-7,.64,38.5,38.5,0,0,1-19.41-4.41,21.09,21.09,0,0,1-3.17-2.06c-.39-.28-.73-.63-1.2-1s-1-.85-1.72-1.54a40.23,40.23,0,0,1-5.13-4.77,56.39,56.39,0,0,1-3.73-4.8Zm47.77,13,.12-.2.28.48-.11.2Zm-9-20.68A100.54,100.54,0,0,0,223.75,304c-.87-.7-1.76-1.38-2.66-2.05l.15-.09a91.23,91.23,0,0,1,12.23,11,128.09,128.09,0,0,1,13.22,17l0,.1A134.67,134.67,0,0,0,236.48,316.44Zm-14.93-15.15-.08-.06,1.23-.69,0,0Zm-5.34-2.7-.28-.17.17-.11.27.17Zm-1.5.51-1.07-.63.13-.08c.35.21.69.43,1,.65Zm-.11.07,0,0-1.08-.64.07,0Zm-2.85,1.93-.62.44-1.07-.59.64-.45ZM206,298.93l-.56-.23.6-.47.58.25Zm-1.9-.79c-.4-.15-.81-.29-1.21-.43l.61-.49,1.21.45ZM202,297.4l-.84-.26.59-.5.87.27ZM200.07,299c-.88.76-1.75,1.53-2.59,2.33l-.83-.18c.84-.81,1.69-1.61,2.57-2.39Zm-3.37,3.08h0l-.25,0,.24.06-1,.95-.83-.14c.32-.33.63-.68,1-1Zm-.55,1.75c.41.09.83.2,1.24.31-.78.78-1.55,1.57-2.29,2.39q-1.94,2.18-3.68,4.55-.24-.63-.47-1.25l0,0c.66-.89,1.4-1.71,2.09-2.56a32.41,32.41,0,0,1,2.18-2.46ZM194,317.54c.17.35.36.69.53,1l-.32.55c-.19-.35-.38-.69-.56-1Zm-5,17c-.06.4-.11.81-.17,1.21l0,.24-.38-.5,0-.1.19-1.34Zm4.51,5.46V340c1,.46.94.94,1.41,1.39a50.09,50.09,0,0,0,11.69,8.42,47.55,47.55,0,0,0,13.94,4.67c1.8.31,3.61.53,5.42.67-.52.34-1,.66-1.56,1q-1.5-.15-3-.38a49,49,0,0,1-22.33-9.44,55,55,0,0,1-5.44-4.72C193.65,341,193.56,340.53,193.56,340Zm36.05,15.22h.83c-.49.37-1,.73-1.5,1.09l-.88,0C228.58,356,229.11,355.62,229.61,355.25Zm3.46-.07h.32q-.71.58-1.45,1.15h-.27Q232.38,355.77,233.07,355.18Zm13.7-15.9-.27-.47.12-.21.28.47Zm1.2-3.14.15-.31.28.5-.16.3Zm-.35-2-.3-.47.08-.15.29.47Zm.43-2,0-.09.31.5,0,.09Zm.11-.23c.22-.47.45-.94.66-1.42l.31.48c-.21.48-.44,1-.66,1.44Zm1.34-3.06c.72-1.76,1.41-3.53,2-5.34.43-1.12.72-2.3,1.06-3.45s.7-2.31,1-3.49c.52-2.36,1.13-4.7,1.48-7.1l.61-3.58.43-3.61c.34-2.4.46-4.83.64-7.25.12-1.88.18-3.75.23-5.63l.54-.08a132.31,132.31,0,0,1-1.91,19.92c-.41,2.77-1.12,5.47-1.72,8.2-.78,2.67-1.48,5.37-2.47,8q-.72,2-1.53,3.95ZM254.79,289a109.42,109.42,0,0,0-31,10.94l-.11.07h0l.12-.07a99.55,99.55,0,0,1,14.49-6.85,96.76,96.76,0,0,1,15.57-4.49l.94-.19C254.8,288.58,254.79,288.78,254.79,289ZM217,298.09l-.27-.18,1.23-.76.28.18Zm-.33-.22-1-.65,1.24-.77,1,.66Zm-.64.4-.17.11-1.05-.64.17-.11Zm-6.47-1.93-.34-.17.33.17-.14.1-.6-.28.15-.1.25.12L209,296l.18-.12.59.29Zm-1.91-.91-1.16-.51.15-.11c.4.17.8.32,1.19.49Zm0,0-.15.11-1.19-.48.16-.12Zm-2.17-.7-.88-.32.16-.12.88.33Zm-1.42-.51a42.58,42.58,0,0,0-14-2.41c-1.11,0-2.21.05-3.32.15,0,0,0-.08,0-.11a42.16,42.16,0,0,1,17.43,2.27Zm-3.19,2.13.31.1-.61.51c-.43-.13-.87-.26-1.3-.38a36.41,36.41,0,0,0-9.47-1.19c-.85,0-1.71.1-2.57.19,0-.24-.06-.47-.09-.71A38.18,38.18,0,0,1,200.86,296.36Zm-13.69-.76-.78.09c0-.24-.07-.49-.1-.73l.78-.07C187.09,295.13,187.14,295.36,187.17,295.6Zm.32,2c.17.94.36,1.88.56,2.82l-.77.06c-.21-.93-.4-1.87-.57-2.82Zm.79,3.89c.09.38.2.75.29,1.13l-.75.06c-.1-.37-.19-.75-.28-1.12Zm.1,0a29.83,29.83,0,0,1,6.81.35l-1,1c-.48-.07-1-.12-1.44-.17a29.09,29.09,0,0,0-4.1-.05C188.56,302.22,188.47,301.84,188.38,301.46Zm2.4,1.69a27.7,27.7,0,0,1,2.85.25c-1.06,1.12-2.09,2.28-3.09,3.48l-.44.55q-.71-2.13-1.29-4.29C189.47,303.14,190.12,303.13,190.78,303.16Zm2.24,1.72c.43-.47.88-.92,1.32-1.38l.79.15c-1.43,1.37-2.69,2.95-4,4.46-.21.23-.39.48-.58.72-.09-.24-.16-.49-.24-.73Q191.62,306.44,193,304.88Zm-2.54,4.06c-.16.21-.33.42-.49.64l-.26-.69.5-.66C190.31,308.47,190.4,308.7,190.48,308.94Zm-2.63,24,.81,1.11-.15,1-.06.41c-.28-.37-.56-.75-.83-1.13C187.69,333.89,187.76,333.42,187.85,332.95Zm-.31,2,.83,1.12-.1.66c0,.13,0,.26,0,.39-.28-.36-.56-.72-.84-1.08C187.44,335.65,187.49,335.28,187.54,334.92Zm.85,1.15.38.51c0,.12,0,.24-.05.36l0,.7-.32-.41-.08-.11C188.3,336.78,188.34,336.42,188.39,336.06Zm8.55,20.75c-.28-.59-.55-1.18-.81-1.77C196.39,355.63,196.65,356.23,196.94,356.82Zm30.81-.28.88,0c-.45.31-.91.61-1.37.91l-.85,0C226.86,357.14,227.3,356.83,227.74,356.53Zm2.4,1c.42-.31.84-.64,1.25-1h.26c-.43.33-.86.65-1.31,1Zm19.15-19,.16-.3.26.47-.28.09Zm.44-.81.08-.15.52.91-.12,0Zm.79-1.5,0-.07q.55.93,1.08,1.86l0,0C251.26,337.4,250.9,336.8,250.54,336.2Zm-1.11-1.87-.31-.5,0-.07.31.5Zm-.22-.69c.22-.48.44-1,.65-1.45l.33.55c-.21.48-.44.95-.67,1.42ZM258.37,283V283l.73-.11v.06Zm-.87.14-.55.09v-.06l.55-.1Zm-18.13-1.23c-1.06.3-2.08.71-3.13,1.06s-2.09.71-3.12,1.13c-2.06.83-4.15,1.6-6.18,2.56a111.39,111.39,0,0,0-12.21,6.3l-1,.6-.6-.32q3.06-1.93,6.24-3.65a122.33,122.33,0,0,1,23-9.22,118.2,118.2,0,0,1,12.25-2.84c0,.15,0,.3,0,.45A133.61,133.61,0,0,0,239.37,281.93Zm-26.48,12.2c-.43.27-.86.53-1.29.81l-.58-.3,1.28-.83Zm-2,1.28-.17.12-.59-.29.18-.12Zm-2.11-.79-.28-.13-.92-.38.18-.13,1.19.51Zm-2-.84-.9-.34.18-.13.9.35Zm-1,.69-.15.11-.86-.34.16-.12C205.27,294.22,205.55,294.36,205.84,294.47ZM204.3,294a42.75,42.75,0,0,0-17.57-2.69v0a46.59,46.59,0,0,1,5.27,0,44.84,44.84,0,0,1,6.6.93,49.12,49.12,0,0,1,5.85,1.73Zm-17.58-2.18V292l-.79.08v-.11ZM174,300.1l-.59.29c-.09-.52-.17-1.05-.25-1.58l.54-.25Q173.84,299.33,174,300.1Zm.24,1.13q.34,1.58.75,3.17l-.69.37q-.36-1.6-.67-3.23Zm1,4.1c.1.38.21.76.32,1.14l-.76.42c-.1-.39-.19-.78-.28-1.17Zm13.5-2.17c.39,1.48.81,2.95,1.29,4.41l-.51.65q-.84-2.46-1.52-5Zm-6.5,20.37-.13.35c-.12.3-.23.61-.33.92l-.31-.59c.15-.43.3-.86.46-1.29Zm.64,1.28c.24.46.5.92.75,1.38-.14.44-.27.88-.39,1.32-.27-.49-.54-1-.8-1.46Zm1.39,5.16.32.53-.17.79c0,.07,0,.14,0,.22l-.35-.57Zm9.25,29.67A50.87,50.87,0,0,1,188.78,346a36,36,0,0,1-.61-7.07c0-.44,0-.87.07-1.31l.41.49c-.06.74,0,1.5,0,2.25a37.62,37.62,0,0,0,1.38,9.28,59.13,59.13,0,0,0,6.11,14.18h-.28C195,362.46,194.23,361.07,193.51,359.64Zm9.84,5.91a59,59,0,0,0,10.72-2.36A53.9,53.9,0,0,0,226,357.67l.87.06a54.8,54.8,0,0,1-7.27,3.87A58.86,58.86,0,0,1,203.73,366h-.06Zm2.81,3.61a60.65,60.65,0,0,0,20.26-7,63,63,0,0,0,6.47-4.33c2.23-.09,4.45-.29,6.63-.59s4.35-.72,6.48-1.2a148.51,148.51,0,0,1,7.63,20.37q1.22,4.14,2.12,8.3c.31,1.38.58,2.77.83,4.15.11.67.26,1.42.35,2l.26,1.82a21.71,21.71,0,0,1,0,6,8.46,8.46,0,0,1-.42,1.59,2.69,2.69,0,0,1-.26.42,1,1,0,0,1-.41.29,4,4,0,0,1-1.41.29c-.32.06-.78,0-1.17,0s-.89,0-1.4-.11l-.74-.09-.79-.14c-.52-.07-1.08-.22-1.62-.34a55.75,55.75,0,0,1-14-6,103.24,103.24,0,0,1-25.22-20.92c-1.31-1.49-2.55-3-3.75-4.59Zm33.74,29.1a48.9,48.9,0,0,0,9.18,3.12,21.17,21.17,0,0,0,4.17.55,8.88,8.88,0,0,0,2.84-.31,1.62,1.62,0,0,0,.85-.58,3.36,3.36,0,0,0,.56-1.29,15.11,15.11,0,0,0,.43-3.65,35.63,35.63,0,0,0-.4-5l-.09-.68-.13-.76-.26-1.52c-.2-1-.38-2-.6-3.06-.44-2-.9-4.1-1.45-6.17-1.07-4.13-2.35-8.28-3.84-12.42q-1.91-5.36-4.27-10.66l.24-.06c2,4.3,3.77,8.69,5.33,13.17a136.15,136.15,0,0,1,4.16,14.21q.83,3.59,1.44,7.2a36.48,36.48,0,0,1,.51,6.12,12.39,12.39,0,0,1-.67,4.19c-.06.26-.16.28-.19.44s-.09.1-.12.17a.35.35,0,0,1-.12.17,2.12,2.12,0,0,1-.62.54.68.68,0,0,0-.18.11c-.06,0-.14,0-.2.07l-.09.05-.16,0-.33.1a10.25,10.25,0,0,1-2,.19,22.21,22.21,0,0,1-5.55-.79,55.8,55.8,0,0,1-12.63-5.29,93.51,93.51,0,0,1-12.22-8.14A87.65,87.65,0,0,0,239.89,398.27Zm6.72-43-.37-.84.21-.05.4.84Zm-.38-.85-.48-1,.19,0,.49,1Zm.42-1.27L247,353l.49,1-.38.1Zm6.37-1.85.39-.14.44.92-.4.14ZM249.57,339l.28-.1.43.76-.28.1Zm1.21.49-.43-.77.12,0,.44.77Zm.95-1.27,0,0,.45.78-.06,0Zm.1,0,1.23-.47.43.78-1.22.47Zm-.11-.2c-.36-.64-.73-1.29-1.09-1.93.24-.47.48-.93.7-1.41q.83,1.42,1.63,2.86Zm9-50c0-.2,0-.39,0-.59l1.52-.2h.05c0,.2,0,.4,0,.59Zm-.06-5.33v0l1.59-.2v0Zm0-.21c0-.32,0-.64,0-1l1.59-.2q0,.5,0,1Zm-1.54.16-.73.09q0-.45,0-.9l.72-.11Q259.07,282.15,259.09,282.61Zm-1.59.21-.55.07c0-.28,0-.56,0-.84l.55-.09C257.48,282.24,257.49,282.53,257.49,282.82Zm-.71-5.17c0-.14,0-.28,0-.42l.56-.09c0,.14,0,.28,0,.41Zm-.1-1.92q0-.54-.06-1.07l.58-.1c0,.36,0,.72.06,1.07Zm-2.06.34q-2.12.39-4.18.83c-2.64.53-5.18,1.25-7.67,1.9s-4.88,1.46-7.19,2.32c-2.48.83-4.91,1.85-7.35,2.82s-4.83,2.13-7.19,3.37a105.86,105.86,0,0,0-9.22,5.26h0l-1.14-.53a113.6,113.6,0,0,1,16.06-8.57,126.3,126.3,0,0,1,23.46-7.57c1.37-.33,2.86-.61,4.36-.88C254.59,275.36,254.61,275.71,254.63,276.06Zm-43.69,17.08c-.42.28-.83.57-1.24.85l-1.15-.53,1.27-.87Zm-3.17,0-.91-.37,1.28-.89c.31.13.62.24.93.38Zm-1.37-.55a49.79,49.79,0,0,0-5.41-1.81,43.38,43.38,0,0,0-14.39-1.41c0-.44,0-.88-.06-1.32a44.44,44.44,0,0,1,8.54.22,48.93,48.93,0,0,1,7.22,1.49,57,57,0,0,1,5.4,1.94Zm-19.23-2.19a43.73,43.73,0,0,1,17.26,2.33c.39.13.77.28,1.16.42l-.19.13A44.93,44.93,0,0,0,191,290.46a39.63,39.63,0,0,0-4.28.14v-.17Zm-.52.23-.8.08v-.17l.8-.09Zm-13.44,5-.43.19v0l.43-.2Zm-.78.36-.46.23v0l.46-.23Zm.48,3c.09.52.18,1,.28,1.56l-.52.27c-.09-.52-.19-1-.27-1.57Zm.51,2.7q.34,1.6.74,3.2l-.57.34c-.26-1.08-.51-2.16-.72-3.26Zm.94,4.16,0,0c.1.38.22.76.33,1.14l-.62.36c-.1-.39-.19-.78-.29-1.17Zm.45,1.4c.21.75.41,1.5.64,2.25-.21-.75-.4-1.51-.6-2.27l.77-.4c.11.38.21.76.32,1.15a94.21,94.21,0,0,0,4.28,11.46q.59,1.31,1.23,2.64c-.17.42-.32.84-.47,1.26-.67-1.36-1.31-2.72-1.88-4.07a99.19,99.19,0,0,1-3.65-9.77A101.11,101.11,0,0,0,179.62,321q.6,1.34,1.23,2.65c-.11.3-.23.6-.33.91h0l-.87-1.86-.59-1.26-.52-1.26-1-2.52c-.33-.85-.63-1.71-.95-2.57-.65-1.7-1.17-3.47-1.72-5.21q-.33-1.16-.63-2.32Zm6.5,17.37.3.61c-.11.31-.21.63-.31.95l-.31-.59Q181.15,325,181.32,324.56Zm1,1.93c.26.5.54,1,.81,1.47q-.14.5-.26,1c-.24-.42-.46-.85-.69-1.27l-.12-.22Q182.14,327,182.28,326.49Zm.4,3.06a48.26,48.26,0,0,0-1.19,7.39,45.16,45.16,0,0,0,2.3,17,64.52,64.52,0,0,0,3.95,9.46l-1.4-.18a64.15,64.15,0,0,1-3.48-8.39,49.36,49.36,0,0,1-2.58-13.43,36,36,0,0,1,.33-6.92l.5-3.39.75-3C182.13,328.58,182.4,329.06,182.69,329.54Zm14.19,36.51.31.48-1,0-.29-.5Zm62.75,31.35a9.23,9.23,0,0,1-1.2,4.56,3.49,3.49,0,0,1-1.08,1,5.4,5.4,0,0,1-.68.31,4.28,4.28,0,0,0-.5.13c-.18,0-.4.06-.6.11a18.54,18.54,0,0,1-6.72-.52,44.38,44.38,0,0,1-7.93-2.71,74.14,74.14,0,0,1-7.94-4.12,71.39,71.39,0,0,0,8.56,4.24A41.73,41.73,0,0,0,250,402.9a21.42,21.42,0,0,0,3.61.3,9,9,0,0,0,2.71-.38,3,3,0,0,0,2-1.88,9.82,9.82,0,0,0,.6-2.69,23.81,23.81,0,0,0,.06-4c-.12-1.51-.3-3-.6-4.71s-.64-3.53-1-5.32c-.78-3.57-1.72-7.17-2.83-10.79a159.92,159.92,0,0,0-6.7-17.88l.42-.11a154.73,154.73,0,0,1,6.37,16.3A127.51,127.51,0,0,1,259,389.62,35.41,35.41,0,0,1,259.62,397.4ZM247.52,355l-.38-.83.39-.1.39.82Zm6-2.7.41-.14.34.72-.41.15Zm2.35-.82.21-.08.31.69-.22.09C256.05,351.93,256,351.7,255.86,351.46Zm-.07-.14c-.14-.3-.29-.6-.42-.9l.23-.08.41.9Zm.49-1.22.1,0c.14.29.28.58.42.88l-.1,0Zm1.3-.52.05,0,.4.87-.07,0ZM254.5,337.1a94.12,94.12,0,0,0,11.71-5.93,102.49,102.49,0,0,0,13.36-9.5,84.43,84.43,0,0,0,11.22-11.29,52.43,52.43,0,0,0,4.34-6.13,27.93,27.93,0,0,0,2.81-6,12.64,12.64,0,0,0,.35-1.36l.13-.64,0-.43a4.15,4.15,0,0,0-.09-1.43,3.48,3.48,0,0,0-1.68-2.24l-.23-.12-.31-.18-.86-.52-1.94-.89-.48-.23-.53-.18-1.05-.37-1-.37c-.35-.12-.74-.2-1.11-.3a53,53,0,0,0-9.27-1.63,87.39,87.39,0,0,0-17,.38c0-.2,0-.4,0-.59.74-.1,1.49-.18,2.24-.23l2.87-.24,2.89-.11,1.45-.05,1.44,0c1,0,1.93,0,2.89.05a61.4,61.4,0,0,1,11.21,1.52c.87.25,1.77.46,2.62.72l2.48.88,2.29,1.05a9.38,9.38,0,0,1,1,.6c.41.25.49.28.71.41a3.88,3.88,0,0,1,1.83,2.64,4.74,4.74,0,0,1,.07.82v.41c0,.16,0,.21,0,.35a12.69,12.69,0,0,1-.24,1.31c-.14.47-.27.95-.43,1.44a31.59,31.59,0,0,1-3,6.11,54.16,54.16,0,0,1-4.28,5.91c1.4-1.44.26.2-1.39,2.15-.84,1-1.77,2-2.53,2.82a16.16,16.16,0,0,0-1.25,1.4,91.16,91.16,0,0,1-15.06,12.4,92.45,92.45,0,0,1-15.67,8.38Zm38.25-19.16a65,65,0,0,0,7.62-10.26,41.44,41.44,0,0,0,2.72-5.54,21.91,21.91,0,0,0,1.41-5.69,10.43,10.43,0,0,0-.76-5.23,8.69,8.69,0,0,0-3.53-3.82l-1.72-1a16.15,16.15,0,0,0-1.9-.9c-.65-.27-1.27-.6-2-.81l-2-.68a18.17,18.17,0,0,0-2.08-.58l-2.11-.52c-1.44-.24-2.87-.53-4.34-.72a86,86,0,0,0-18.33-.2c-1,.1-2.19.23-3.19.36v0c1-.12,2.17-.23,3.19-.33-1,.06-2,.14-3,.22,0-.34,0-.68,0-1l.9-.11a88,88,0,0,1,19.29,0,57,57,0,0,1,9.33,1.86,41.27,41.27,0,0,1,4.39,1.64c.7.34,1.45.6,2.11,1l1.94,1.13a9.31,9.31,0,0,1,4.6,7.78,15.26,15.26,0,0,1-.1,2.34,8.35,8.35,0,0,1-.19,1.21c-.09.4-.14.81-.26,1.2a29.93,29.93,0,0,1-1.66,4.69,52.08,52.08,0,0,1-8.66,12.66,96.75,96.75,0,0,1-11.25,10.58A91.58,91.58,0,0,0,292.74,317.94ZM303,312.39c-.36.52-.71,1-1.06,1.51Q302.45,313.15,303,312.39Zm3.23-5.35a32.32,32.32,0,0,0,2.94-7.78l.23-1.05.15-1.12a16.38,16.38,0,0,0,.13-2.35,19.69,19.69,0,0,0-.17-2.32,16.56,16.56,0,0,0-.55-2.24l-.4-1.08c-.15-.35-.34-.69-.52-1a12.53,12.53,0,0,0-1.25-1.91,17.71,17.71,0,0,0-1.57-1.65,22.2,22.2,0,0,0-1.81-1.38l-2.61-1.57c-.83-.45-1.68-.81-2.52-1.2-.42-.19-.83-.4-1.25-.56l-1.27-.46c-.85-.29-1.68-.62-2.53-.87.74.2,1.47.49,2.21.73s1.49.47,2.21.81a34.59,34.59,0,0,1,4.34,2.15l1.48.88a18.57,18.57,0,0,1,1.71,1.29,18.94,18.94,0,0,1,1.57,1.58A13.13,13.13,0,0,1,309,290a15.21,15.21,0,0,1,.6,2.36,18.45,18.45,0,0,1,.17,2.47,16,16,0,0,1-.18,2.53,19.33,19.33,0,0,1-.44,2.29,33.1,33.1,0,0,1-3.22,8c-.86,1.57-1.77,3-2.66,4.32A51.52,51.52,0,0,0,306.19,307Zm-27.34-30.86c-1.17-.07-2.33-.13-3.48-.11s-2.3,0-3.44,0c-2.28.11-4.53.19-6.76.44-.87.08-1.73.18-2.59.28,0-.12,0-.23,0-.35,1.56-.17,3.13-.32,4.7-.43a79.08,79.08,0,0,1,23.39,1.75A66.48,66.48,0,0,0,278.86,276.18Zm-20,1.12-.68.11c0-.13,0-.26,0-.4l.67-.09C258.87,277,258.87,277.17,258.88,277.3Zm-.77-1.81c0-.35,0-.71-.06-1.06l.66-.08c0,.35,0,.7.06,1Zm-.91-.94-.58.09c0-.42,0-.83-.07-1.25l.58-.08C257.16,273.71,257.18,274.13,257.21,274.54Zm-.66-1.36q-.24-3.62-.61-7.22c-.16-1.54-.35-3.06-.54-4.59l.72.3q.64,5.7,1,11.43Zm-1.63-15.6c0-.22-.07-.44-.1-.66l.76.37.08.63Zm-27.53-24.07a73.45,73.45,0,0,0,14.28,14.88c1.38,1.11,2.82,2.18,4.31,3.24l2.28,1.57c.83.52,1.64,1.07,2.51,1.57.64.38,1.31.74,2,1.1l.09.69c-.84-.43-1.66-.88-2.47-1.35s-1.91-1.18-2.83-1.77-1.75-1.19-2.61-1.81c-1.72-1.25-3.42-2.54-5.07-3.92a75.89,75.89,0,0,1-9.27-9.16,65.52,65.52,0,0,1-7.51-11c-.33-.62-.63-1.27-.95-1.9l.4-.29A60.46,60.46,0,0,0,227.39,233.51Zm21.42,19.6c1.27.83,2.57,1.59,3.88,2.29l0,.19C251.37,254.8,250.06,254,248.81,253.1Zm6.49,3.9-.5-.27,0-.3.76.36,0,.33Zm1,.16.66.28.05.39-.66-.31Zm-2.47-13.36-.2-.14-.47-1.44c.08.42.15.84.22,1.27l-.93-.65c-.34-1.78-.68-3.57-1.06-5.34-.48-1.05-.9-1.6-1.18-1.55s-.42.72-.46,2.12q.32,1.62.62,3.25a73.88,73.88,0,0,1-6.11-5.12,58.92,58.92,0,0,1-7.82-9,48.89,48.89,0,0,1-4.48-7.85c.81,0,1.62.06,2.43,0a49,49,0,0,0,17.25-3.45c2.48,9.34,4.69,18.75,6.39,28.18.15.83.29,1.65.43,2.48A45.15,45.15,0,0,1,253.88,243.79Zm5,.53c-.89-4.3-1.68-8.69-2.74-13-.51-2.17-1-4.36-1.51-6.53L253,218.28l-.89-2.54.72-.28a67.73,67.73,0,0,0,14.81-8.55c1.15-.79,2.13-1.68,3.19-2.51l1.47-1.2c1.43-.29,2.87-.55,4.31-.78a73,73,0,0,1,12.85-.91,35,35,0,0,1,11.77,2.07,13.2,13.2,0,0,1,7.37,6.54,14.41,14.41,0,0,1,1.24,4.94,21.63,21.63,0,0,1-.39,5.59,33.36,33.36,0,0,1-4.59,11.16,42.26,42.26,0,0,1-8.14,9.48,39.77,39.77,0,0,1-10,6.35,33.11,33.11,0,0,1-11.14,2.72,31.43,31.43,0,0,1-11.26-1.43,34.05,34.05,0,0,1-5-2Q259.11,245.64,258.87,244.32Zm-40.33-27.79.48.17-.36.26-.13-.43Zm2.89,6.47c.19.43.38.86.58,1.28l-.4.3c-.2-.43-.38-.87-.57-1.3Zm.94,2,.06.12-.4.28-.06-.11Zm-35.85,63c0,.44,0,.88.05,1.32l-.81.07c0-.44,0-.89,0-1.34Zm-13.68,4.66-.32.13c0-.47-.07-.93-.1-1.4l.27-.11C172.75,291.78,172.79,292.24,172.84,292.7ZM173,294l0,.16-.38.18c0-.06,0-.12,0-.18Zm-.75.51-.44.2,0-.15.43-.21Zm-.76,1.8v0a57.88,57.88,0,0,0-8,4.91A53.7,53.7,0,0,1,171.49,296.34Zm-1.73,4.31c.7-.42,1.42-.81,2.15-1.2q.13.8.27,1.59a54.14,54.14,0,0,0-8.15,5.52,74.12,74.12,0,0,0-6.9,6.46c-.57.58-1.1,1.21-1.66,1.82l-.83.92c-.28.31-.48.6-.73.9-.46.6-1,1.19-1.41,1.79l-1.22,1.87a23,23,0,0,0-3,7.74,17.6,17.6,0,0,0,.28,7.54,20.81,20.81,0,0,0,3.1,6.66,29.42,29.42,0,0,0,4.56,5.27,40.41,40.41,0,0,0,8.61,6.1l1.42.74,1,.43c.51.21.69.24.49.09l-.21-.13-.64-.34c-.58-.27-1.37-.78-2.43-1.38a44.19,44.19,0,0,1-8.08-6.15c-.8-.71-1.47-1.56-2.25-2.4-.37-.43-.68-.9-1-1.35a12.14,12.14,0,0,1-1-1.44,20.92,20.92,0,0,1-2.9-6.62,16.75,16.75,0,0,1,0-7.67,23,23,0,0,1,3.92-8.23,67,67,0,0,1,7.6-8.38,59.83,59.83,0,0,1,9.39-7.32c.74-.47,1.5-.91,2.26-1.33q.32,1.66.72,3.29a52.52,52.52,0,0,0-4.42,3,73.79,73.79,0,0,0-9.3,8.65L158,318.9l-1.21,1.86a26.1,26.1,0,0,0-2.19,4.46c.41-.66.71-1.38,1.16-2l.73-1.13c.12-.19.23-.38.37-.57l.45-.56c.6-.75,1.1-1.48,1.94-2.38s1.52-1.73,2.32-2.53l1.18-1.23,1.22-1.17a61.83,61.83,0,0,1,5-4.31c1.42-1,2.85-2,4.31-2.91.1.39.19.79.3,1.17a55.21,55.21,0,0,0-10.17,8.18,68.29,68.29,0,0,1,6.27-5.33c1.3-.94,2.63-1.8,4-2.59l0,.12c.5,2,1.17,3.94,1.78,5.87s1.35,3.78,2.14,5.58q1.21,2.94,2.65,5.8a50.15,50.15,0,0,0-2.09,9.43,42,42,0,0,0,0,10.49,58.54,58.54,0,0,0,5.19,17.65,63.56,63.56,0,0,1-7.22-1.8,60.43,60.43,0,0,1-13.25-5.9A43.11,43.11,0,0,1,152.19,346a24.33,24.33,0,0,1-5.48-11.79,18.16,18.16,0,0,1,.18-6.28l.14-.78c.06-.26.15-.51.23-.77l.46-1.54.64-1.51.31-.76c.12-.25.27-.49.4-.73l.75-1.5c.46-.85,1-1.67,1.56-2.54s1.26-1.66,1.91-2.52,1.5-1.74,2.27-2.63,1.63-1.72,2.46-2.6A62.1,62.1,0,0,1,169.77,300.64Zm10.93,52.29a46.54,46.54,0,0,1-1.8-17.25,48.62,48.62,0,0,1,1.92-9.54l.31.59a58.28,58.28,0,0,0-1.81,9.13,44.86,44.86,0,0,0,.62,12.39A59.5,59.5,0,0,0,184.88,363l-.34-.05A63.13,63.13,0,0,1,180.69,352.93Zm7.18,13.22-.29-.54,1.41.15.3.53Zm3.22-.23.54,0,.29.52-.54,0Zm3,4.08a99.28,99.28,0,0,0,8,10.63c-1.31-1.83.16-.14,2.06,1.91s4.31,4.38,4.45,4.24a115.16,115.16,0,0,0,15.62,12.29,82.21,82.21,0,0,0,17.16,8.73,42.19,42.19,0,0,0,8.87,2.19,25.93,25.93,0,0,0,4.33.18,17,17,0,0,0,4-.72,10.85,10.85,0,0,0,3.26-1.79,9.31,9.31,0,0,0,2.27-2.79,13.73,13.73,0,0,0,1.27-3.42c.1-.63.24-1.23.31-1.87s.15-1.26.15-1.9a51.52,51.52,0,0,0-1.42-12.6c-.87-4.27-2-8.5-3.23-12.65a160.86,160.86,0,0,0-7-18.7l.42-.15a152.27,152.27,0,0,1,7.89,20.69q1.19,4,2.11,8c.62,2.67,1.17,5.39,1.57,8.07a36.43,36.43,0,0,1,.42,8,16.87,16.87,0,0,1-2,7.24,10.88,10.88,0,0,1-2.4,2.74,11.43,11.43,0,0,1-3.23,1.72,18.88,18.88,0,0,1-7.7.65,49.46,49.46,0,0,1-15.54-4.79,107.43,107.43,0,0,1-27.08-19,112.15,112.15,0,0,0,18.66,15,83.5,83.5,0,0,0,10.42,5.67,57.93,57.93,0,0,0,5.49,2.16,39.77,39.77,0,0,0,5.67,1.5c3.8.72,7.86.85,11.39-.59a10.83,10.83,0,0,0,4.48-3.37,13.79,13.79,0,0,0,2.43-5.09,26.33,26.33,0,0,0,.72-5.71,42.41,42.41,0,0,0-.36-5.8A115.4,115.4,0,0,0,265.33,379a156.86,156.86,0,0,0-8.85-26.13l.24-.08a156.62,156.62,0,0,1,9,27.28c.7,3.13,1.31,6.27,1.77,9.43a37.31,37.31,0,0,1,.29,9.48,20.11,20.11,0,0,1-1,4.58,13.44,13.44,0,0,1-2.31,4,12.38,12.38,0,0,1-8.12,4,27.43,27.43,0,0,1-9.32-.74,53.77,53.77,0,0,1-8.9-3,91.77,91.77,0,0,1-16.2-9.26A112,112,0,0,1,205.79,385a101.22,101.22,0,0,1-12.17-15Zm63.32-17.43.09,0a156.57,156.57,0,0,1,8.8,24.82A158.06,158.06,0,0,0,257.43,352.57Zm-.35-.77-.31-.68.1,0,.3.68Zm1-1.16.07,0,.3.66-.08,0Zm0-.22-.4-.87,1.13-.45.39.86Zm2.26-2c.82-.35,1.64-.71,2.45-1.09a113.16,113.16,0,0,0,23.92-15.06A102.67,102.67,0,0,0,297,322.67a73.64,73.64,0,0,0,8.73-11.27c2.5-4.14,4.74-8.55,5.46-14.18A17.46,17.46,0,0,0,310,288.4a15.44,15.44,0,0,0-5.68-6.61l-2.5-1.5a8.57,8.57,0,0,0-1.17-.61l-1.18-.55a39.64,39.64,0,0,0-4.75-1.86,24.39,24.39,0,0,0-2.38-.7l-2.38-.63c-1.59-.29-3.16-.63-4.73-.86a88,88,0,0,0-18.17-.59c-1.56.1-3.1.24-4.62.41l-.06-1a100.39,100.39,0,0,1,18.57-.14,65.6,65.6,0,0,1,11.87,2.2c.49.14,1,.26,1.48.42l1.48.53,1.47.54a11.64,11.64,0,0,1,1.46.61c1,.46,1.94.9,2.9,1.38l3,1.85a16.39,16.39,0,0,1,5.35,5.91,16.6,16.6,0,0,1,1.76,7.82,20.83,20.83,0,0,1-.41,4c-.13.58-.25,1.17-.39,1.74l-.5,1.66a38.92,38.92,0,0,1-2.64,6.06,60.93,60.93,0,0,1-6,9.14,89.82,89.82,0,0,1-6.84,7.76A115.32,115.32,0,0,1,280,338.15,113.07,113.07,0,0,1,263.47,348c-.91.44-1.84.87-2.76,1.28ZM261.91,275l-1.69.22c0-.35-.06-.7-.09-1l1.72-.18C261.87,274.31,261.89,274.65,261.91,275Zm-1.79-.86c0-.41-.08-.81-.12-1.2l1.77-.19c0,.39.05.79.08,1.18Zm-1.42.2-.66.09c0-.41,0-.82-.07-1.23l.64-.09C258.65,273.5,258.68,273.91,258.7,274.32ZM258,273q-.36-5.48-1-11l.64.24c.41,3.54.75,7.09,1,10.63Zm-1.47-14.69-.08-.6.66.27.08.6Zm.87-.22q1.49.62,3.07,1.16l.07.53q-1.53-.48-3-1.07Zm0-.11-.09-.41c1,.42,2.06.8,3.11,1.14l.07.52Q258.85,258.62,257.34,257.94Zm1.83-7.57.11.7C258.38,250.46,258.4,250.25,259.16,250.38ZM254.29,198l-.05-.21.8-.27Zm-.88.52c-.55.33-1.1.66-1.66,1-1.74.64-3.47,1.31-5.16,2q-2.07.86-4.09,1.78c-1,.27-2.05.5-3.09.67a139.78,139.78,0,0,1,13.88-5.83Zm-23.76,4.79-1,.57-.84-.16a67.43,67.43,0,0,1,1.52-22.07,105.49,105.49,0,0,1,7-20.35c.63,1.81,1.27,3.61,1.88,5.42,1.2,2.18,2.67,5.2,2.32,2.8-1.31-3.58-2.49-6.71-3.59-9.53.19-.42.38-.83.58-1.25l.25-.51c.85,3.21,2.71,9.36,5.72,19.56.47-.8.08-4.23,2-.52,1.34,4.08,3.87,12.08,5.23,16.56A148.72,148.72,0,0,0,229.64,203.29Zm1.7-56.7-.28-.61q1.12-2,2.3-4l.29.64Q232.48,144.57,231.34,146.59Zm-46,25.73a158.1,158.1,0,0,1-10.56-27.56,148.4,148.4,0,0,1-5.18-28.22,84.34,84.34,0,0,1,0-14.12c.14-1.19.23-2.36.45-3.56.1-.6.18-1.19.31-1.79l.42-1.81c.29-1.19.62-2.2.93-3.3.14-.5.36-1.15.58-1.75l.65-1.81s0,.2,0,.48L172.19,91c-.13.38-.21.68-.3,1l-.27.95-.53,1.91L170.63,97a55.8,55.8,0,0,0-.91,8.1,97.65,97.65,0,0,0,.68,15.49,160.61,160.61,0,0,0,6.32,29.08,154.81,154.81,0,0,0,10.74,26A99.3,99.3,0,0,0,202.27,197,99.22,99.22,0,0,1,185.36,172.32ZM171.6,95.12a74.85,74.85,0,0,0-1.09,13c-.07.72-.1,1.46-.13,2.24A57.75,57.75,0,0,1,171.6,95.12Zm23.17,78.09a139,139,0,0,1-9.82-22.87,156.49,156.49,0,0,1-6-24.79,117.41,117.41,0,0,1-1.31-12.91,62.23,62.23,0,0,1,.63-12.94c.14-1.05.42-2,.65-3s.59-2.1.9-3.08l.48-1.41.24-.71.25-.62.5-1.24c.18-.41.39-.8.58-1.2a12,12,0,0,1,3.23-4.21l.55-.39c.19-.12.4-.19.6-.29a4.69,4.69,0,0,1,1.28-.37,5.53,5.53,0,0,1,2.63.34,13.11,13.11,0,0,1,4.39,3,33.47,33.47,0,0,1,3.68,4.32,94.84,94.84,0,0,1,6.94,11.07c3.2,5.78,2.43,3.7,2.23,2.56-.11-.57-.09-.89.61.15a78.5,78.5,0,0,1,4.49,8.48l-1.29-3.15a137,137,0,0,0-11.61-19.61,41.46,41.46,0,0,0-5.2-5.94,16.42,16.42,0,0,0-4.11-2.88c-.66-.41-.85-.49-.54-.56a3.49,3.49,0,0,1,.78.13,5.37,5.37,0,0,1,.63.18l.74.33c2.17,1,5.27,3.69,8.33,7.63,6.15,7.79,12.26,19.63,16.78,28.86a22.55,22.55,0,0,1,1.43,2.16s1.17,2.69,2.51,5.91l.93,1.86c-.06-.85.55-.06,1.36,1.22-3-7.31-6.1-14.54-9.56-21.64a200,200,0,0,1,12,24.3.5.5,0,0,0,0-.06l.32.81c1,2.29,2,4.69,3.07,7.37h0c-4.31-12.32-6.74-18.62-7.4-21s.36-.75,2.27,2.93,4.64,9.47,7.35,15.45l.8,1.77c-1.13,1.91-2.22,3.83-3.28,5.77a154.89,154.89,0,0,0-10.64,24.26,94.6,94.6,0,0,0-4.93,24.69c0,.83-.06,1.66-.08,2.5a51.16,51.16,0,0,1-4.12-3.65A82.59,82.59,0,0,1,194.77,173.22Zm8.86,56.33c2.43-2.46,5-4.77,6.73-6.3s3.71-3.26,5.84-4.93l.12.38a110.41,110.41,0,0,0-18.78,17.78A64.82,64.82,0,0,1,203.63,229.55ZM188.21,263.3a72.28,72.28,0,0,1,7.31-14.16,90.87,90.87,0,0,1,12.15-14.63,111.76,111.76,0,0,1,11-9.5c.19.43.38.87.58,1.29l-.08.06a96.76,96.76,0,0,0-23.67,25.71,68.85,68.85,0,0,0-4,7.56c-.62,1.28-1.12,2.6-1.67,3.9s-1,2.64-1.37,4a61.48,61.48,0,0,0-2.8,16.23c-.65,3.55-1.08,3.11-1.24-.66A54.83,54.83,0,0,1,188.21,263.3Zm-15.83,21.84c0,1.89.12,3.82.28,5.76l-.24.11C172.33,289.08,172.31,287.12,172.38,285.14Zm-.82,6.65.39-.16c0,.46.07.92.11,1.39l-.4.18C171.62,292.74,171.59,292.27,171.56,291.8Zm-20.41,19.08,1.39-1.56,1.45-1.5c1-1,2-2,3-2.93a66.71,66.71,0,0,1,6.51-5.34,52.4,52.4,0,0,1,7.23-4.43l.61-.3V295a59.55,59.55,0,0,0-13.19,9c-1.15,1-2.22,2.05-3.32,3.1s-2.14,2.14-3.13,3.29L150.18,312l-1.42,1.78c-.19.21-.36.44-.53.66A44.94,44.94,0,0,1,151.15,310.87Zm-3.67,4.63c-.45.67-.87,1.35-1.33,2C146.57,316.83,147,316.17,147.48,315.51Zm23.63,46.64a62.93,62.93,0,0,1-7.53-3.43c-1.18-.7-2.41-1.33-3.54-2.11-.57-.38-1.16-.74-1.72-1.13l-1.65-1.22a40.78,40.78,0,0,1-6-5.53,38.13,38.13,0,0,1-2.53-3.16,32.42,32.42,0,0,1-2.05-3.46,23,23,0,0,1-2.24-15.43c.1-.66.35-1.28.51-1.93l.27-1c.11-.32.25-.62.37-.93l.76-1.86,1-1.78c.16-.3.31-.6.48-.89l.56-.85,1.12-1.69c.84-1.07,1.67-2.14,2.57-3.19a82.92,82.92,0,0,1,9.68-9.38,76.9,76.9,0,0,0-5.93,5.47c-1.31,1.32-2.54,2.71-3.77,4.1-.6.7-1.13,1.43-1.71,2.14a20.7,20.7,0,0,0-1.56,2.22,27.47,27.47,0,0,0-4.1,9.77,21.94,21.94,0,0,0,.49,10.32,28.12,28.12,0,0,0,6.2,11,45.61,45.61,0,0,0,10.11,8.42,64.22,64.22,0,0,0,23.72,8.62l.29.57A67.23,67.23,0,0,1,171.11,362.14Zm25.62,19.43a96.41,96.41,0,0,1-8.52-11.92l.27,0,.33.57a104.57,104.57,0,0,0,14.24,18.16,120.58,120.58,0,0,0,17.44,14.84A119.65,119.65,0,0,1,196.73,381.57Zm69.61-12.64c1.35,4.39,2.5,8.85,3.43,13.35.46,2.26.87,4.49,1.2,6.81a49.44,49.44,0,0,1,.52,7.17,28,28,0,0,1-1.07,7.47,16.63,16.63,0,0,1-4.11,7.06,15.39,15.39,0,0,1-7.25,3.9,23.49,23.49,0,0,1-7.64.46,47.15,47.15,0,0,1-13.69-3.69,85.35,85.35,0,0,1-12.13-6.36,118.37,118.37,0,0,1-20.93-16.84A105.21,105.21,0,0,1,190,369.82l1.47.09a100.56,100.56,0,0,0,9.8,12.94,116.3,116.3,0,0,0,26.18,21.91,74.08,74.08,0,0,0,15.8,7.39,38.53,38.53,0,0,0,8.81,1.77,19.84,19.84,0,0,0,9.33-1.33,14.05,14.05,0,0,0,4.08-2.77,14.66,14.66,0,0,0,2.82-4,23.31,23.31,0,0,0,1.91-9.14,48.76,48.76,0,0,0-.74-9c-.46-2.9-1.05-5.78-1.72-8.64a157.71,157.71,0,0,0-9.07-27l.09,0c.3.65.61,1.31.89,2-.29-.66-.58-1.31-.87-2l1.11-.44A164.52,164.52,0,0,1,266.34,368.93Zm5.45-96.8a82.69,82.69,0,0,1,16.69,1.47c.7.14,1.4.27,2.11.43l2.11.57c.7.2,1.41.37,2.11.6l2.11.76a36,36,0,0,1,4.19,1.8l1,.5,1,.6,2.31,1.41a18.24,18.24,0,0,1,5,5,17.34,17.34,0,0,1,2.45,6.66q.1.89.18,1.79c0,.6,0,1.2,0,1.8a13.42,13.42,0,0,1-.13,1.84l-.12.88c0,.27-.07.54-.13.79a31.68,31.68,0,0,1-1.7,5.72,48.45,48.45,0,0,1-5.22,9.55,77.21,77.21,0,0,1-6.45,8.09,117.6,117.6,0,0,1-38.25,27.68l-.29-.63c3.27-1.41,6.44-3,9.52-4.67a114.79,114.79,0,0,0,21.37-15.27c6.42-5.88,12.27-12.36,16.62-20.26a44.07,44.07,0,0,0,2.79-6.37,25.7,25.7,0,0,0,1.37-7.73,17.27,17.27,0,0,0-1.86-8.22,17,17,0,0,0-5.57-6.11l-1.81-1.09c-.52-.3-1-.63-1.56-.9l-3.17-1.46a50.86,50.86,0,0,0-6.33-2.07c-2.09-.61-4.16-.9-6.21-1.3-2-.22-4.06-.57-6-.64a97.81,97.81,0,0,0-17.51.44c0-.39,0-.78-.07-1.18C265.46,272.35,268.61,272.15,271.79,272.12Zm-10,.34-1.77.21,0-.26c-.43-3.15-1-6.28-1.53-9.33l-.13-.6c.87.3,1.74.59,2.63.85Q261.42,267.92,261.75,272.47Zm28.8-81.1a52.51,52.51,0,0,1,8.79,1,31.83,31.83,0,0,1,8.88,3.19,23.27,23.27,0,0,1,7.58,6.51,23,23,0,0,1,4,9.05,30.78,30.78,0,0,1-.1,12.22,43.74,43.74,0,0,1-3.84,10.93,52.25,52.25,0,0,1-14.3,17.43A48.83,48.83,0,0,1,290,258.47a43.64,43.64,0,0,1-13.32,3.21,42.49,42.49,0,0,1-13.78-1.23c-.52-.13-1-.27-1.56-.42l-.07-.52c.39.12.76.27,1.16.38l-1.16-.39-.08-.56A42,42,0,0,0,276,260.67c9.63-.66,19.66-4.64,28.69-13.09A46.93,46.93,0,0,0,318.38,225a31.66,31.66,0,0,0,.7-12.27,22.81,22.81,0,0,0-5.1-11.36,23.43,23.43,0,0,0-3.85-3.5,25.88,25.88,0,0,0-4.37-2.48,34.53,34.53,0,0,0-9.13-2.58,62.92,62.92,0,0,0-13.33-.45l.82-.91C286.25,191.32,288.39,191.29,290.56,191.37Zm16.2-36.19s-.07,0-.11,0l.44-.62Zm19.94-70.4A36.35,36.35,0,0,1,325.27,89l-.44,1.06-.62,1.43L323,94.37l-2.47,5.72-5.14,11.36-2.67,5.64-1.34,2.83-1.39,2.8-2.79,5.61-2.9,5.57c-1.9,3.74-4,7.39-6,11.11s-4.24,7.35-6.54,11c-1.59,2.66-3.34,5.19-5,7.8a167.86,167.86,0,0,1-15.93,20.33c-1.46,1.52-2.93,3-4.43,4.47l-1,.94c-4.2,1-8.3,2.2-12.34,3.57l-.26-.91c-3.83-9-9.87-25.07-13.21-32.63-.41-.95-.78-1.76-1.09-2.42a189.4,189.4,0,0,1,26.78-39.17,207.08,207.08,0,0,1,29.3-27.72,122.84,122.84,0,0,1,16.69-11c1.57-.82,2.65-1.35,3.83-1.86a31.67,31.67,0,0,1,3.6-1.33,16.65,16.65,0,0,1,3.75-.7,5.9,5.9,0,0,1,3.65.83,5.15,5.15,0,0,0-2.54-.56,10.38,10.38,0,0,0-2.51.35,6.93,6.93,0,0,1,4.41.52,3.57,3.57,0,0,1,1.48,1.65,6.06,6.06,0,0,1,.49,2.19A15.1,15.1,0,0,1,326.7,84.78Zm13.89-4.84-.08,1.32-.18,1.35a48.46,48.46,0,0,1-3.14,11l-.48,1-.13.27-.09.17-.18.32.2-.48.32-.82.65-1.66c.44-1.1.77-2.23,1.16-3.34a40.91,40.91,0,0,0,1.51-6.65,23.5,23.5,0,0,0,.1-6.27,17.54,17.54,0,0,0-1.59-5.6A13.36,13.36,0,0,0,335,65.9a14.51,14.51,0,0,0-5.26-2.57,23.71,23.71,0,0,0-12.28.49,44,44,0,0,0-5.32,1.9c-.87.38-1.74.79-2.58,1.18l-2.32,1.19c-2.12,1.17-4.07,2.37-5.84,3.52-3.53,2.32-6.37,4.43-8.3,5.79a236.94,236.94,0,0,0-46,45.39c-4.14,5.56-8.53,11.79-12.72,18.68l-.26-.68.48-.8a202.73,202.73,0,0,1,14.94-21.19,243.42,243.42,0,0,1,30.41-31.69A176.36,176.36,0,0,1,298,73.27c1.59-1.05,3.22-2.06,4.87-3q1.24-.73,2.52-1.44l1.28-.69.67-.35,1-.48A55.07,55.07,0,0,1,316.47,64a29.22,29.22,0,0,1,8-1.38,17.07,17.07,0,0,1,9.4,2.29,13.37,13.37,0,0,1,3.67,3.37,14.69,14.69,0,0,1,2.2,4.3,21.09,21.09,0,0,1,.88,4.81A23.38,23.38,0,0,1,340.59,79.94Z"/></g></g></svg>