<svg xmlns="http://www.w3.org/2000/svg" viewBox="0 0 314.66 486.77"><defs><style>.cls-1{fill:#fff;}.cls-2{fill:#202020;}</style></defs><title>menubox</title><g id="Layer_2" data-name="Layer 2"><g id="Layer_1-2" data-name="Layer 1"><rect class="cls-1" x="2.8" y="3.15" width="308" height="480.73" rx="12" ry="12"/><path class="cls-2" d="M301,486.13c-.68.11-1.14.14-1.44.19a1.23,1.23,0,0,0-.52.17c-.15.12,0,.23-.22.28.6,0,1.07-.08,1.46-.12a8.39,8.39,0,0,0,.86-.2c.41-.12.51-.2.48-.26S300.92,486.08,301,486.13Z"/><polygon class="cls-2" points="312.29 450.95 312.46 451.62 312.04 446.03 312.29 450.95"/><path class="cls-2" d="M312.29,415.47c-.71,3.35.12,12.86-.14,19.18l-.16,1,.58,2.85C312.48,430.86,312.09,420.88,312.29,415.47Z"/><path class="cls-2" d="M313.84,396.55c-.28,1.17-.24-4.09-.09,4.41l.07-.8C313.82,399.4,313.83,398.34,313.84,396.55Z"/><path class="cls-2" d="M313.82,400.16c0,3.74.23-2.44,0,0Z"/><path class="cls-2" d="M313.66,382.91l.25,4.92c.16-1,.2-5.41.32-3.78C314.09,379,313.93,380,313.66,382.91Z"/><path class="cls-2" d="M313.14,378.24l.1,2.55A8.83,8.83,0,0,0,313.14,378.24Z"/><path class="cls-2" d="M313.47,386.2l-.22-5.41a3.79,3.79,0,0,0,.08,2.48C313.11,382.83,313.32,383.9,313.47,386.2Z"/><path class="cls-2" d="M313.36,389.26c-.16,2.76-.25,6.33-.5,1.39C313,400.07,313.46,398.68,313.36,389.26Z"/><path class="cls-2" d="M311.55,413.66l-.21,3.69.24,3.19C311.47,418.95,311.78,413.43,311.55,413.66Z"/><path class="cls-2" d="M314,352.25c-.15-.31-.4,1.65-.6,2l.17,3.64C313.71,356,313.81,352.5,314,352.25Z"/><path class="cls-2" d="M313.43,354.27l-.26-5.44C313.14,353.69,313.26,354.58,313.43,354.27Z"/><polygon class="cls-2" points="312.35 377.36 312.9 386.3 312.34 375.64 312.35 377.36"/><polygon class="cls-2" points="314.05 331.47 314.4 334.56 313.87 329.06 314.05 331.47"/><path class="cls-2" d="M314,317.69c.29,2.28.49-3.13.67-.72-.05-3.74-.3-6.94-.53-9.82C314.26,310.22,314.23,313.48,314,317.69Z"/><path class="cls-2" d="M313.81,302.33c.07,1.53.19,3.11.33,4.83C314.07,305.54,314,303.94,313.81,302.33Z"/><path class="cls-2" d="M313.25,339.57a19.2,19.2,0,0,0,.43-4.28l-.43,2.14C313.25,338.08,313.25,338.82,313.25,339.57Z"/><path class="cls-2" d="M313.24,337.5v-.08l0-4.62Z"/><path class="cls-2" d="M313.24,340.1v-.54A1,1,0,0,0,313.24,340.1Z"/><path class="cls-2" d="M312.73,363.1c-.24-3.2-.49-9.86-.86-3.41C312.17,362,312.38,358.3,312.73,363.1Z"/><path class="cls-2" d="M312.71,342.76l-.1,5.78c.11-.11.28-1.16.4.43Z"/><polygon class="cls-2" points="312.57 339.93 312.71 342.76 312.75 340.62 312.57 339.93"/><path class="cls-2" d="M313.41,312.23c-.19-2.5-.2-5.23-.23-8.31-.08,3.31-.13,6.72-.13,10C313.18,314.34,313.42,315.77,313.41,312.23Z"/><path class="cls-2" d="M313.29,324.51l0-.55C313.23,324.29,313.22,324.57,313.29,324.51Z"/><path class="cls-2" d="M313.18,273.56l-.08.49a1.19,1.19,0,0,1,.07.11Z"/><path class="cls-2" d="M313,314.44a38.85,38.85,0,0,0,.15,5.38c0-1.86-.07-3.83-.07-5.94C313,313.68,312.95,313.64,313,314.44Z"/><path class="cls-2" d="M313.61,293.86c-.09,1.29-.17,2.76-.23,4.3A30.09,30.09,0,0,0,313.61,293.86Z"/><path class="cls-2" d="M313.38,323.12l0,.37C313.49,322.67,313.45,322.77,313.38,323.12Z"/><path class="cls-2" d="M313.38,323.12c-.06-1.28-.17-2.28-.26-3.29,0,1.51.08,2.91.14,4.13C313.29,323.65,313.34,323.34,313.38,323.12Z"/><path class="cls-2" d="M310.43,264.36c.4.44.76,7,.34,12.61.3,5.55,1.6,1.92,2.33-2.92-.17-.17-.33-.17-.57-5.88-.22,2-.51,12.67-.86,7.85-.2-7.56.14-6.2.35-9.87-.49,3.13-.72-9.62-1.44-8l.26,6.63C310.72,264.92,310.54,262.52,310.43,264.36Z"/><path class="cls-2" d="M313.06,284.92l0,2.35c.07-2.68.23-4.6.54-8.13-.19-3.91-.34-4.72-.47-5l-.06,11.57Z"/><path class="cls-2" d="M313.11,297.82c-.43-1.83-.61-7.48-1.08-4,0,6.89.36,4.83.55,9-.11-11.13.24,3.2.48-4.84.07,2.19.1,4.15.11,6,.05-2,.12-3.94.2-5.75l0,.26v.05h0c-.05.48-.09.64-.06.1v-.23a1.69,1.69,0,0,1-.16-.5c.09-3.22.11-.51.16.5,0,0,0,.12.07.14v0l-.24-11.14C313,289.63,313.06,292.58,313.11,297.82Z"/><path class="cls-2" d="M310.95,353.75c0-.35.07-.33.1-.36C311,352.67,311,352.4,310.95,353.75Z"/><path class="cls-2" d="M311.21,349.16a27.09,27.09,0,0,1,.19,4.12c-.13,2.28-.21,0-.35.11.11,1.59.31,5.56.52.58l-.06-.79c.15-4.49.69-10.25.74-9.47A30.29,30.29,0,0,0,311.21,349.16Z"/><path class="cls-2" d="M312,323.17l-.21-9.28-.37,4.73.22-.24C311.6,323.66,311.88,322.52,312,323.17Z"/><polygon class="cls-2" points="313.39 272.5 313.85 273.73 313.2 268.37 313.39 272.5"/><polygon class="cls-2" points="313.34 260.44 313.73 260.88 313.49 257.7 313.34 260.44"/><path class="cls-2" d="M5.18,128.78l.11,2.73C5.25,130.22,5.22,129.39,5.18,128.78Z"/><path class="cls-2" d="M5.2,109l-.2-.48C5.12,109.47,5.2,109.84,5.2,109Z"/><path class="cls-2" d="M266.72.66c-4-.37-8.41-.94-7.93-.5L260,.6C262.78.52,264.91.57,266.72.66Z"/><path class="cls-2" d="M63.86,3.25,65,3.38,67.71,3Z"/><path class="cls-2" d="M61.06,5l-5.24-.28C57,4.86,58.68,5,61.06,5Z"/><path class="cls-2" d="M5.64,236.61l.44,3.18C6.08,234.81,5.85,237,5.64,236.61Z"/><path class="cls-2" d="M313.18,136.91c.17-3.43.24-6.16.26-8.55C313.19,132.49,312.82,135.82,313.18,136.91Z"/><path class="cls-2" d="M.57,121c.08,1.67.17,2.38.26,2.33C.76,121.63.68,120.65.57,121Z"/><path class="cls-2" d="M313.44,118.46l-.1,1.81c.07,2.51.13,5,.1,8.09A67.25,67.25,0,0,0,313.44,118.46Z"/><path class="cls-2" d="M151.75,481.4l.89.05C152.72,481.39,152.33,481.39,151.75,481.4Z"/><path class="cls-2" d="M265.68,485.78c-1.12,0-3,0-4.68,0C261.84,485.84,263.25,485.84,265.68,485.78Z"/><path class="cls-2" d="M313.53,211.91c0,2.56,0,.41,0,0Z"/><path class="cls-2" d="M311.81,224.35a2.22,2.22,0,0,0-.21-1A3.19,3.19,0,0,1,311.81,224.35Z"/><path class="cls-2" d="M310.74,93c0-.08,0-.14,0-.22C310.65,93.52,310.67,93.39,310.74,93Z"/><path class="cls-2" d="M313.33,215.76c.05-1,.1-2.07.13-3.27C313.42,213,313.38,214,313.33,215.76Z"/><path class="cls-2" d="M313.53,215.24l0,2.24C313.56,217.8,313.61,217.51,313.53,215.24Z"/><path class="cls-2" d="M313.5,208.35c0,1.46,0,2.83,0,4.14,0-.5.05-.71.07-.58Z"/><path class="cls-2" d="M4.12,418.13l0,.55C4.26,421.26,4.23,420.13,4.12,418.13Z"/><path class="cls-2" d="M200.15,5.16l.29,0-.38,0Z"/><path class="cls-2" d="M191,5.49a44.71,44.71,0,0,1,9.1-.36l-3-1.25Z"/><path class="cls-2" d="M5.3,176.05l.39-6.45c.64,7.79.42,13.42,1,7.36-1.36-.91-.14-25.08-1.5-26l.29-4.25c0,1.22.07,1.41.05,2.62.65-8.27-1-6.14-.79-16.8.1-3.71.3-6.31.46-3.77l-.34-8.28c0-2.41.26-1.82.24.58L5,108.46l0,.09c-.21-1.8-.54-5.88-.68-7.87.2-3.21.14,1.61.31.79l-.33-7c.35-2.85.69,2.95.64,7.77,1.36-6.53-.34-5.8.45-19.89L5.58,89c.77-4.25.49-9.41,1-16.87C6.3,73.87,5.34,87,5,79.45a76.19,76.19,0,0,0-.12-9c.48,0,.36-4,.34-9l.64.34c-.18-5.41-.51-5-.8-8.16.06-6,.56-7.27,1-8.69.1-9.65-.79,6.66-.92-4.76.24-8,0-13.66-.4-23.26l.08-1.57a2.73,2.73,0,0,1,.1-.58c.06-.16.1,0,.13.32.08.63.18,1.82.26.8l-.06-.62,0-.51a5.58,5.58,0,0,1,0-1,5.75,5.75,0,0,1,.08-1,6.34,6.34,0,0,1,.19-1c.38-.94.43-.55.42-.38.31-.8.51-1.2.59-1.48a4.75,4.75,0,0,0,.12-.57A2.19,2.19,0,0,1,7,8.32a8.07,8.07,0,0,1,2-2A4.6,4.6,0,0,1,11.33,5a9.45,9.45,0,0,1,2.19-.38c.4,0,.83,0,1.26,0l1.52.09a90.81,90.81,0,0,0,13.24.08c2,.18-1,.39-.36.64,11.2-.53,9.6-.38,18.79-1.09l7.83.42c-5.76-.48,1.6-1,8-1.52-2-.23-3.79-.44-5-.53l10.28-.34c1.24.1.21.32-1.48.59l1.88-.15c3.68.24,1.77.61-.86,1L65,3.38c-2.54.39-4.91.82-4.39,1.19.67-.07,2-.14,3.37-.17-.66.11-1.09.2-.78.26a22.57,22.57,0,0,0,3.1-.24l2.34.71.57-.28,13.45.45c9.62-.72,18-1.77,33.26-2.07-3.79.52-.81.85-1,1.47-4.17-.66-11.83.28-19.74.15,4.13.07,3.22.36,2.17.47l14.12-.6c-.32.51,3,.38,6.69.59-2.79-1,10.52-.67,16.27-1,.36.34-1,.68-8,.6,7.73.75,10-1.18,17.58-.54a17,17,0,0,0-3.31.13c4-.3,13.77-.06,11.47.23h-1.71c11.36.12,34.58,0,36.27-.84a6,6,0,0,1-2.18,1.2l20.27-2.86c-1.79.73,5.07,2.47-4.35,2.88,2.7.1,6.05.23,11.75,0-1.85-.1-4.6-1.06-2.08-1.12,6.92.81,4.8.44,13.34,1.13-2.77-.16.31-1.3,4.68-1.27-.68.17.36,1.13-1.23,1.25L237.77,4c-2.72.2-.48,1,2,1.27-1.13-.22,9.41,0,12.3-.09l-4.61-.26c12.28.17,12.13-1.58,24.32-1.52-1.48.23-3.64,1.43,2.55,1.57a143.43,143.43,0,0,1,23.36-3.21l1,.16,1.12.21a13.21,13.21,0,0,1,8.33,3.35,13.86,13.86,0,0,0-5.35-2.33A12.45,12.45,0,0,0,299.11,3c-1.25.13-2.53.32-3.84.47-5.24.65-10.83,1.29-14.78,1.64,4.6.26,1.28.39,8.16.36,2.43.31-3.75.47-5.78.49l16,.2c-.14-.16.38-.31,1.26-.29a8,8,0,0,1,3.22.78c2.34,1,3.86,3.22,4,2.82a10.18,10.18,0,0,0-6-3.87,5.27,5.27,0,0,0-.88-.14,6.12,6.12,0,0,0-.89-.06c-.32,0-.55,0-.93,0l-1.09,0-4.35.17c-.38-.32,2.22-.84,6.13-1.17a9.9,9.9,0,0,1,6.1,1.66,10.46,10.46,0,0,1,4.4,6.18c.12.68,0,.9-.11.87s-.34-.32-.59-.66c-.46-.69-1.14-1.49-1.2-1.35a6.69,6.69,0,0,1,.77,1.78,8.85,8.85,0,0,1,.29,1.48l.07.83,0,1c.06,2.64.07,5.23,0,5.75l-.36-4.82c-.25,6.32.89,10.32.25,17.91,0,2.62-.87,7.83-.47,8.28.77-4.28,3.14-5.11,3.72-2.26-.05.92-.73,13.77-1.11,16.76-.6,4.32-1.43-6.48-2-2.81a18.55,18.55,0,0,1,.48,3.54c-.16,2.75-.57-1.14-.49,4.84.68,1-.06,12.17.58,2.83.19,5.85-.14,6.22-.11,13.09.44-2.19,1.5,6.17,1.69,12-.17-.35-.4,1-.5,1.61-.06,12-.37,18.44-.38,29.62-.16,1-.36,6.43-.66,4.13.12,1.61.35,3.09.37,6.54-.59,6.68-.09-7.69-.8-2.6.4.43.55,8.92.79,13.84.61-1.51.12-11.35-.13-16.28.84,0,1.73,8.54,2.12,20.24.21,9.29-.55,4-.43,5.64-.15,17.45,1.47,14.87.86,29.36-.54,5.75-1.07.26-1.46,1.53-.2-7.57.34-11.62.32-16.75l-.25,6.32c-.18-2.41-.31-7.46-.16-10.21-.48,4.82-.09,29.49-.54,43,.18,2.39.37,6.52.58,4.57l-.07-4.26c.43-3.92.6,8,.8,2.63.3,5.72.78,12.12.54,20.17l-.61,1.51a43.58,43.58,0,0,0,.18-7.52c.27,3.35-.83,12.34,0,16l.42-5.64c.31,5.74,1,12.83.77,20,.61-3.25-.07-1.64.64-6.71-.88,4.39,0-18.24-.89-11.19.82-5.2.35-9,1-15.8-.2.21-.39,2.41-.29-3.58-.06-.27-.13-.91-.18-1.31l0-.4,0,.33c0-.26,0-.28,0,.12a24.94,24.94,0,0,1-.31,3.05c-.46-3-.45-12.49-.69-15.71.1-3.55.23,1.49.45-.45l-.36-4.81c.45-.48.75-9.44,1-1.07l0-7.53c.25-4.43.35-10.53.16-14.3.1-3.55-.5-9-.15-5.88l-.28-11.81.11-.11c.06-11.65-.74-24,.07-37.32-.11-3.92-.25-8-.12-14.54l.39-1.28c-.14-5,.39-15.13,0-17.29,1-5.43.23-24.45.41-33.31l-.51-.33c0-6.1-.12-11.95-.32-19.52l-.45.47c-.18-3.26-.1-7.46,0-12.13l.18-7.32a13.68,13.68,0,0,0-2.84-8.43,7.6,7.6,0,0,1,1.46,2.1,12.3,12.3,0,0,1,1.13,3.4,13.33,13.33,0,0,0-6.1-9.18,13.82,13.82,0,0,0-5.41-2,10.28,10.28,0,0,0-1.44-.13c-.48,0-1,0-1.35,0L296,.83c-6.36.22-12.58.47-18.17.1a54.75,54.75,0,0,1-6.76,0l.69,0h-1.14L266.72.66c1.17.11,2.28.2,3.26.24-2.15,0-5.41.06-8.61.18L260,.6h-.74c-3.14-.18-2.52.23-.85.59-1.61.08-3.08.17-4.23.29-2.55-.78-8.38.26-11.86-.57-2.15.4-16.07.3-17.77,1.16-.11-.11-1.05-.16.67-.17-3.56-.1-7.12-.19-10.32,0l-1.51-.61-7.78.82c-4.73-.37-6.69-.59-2-1.06-11.33.73-9.19.27-18.83,1l.47-.4c-3.44,0-9,.55-11,.22-7.71-.75-38.13-.1-57.91-.8,3.84,1.17-9.19-.52-10,.38-1.15-.28-3.91-.43-.71-.67-10.09.27-15.17-.44-22.14.32C82.36.87,85.67.74,84.65.58a26.39,26.39,0,0,1-4.26.07c-1-.16,1.48-.23,3.08-.35C73.15.35,72.11,1.2,71.36,2a48.3,48.3,0,0,0-11.61.2c-1.82-.26-4.85-.53,1.55-.63-3.6,0-22-.38-22.39.26a50.42,50.42,0,0,0-6,0c-8.09,0-8.8-.1-16.74,0l2.2.1a13.74,13.74,0,0,1-2.45.35c-.84.06-1.83,0-2.93.17a12.49,12.49,0,0,0-3.56.94A11.63,11.63,0,0,0,5.65,6l.09-.19A12.36,12.36,0,0,0,2.79,9.73a12.22,12.22,0,0,0-1,3c-.07.41-.13.77-.16,1.1l0,.89c0,.55,0,.9,0,1.3.06,1.56.1,3.1-.21,10.34l.48-.79c1,1.35-.61,12.83-.21,21.24l.27-3C2.28,48.38.53,56.62.4,61.23c-.09,1-.14-1.59-.21-3C-.42,70.32.82,59.81,1,68.8.62,70.46.1,66.67,0,72.72c-.27,3,1.1,17.56.45,25.82.26-1.82.52-3.63.72.55.09,6.4-1,17.31-.16,23.1C1,123,.9,123.31.84,123.34c.21,4.9.35,15.91.8,18.86-1.66,4.52.81,30.43-.72,30.32L1,187.58l-.16-.39a117,117,0,0,0,.63,16.41c-.1,2.22-.25.6-.33.42-.31,14.06-.24,15.46.52,27.25l-.5,1.23c.29,3.2-.78,20.33-.2,34.13a4.88,4.88,0,0,1-.22-1.52c.58,15.52-1.37,37.15.43,42.84l.44,10.24c.14-13.25.78,2,1.08-3.48.11,5.21-.54,13.47-.64,7.07l.09-1c-.94-2.35-.33,16.46-1,16.11,0,26.07-.47,51.48-.51,75.9L1.4,410l0,8.52c-.17,2.24-.57,3-.54-3.08a47.71,47.71,0,0,0,.51,10.37c-.3,11.9-.85-4.65-.87-1l.05,5,.09-1.12a87.68,87.68,0,0,1,.58,11.68c-.15,4.62-.45,2.37-.48,4.19,0,0,0,.15-.05.57s0,1.13,0,2.22L.61,458l.58-4.29c.28,4.76,0,10.09.62,5.14-.25,1.82-.4,5.23-.49,9.39l-.05,3.25c0,.54,0,1.25.07,1.88a13.59,13.59,0,0,0,.36,1.94,13.54,13.54,0,0,0,11.44,10,18.58,18.58,0,0,0,1.86.11h4.64c3.81,0,6.7,0,7.81.1,6.66-.42,13.24-.41,21.39-.36-2-.12-3.24-.77,3.79-.69-2.57,1.34,12.87.58,18.55,1.55-5.08-.64,20-.16,12-1.07,5.86.11.36.5,4.8.82,14-.52,30.75.34,48,.16.27-.18-2.62-.44,1.08-.71l9.11.88c3.41-.09,3.14-1,9.36-.4-.88-.15-2.19-.37.09-.43,33.79.86,69-.7,103.37.91-4.65-.34-1.55-.37,2-.39-2.31-.08.05-.43-.4-.67l14.37.66c2.62-.66,15.4,0,16.9-.68l-4.55.11c6.05-.75-8.47-1.66-7.58-2.62-6.77.85-17.86-1.26-29,0-2.45-.2,2.09-.31.78-.53a73.67,73.67,0,0,1-12.53.31l.71-.1c-17.71.1-25.31-.3-45.21-.57l1.47.47c-4.28-.06-5.18-.21-7.18-.33-4.91.72,12,0,7.54.83-5.67-1-30.16,0-34-1.11-6.58,0,1.93.55-4.65.54l-1.74-.3-1.66.38c-4.31-.06-6.49-.43-6.65-.68,1,0,3-.07,4.1-.09-5.59-.35-15.77.12-17.69,0l6.32.18c-18,.28-39.88-.11-57.22.49l1.32.22c-13.25.41-10.61-.25-25.15-.05l.53-.05c-2.91.22-6.8.34-10.78.31,3.67-.26-6.91-.51-2.09-.8-14.36.44-7.1.35-16.59,1.18l-2.19-.37a76.54,76.54,0,0,1-10.77.61c6-.32-4.64-.56,2-1L16.71,482l-1.32,0-.63,0-.53,0a10.8,10.8,0,0,1-3.78-1,10.68,10.68,0,0,1-4.76-4.43,9.78,9.78,0,0,1-1-2.62,9.14,9.14,0,0,1-.18-1.3l0-.64v-.72a35.14,35.14,0,0,1,.44-5.44c-.51-3.5-.66-.2-.7,3.48V472c0,.38,0,.75.06,1.09l.14.91c.26,1.05.37,1.51.1.69.09.73.08.79-.16.43-.09-.19-.22-.5-.36-.9a10,10,0,0,1-.31-1.47l-.09-.9,0-1-.06-2.18c0-1.47,0-2.93,0-4.13,0-4.87,1.31-8.28,1.29-20.53,0,1.22.07,1.3.07,2.52.26-4.58-.35-9,.07-14.6-.62-3.15,0-7.3-.76-8.21l.18,11.24c-.21-6.37-1.13-12.34-.68-22.83.16.82.37,3.94.49,6.08.23-3.07-.15-5.91.09-9.09.79.91.17,13.65.78,20.48.33-3.29-.57-12.91.28-9.48-1.09-4.93.14-12.07-.7-20.36l.47.55c-.07-1.31-.3-4-.29-6.45l.62,4.37c-.52-6.71.46-12.95.17-19.39,0,13.49-.57,3-.92,8.73-.64-16.63,1.24-9.56,1-28.19.07,2.52-.28,9.46-.5,5.52.1-3.54.28-8.23.53-10.4-.1-12.34-.49,1.89-.78-3.36.58-4.2-.24-6.06-.42-11.47l.48,0c.31-14.06-1-3.73-.63-16.39L5,328.53l-.17-6.6.55,1.36a161.18,161.18,0,0,1-.15-16.45c-.34,1.63-.87-.92-.89-7.15.29-4.25.46,2.38.39-6.45a26.21,26.21,0,0,1,.24,8c.16.39.3,2,.46,2.37.33-4.57.07-11.49.07-14.69,0,1.23,0,2.7-.11,3.46l-.67-12.8c.18-2,.33-.42.47,1.17-.05-2.59-.27-4.39-.32-8.2.39,1,.8.75,1,6.14l-.44-12.19c.17-.81.47-6.26.61-4.67.23-6.76-.76-16.58-.46-25.54a30,30,0,0,1-.2-3.31c.09-8.42.57-15.88,0-25.87l.7-5.66c-.16-7.82-.89,7.67-1.15-5.35-.22-9.22.6-3.44.79-6.67a142,142,0,0,1-.5-21C5.35,171.24,5.25,173.43,5.3,176.05ZM5,79.63c.1,1.87.41,5.59.13,7C4.57,84.46,4.83,82.82,5,79.63ZM78.06,4.18a36.07,36.07,0,0,1-6-.1C73.85,4,75.85,4.05,78.06,4.18ZM313.13,183.87l0-.2C313.3,179.51,313.22,181,313.13,183.87Zm-.21,8.65c.07.87.13.81.2.44a37.52,37.52,0,0,1-.1-4.76A19.53,19.53,0,0,0,312.92,192.53ZM.87,445.45,1,443.77C1.13,447.57,1,446.51.87,445.45Z"/><path class="cls-2" d="M61.44,4.84a1.58,1.58,0,0,1-.8-.26C59.9,4.66,59.89,4.75,61.44,4.84Z"/><path class="cls-2" d="M5.56,236v.29a.92.92,0,0,0,.09.3Z"/><path class="cls-2" d="M308.83,58.47c.07-1.78.16-2.77.25-3.44C309,54.94,308.87,55.75,308.83,58.47Z"/><path class="cls-2" d="M313.74,238.39l-.13-5.54c0,2.68-.08,3.64-.16,5C313.57,237.71,313.74,236.65,313.74,238.39Z"/><path class="cls-2" d="M310.76,286.5c.06.81,0,1.72.07,2.52l.22-.22C311,285.34,310.85,282.93,310.76,286.5Z"/><path class="cls-2" d="M312.14,243.52c-.41.44-.27,3.92-.19,7.8v-.69C312.52,251.77,312.33,247.64,312.14,243.52Z"/><path class="cls-2" d="M312,252.22c0,1.2,0,2.42,0,3.59C312.2,256.26,312,254.35,312,252.22Z"/><path class="cls-2" d="M313.19,203.5c-.1,1.84.52,1.16.35,2.2C314.06,207.76,312.92,193.42,313.19,203.5Z"/><polygon class="cls-2" points="310.8 246.66 311.31 245.27 310.9 243.09 310.8 246.66"/><path class="cls-2" d="M311.17,216l-.14,6.2c.08-.09.13.69.17,1.66C311.22,220,311.32,215.86,311.17,216Z"/><path class="cls-2" d="M311.2,223.87c0,2,0,3.89.08,5C311.28,227.78,311.27,225.47,311.2,223.87Z"/><polygon class="cls-2" points="310.65 238.18 310.76 236.34 310.8 231.96 310.65 238.18"/><path class="cls-2" d="M311.27,149.3l-.14-6.77c-.17-.69-.28,1.16-.21,3.68C311,147.83,311.1,150.34,311.27,149.3Z"/><path class="cls-2" d="M309.9,169.78a18.05,18.05,0,0,1,.38-3l-.62-.21Z"/><path class="cls-2" d="M309.75,150c-.17-.67-.49-9.83-.46-1.24C309.47,149.48,309.61,156.26,309.75,150Z"/><polygon class="cls-2" points="310.54 48 310.55 49.73 311.56 49.48 310.54 48"/><path class="cls-2" d="M260.56,5.85c8,.24,1.91-.63,9.16-.32,1.88-.24-5.93-.25-4-.46C260.88,5.33,258.33,5.18,260.56,5.85Z"/><path class="cls-2" d="M265.72,5.07l2.47-.15C266.79,5,266.13,5,265.72,5.07Z"/><polygon class="cls-2" points="284.58 486.32 289.74 486.54 286.41 486.19 284.58 486.32"/><path class="cls-2" d="M294.49,485.57l1.22.65,3.1-.59A34.57,34.57,0,0,1,294.49,485.57Z"/><path class="cls-2" d="M6.3,65.3l-.16-.39a27.83,27.83,0,0,0-.21,4.43Z"/><polygon class="cls-2" points="5.81 135.28 5.83 134.08 5.24 136.33 5.81 135.28"/><path class="cls-2" d="M6.56,194c0-2.4-.11-5.21-.08-7.62C6.59,191.62,5.83,194.66,6.56,194Z"/></g></g></svg>