<svg xmlns="http://www.w3.org/2000/svg" viewBox="0 0 83.45 84.9"><defs><style>.cls-1{fill:#932929;stroke-width:0.5px;}.cls-1,.cls-2{stroke:#000;stroke-miterlimit:10;}.cls-2{fill:#fff;stroke-width:0.25px;}</style></defs><title>btnBlanket</title><g id="Layer_2" data-name="Layer 2"><g id="Layer_1-2" data-name="Layer 1"><path class="cls-1" d="M22.92,7.63S2.42,31.13.25,31.46V67.13S17,68.62,20,72.62s10.42,3.68,10.42,3.68,7,11.83,8.67,7.33,3.67-12.17,7-11,13.5-16.33,16.83-15.83S74.25,46.13,74.25,46.13L81.42,39V31.13l-9.83-7.67S55.25,16,54.42,16s-14.5-6-14.5-6L26.52,6.63Z"/><path class="cls-2" d="M28.25.13S39.92,1,43.92,4.79s12,9.67,13.5,9.67,11.5-1,13.67.83,5.17.5,7.17,2.67,5.67,8.47,5,9.9-5.17,5.76-6,5.93-10.5-9-19.17-7S46.92,17,41.42,16.13s-11.5-.82-14.17-2.83-4.17-3.51-6.67-2.51S24.08,1.29,28.25.13Z"/></g></g></svg>