<svg xmlns="http://www.w3.org/2000/svg" viewBox="0 0 204.98 92.96"><defs><style>.cls-1,.cls-2{fill:#b5b4b4;}.cls-1,.cls-2,.cls-3,.cls-4{stroke:#000;stroke-miterlimit:10;}.cls-1{stroke-width:0.5px;}.cls-2{stroke-width:0.52px;}.cls-3{fill:#002929;}.cls-3,.cls-4{stroke-width:0.56px;}.cls-4{fill:#00fff2;}</style></defs><title>btnCar</title><g id="Layer_2" data-name="Layer 2"><g id="Layer_1-2" data-name="Layer 1"><g id="car"><circle cx="53.2" cy="74.73" r="18.23"/><path class="cls-1" d="M53.21,86A11.23,11.23,0,1,1,64.44,74.73,11.25,11.25,0,0,1,53.21,86Z"/><circle cx="146.6" cy="73.77" r="19.19"/><path class="cls-2" d="M146.6,86a12.19,12.19,0,1,1,12.19-12.19A12.2,12.2,0,0,1,146.6,86Z"/><path class="cls-3" d="M62,5.36C54.64,9.8,54,29.92,42,34.25S3.64,50.41,1.8,56.49.3,76.58.3,76.58H35.64S35.64,63,53.3,62.31s18,14.27,18,14.27h53.33S127,60.41,147.3,59.49s22,17.09,22,17.09h35.33S208.3,2.58,159,.92,69.3.92,62,5.36Z"/><path class="cls-4" d="M42,38.43H58.63s9.94-28.18,12.8-29.85-12.55,0-12.55,0S51.1,30.64,42,34.25Z"/><polygon class="cls-4" points="75.31 7.84 64.14 38.43 98.64 38.43 98.64 7.84 75.31 7.84"/><polygon class="cls-4" points="108.64 6.1 108.64 38.43 146.6 38.43 146.6 5.36 108.64 6.1"/><path class="cls-4" d="M152.3,6.1V38.43h35.33S182.94,6.29,165.79,6.1,152.3,6.1,152.3,6.1Z"/><path class="cls-4" d="M177,7.84s17.33,11.11,19,30.59H200S189,6.77,177,7.84Z"/></g></g></g></svg>