<svg xmlns="http://www.w3.org/2000/svg" viewBox="0 0 14.48 27.98"><defs><style>.cls-1{fill:none;stroke:#000;stroke-miterlimit:10;stroke-width:0.25px;}</style></defs><title>btnDrmCatch</title><g id="Layer_2" data-name="Layer 2"><g id="Layer_1-2" data-name="Layer 1"><ellipse class="cls-1" cx="7.18" cy="10.75" rx="6.83" ry="10.62"/><line class="cls-1" x1="7.18" y1="21.23" x2="7.18" y2="27.98"/><line class="cls-1" x1="13.72" y1="14.78" x2="13.72" y2="23.02"/><line class="cls-1" x1="0.59" y1="14.79" x2="0.59" y2="23.03"/><line class="cls-1" x1="3.57" y1="2.28" x2="14.02" y2="10.75"/><line class="cls-1" x1="4.66" y1="0.5" x2="14.15" y2="8.19"/><line class="cls-1" x1="6.54" y1="0.12" x2="13.38" y2="5.67"/><line class="cls-1" x1="2.47" y1="4.04" x2="13.56" y2="13.03"/><line class="cls-1" x1="1.5" y1="5.99" x2="13.03" y2="15.34"/><line class="cls-1" x1="0.98" y1="8.27" x2="12.3" y2="17.44"/><line class="cls-1" x1="0.41" y1="10.55" x2="10.86" y2="19.01"/><line class="cls-1" x1="0.08" y1="12.78" x2="9.99" y2="20.81"/><line class="cls-1" x1="0.82" y1="15.34" x2="8.3" y2="21.23"/><line class="cls-1" x1="10.91" y1="2.36" x2="0.47" y2="10.82"/><line class="cls-1" x1="9.82" y1="0.57" x2="0.33" y2="8.26"/><line class="cls-1" x1="7.94" y1="0.2" x2="1.1" y2="5.74"/><line class="cls-1" x1="12.02" y1="4.11" x2="0.92" y2="13.1"/><line class="cls-1" x1="12.99" y1="6.06" x2="1.45" y2="15.41"/><line class="cls-1" x1="13.5" y1="8.34" x2="2.19" y2="17.51"/><line class="cls-1" x1="14.41" y1="12.85" x2="4.5" y2="20.88"/><line class="cls-1" x1="13.66" y1="15.41" x2="6.18" y2="21.3"/></g></g></svg>