<?xml version="1.0" encoding="utf-8"?>
<!-- Generator: Adobe Illustrator 20.0.0, SVG Export Plug-In . SVG Version: 6.00 Build 0)  -->
<svg version="1.1" id="Layer_1" xmlns="http://www.w3.org/2000/svg" xmlns:xlink="http://www.w3.org/1999/xlink" x="0px" y="0px"
	 viewBox="0 0 121.6 273.5" style="enable-background:new 0 0 121.6 273.5;" xml:space="preserve">
<style type="text/css">
	.st0{fill:#932929;stroke:#450000;stroke-width:0.5;stroke-miterlimit:10;}
	.st1{fill:#FFFFFF;}
	.st2{fill:#FFD0A9;stroke:#000000;stroke-width:0.75;stroke-miterlimit:10;}
	.st3{fill:none;stroke:#000000;stroke-width:0.25;stroke-miterlimit:10;}
	.st4{fill:none;stroke:#000000;stroke-width:0.5;stroke-miterlimit:10;}
	.st5{fill:#00E7FF;stroke:#000000;stroke-width:0.25;stroke-miterlimit:10;}
	.st6{fill:#195858;stroke:#000000;stroke-width:0.25;stroke-miterlimit:10;}
	.st7{fill:#8CAD4A;stroke:#000000;stroke-width:0.5;stroke-miterlimit:10;}
	.st8{fill:#688927;stroke:#000000;stroke-width:0.5;stroke-miterlimit:10;}
	.st9{fill:#932929;stroke:#000000;stroke-width:0.25;stroke-miterlimit:10;}
	.st10{fill:url(#SVGID_1_);stroke:#000000;stroke-width:0.25;stroke-miterlimit:10;}
	.st11{fill:url(#SVGID_2_);stroke:#000000;stroke-width:0.25;stroke-miterlimit:10;}
	.st12{fill:#F91C06;stroke:#000000;stroke-width:0.5;stroke-miterlimit:10;}
</style>
<title>objGirl2v1</title>
<g id="Layer_2">
	<g id="Layer_1-2">
		<path class="st0" d="M36,181.5l-14.1,68.6c0,0,27.3,25.6,55.3,22.9s31.3-18,31.3-18l-15.5-70.1C93.1,184.9,56.1,195.4,36,181.5z"
			/>
		<polygon class="st1" points="37.6,102.2 66.2,146.2 87.3,88.9 46.6,76.5 		"/>
		<path class="st2" d="M30.2,52.3c0,0,5.3,12.7,5,14s19.3,12.3,22,11.5s14.7-12.7,14.7-12.7l11-15c0,0,2.8-6.7-3.4-6.7
			s-2.6,7.4-2.6,7.4S89.2,24.7,62.5,18S14.9,19.4,30.2,52.3z"/>
		<path class="st3" d="M39.5,38.7c0,0-2,8.2-9.3,11.5"/>
		<path class="st3" d="M52.9,34.2c0,0,12.3,6.5,18.7,4.5"/>
		<path class="st1" d="M58.5,42.7c0,0,3.4,10.4,5.2,10.6l4.9-1.1c0,0,3.2-9.8,2-10.1S59.1,38.9,58.5,42.7z"/>
		<path class="st1" d="M34.9,55.2l3.5,4.9l5.4-0.5c0,0,0.8-9.6-1.7-12s-8.4,4.6-8.4,4.6L34.9,55.2z"/>
		<path class="st3" d="M34,54.4l-0.8-1.3c1.6-3.4,5.1-5.5,8.8-5.4"/>
		<path class="st3" d="M58.5,42.7c0,0,5.8-4.8,12.2-0.6v1.5"/>
		<polyline class="st4" points="49.1,62.5 49.1,63.4 49.5,63.9 		"/>
		<path class="st5" d="M67.8,59c0,0-1.6,4.4,0.5,6C70.4,66.6,70.8,62.4,67.8,59z"/>
		<path class="st6" d="M94.6,95.9c0,0-7.1,16.2-6.9,18.9s11.4,59,14.9,60s8.9-0.8,8.9-0.8l10-9.9c0,0-17.1-50.5-16.9-52.4l-2,2.2
			c2.5-4.1,3.2-9.1,2-13.8c-2-7.9-7.7-9.1-7.7-9.1L94.6,95.9z"/>
		<path class="st6" d="M33.2,109.4l1.5,22v30.9l-2.5,16.5c0,0,18.8,15.1,34.4,14.4c9.4-0.5,18.5-3.3,26.5-8.2v-19.2l-3.6-16.4
			l-3.9,7.5l5.1-10.5l4.9-14.8l-2-27l5.1-12.2l-9.8-5.8l-21.6-1.8l-13,25.5L47,87.4l-9.3,7.4c0,0-7,3.9-6.4,6.2
			S33.2,109.4,33.2,109.4z"/>
		<path class="st6" d="M30.2,102.1c0,0-5.5,6.4-6.4,7s4.2,25.4,2.5,28.6c0,0-10.5,34.9-12.4,35.4c0,0,12.5,17,20.1,13.9l4.5-47.6
			l-2.6-9c0,0,1.8-21.5,0-24.6l0.8-7.1h-3.5L30.2,102.1z"/>
		<path class="st7" d="M78,68.5c0,0,2.8,89.4-6.5,98.4c4.2,2.1,22.6,11.3,22.6,12.8c0,0,5.3-76.4-4.9-93.8S78,68.5,78,68.5z"/>
		<path class="st8" d="M40.7,74.3c0,0-2.2,19.1-5.8,21.8c0,0,17-5.5,21.7-4.3s19.5,0.8,28.8-13.2c0,0-5.6-12.6-8.5-14.8L56.2,75
			L40.7,74.3z"/>
		<path class="st9" d="M79.2,21c2.3,4.7-1,37.3-1,37.3l-3.3,8c-2,1-1,18-1,18c2.7,2,7,18.3,7,18.3l-2.7-2.2v9.8
			c-3.7-1.4-6-18.4-6-18.4l-1,5c-8-21.1,5-35.5,5-35.5l-3-1.3c3.3-1.3,0-38.1,0-38.1v21.4c-10.7-1.3-14-19-14-19
			c-1,6.1,9.3,17.4,9.3,17.4C63.9,42,55.9,31.5,55.9,31.5c-1,2.1,2,7.2,2,7.2c-2,0.3-3.3-4.5-3.3-4.5c-1.3,0.5,3.3,12.1,3.3,12.1
			C54.2,47,46.2,31.5,46.2,31.5c-2.3,1.5,4.3,11.9,4.3,11.9C41.9,40.5,37.2,18,37.2,18v4.3c-6,3.3,0,19,0,19c-1.3,0-3.7-7.1-3.7-7.1
			c-1.3,1.5,1.7,12.5,1.7,12.5c-8-12.3-5-19-5-19c-1.3,0,0,22.4,0,22.4c-9-14.5-5.7-25.7-5.7-25.7c-2.7,1.1,2,18.3,2,18.3
			C26.3,50.1,26.3,72,26.3,72c-3.7,0-6.1-26.8-6.1-26.8c-1.3,0.7-2,9.8-2,9.8c-3-1.6-2-20.9-2-20.9c-2.3,1.2-3,15.9-3,15.9
			c-6-11.5,0-25.7,0-25.7c-6,0.7-13,25.7-13,25.7c-1.3-15.2,13-30.5,13-30.5s6-7,14.7-8l-2.3,7c0,0,7.7-23.3,35.3-17.6
			s33,21.7,33,21.7s9.3,26,0,61.7l4.1,7.5l-7.2-4.3c0.1,0.2-10.2-15.4-10.7-17.7c-0.3-1.5-3.7-3.5-3.7-3.5S81.6,28.7,79.2,21z"/>
		
			<linearGradient id="SVGID_1_" gradientUnits="userSpaceOnUse" x1="64.94" y1="227.02" x2="64.94" y2="232.01" gradientTransform="matrix(1 0 0 -1 0 276)">
			<stop  offset="0" style="stop-color:#00FFFF"/>
			<stop  offset="0.23" style="stop-color:#00C6E3"/>
			<stop  offset="0.76" style="stop-color:#0046A3"/>
			<stop  offset="1" style="stop-color:#00128A"/>
		</linearGradient>
		<circle class="st10" cx="64.9" cy="46.5" r="2.5"/>
		
			<linearGradient id="SVGID_2_" gradientUnits="userSpaceOnUse" x1="39.55" y1="219.84" x2="39.55" y2="224.83" gradientTransform="matrix(1 0 0 -1 0 276)">
			<stop  offset="0" style="stop-color:#00FFFF"/>
			<stop  offset="0.23" style="stop-color:#00C6E3"/>
			<stop  offset="0.76" style="stop-color:#0046A3"/>
			<stop  offset="1" style="stop-color:#00128A"/>
		</linearGradient>
		<circle class="st11" cx="39.5" cy="53.7" r="2.5"/>
		<line class="st3" x1="63.7" y1="53.3" x2="68.1" y2="52.3"/>
		<line class="st3" x1="38.3" y1="60.1" x2="43.8" y2="59.6"/>
		<circle cx="64.9" cy="46.5" r="0.7"/>
		<circle cx="39.5" cy="53.7" r="0.7"/>
		<path class="st12" d="M50.4,71.4c0,0-4.7-1.9-2.1-3.5c2.3-1.4,5.7-1.2,7.2-0.9c1.9,0.4,0.3,4,0.3,4"/>
	</g>
</g>
</svg>
