<?xml version="1.0" encoding="utf-8"?>
<!-- Generator: Adobe Illustrator 21.1.0, SVG Export Plug-In . SVG Version: 6.00 Build 0)  -->
<svg version="1.1" id="Layer_1" xmlns="http://www.w3.org/2000/svg" xmlns:xlink="http://www.w3.org/1999/xlink" x="0px" y="0px"
	 viewBox="0 0 121.6 273.5" style="enable-background:new 0 0 121.6 273.5;" xml:space="preserve">
<style type="text/css">
	.st0{fill:#932929;stroke:#450000;stroke-width:0.5;stroke-miterlimit:10;}
	.st1{fill:#FFFFFF;stroke:#000000;stroke-miterlimit:10;}
	.st2{fill:#FFD0A9;stroke:#000000;stroke-width:0.75;stroke-miterlimit:10;}
	.st3{fill:none;stroke:#000000;stroke-width:0.25;stroke-miterlimit:10;}
	.st4{fill:#FFFFFF;}
	.st5{fill:#ED3C14;stroke:#000000;stroke-width:0.5;stroke-miterlimit:10;}
	.st6{fill:none;stroke:#000000;stroke-width:0.5;stroke-miterlimit:10;}
	.st7{fill:url(#SVGID_1_);stroke:#000000;stroke-width:0.25;stroke-miterlimit:10;}
	.st8{fill:url(#SVGID_2_);stroke:#000000;stroke-width:0.25;stroke-miterlimit:10;}
	.st9{fill:#020202;}
	.st10{fill:#195858;stroke:#000000;stroke-width:0.25;stroke-miterlimit:10;}
	.st11{fill:#8CAD4A;stroke:#000000;stroke-width:0.5;stroke-miterlimit:10;}
	.st12{fill:#688927;stroke:#000000;stroke-width:0.5;stroke-miterlimit:10;}
	.st13{fill:#932929;stroke:#000000;stroke-width:0.25;stroke-miterlimit:10;}
	.st14{fill:#144443;}
	.st15{fill:#00FFFF;}
</style>
<title>objGirl1v1</title>
<g id="Layer_2">
	<g id="Layer_1-2">
		<g id="chapter1_middle">
			<g id="girl">
				<path class="st0" d="M36,181.5l-14.1,68.6c0,0,27.3,25.6,55.3,22.9s31.3-18,31.3-18L93,184.9C93.1,184.9,56.1,195.4,36,181.5z"
					/>
				<polygon class="st1" points="43.4,102 53.5,124.1 67.7,106.5 73.4,77.9 46.5,80.1 				"/>
				<path class="st2" d="M30.2,52.3c0,0,5.3,12.7,5,14s19.3,12.3,22,11.5s14.7-12.7,14.7-12.7l11-15c0,0,2.8-6.7-3.4-6.7
					s-2.6,7.4-2.6,7.4S89.2,24.7,62.5,18S14.9,19.4,30.2,52.3z"/>
				<path class="st3" d="M39.5,38.7c0,0-2,8.2-9.3,11.5"/>
				<path class="st3" d="M52.9,34.2c0,0,12.3,6.5,18.7,4.5"/>
				<path class="st4" d="M58.5,42.7c0,0,3.4,10.4,5.2,10.6l4.9-1.1c0,0,3.2-9.8,2-10.1S59.1,38.9,58.5,42.7z"/>
				<path class="st5" d="M51.4,69c-3.3-2.8,4.8-4.6,4.2-0.7"/>
				<path class="st4" d="M34.9,55.2l3.5,4.9l5.4-0.5c0,0,0.8-9.6-1.7-12s-8.4,4.6-8.4,4.6L34.9,55.2z"/>
				<path class="st3" d="M34,54.4l-0.8-1.3c1.6-3.4,5.1-5.5,8.8-5.4"/>
				<path class="st3" d="M58.5,42.7c0,0,5.8-4.8,12.2-0.6v1.5"/>
				<polyline class="st6" points="49.1,62.5 49.1,63.4 49.5,63.9 				"/>
				
					<linearGradient id="SVGID_1_" gradientUnits="userSpaceOnUse" x1="39.6857" y1="575.77" x2="39.6857" y2="564.2093" gradientTransform="matrix(1 0 0 1 0 -516)">
					<stop  offset="0" style="stop-color:#00FFFF"/>
					<stop  offset="0.23" style="stop-color:#00C6E3"/>
					<stop  offset="0.76" style="stop-color:#0046A3"/>
					<stop  offset="1" style="stop-color:#00128A"/>
				</linearGradient>
				<path class="st7" d="M40.6,48.4c0,0,3.6,5.9,2.6,11.4h-2.6c-3-2.3-4.7-5.9-4.6-9.6C36,50.1,37.8,47.5,40.6,48.4z"/>
				
					<linearGradient id="SVGID_2_" gradientUnits="userSpaceOnUse" x1="64.8124" y1="569.26" x2="64.8124" y2="556.26" gradientTransform="matrix(1 0 0 1 0 -516)">
					<stop  offset="0" style="stop-color:#00FFFF"/>
					<stop  offset="0.23" style="stop-color:#00C6E3"/>
					<stop  offset="0.76" style="stop-color:#0046A3"/>
					<stop  offset="1" style="stop-color:#00128A"/>
				</linearGradient>
				<path class="st8" d="M61.3,42c0,0,0.5,10.2,3.2,11.3l3.2-1.3c0,0,1.7-10.6-0.5-11.4S61.2,40.5,61.3,42z"/>
				
					<ellipse transform="matrix(0.9887 -0.1501 0.1501 0.9887 -6.1499 10.3228)" class="st9" cx="65.3" cy="45.9" rx="0.8" ry="3.2"/>
				<ellipse transform="matrix(0.9453 -0.3262 0.3262 0.9453 -15.4283 16.0037)" class="st9" cx="40" cy="54" rx="0.5" ry="2.9"/>
				<path class="st10" d="M94.6,95.9c0,0-7.1,16.2-6.9,18.9s11.4,59,14.9,60s8.9-0.8,8.9-0.8l10-9.9c0,0-17.1-50.5-16.9-52.4l-2,2.2
					c2.5-4.1,3.2-9.1,2-13.8c-2-7.9-7.7-9.1-7.7-9.1L94.6,95.9z"/>
				<path class="st10" d="M33.2,109.4l1.5,22v30.9l-2.5,16.5c0,0,18.8,15.1,34.4,14.4c9.4-0.5,18.5-3.3,26.5-8.2v-19.2l-3.6-16.4
					l-3.9,7.5l5.1-10.5l4.9-14.8l-2-27l5.1-12.2l-9.8-5.8l-21.6-1.8l-13,25.5L47,87.4l-9.3,7.4c0,0-7,3.9-6.4,6.2
					S33.2,109.4,33.2,109.4z"/>
				<path class="st10" d="M30.2,102.1c0,0-5.5,6.4-6.4,7s4.2,25.4,2.5,28.6c0,0-10.5,34.9-12.4,35.4c0,0,12.5,17,20.1,13.9l4.5-47.6
					l-2.6-9c0,0,1.8-21.5,0-24.6l0.8-7.1h-3.5L30.2,102.1z"/>
				<ellipse class="st4" cx="67.7" cy="42.6" rx="3" ry="1.9"/>
				<path class="st11" d="M78,68.5c0,0,2.8,89.4-6.5,98.4c4.2,2.1,22.6,11.3,22.6,12.8c0,0,5.3-76.4-4.9-93.8S78,68.5,78,68.5z"/>
				<path class="st12" d="M40.7,74.3c0,0-2.2,19.1-5.8,21.8c0,0,17-5.5,21.7-4.3s19.5,0.8,28.8-13.2c0,0-5.6-12.6-8.5-14.8L56.2,75
					L40.7,74.3z"/>
				<ellipse class="st4" cx="40.7" cy="50.1" rx="2.1" ry="1.8"/>
				<path class="st13" d="M79.2,21c2.3,4.7-1,37.3-1,37.3l-3.3,8c-2,1-1,18-1,18c2.7,2,7,18.3,7,18.3l-2.7-2.2v9.8
					c-3.7-1.4-6-18.4-6-18.4l-1,5c-8-21.1,5-35.5,5-35.5l-3-1.3c3.3-1.3,0-38.1,0-38.1v21.4c-10.7-1.3-14-19-14-19
					c-1,6.1,9.3,17.4,9.3,17.4C63.9,42,55.9,31.5,55.9,31.5c-1,2.1,2,7.2,2,7.2c-2,0.3-3.3-4.5-3.3-4.5c-1.3,0.5,3.3,12.1,3.3,12.1
					C54.2,47,46.2,31.5,46.2,31.5c-2.3,1.5,4.3,11.9,4.3,11.9C41.9,40.5,37.2,18,37.2,18v4.3c-6,3.3,0,19,0,19
					c-1.3,0-3.7-7.1-3.7-7.1c-1.3,1.5,1.7,12.5,1.7,12.5c-8-12.3-5-19-5-19c-1.3,0,0,22.4,0,22.4c-9-14.5-5.7-25.7-5.7-25.7
					c-2.7,1.1,2,18.3,2,18.3C26.3,50.1,26.3,72,26.3,72c-3.7,0-6.1-26.8-6.1-26.8c-1.3,0.7-2,9.8-2,9.8c-3-1.6-2-20.9-2-20.9
					c-2.3,1.2-3,15.9-3,15.9c-6-11.5,0-25.7,0-25.7C7.2,25,0.2,50,0.2,50c-1.3-15.2,13-30.5,13-30.5s6-7,14.7-8l-2.3,7
					c0,0,7.7-23.3,35.3-17.6s33,21.7,33,21.7s9.3,26,0,61.7l4.1,7.5l-7.2-4.3c0.1,0.2-10.2-15.4-10.7-17.7c-0.3-1.5-3.7-3.5-3.7-3.5
					S81.6,28.7,79.2,21z"/>
				<path class="st14" d="M31.9,104.3l0.9,26.2l1.6,11.3l-10.7,41.7c0,0,10,7.2,10.3,3.5l4.5-47.6l-2.6-9L35,107l1.8-8.3h-3.5
					L31.9,104.3z"/>
				<path class="st14" d="M37.6,96.2l-1.2,9.5c0,0,1,1.8,0.6,9.7l-0.6,14.7l2.7,9l-3.9,41.1c0,0,8.1,5.7,9.1,5.9c0,0-5.3-90.6-5-91
					c0,0-2.8-0.1-5.7,2.9l3.5,0.1L37.6,96.2z"/>
				<polygon class="st14" points="38.9,96.4 47.4,94.3 54.2,111.4 48.1,92.6 39,94.9 				"/>
				<path class="st14" d="M54.5,111.6l11.4-18l2.8-0.4c0,0,1.9,5.9,2.5,6.1l0.4-0.4l0.6-3.3c0,0,1.8,14.1,4.1,15.2l1.5,0.7
					c0,0-2.3,45-6.2,55.3l-0.7,0.7l21.9,11.9v-0.9l-21-11.6c0,0,3-3.5,4-14.3c0,0,2.6-15.6,2.6-41.7c0,0-2.1,1.2-4.9-9.8l-1.3-6.2
					l-0.9,3.8c0,0-2.2-5.3-2.4-7.3l-4.8,0.9l-10,19.5L54.5,111.6z"/>
				<path class="st14" d="M90.7,88.3l7.2,4.2l-4.1,10.2C93.7,102.7,90.9,89.8,90.7,88.3z"/>
				<path class="st14" d="M99.6,93.5l-4.9,12.4l1.8,25.6v0.6L96,150.6l8,23.9h-1.5c0,0-5.1-14.4-6.8-23.7l-0.4-1.1l0.3-16.7l0.5-0.9
					l-0.3-3.9l-0.3-5.4l-1.3-18.2l4.7-11.3L99.6,93.5z"/>
				<path class="st14" d="M77,171.6V190c0,0,16.1-1.9,16.1-5.1l-0.4-6.5L77,171.6z"/>
			</g>
		</g>
	</g>
</g>
<ellipse class="st15" cx="68.3" cy="51.9" rx="1.7" ry="1.3"/>
<ellipse class="st15" cx="39.5" cy="60.1" rx="1.7" ry="1.3"/>
<circle class="st15" cx="71.6" cy="57.5" r="0.7"/>
<circle class="st15" cx="71.5" cy="62.6" r="0.6"/>
<ellipse class="st15" cx="38.9" cy="64.9" rx="1.1" ry="0.4"/>
<circle class="st15" cx="42.4" cy="70.4" r="0.4"/>
</svg>
