<svg xmlns="http://www.w3.org/2000/svg" xmlns:xlink="http://www.w3.org/1999/xlink" viewBox="0 0 121.61 273.46"><defs><style>.cls-1,.cls-13{fill:#932929;}.cls-1{stroke:#450000;}.cls-1,.cls-10,.cls-13,.cls-2,.cls-3,.cls-5,.cls-6,.cls-7,.cls-9{stroke-miterlimit:10;}.cls-1,.cls-5{stroke-width:0.5px;}.cls-2{fill:#ffd0a9;stroke-width:0.75px;}.cls-10,.cls-13,.cls-2,.cls-3,.cls-5,.cls-6,.cls-7,.cls-9{stroke:#000;}.cls-3,.cls-5{fill:none;}.cls-10,.cls-13,.cls-3,.cls-6,.cls-7,.cls-9{stroke-width:0.25px;}.cls-4{fill:#fff;}.cls-6{fill:url(#linear-gradient);}.cls-7{fill:url(#linear-gradient-2);}.cls-8{fill:#020202;}.cls-9{fill:#00e7ff;}.cls-10{fill:#195858;}.cls-11{fill:#8cad4a;}.cls-12{fill:#688927;}.cls-14{fill:#144443;}</style><linearGradient id="linear-gradient" x1="39.67" y1="59.76" x2="39.67" y2="48.21" gradientUnits="userSpaceOnUse"><stop offset="0" stop-color="aqua"/><stop offset="0.23" stop-color="#00c6e3"/><stop offset="0.76" stop-color="#0046a3"/><stop offset="1" stop-color="#00128a"/></linearGradient><linearGradient id="linear-gradient-2" x1="64.84" y1="53.26" x2="64.84" y2="40.26" xlink:href="#linear-gradient"/></defs><title>objGirl1</title><g id="Layer_2" data-name="Layer 2"><g id="Layer_1-2" data-name="Layer 1"><g id="chapter1_middle" data-name="chapter1 middle"><g id="girl"><path class="cls-1" d="M36,181.51l-14.08,68.6S49.21,275.68,77.21,273s31.33-18,31.33-18L93.09,184.89S56.09,195.39,36,181.51Z"/><path class="cls-2" d="M30.21,52.35s5.33,12.67,5,14,19.33,12.33,22,11.5S71.88,65.12,71.88,65.12l11-15s2.83-6.71-3.42-6.71-2.58,7.41-2.58,7.41S89.21,24.68,62.55,18,14.88,19.35,30.21,52.35Z"/><path class="cls-3" d="M39.55,38.68s-2,8.23-9.33,11.45"/><path class="cls-3" d="M52.88,34.23s12.33,6.45,18.67,4.45"/><path class="cls-4" d="M58.46,42.68s3.42,10.39,5.25,10.58l4.92-1.09s3.25-9.75,2-10.08S59.13,38.93,58.46,42.68Z"/><path class="cls-5" d="M50.88,68.49a4,4,0,0,1,5.33-.31"/><path class="cls-4" d="M34.88,55.2l3.46,4.93,5.42-.5s.79-9.63-1.71-12-8.39,4.6-8.39,4.6Z"/><path class="cls-3" d="M34,54.43l-.83-1.33A9.55,9.55,0,0,1,42,47.68"/><path class="cls-3" d="M58.46,42.68s5.75-4.83,12.17-.58v1.5"/><polyline class="cls-5" points="49.08 62.51 49.08 63.43 49.55 63.93"/><path class="cls-6" d="M40.59,48.39s3.63,5.88,2.63,11.38H40.59A11.46,11.46,0,0,1,36,50.13S37.84,47.51,40.59,48.39Z"/><path class="cls-7" d="M61.34,42s.54,10.17,3.21,11.29L67.71,52s1.69-10.57-.47-11.41S61.23,40.54,61.34,42Z"/><ellipse class="cls-8" cx="65.33" cy="45.86" rx="0.79" ry="3.19" transform="translate(-6.14 10.32) rotate(-8.63)"/><ellipse class="cls-8" cx="40.01" cy="53.99" rx="0.53" ry="2.91" transform="translate(-15.42 16) rotate(-19.04)"/><path class="cls-9" d="M67.84,59s-1.55,4.44.51,6S70.84,62.39,67.84,59Z"/><path class="cls-10" d="M94.59,95.89s-7.12,16.25-6.87,18.87,11.38,59,14.87,60,8.88-.75,8.88-.75l10-9.87s-17.13-50.5-16.88-52.37l-2,2.25a18.11,18.11,0,0,0,2-13.75c-2-7.87-7.67-9.08-7.67-9.08Z"/><path class="cls-10" d="M33.21,109.39l1.5,22v30.88l-2.5,16.5S51,193.89,66.59,193.14a55.45,55.45,0,0,0,26.5-8.25V165.64l-3.62-16.37-3.87,7.5,5.13-10.5,4.88-14.75-2-27,5.08-12.16-9.83-5.84L67.28,84.73l-13,25.55L47,87.39l-9.33,7.38s-7,3.9-6.39,6.2S33.21,109.39,33.21,109.39Z"/><path class="cls-10" d="M30.21,102.14s-5.5,6.38-6.37,7,4.25,25.38,2.5,28.63c0,0-10.5,34.88-12.37,35.38,0,0,12.5,17,20.13,13.88l4.5-47.62-2.62-9s1.75-21.5,0-24.62l.78-7.07H33.21Z"/><ellipse class="cls-4" cx="67.66" cy="42.62" rx="2.97" ry="1.87"/><path class="cls-11" d="M78,68.49s2.83,89.39-6.5,98.39C75.7,169,94.1,178.17,94.13,179.71c0,0,5.32-76.4-4.9-93.78S78,68.49,78,68.49Z"/><path class="cls-12" d="M40.71,74.35S38.55,93.49,34.88,96.2c0,0,17-5.51,21.67-4.35s19.53.77,28.84-13.17c0,0-5.6-12.6-8.53-14.75L56.21,75Z"/><ellipse class="cls-4" cx="40.71" cy="50.13" rx="2.13" ry="1.85"/><path class="cls-13" d="M79.21,21c2.33,4.67-1,37.35-1,37.35l-3.33,8c-2,1-1,18-1,18,2.67,2,7,18.33,7,18.33l-2.67-2.25v9.85c-3.67-1.4-6-18.43-6-18.43l-1,5c-8-21.13,5-35.49,5-35.49l-3-1.3c3.33-1.26,0-38.07,0-38.07v21.4c-10.67-1.26-14-19-14-19-1,6.07,9.33,17.43,9.33,17.43C63.88,42,55.88,31.49,55.88,31.49c-1,2.15,2,7.18,2,7.18-2,.33-3.33-4.45-3.33-4.45-1.33.55,3.33,12.12,3.33,12.12C54.21,47,46.21,31.49,46.21,31.49,43.88,33,50.55,43.42,50.55,43.42,41.88,40.49,37.21,18,37.21,18v4.33c-6,3.33,0,19,0,19-1.33,0-3.67-7.12-3.67-7.12-1.33,1.55,1.67,12.45,1.67,12.45-8-12.33-5-19-5-19-1.33,0,0,22.42,0,22.42-9-14.55-5.67-25.71-5.67-25.71-2.67,1.07,2,18.26,2,18.26-.27,7.45-.27,29.41-.27,29.41-3.67,0-6.06-26.75-6.06-26.75-1.33.67-2,9.76-2,9.76-3-1.57-2-20.88-2-20.88-2.33,1.21-3,15.9-3,15.9-6-11.55,0-25.71,0-25.71-6,.74-13,25.71-13,25.71-1.33-15.22,13-30.45,13-30.45s6-7,14.67-8l-2.33,7S33.21-4.65,60.88,1s33,21.67,33,21.67,9.33,26,0,61.67L98,91.85l-7.15-4.28c.09.17-10.23-15.43-10.67-17.72-.28-1.47-3.67-3.5-3.67-3.5S81.55,28.68,79.21,21Z"/><path class="cls-14" d="M31.94,104.26l.9,26.18,1.6,11.32L23.75,183.51s10,7.19,10.34,3.51l4.5-47.62-2.62-9L35,107l1.75-8.32H33.21Z"/><path class="cls-14" d="M37.63,96.2l-1.15,9.54s1,1.81.57,9.73l-.57,14.71,2.67,9-3.87,41.13s8.13,5.67,9.08,5.88c0,0-5.32-90.61-5-91,0,0-2.83-.08-5.67,2.88l3.5.13Z"/><polygon class="cls-14" points="38.9 96.36 47.44 94.26 54.15 111.39 48.09 92.62 39.02 94.94 38.9 96.36"/><path class="cls-14" d="M54.48,111.55l11.38-18,2.75-.42s1.88,5.92,2.5,6.13l.41-.42.63-3.33s1.75,14.13,4.13,15.17l1.46.67s-2.3,45-6.21,55.25l-.74.71L92.7,179.26v-.91l-21-11.59s3-3.46,4-14.33c0,0,2.58-15.62,2.64-41.71,0,0-2.14,1.17-4.87-9.83l-1.27-6.17-.87,3.75s-2.17-5.29-2.42-7.29l-4.79.89-10,19.53Z"/><path class="cls-14" d="M90.65,88.3l7.17,4.25-4.1,10.19S90.89,89.75,90.65,88.3Z"/><path class="cls-14" d="M99.61,93.51l-4.92,12.42,1.75,25.6,0,.61-.42,18.42,8,23.88h-1.46S97.44,160,95.77,150.76l-.38-1.13.3-16.71.46-.92-.33-3.87-.3-5.42-1.28-18.25L98.9,93.18Z"/><path class="cls-14" d="M77,171.57V190s16.06-1.9,16.06-5.12l-.39-6.54Z"/></g></g></g></g></svg>