<svg xmlns="http://www.w3.org/2000/svg" viewBox="0 0 50.92 40.73"><defs><style>.cls-1{fill:#fff;}.cls-1,.cls-2{stroke:#000;stroke-miterlimit:10;stroke-width:0.5px;}.cls-2{fill:none;}</style></defs><title>btnID</title><g id="Layer_2" data-name="Layer 2"><g id="Layer_1-2" data-name="Layer 1"><g id="id_card" data-name="id card"><rect class="cls-1" x="3.53" y="6.13" width="43.87" height="28.47" transform="translate(-4.86 8.38) rotate(-17.09)"/><rect class="cls-1" x="4.61" y="11.72" width="15" height="12.69" transform="translate(-4.77 4.36) rotate(-17.09)"/><rect x="19.68" y="9.34" width="1.97" height="1.97" transform="matrix(0.96, -0.29, 0.29, 0.96, -2.12, 6.53)"/><rect x="22.57" y="8.45" width="1.97" height="1.97" transform="matrix(0.96, -0.29, 0.29, 0.96, -1.73, 7.34)"/><rect x="25.16" y="7.65" width="1.97" height="1.97" transform="matrix(0.96, -0.29, 0.29, 0.96, -1.38, 8.07)"/><rect x="27.68" y="6.88" width="1.97" height="1.97" transform="matrix(0.96, -0.29, 0.29, 0.96, -1.04, 8.77)"/><rect x="30.16" y="6.12" width="1.97" height="1.97" transform="matrix(0.96, -0.29, 0.29, 0.96, -0.71, 9.47)"/><rect x="32.8" y="5.3" width="1.97" height="1.97" transform="translate(-0.36 10.21) rotate(-17.09)"/><rect x="20.87" y="13.2" width="1.97" height="1.97" transform="matrix(0.96, -0.29, 0.29, 0.96, -3.2, 7.05)"/><rect x="23.76" y="12.31" width="1.97" height="1.97" transform="matrix(0.96, -0.29, 0.29, 0.96, -2.81, 7.86)"/><rect x="26.35" y="11.51" width="1.97" height="1.97" transform="matrix(0.96, -0.29, 0.29, 0.96, -2.47, 8.59)"/><rect x="28.87" y="10.73" width="1.97" height="1.97" transform="matrix(0.96, -0.29, 0.29, 0.96, -2.13, 9.29)"/><rect x="31.34" y="9.97" width="1.97" height="1.97" transform="translate(-1.79 9.99) rotate(-17.09)"/><rect x="33.99" y="9.16" width="1.97" height="1.97" transform="translate(-1.44 10.73) rotate(-17.09)"/><rect x="21.92" y="16.64" width="1.97" height="1.97" transform="matrix(0.96, -0.29, 0.29, 0.96, -4.17, 7.51)"/><rect x="24.82" y="15.75" width="1.97" height="1.97" transform="translate(-3.78 8.32) rotate(-17.09)"/><rect x="27.41" y="14.95" width="1.97" height="1.97" transform="translate(-3.43 9.05) rotate(-17.09)"/><rect x="23.4" y="21.43" width="1.97" height="1.97" transform="matrix(0.96, -0.29, 0.29, 0.96, -5.51, 8.16)"/><rect x="26.29" y="20.54" width="1.97" height="1.97" transform="matrix(0.96, -0.29, 0.29, 0.96, -5.12, 8.97)"/><rect x="28.87" y="19.72" width="1.97" height="1.97" transform="matrix(0.96, -0.29, 0.29, 0.96, -4.77, 9.69)"/><rect x="7.83" y="30.18" width="1.97" height="1.97" transform="matrix(0.96, -0.29, 0.29, 0.96, -8.77, 3.97)"/><rect x="10.64" y="29.32" width="1.97" height="1.97" transform="matrix(0.96, -0.29, 0.29, 0.96, -8.39, 4.75)"/><rect x="13.58" y="28.41" width="1.97" height="1.97" transform="matrix(0.96, -0.29, 0.29, 0.96, -8, 5.58)"/><rect x="16.45" y="27.53" width="1.97" height="1.97" transform="translate(-7.61 6.38) rotate(-17.09)"/><rect x="18.98" y="26.75" width="1.97" height="1.97" transform="matrix(0.96, -0.29, 0.29, 0.96, -7.27, 7.1)"/><line class="cls-2" x1="16.67" y1="32.03" x2="18.35" y2="37.44"/><line class="cls-2" x1="17.57" y1="31.75" x2="19.24" y2="37.17"/><line class="cls-2" x1="18.35" y1="31.51" x2="20.03" y2="36.92"/><line class="cls-2" x1="19.13" y1="31.27" x2="20.81" y2="36.68"/><line class="cls-2" x1="19.83" y1="31.05" x2="21.5" y2="36.47"/><line class="cls-2" x1="20.59" y1="30.82" x2="22.26" y2="36.23"/><line class="cls-2" x1="21.34" y1="30.58" x2="23.02" y2="36"/><line class="cls-2" x1="22.07" y1="30.36" x2="23.75" y2="35.77"/><line class="cls-2" x1="22.99" y1="30.07" x2="24.67" y2="35.49"/><line class="cls-2" x1="23.91" y1="29.79" x2="25.58" y2="35.2"/><line class="cls-2" x1="24.62" y1="29.57" x2="26.3" y2="34.98"/><line class="cls-2" x1="25.31" y1="29.36" x2="26.98" y2="34.77"/><line class="cls-2" x1="26.15" y1="29.04" x2="27.82" y2="34.46"/><line class="cls-2" x1="26.98" y1="28.8" x2="28.66" y2="34.22"/><line class="cls-2" x1="27.83" y1="28.58" x2="29.51" y2="33.99"/><line class="cls-2" x1="28.67" y1="28.46" x2="30.35" y2="33.87"/><line class="cls-2" x1="29.3" y1="28.12" x2="30.97" y2="33.54"/><line class="cls-2" x1="30.3" y1="27.81" x2="31.98" y2="33.23"/><line class="cls-2" x1="31.14" y1="27.6" x2="32.82" y2="33.01"/><line class="cls-2" x1="31.9" y1="27.36" x2="33.58" y2="32.78"/><line class="cls-2" x1="32.95" y1="27.14" x2="34.62" y2="32.55"/><line class="cls-2" x1="33.8" y1="26.69" x2="35.48" y2="32.11"/><line class="cls-2" x1="34.64" y1="26.69" x2="36.32" y2="32.11"/><line class="cls-2" x1="35.48" y1="26.34" x2="37.15" y2="31.75"/><circle class="cls-2" cx="11.79" cy="18.16" r="4.92" transform="matrix(0.97, -0.25, 0.25, 0.97, -4.17, 3.53)"/><path class="cls-2" d="M10.62,13.86S14.43,19,13.24,22.3"/><path class="cls-2" d="M16.43,17S11.37,20.92,8,19.79"/><polyline class="cls-2" points="10.17 23.4 10.17 24.9 17.13 23.15 15.8 21.01"/></g></g></g></svg>