<svg xmlns="http://www.w3.org/2000/svg" viewBox="0 0 70.58 54.05"><defs><style>.cls-1{fill:#b5b4b4;stroke:#000;stroke-miterlimit:10;stroke-width:0.56px;}</style></defs><title>btnNewsp</title><g id="Layer_2" data-name="Layer 2"><g id="Layer_1-2" data-name="Layer 1"><g id="newspapaper"><path class="cls-1" d="M1.46,1.85.29,41.45s30.5-.8,34.17,10.68l.83-44S24.62-3.93,1.46,1.85Z"/><path class="cls-1" d="M69.12,1.92l1.17,39.61s-32.17-.87-35.83,10.61l.83-43.92S46-3.85,69.12,1.92Z"/><path class="cls-1" d="M4.12,4.77S27.8,2.46,31.46,10"/><path class="cls-1" d="M64.78,5.66S41.11,3.36,37.45,10.94"/><path class="cls-1" d="M64.78,11.27S41.11,9,37.45,16.54"/><path class="cls-1" d="M64.78,16.37s-23.68-2.31-27.33,5.27"/><path class="cls-1" d="M64.78,21.89s-23.68-2.31-27.33,5.27"/><path class="cls-1" d="M64.78,28s-23.68-2.31-27.33,5.27"/><path class="cls-1" d="M64.78,32.84s-23.68-2.31-27.33,5.27"/><path class="cls-1" d="M64.78,37.08s-23.68-2.31-27.33,5.27"/><path class="cls-1" d="M4.12,16.37s23.68-2.31,27.33,5.27"/><path class="cls-1" d="M4.12,21.89s23.68-2.31,27.33,5.27"/><path class="cls-1" d="M3.45,27.41s23.68-2.31,27.33,5.27"/><path class="cls-1" d="M4.12,32.93S27.8,30.62,31.46,38.2"/><path class="cls-1" d="M4.12,37.08s23.68-2.31,27.33,5.27"/><path class="cls-1" d="M4.12,10.18S27.8,7.87,31.46,15.45"/></g></g></g></svg>