<svg xmlns="http://www.w3.org/2000/svg" viewBox="0 0 181.54 303.77"><defs><style>.cls-1,.cls-4{fill:#ffd0a9;}.cls-1,.cls-12,.cls-15,.cls-16,.cls-17,.cls-19,.cls-2,.cls-3,.cls-4,.cls-5,.cls-8,.cls-9{stroke:#000;}.cls-1,.cls-11,.cls-12,.cls-15,.cls-16,.cls-17,.cls-19,.cls-2,.cls-3,.cls-4,.cls-5,.cls-8,.cls-9{stroke-miterlimit:10;}.cls-1,.cls-15,.cls-17{stroke-width:0.75px;}.cls-11,.cls-12,.cls-16,.cls-2,.cls-3,.cls-5,.cls-9{stroke-width:0.25px;}.cls-3{fill:#306f6f;}.cls-19,.cls-4,.cls-8{stroke-width:0.5px;}.cls-11,.cls-17,.cls-5{fill:#932929;}.cls-10,.cls-6{fill:#144443;}.cls-6{opacity:0.5;}.cls-16,.cls-7{fill:#450000;}.cls-7{opacity:0.56;}.cls-8{fill:#ff4800;}.cls-15,.cls-19,.cls-9{fill:none;}.cls-10{opacity:0.51;}.cls-11{stroke:#450000;}.cls-12{fill:#fff;}.cls-13{fill:#688927;}.cls-14{fill:#8cad4a;}.cls-18{fill:#7c2525;opacity:0.54;}</style></defs><title>objParentsGirlBall</title><g id="Layer_2" data-name="Layer 2"><g id="Layer_1-2" data-name="Layer 1"><g id="content_happy_family" data-name="content happy family"><path class="cls-1" d="M157.06,89.71s1.6,6.63.85,8.63,6-1.64,6-1.64l4.75-2.06L175,90.53l5.25-1.76V69.37l-11,5.46-12.23,8.5Z"/><path class="cls-2" d="M142.16,119.09S158.78,94,181.41,95.64l-1.12,65.62V303l-21.12.63L143.53,262,135,195.77s15-20.62,14.63-20.5-5.75-44.12-5.75-44.12Z"/><path class="cls-3" d="M72.28,171.1s-7,17-6.67,19,6.66,9.54,9.66,9,9.34-6.5,9.34-6.5l-4-17.5Z"/><path class="cls-4" d="M84.12,52.36S79,57.67,86.78,76.49c0,0,2.67,5.41-7,12.28,0,0,13.33,21,15.33,21.2s9.33-4.35,9.33-4.35l8-17.65s6.5-3.44,5.83-14-4.5-2.09-4.5-2.09,3.17-22.44-5-24.77S87.45,45.07,84.12,52.36Z"/><path class="cls-5" d="M150,231.14s14,58.22,11.5,70.78H79.62S83,239.73,88.24,237.1,148.28,233.64,150,231.14Z"/><path class="cls-3" d="M78.12,147.14C92.45,157.31,95,202.81,95,202.81l-15.17,77.5s-22.5-9.83-20.33-12.5,12-52.5,12-52.5l5.22,1.17-4.89-2.33V211l3.17.67c-1.5.17-4-3.5-4-3.5,1.5-.33,3-30.67,3-30.67l-4-6.37,2.5-9c-1.67-3.83-1-20.33-1-20.33,5.33.17,21.17-16.5,21.17-16.5s39.78-11,42.5-8.5,19.17,12.83,20.67,12.5-2.67,25.33,0,27.17.34,29.33.34,29.33l-10.67,20.33s0-30.15,1.17-52.48c.64-12.78,1.63-23,3.17-23.52l-5.36,66.5s2,32.33,5.36,32.17c0,0-21.33,25.5-27.83,25.5,0,0-25.5-4.83-32.67-17.5L96,202.48S89.62,150.14,78.12,147.14Z"/><path class="cls-6" d="M90.31,128.09s-.53,25.22,5.47,26.81L97,146s.33,14.22,5,14.42V148.28s4.5,23.12,3.75,26.62c0,0,3.69-1.12,4.77-7.5,0,0,4,16.74,3.23,17.74,0,0,9.5-12,8.5-20s3.75,16.33,3.25,20.67c0,0,5.71-10.7,5.66-12.19l-1.41,8.81S135,175.06,136,171.1a63.32,63.32,0,0,1,1.25,11.33s6.75-13,5.75-17.29l1.39,1.5s3.29-24.53.86-26l-9-22.92s-38.73,10.67-39.73,8.42S90.31,128.09,90.31,128.09Z"/><path class="cls-5" d="M116.12,54.81c2.38-3.81-3.67,31.82-3.67,31.82s-9,19.6-11.33,22.52.67,47.33.67,47.33C98.62,155.14,97,139,97,139c-1.5,1-1.5,13.32-1.5,13.32-3.83-3.5-1-28.33-1.17-35s13.83-28.54,13.83-28.54l-4.5,2.37,5-4.52c3.54-4.18-2.2-33.15-2.2-33.15,2.67,3.5,2.17,19.33,2.17,19.33-12.5-9.33-14-20.45-14-20.45-1.5,2,5.17,21.26,5.17,21.26-5.67-3.2-16.17-23.3-16.17-23.3-3.31,1.34.69,19.38-.33,20.17s1,10.33,1,10.33c-6.67-12.33-3.67-19.26-3.67-19.26-.83.07-3.5,6.71-3.5,6.71C75,51.87,81.45,44.64,81.45,44.64s1.5,0,1.83,2.83c0,0-4.71-8.62,6.67-12.17,10.87-3.39,39.83-4.83,47.83,14.32,8.94,21.4,5,45.25-1.33,65.38,0,0,11,31.47,7.17,46.47,0,0-1.67-17.83-3.5-19.67,0,0,2.5,25.33-1.17,35,0,0-.33-19.17-1.83-20.33,0,0-3.17,18-5.83,20.33,0,0-.33-17.17-1.67-18.17,0,0,.5,17.83-3,20.08,0,0-3.67-28.08-6.83-28.92,0,0-.5,23.33-4.5,28.92,0,0-3.13-18.92-4.73-20.25,0,0-1.6,12.83-2.77,13.67,0,0-1.33-19.17-3-20.5,0,0-5.83-25.5-3.67-29.33s-4.33-11.33,6.5-22.25S115.28,56.14,116.12,54.81Z"/><path class="cls-7" d="M115.83,53.71c2.38-3.81-3.67,31.82-3.67,31.82s-9,19.6-11.33,22.52.67,47.33.67,47.33c-3.17-1.33-4.83-17.48-4.83-17.48-1.5,1-1.5,13.32-1.5,13.32-3.83-3.5-1-28.33-1.17-35s13.83-28.54,13.83-28.54L103.33,90l5-4.52c3.54-4.18-2.2-33.15-2.2-33.15,2.67,3.5,2.17,19.33,2.17,19.33-12.5-9.33-14-20.45-14-20.45-1.5,2,5.17,21.26,5.17,21.26-5.67-3.2-16.68-22.89-16.68-22.89C79.51,51,84,68.59,83,69.38s1,10.33,1,10.33c-6.67-12.33-3.67-19.26-3.67-19.26-.83.07-3.5,6.71-3.5,6.71-2.17-16.38,4.33-23.62,4.33-23.62s1.5,0,1.83,2.83c0,0,50.31-9.24,56.94,10.14,6.3,18.41,2.22,33-3.24,57.71,0,0,10.47,31.15,6.64,46.15,0,0-1.67-17.83-3.5-19.67,0,0,2.5,25.33-1.17,35,0,0-.33-19.17-1.83-20.33,0,0-3.17,18-5.83,20.33,0,0-.33-17.17-1.67-18.17,0,0,.5,17.83-3,20.08,0,0-3.67-28.08-6.83-28.92,0,0-.5,23.33-4.5,28.92,0,0-3.13-18.92-4.73-20.25,0,0-1.6,12.83-2.77,13.67,0,0-1.33-19.17-3-20.5,0,0-5.83-25.5-3.67-29.33S96.5,109.88,107.33,99,115,55,115.83,53.71Z"/><path class="cls-4" d="M146.45,20.64s-4.33,9.33,0,24.33c0,0-.5,11.83-6.5,12.17,0,0,12.5,30.93,16,31.63l10.67-8,5.67-4.32,5-50.18L165,10.48S147.28,12.48,146.45,20.64Z"/><path class="cls-2" d="M141.12,18.31l3.31,7.83S139.62,24.31,140,9.48c0,0,16.17-19,29.83-2.83l11.59,3-1.09,41V69.37l-9.86,8.54L166,83.81s.83-13.38-.5-14.44c0,0-1,5.28-2,5.94s1.17-13.19,1-13.76c0,0-.48,1.78-1.42,2.1,0,0,2.69-15.87,1.06-16.94,0,0-.87,3.38-1.69,3.69,0,0,1.13-4.43.69-4.56,0,0-2,1.93-3.37,8.74,0,0,.38-16.44-.56-16.87l-2.37,8.13s-.31-17.94-2.94-21.51c0,0-2.94,12.19-3.69,12.25,0,0,2.75-17-7.81-21.06A3,3,0,0,0,141.12,18.31Z"/><path class="cls-8" d="M146.91,71.21,153.35,69s.2,7.54-3.12,10"/><path class="cls-2" d="M153.55,107.89s4.37-15.49,12.61-16.37a80.38,80.38,0,0,0,14.13-2.74v7S160.44,97.64,153.55,107.89Z"/><path class="cls-9" d="M86.46,98.33s6.2-1.1,7.7-4"/><path class="cls-10" d="M19.12,105.44s-1.67,7.7-1.17,8.62,2,8.08,2.35,8.75S23,123.93,23,123.93s-3.63-9.18-3.08-11.12.17-5.5.92-6l.17-2.42S19.41,104,19.12,105.44Z"/><path class="cls-10" d="M23.7,104.89s1-2.12,2.25-2.08L29.46,109,26,100.81l-4,2.07s-.91,17.59,3.42,20.51l.58,1.92a18.14,18.14,0,0,1,3,2.33C29.28,128.23,23.7,104.89,23.7,104.89Z"/><path class="cls-6" d="M29.87,109.06l3.25-8.25s.67-.17.75,0,.33,6.42,1.42,7.75l-3.75,17.08s4.5-15.09,4.75-18a12.88,12.88,0,0,1-1.57-8.74l-3.18.25Z"/><path class="cls-6" d="M27.62,136.34,38.2,123.93l2.67,1.72v-5.17l3.67-4,1.83,4.36L43.58,110l-5.71,6.76,1.75,5.74.17.68-2.33-1.85s-7.92,9.25-12.58,9.42C24.87,130.73,26,135.63,27.62,136.34Z"/><path class="cls-6" d="M44.37,137.06l1-8.65L47,125.06s.75,3.25,3.5,3.83l.83-.81s-3,1.06-4.25-4.93l-3.23,4.49,0,10.07Z"/><path class="cls-6" d="M72.7,146.31s13.83,16.83,16.42,33S72,276.23,72,276.23l7.08,2.17L83,260.81l11.42-57.63s-2.85-25.25-3.83-28.62c-2.36-8.1-4.92-24.75-15-28.25l-3.5-3.5Z"/><path class="cls-6" d="M78.2,146s9.75,4.42,10.67,9.75c0,0,7.92,18.33,7.5,25.25,0,0,2.08,19.83,1.75,21.25l-5.58,37.92-2.67-3.25L96.28,202l-2.75-15.67-.42-4.5S87,151.48,78.2,146Z"/><path class="cls-6" d="M66,189.89s5.91,1.71,6.71-.17L72,197.27S66.34,192.53,66,189.89Z"/><path class="cls-1" d="M40,163.48s-2.5,30.5-3.67,32.67S38.12,201,38.12,201h3.33s10.33-34,9.67-39.17A5.65,5.65,0,0,0,46,156.48Z"/><path class="cls-1" d="M52.28,163.81s10.17,17,10.83,19.5,3.83,2.5,3.83,2.5l2-6.2s-4.48-5.8-5.14-8.46-3.5-13.67-8.67-14.67S52.28,163.81,52.28,163.81Z"/><path class="cls-11" d="M54.16,129.14S59,140.81,61.28,141c0,0,.33,4-1.17,6.33l2.17-3.17,3.67,17s-11.83-4.17-19.17,1-11.67,6-11.67,6S26,166,26,163.81c0,0,5.62-18,4.33-19s-.83-5.82-.83-5.82S52.36,125.12,54.16,129.14Z"/><path class="cls-1" d="M16.12,80.64s2.33,5.33,2.17,6c0,0,7.83,5.67,9.5,5.5l8.5-5.75L40,76.31V65.48S17,54.14,12,70A18.27,18.27,0,0,0,16.12,80.64Z"/><path class="cls-5" d="M18.78,88.77s-.5,7.87-.83,8.87l2.67-4.43s-9,13.77-6.83,18.93c0,0,1.5-8.17,3.25-8.17S24,96.37,24,96.37v-6L18.78,88Z"/><path class="cls-3" d="M17.12,106.31s-.33,5.83-2,7c0,0,.83,5.5,2,6.33l-2.83,6.5s3.67-3.67,9.67-1l-2-5.5s-.13-.27-.31-.76c-.72-2-2.29-7.37,0-12.57V104S19.87,103.12,17.12,106.31Z"/><path class="cls-3" d="M36.28,141.81l2.5,1s8.5-6.83,10.33-10a85.24,85.24,0,0,1,5-7.34l-2.37-4-2.67-4V102.14l-2.47-7.83-15.37,3-1.81,10.33-4.34-9.33-3.5,2.83s-1.33,19.5,3.33,22.5L28.62,136Z"/><circle class="cls-12" cx="19.12" cy="136.34" r="12.42"/><path class="cls-1" d="M24,132.14s-4.5,0-5.25.67,1.75.83,1.75.83-3.83.17-4.33.67.17,4.5,3.92,4.67A12.23,12.23,0,0,0,26,138l1.25-.73L26,132.14Z"/><path class="cls-13" d="M22.62,90.22c-1.09-.09,1,8.65-2.31,13.75,0,0,7.49-5.17,9.15-4.83S47,98,49.12,95.48c0,0-13-8.08-12.83-9.08C36.28,86.39,30,93.56,22.62,90.22Z"/><path class="cls-14" d="M37.85,98.19s-4.34,32.26-11.17,35.07c0,0,15.47,12.89,17.13,10.39,0,0,.8-49.22-2.83-52.16A9,9,0,0,1,37.85,98.19Z"/><path class="cls-3" d="M42.78,110l-5.33,7.33L39,122l-1.5-1.67s-9.17,11.33-13.5,9.5c0,0,3,11.5,9.42,12l13.08-18.33,1.33-5.67,5.67-5.67v-4.83l2.83-9.67-7.17-1.27S45.62,108.14,42.78,110Z"/><path class="cls-8" d="M26,88.77s-2.33-1-2-1.63,5.51-2.67,5.51-2.67.67,2.17,0,2.67"/><path class="cls-15" d="M28,79s3.67-9.59,7.33-2.13v1.63"/><path class="cls-15" d="M21.44,80.81s-2.32-5.83-3.82,0"/><path class="cls-9" d="M36.28,70.48s-5.66-4.46-9.08-.73"/><path class="cls-9" d="M19.12,72.31s-3.25-2-5.67,3"/><path class="cls-16" d="M35.28,197.64s-6.83,6.17-9.33,6.5-1.17,4.17-1.17,4.17,4.86,3.83,13-1.17c0,0,6.15.5,7.15-2.67s-4-7.83-4-7.83S38.12,198.81,35.28,197.64Z"/><path class="cls-17" d="M.28,70.64s7.5-7.17,8.5-6.83c0,0-4.67,12-2.5,13.17,0,0,4.17-10.33,4.67-10.5,0,0-3.33,14.33,0,16.67,0,0,0-6.5.83-6.83,0,0-.83,8.67,4.33,10.33,0,0-3.17-19.5-1-20.67,0,0-.67,10.83,1.67,11.33,0,0-1.17-6.17,0-6.5,0,0,.17,4.32.83,4.41,0,0,.67-9.41,2.33-9.41,0,0,5.67,10,7.67,9.41,0,0-1.5-5.91-.83-6.58,0,0,1.33,3.83,2.17,3.83,0,0-2.17-7.67-1.5-8,0,0,3.67,8.17,5.83,8.5,0,0-1.5-8.5,0-8.5,0,0,4.5,11,3.83,12.5,0,0,2-8.33,1.5-9.83,0,0-.83,23.67-3,26,0,0-2.17,12.67,1.67,14.83,0,0-1-8.83-.17-8.83,0,0,1,5,1.58,5,0,0-1.42-12,0-12.17.28,0,.62-1,1-2.44,1.44-6,3.18-21.26,2.78-23.39,0,0-2,22.5-1.83,24s5.83,36.5,9.33,37.5,4.17,0,4.17,0,.33-11.5-.83-12.83,5.67,8.33,5.33,11.33S60.12,106.14,45,85c-.49,1.41,7.81-20.81-3-28.83-10.33-7.67-25.83-2.33-27.67,4C14.28,60.14,15.45,53,.28,70.64Z"/><path class="cls-18" d="M9.08,63.81S4.42,75.81,6.58,77c0,0,4.17-10.33,4.67-10.5,0,0-3.33,14.33,0,16.67,0,0,0-6.5.83-6.83,0,0-.83,8.67,4.33,10.33,0,0-3.17-19.5-1-20.67,0,0-.67,10.83,1.67,11.33,0,0-1.17-6.17,0-6.5,0,0,.17,4.32.83,4.41,0,0,.67-9.41,2.33-9.41,0,0,5.67,10,7.67,9.41,0,0-1.5-5.91-.83-6.58,0,0,1.33,3.83,2.17,3.83,0,0-2.17-7.67-1.5-8,0,0,3.67,8.17,5.83,8.5,0,0-1.5-8.5,0-8.5,0,0,4.5,11,3.83,12.5,0,0,2-8.33,1.5-9.83,0,0-.83,23.67-3,26,0,0-2.17,12.67,1.67,14.83,0,0-1-8.83-.17-8.83,0,0,1,5,1.58,5,0,0-1.42-12,0-12.17.28,0,.62-1,1-2.44,1.44-6,3.18-21.26,2.78-23.39,0,0-2,22.5-1.83,24s5.83,36.5,9.33,37.5,4.17,0,4.17,0,.33-11.5-.83-12.83,5.67,8.33,5.33,11.33.7-19.83-14.47-41c0,0,5.58-20.5,1.17-23.83C42.41,58.89,8.08,63.48,9.08,63.81Z"/><line class="cls-19" x1="23.92" y1="83.14" x2="23.7" y2="83.85"/></g></g></g></svg>