<svg xmlns="http://www.w3.org/2000/svg" viewBox="0 0 31.64 43.64"><defs><style>.cls-1{fill:#fff;stroke:#000;stroke-miterlimit:10;stroke-width:0.25px;}</style></defs><title>btnPillcase</title><g id="Layer_2" data-name="Layer 2"><g id="Layer_1-2" data-name="Layer 1"><g id="pill_case" data-name="pill case"><path class="cls-1" d="M5.35,12.45V38.94c0,2.52,5.46,4.57,12.2,4.57s12.2-2,12.2-4.57V12.45Z"/><path class="cls-1" d="M5.35,15.55V30.4c0,2.52,5.46,4.57,12.2,4.57s12.2-2,12.2-4.57V15.55Z"/><path class="cls-1" d="M3.59,4.7V13.5c0,2.52,6.25,4.57,14,4.57s14-2,14-4.57V4.7Z"/><ellipse class="cls-1" cx="17.55" cy="4.7" rx="13.96" ry="4.57"/><polygon points="10.98 20.21 9.02 19.91 9.03 17.93 10.98 18.22 10.98 20.21"/><polygon points="13.79 20.77 11.83 20.48 11.85 18.49 13.79 18.78 13.79 20.77"/><polygon points="10.98 23.11 9.02 22.81 9.03 20.82 10.98 21.12 10.98 23.11"/><polygon points="13.79 23.49 11.83 23.19 11.85 21.2 13.79 21.5 13.79 23.49"/><polygon points="16.66 23.49 14.7 23.55 14.71 21.56 16.66 21.56 16.66 23.49"/><polygon points="16.66 20.82 14.7 20.9 14.71 18.91 16.66 18.91 16.66 20.82"/><line x1="5.69" y1="29.93" x2="3.81" y2="30.51"/><line x1="1.88" y1="35.32" y2="35.9"/></g></g></g></svg>