<svg xmlns="http://www.w3.org/2000/svg" viewBox="0 0 71.8 61.52"><defs><style>.cls-1{fill:#fcfcfc;}.cls-1,.cls-10,.cls-12,.cls-15,.cls-16,.cls-18,.cls-2,.cls-3,.cls-4,.cls-5,.cls-6,.cls-9{stroke:#000;}.cls-1,.cls-10,.cls-11,.cls-12,.cls-15,.cls-16,.cls-18,.cls-2,.cls-3,.cls-4,.cls-5,.cls-6,.cls-9{stroke-miterlimit:10;}.cls-1,.cls-18,.cls-5,.cls-9{stroke-width:0.5px;}.cls-2,.cls-5{fill:#ffd0a9;}.cls-15,.cls-16,.cls-2{stroke-width:0.75px;}.cls-10,.cls-11,.cls-12,.cls-3,.cls-4,.cls-6{stroke-width:0.25px;}.cls-4{fill:#306f6f;}.cls-11,.cls-16,.cls-6{fill:#932929;}.cls-7{fill:#144443;opacity:0.5;}.cls-8{fill:#450000;opacity:0.56;}.cls-9{fill:#ff4800;}.cls-10,.cls-15,.cls-18{fill:none;}.cls-11{stroke:#450000;}.cls-12{fill:#fff;}.cls-13{fill:#688927;}.cls-14{fill:#8cad4a;}.cls-17{fill:#7c2525;opacity:0.54;}</style></defs><title>btnPic</title><g id="Layer_2" data-name="Layer 2"><g id="Layer_1-2" data-name="Layer 1"><g id="picture"><path class="cls-1" d="M.36,18S19.86,53.9,15.8,61L71.48,35.15S61.42,8,48.86.28Z"/><path class="cls-1" d="M18.25,57.62c-.53-10.26-10.91-30.73-15-38.51L48.61,2.5c9.71,6.68,18,25.79,20.33,31.63Z"/><path class="cls-2" d="M13.56,34.31a2.78,2.78,0,0,0,.27.88c.16.17-.66.08-.66.08h-.55l-.79-.14-.59,0-.79-1.91,1.31.09,1.55.34Z"/><path class="cls-3" d="M16.22,36.6s-2.66-1.8-4.82-.72l2.77,6.42,5.75,14,2.11-.8-.15-4.74L20,43.87s-2.31-1.42-2.27-1.43-1.22-4.58-1.22-4.58Z"/><path class="cls-4" d="M25.21,38.89a14.78,14.78,0,0,1,1.43,1.61c0,.21-.27,1.21-.59,1.28a3.52,3.52,0,0,1-1.18-.26l-.32-1.89Z"/><path class="cls-5" d="M19.23,27.67s.72.31.72,2.49c0,0,0,.64,1.19.93a16,16,0,0,1-.65,2.71,3.74,3.74,0,0,1-1.1-.05l-1.5-1.41a1.5,1.5,0,0,1-1.14-1.14c-.36-1.06.36-.39.36-.39s-1.22-2.08-.51-2.64S18.61,27.09,19.23,27.67Z"/><path class="cls-6" d="M20,48s1,6.31,1.74,7.44l8.07-3.32s-2.86-6-3.48-6S20.26,48.14,20,48Z"/><path class="cls-4" d="M23.67,36.77c-1,1.58.6,6.17.6,6.17l4.64,7s1.82-1.88,1.5-2.06-3.31-4.69-3.31-4.69l-.47.33.39-.43-.13-.31-.29.19c.15,0,.25-.51.25-.51a23.12,23.12,0,0,1-1.54-2.9l.14-.79L24.83,38a9.8,9.8,0,0,0-.73-2c-.52.23-2.76-.77-2.76-.77s-4.37.53-4.53.89a11.69,11.69,0,0,1-1.53,2.07c-.16,0,1.29,2.39,1.1,2.68s1.16,2.9,1.16,2.9l1.88,1.57s-1.23-3-2.24-5.13A6.85,6.85,0,0,0,15.91,38l3.22,6.34s1.11,3.27.78,3.39c0,0,3.14,1.65,3.78,1.38,0,0,2.32-1.51,2.51-3l-2-3.11S22.66,37.53,23.67,36.77Z"/><path class="cls-7" d="M21.69,35.38s1.07,2.46.55,2.86l-.48-.83s.54,1.41.09,1.62l-.49-1.19a20.69,20.69,0,0,0,.71,2.78s-.41,0-.77-.55a12.58,12.58,0,0,0,.4,1.88s-1.42-.8-1.65-1.63a8.86,8.86,0,0,0,.52,2.17,9.43,9.43,0,0,1-1.05-1l.5.81a5.47,5.47,0,0,1-1.08-.86,6.75,6.75,0,0,0,.34,1.17s-1.19-1-1.27-1.47l-.08.2s-1.32-2.28-1.14-2.53l0-2.62S21,35.71,21,35.44,21.69,35.38,21.69,35.38Z"/><path class="cls-6" d="M16.18,29.21c-.39-.28,1.65,3,1.65,3s1.68,1.57,2,1.76,1.85,4.69,1.85,4.69c.26-.26-.23-1.92-.23-1.92.19,0,.69,1.25.69,1.25.24-.5-1.05-2.83-1.3-3.5s-2.52-2.25-2.52-2.25l.54.05L18.2,32c-.52-.27-1.13-3.36-1.13-3.36a5.87,5.87,0,0,0,.57,2,3.61,3.61,0,0,0,.55-2.58,8.77,8.77,0,0,1,.35,2.3,9.9,9.9,0,0,0,.65-3c.38,0,.72,1.94.85,2s.32,1.06.32,1.06a2.52,2.52,0,0,0-.42-2c.09,0,.62.52.62.52a3.22,3.22,0,0,0-1.38-2.15s-.15.06-.07.35c0,0,.11-1-1.15-.93s-4.12,1.14-4.13,3.35A10.24,10.24,0,0,0,16.61,36s.19,3.55,1.18,4.87a9.52,9.52,0,0,1-.45-2.08,12.53,12.53,0,0,0,1.53,3.4,10.66,10.66,0,0,1-.64-2.08s1,1.65,1.4,1.77A9.57,9.57,0,0,1,19.06,40s.67,1.78,1.11,1.86c0,0-.78-2.92-.5-3.13a9.66,9.66,0,0,0,1.62,2.67,12.22,12.22,0,0,1-.35-2.19,7.06,7.06,0,0,0,.83,1.23,10.47,10.47,0,0,1-.54-2.14s-.46-2.75-.83-3,0-1.29-1.54-1.93S16.31,29.31,16.18,29.21Z"/><path class="cls-8" d="M16.16,29.09c-.39-.28,1.65,3,1.65,3s1.68,1.57,2,1.76,1.85,4.69,1.85,4.69c.26-.26-.23-1.92-.23-1.92.19,0,.69,1.25.69,1.25.24-.5-1.05-2.83-1.3-3.5s-2.52-2.25-2.52-2.25l.54.05-.68-.24c-.52-.27-1.13-3.36-1.13-3.36a5.87,5.87,0,0,0,.57,2A3.61,3.61,0,0,0,18.18,28a8.77,8.77,0,0,1,.35,2.3,10.36,10.36,0,0,0,.72-2.93c.38,0,.65,1.92.78,2s.32,1.06.32,1.06a2.52,2.52,0,0,0-.42-2c.09,0,.62.52.62.52a3.22,3.22,0,0,0-1.38-2.15s-.15.06-.07.35c0,0-5.33,1.13-5.2,3.31S15,33.68,16.56,35.9c0,0,.23,3.49,1.22,4.82a9.52,9.52,0,0,1-.45-2.08A12.53,12.53,0,0,0,18.86,42,10.66,10.66,0,0,1,18.21,40s1,1.65,1.4,1.77A9.57,9.57,0,0,1,19,39.87s.67,1.78,1.11,1.86c0,0-.78-2.92-.5-3.13a9.66,9.66,0,0,0,1.62,2.67,12.22,12.22,0,0,1-.35-2.19,7.06,7.06,0,0,0,.83,1.23,10.47,10.47,0,0,1-.54-2.14s-.46-2.75-.83-3,0-1.29-1.54-1.93S16.3,29.19,16.16,29.09Z"/><path class="cls-5" d="M11.8,27.07a4,4,0,0,1,1,2.4s.53,1.15,1.13.94c0,0,0,3.56-.29,3.77l-1.37-.35-.73-.2L9,28.88l.57-2.06S11.39,26.3,11.8,27.07Z"/><path class="cls-3" d="M12.23,26.62v.91s.4-.38-.23-1.82c0,0-2.36-1.22-3.06.93l-1,.76,1.77,4,.76,1.85,1.32.44.68.4a5.73,5.73,0,0,1-.54-1.44s.31.48.44.5-.65-1.25-.66-1.32.12.16.22.15-.91-1.46-.79-1.63c0,0,.22.3.32.29s-.29-.39-.25-.42.28.11.69.72a11,11,0,0,1-.63-1.69l.56.7a7.8,7.8,0,0,1-.58-2.24,8.32,8.32,0,0,0,.86,1.06s-1-1.56-.08-2.39A.31.31,0,0,1,12.23,26.62Z"/><path class="cls-9" d="M13.81,32.07l-.73,0s.29.75.71.86"/><path class="cls-3" d="M14.64,36s-1.06-1.35-1.91-1.1a8.57,8.57,0,0,1-1.5.3l.28.69S13.55,35.23,14.64,36Z"/><path class="cls-10" d="M20.86,32.29s-.66.14-.92-.08"/><path class="cls-2" d="M44.8,41.72a27.52,27.52,0,0,1,.64,3.09c-.06.32.44-.12.44-.12l.5-.29a15,15,0,0,0-.26-3.34.74.74,0,0,0-.86-.45Z"/><path class="cls-2" d="M46.35,41.26s2,1.7,2.14,2,.26,0,.26,0l.31-.69a5.07,5.07,0,0,1-1-.84c-.19-.3-1-1.56-1.68-1.47S46.35,41.26,46.35,41.26Z"/><path class="cls-11" d="M45.17,36.87s1.07,1.26,1.37,1.18a1.6,1.6,0,0,1,.11.84l.14-.48,1.15,2a3.21,3.21,0,0,0-2.35.91,4.55,4.55,0,0,1-1.21,1.22s-1.23.1-1.32-.17a11.31,11.31,0,0,0-.24-2.54c-.2-.07-.34-.69-.34-.69S44.78,36.44,45.17,36.87Z"/><path class="cls-2" d="M38.45,32.38A4.63,4.63,0,0,1,39,33a5.35,5.35,0,0,0,1.41.3l.82-1.06,0-1.41-.44-1.35s-3.33-.47-3.3,1.7A2.39,2.39,0,0,0,38.45,32.38Z"/><path class="cls-6" d="M39.12,33.29s.26,1,.26,1.14l.15-.66s-.56,2.08-.08,2.64c0,0-.15-1.08.07-1.15s.55-1.23.55-1.23l-.24-.74-.74-.09Z"/><path class="cls-4" d="M39.62,35.54s.2.74,0,1c0,0,.33.65.51.71l-.09.92a1.13,1.13,0,0,1,1.16-.52l-.47-.6-.07-.08a2.3,2.3,0,0,1-.52-1.56l-.1-.29S39.84,35,39.62,35.54Z"/><path class="cls-4" d="M43.46,39.17l.35,0a8.75,8.75,0,0,0,.88-1.67A11.17,11.17,0,0,1,45,36.41l-.46-.4-.5-.39-.63-1.91-.63-.87-1.79,1,.2,1.36-.92-1-.32.5s.63,2.48,1.33,2.67l1,1.39Z"/><circle class="cls-12" cx="41.1" cy="39.19" r="1.63" transform="translate(-10.16 14.74) rotate(-18.14)"/><path class="cls-2" d="M41.53,38.47s-.56.18-.63.3.25,0,.25,0a2,2,0,0,0-.51.26.52.52,0,0,0,.68.42,1.6,1.6,0,0,0,.7-.37l.13-.14-.36-.58Z"/><path class="cls-13" d="M39.65,33.31c-.14,0,.48,1,.27,1.81,0,0,.72-.95.94-1a6.54,6.54,0,0,0,2.3-1.26,12,12,0,0,1-2-.61S40.7,33.43,39.65,33.31Z"/><path class="cls-14" d="M41.87,33.68s.77,4.19,0,4.82c0,0,2.45,1,2.56.59,0,0-1.91-6.16-2.48-6.38A1.18,1.18,0,0,1,41.87,33.68Z"/><path class="cls-4" d="M43,34.95l-.36,1.13.38.52-.25-.15s-.68,1.78-1.29,1.73c0,0,.84,1.31,1.66,1.11L44,36.48l-.07-.76.47-.94-.2-.6,0-1.32L43.2,33A5.41,5.41,0,0,1,43,34.95Z"/><path class="cls-9" d="M40,33s-.33,0-.32-.12.58-.56.58-.56.17.24.11.33"/><path class="cls-15" d="M39.86,31.69s.07-1.34.83-.56l.07.2"/><path class="cls-15" d="M39.12,32.19s-.53-.63-.48.16"/><path class="cls-10" d="M40.55,30.29s-.89-.32-1.16.28"/><path class="cls-10" d="M38.49,31.22s-.49-.12-.58.6"/><path class="cls-16" d="M36.07,31.78s.64-1.2.78-1.2-.09,1.68.23,1.74a14.82,14.82,0,0,1,.15-1.5s.17,1.92.68,2.08c0,0-.27-.81-.17-.88s.25,1.11,1,1.11c0,0-1.19-2.3-1-2.53,0,0,.36,1.38.67,1.34,0,0-.4-.72-.27-.81s.2.53.28.52-.3-1.2-.09-1.27c0,0,1.11,1,1.34.86,0,0-.43-.67-.37-.78s.32.42.43.39-.58-.87-.51-.93.79.87,1.07.82c0,0-.53-1-.35-1.06,0,0,1,1.19,1,1.4a6,6,0,0,0-.21-1.29,15.83,15.83,0,0,1,.69,3.36s.25,1.67.81,1.78c0,0-.48-1.06-.38-1.09s.33.58.4.56-.67-1.44-.5-1.51,0-.14,0-.34a17.45,17.45,0,0,0-.61-3s.67,2.88.75,3.06,2.21,4.31,2.69,4.29.52-.17.52-.17a6.68,6.68,0,0,0-.63-1.56c-.2-.12,1,.81,1.13,1.19a10.07,10.07,0,0,0-3.38-4.57c0,.2.12-2.91-1.55-3.47s-3.31.76-3.28,1.63C37.39,29.9,37.24,29,36.07,31.78Z"/><path class="cls-17" d="M36.89,30.57s-.09,1.68.23,1.74a14.82,14.82,0,0,1,.15-1.5s.17,1.92.68,2.08c0,0-.27-.81-.17-.88s.25,1.11,1,1.11c0,0-1.19-2.3-1-2.53,0,0,.36,1.38.67,1.34,0,0-.4-.72-.27-.81s.2.53.28.52-.3-1.2-.09-1.27c0,0,1.11,1,1.34.86,0,0-.43-.67-.37-.78s.32.42.43.39-.58-.87-.51-.93.79.87,1.07.82c0,0-.53-1-.35-1.06,0,0,1,1.19,1,1.4a6,6,0,0,0-.21-1.29,15.83,15.83,0,0,1,.69,3.36s.25,1.67.81,1.78c0,0-.48-1.06-.38-1.09s.33.58.4.56-.67-1.44-.5-1.51,0-.14,0-.34a17.45,17.45,0,0,0-.61-3s.67,2.88.75,3.06,2.21,4.31,2.69,4.29.52-.17.52-.17a6.68,6.68,0,0,0-.63-1.56c-.2-.12,1,.81,1.13,1.19a10.94,10.94,0,0,0-3.47-4.51s-.14-2.78-.83-3C40.84,28.6,36.75,30.57,36.89,30.57Z"/><line class="cls-18" x1="39.52" y1="32.37" x2="39.53" y2="32.47"/></g></g></g></svg>