<svg xmlns="http://www.w3.org/2000/svg" viewBox="0 0 52.93 110.72"><defs><style>.cls-1{fill:#932929;stroke:#000;stroke-miterlimit:10;stroke-width:0.56px;}</style></defs><title>btnRabbit</title><g id="Layer_2" data-name="Layer 2"><g id="Layer_1-2" data-name="Layer 1"><g id="rabbit_hi" data-name="rabbit hi"><ellipse class="cls-1" cx="8.78" cy="54.41" rx="5.56" ry="14" transform="translate(-26.03 11.68) rotate(-30)"/><ellipse class="cls-1" cx="44.15" cy="71.91" rx="5.56" ry="14" transform="translate(-30.04 31.71) rotate(-30)"/><ellipse class="cls-1" cx="38.54" cy="96.53" rx="5.56" ry="14" transform="translate(-43.1 32.2) rotate(-30)"/><ellipse class="cls-1" cx="16.35" cy="98" rx="14" ry="5.56" transform="translate(-76.69 63.16) rotate(-60)"/><ellipse class="cls-1" cx="27.41" cy="72.88" rx="14.25" ry="17.25"/><path class="cls-1" d="M30.79,30.49S32.16,12,41.16,13s10.25,13.5,10.25,13.5.25,4.5-4,3.13-5.33-10.25-5.33-10.25S35.79,27.28,36.79,32s-.87,4.38-.87,4.38l-6.37-2.62Z"/><path class="cls-1" d="M21.54,30.49S18.79.66,13.16.28,16,34.78,16,34.78l2.25,1.63L23,34.53Z"/><circle class="cls-1" cx="27.82" cy="45.82" r="15.33"/><ellipse class="cls-1" cx="22.29" cy="41.6" rx="0.75" ry="3.31"/><ellipse class="cls-1" cx="33.04" cy="41.6" rx="0.75" ry="3.31"/><line class="cls-1" x1="20.79" y1="48.41" x2="11.29" y2="51.41"/><line class="cls-1" x1="21.54" y1="51.41" x2="12.5" y2="57.41"/><line class="cls-1" x1="33.79" y1="48.41" x2="43.29" y2="51.41"/><line class="cls-1" x1="33.04" y1="51.41" x2="42.08" y2="57.41"/><line class="cls-1" x1="24.54" y1="49.91" x2="29.54" y2="53.78"/><line class="cls-1" x1="29.54" y1="49.91" x2="25.29" y2="53.78"/></g></g></g></svg>