<svg xmlns="http://www.w3.org/2000/svg" viewBox="0 0 47.38 60.3"><defs><style>.cls-1{fill:#fff;}.cls-1,.cls-2,.cls-3,.cls-4{stroke:#000;stroke-miterlimit:10;}.cls-1,.cls-2,.cls-4{stroke-width:0.25px;}.cls-2{fill:none;}.cls-3,.cls-4{fill:#fcfcfc;}.cls-3{stroke-width:0.5px;}</style></defs><title>btnScope</title><g id="Layer_2" data-name="Layer 2"><g id="Layer_1-2" data-name="Layer 1"><g id="stethoscope"><path d="M39.34,32.65a2.46,2.46,0,0,1-.65-.09C33.32,31.1,33,15.38,33,14.71l1,0c.08,4.35,1.14,15.86,5,16.9a1.44,1.44,0,0,0,1.26-.25c2.92-2,4.45-13,4.8-17.06l1,.08C46,15,44.68,29.44,40.79,32.16A2.5,2.5,0,0,1,39.34,32.65Z"/><path class="cls-1" d="M35.51,4.7s-2.69-.13-2.06,4.81.63,5.5.63,5.5l-1.44.38S28.88.89,34.69.51Z"/><ellipse class="cls-1" cx="35.08" cy="2.68" rx="0.7" ry="2.09" transform="matrix(0.99, -0.15, 0.15, 0.99, 0, 5.29)"/><path class="cls-1" d="M43.19,4.32s2.69-.13,2.06,4.81-.62,5.5-.62,5.5l1.44.38S49.81.51,44,.13Z"/><ellipse class="cls-1" cx="43.61" cy="2.3" rx="2.09" ry="0.7" transform="translate(34.79 45.07) rotate(-81.37)"/><path class="cls-2" d="M39.48,32.13c-.06.44.06,26.63-5.81,28s2.34-29.49-4.19-28c-6.18,1.41-.3,28.29-9.19,27.69-6.35-.43,9.78-33.12-.66-29.18C15.48,32.2,2.38,43.58,6.57,54.51c1,2.64,24.69-28.06,19.56-30.75C21.24,21.2-.06,34.76,3.38,38.14"/><path class="cls-3" d="M2.13,38.58s1.56,5.5-1.81,9.06l1.5,2.25L14.69,39.2l-1.75-1.94s-6.42,2.59-8.67-.16Z"/><ellipse class="cls-4" cx="8.25" cy="44.55" rx="8.37" ry="1.91" transform="translate(-26.53 15.52) rotate(-39.66)"/></g></g></g></svg>