<svg xmlns="http://www.w3.org/2000/svg" viewBox="0 0 235.96 34.61"><defs><style>.cls-1{fill:#932929;}</style></defs><title>title</title><g id="Layer_2" data-name="Layer 2"><g id="Layer_1-2" data-name="Layer 1"><g id="title_page" data-name="title page"><path class="cls-1" d="M45.53.58A3,3,0,0,1,47.18.1a3,3,0,0,1,2,.72A2.4,2.4,0,0,1,50,2.74,4.84,4.84,0,0,1,49.78,4L39.46,32.54A3,3,0,0,1,38.18,34a3.74,3.74,0,0,1-1.94.53,3.87,3.87,0,0,1-2-.53A2.71,2.71,0,0,1,33,32.54l-8-22.61L16.94,32.54A3,3,0,0,1,15.67,34a3.84,3.84,0,0,1-3.89,0,2.73,2.73,0,0,1-1.22-1.49L.24,4A4,4,0,0,1,0,2.74,2.35,2.35,0,0,1,.89.82,3.21,3.21,0,0,1,3,.1,3.2,3.2,0,0,1,4.7.58,2.67,2.67,0,0,1,5.81,2L14,25.49l8.4-23.33A3,3,0,0,1,23.47.65,2.82,2.82,0,0,1,25.15.1a2.93,2.93,0,0,1,1.7.55A3,3,0,0,1,28,2.21l8.16,23.57L44.45,2A2.71,2.71,0,0,1,45.53.58Z"/><path class="cls-1" d="M76.75,19.82V31.63A2.8,2.8,0,0,1,76,33.74a3,3,0,0,1-2.18.77,3.09,3.09,0,0,1-2.21-.77,2.76,2.76,0,0,1-.82-2.11V19.82a5.56,5.56,0,0,0-1-3.72,4.1,4.1,0,0,0-3.24-1.18,5.48,5.48,0,0,0-4.15,1.63,6.06,6.06,0,0,0-1.56,4.37v10.7A2.76,2.76,0,0,1,60,33.74a3.09,3.09,0,0,1-2.21.77,3,3,0,0,1-2.18-.77,2.8,2.8,0,0,1-.79-2.11V2.93a2.6,2.6,0,0,1,.84-2A3.11,3.11,0,0,1,57.79.14,3.15,3.15,0,0,1,60,.86a2.49,2.49,0,0,1,.82,2V14A7.85,7.85,0,0,1,64,11.16a10.11,10.11,0,0,1,4.54-1Q76.75,10.18,76.75,19.82Z"/><path class="cls-1" d="M87.24,33.12A10.29,10.29,0,0,1,83,28.85a13.54,13.54,0,0,1-1.49-6.48A13.4,13.4,0,0,1,83,15.91a10.33,10.33,0,0,1,4.2-4.25,14.13,14.13,0,0,1,12.62,0A10.19,10.19,0,0,1,104,15.91a13.59,13.59,0,0,1,1.46,6.46A13.73,13.73,0,0,1,104,28.85a10.15,10.15,0,0,1-4.18,4.27,14.13,14.13,0,0,1-12.62,0ZM98,28a8.92,8.92,0,0,0,1.54-5.66A8.94,8.94,0,0,0,98,16.73a5.3,5.3,0,0,0-4.42-1.94,5.36,5.36,0,0,0-4.44,1.94,8.84,8.84,0,0,0-1.56,5.64A8.92,8.92,0,0,0,89.09,28,5.32,5.32,0,0,0,93.5,30,5.38,5.38,0,0,0,98,28Z"/><path class="cls-1" d="M140.9,12.6Q143.28,15,143.28,20V31.68a2.71,2.71,0,0,1-.77,2,2.91,2.91,0,0,1-2.11.74,2.81,2.81,0,0,1-2-.77,2.68,2.68,0,0,1-.79-2V30.62A6.27,6.27,0,0,1,135,33.55a7.71,7.71,0,0,1-4.06,1.06,9.41,9.41,0,0,1-4.27-1,7.59,7.59,0,0,1-3-2.64,6.67,6.67,0,0,1-1.1-3.74,5.93,5.93,0,0,1,1.32-4.08,7.94,7.94,0,0,1,4.3-2.16,39.13,39.13,0,0,1,8.21-.67h1.2v-1.1a4.92,4.92,0,0,0-1-3.43,4.29,4.29,0,0,0-3.26-1.08,10.38,10.38,0,0,0-2.83.41q-1.44.41-3.41,1.18a4.8,4.8,0,0,1-1.82.62,1.8,1.8,0,0,1-1.42-.62,2.37,2.37,0,0,1-.55-1.63,2.46,2.46,0,0,1,.41-1.42A3.87,3.87,0,0,1,125,12.14a15.68,15.68,0,0,1,4-1.44,20.7,20.7,0,0,1,4.58-.53Q138.53,10.18,140.9,12.6Zm-4.85,16.08a5.82,5.82,0,0,0,1.51-4.15v-1h-.86a33.12,33.12,0,0,0-5,.29,4.84,4.84,0,0,0-2.54,1,2.57,2.57,0,0,0-.77,2,3.25,3.25,0,0,0,1.08,2.52,3.81,3.81,0,0,0,2.66,1A5.13,5.13,0,0,0,136.05,28.68Z"/><path class="cls-1" d="M183.14,12.46q2,2.28,2,7.37V31.63a2.7,2.7,0,0,1-.84,2.14,3.17,3.17,0,0,1-2.18.74,3.1,3.1,0,0,1-2.14-.74,2.7,2.7,0,0,1-.84-2.14V19.82a5.94,5.94,0,0,0-.94-3.77,3.5,3.5,0,0,0-2.86-1.13,4.7,4.7,0,0,0-3.74,1.61,6.48,6.48,0,0,0-1.39,4.39v10.7a2.7,2.7,0,0,1-.84,2.14,3.11,3.11,0,0,1-2.14.74,3.2,3.2,0,0,1-2.16-.74,2.66,2.66,0,0,1-.86-2.14V19.82a5.94,5.94,0,0,0-.94-3.77,3.5,3.5,0,0,0-2.86-1.13,4.63,4.63,0,0,0-3.72,1.61,6.56,6.56,0,0,0-1.37,4.39v10.7a2.66,2.66,0,0,1-.86,2.14,3.19,3.19,0,0,1-2.16.74,3.1,3.1,0,0,1-2.14-.74,2.7,2.7,0,0,1-.84-2.14V13.06a2.54,2.54,0,0,1,.86-2.06,3.26,3.26,0,0,1,2.16-.72,3,3,0,0,1,2,.7,2.51,2.51,0,0,1,.79,2v1.15a7.52,7.52,0,0,1,3-2.93,8.73,8.73,0,0,1,4.25-1q5.28,0,7.06,4.42a7.93,7.93,0,0,1,3.12-3.22,9.1,9.1,0,0,1,4.66-1.2A7.48,7.48,0,0,1,183.14,12.46Z"/><path class="cls-1" d="M205.65,33.65a3.1,3.1,0,0,1-.84-2.26V3.22A3,3,0,0,1,205.65,1a3,3,0,0,1,2.23-.84,3.08,3.08,0,0,1,2.28.84A3,3,0,0,1,211,3.22V31.39a3.1,3.1,0,0,1-.84,2.26,3,3,0,0,1-2.28.86A3,3,0,0,1,205.65,33.65Z"/><path class="cls-1" d="M223.84,23.86a2.32,2.32,0,0,1-.5-1.58,9.49,9.49,0,0,1,1-4.46,22.77,22.77,0,0,1,2.78-4,22.58,22.58,0,0,0,2.11-2.88,5.05,5.05,0,0,0,.67-2.59,3.05,3.05,0,0,0-1.18-2.52,5,5,0,0,0-3.19-.94,7.7,7.7,0,0,0-3.31.74,30.55,30.55,0,0,0-3.7,2.14,4.32,4.32,0,0,1-2,.67,1.77,1.77,0,0,1-1.42-.74,2.7,2.7,0,0,1-.6-1.75,2.69,2.69,0,0,1,1.15-2.26A15,15,0,0,1,220.41,1a16.23,16.23,0,0,1,5.52-1,12.76,12.76,0,0,1,5.21,1,8.45,8.45,0,0,1,3.55,2.78A6.83,6.83,0,0,1,236,7.87a7.8,7.8,0,0,1-1.2,4.34,26.68,26.68,0,0,1-3.5,4.15,31.42,31.42,0,0,0-3,3.38,6.82,6.82,0,0,0-1.22,3.1,1.9,1.9,0,0,1-.65,1.18,2,2,0,0,1-1.27.41A1.67,1.67,0,0,1,223.84,23.86Zm-1.13,9.62a3.78,3.78,0,0,1,0-5.14,3.65,3.65,0,0,1,5.09,0,3.53,3.53,0,0,1,1,2.57,3.48,3.48,0,0,1-1,2.57,3.62,3.62,0,0,1-5.06,0Z"/></g></g></g></svg>